0,0, Header,1,1,480
2, 0, Start_track
2,240, Note_on_c,0,81,60
2,240, Note_on_c,0,57,48
2,480, Note_on_c,0,81,0
2,480, Note_on_c,0,88,66
2,480, Note_on_c,0,57,0
2,480, Note_on_c,0,64,52
2,2040, Note_on_c,0,88,0
2,2040, Note_on_c,0,86,55
2,2040, Note_on_c,0,64,0
2,2040, Note_on_c,0,62,42
2,2100, Note_on_c,0,86,0
2,2100, Note_on_c,0,88,47
2,2100, Note_on_c,0,62,0
2,2100, Note_on_c,0,64,42
2,2160, Note_on_c,0,88,0
2,2160, Note_on_c,0,86,62
2,2160, Note_on_c,0,64,0
2,2160, Note_on_c,0,62,49
2,2400, Note_on_c,0,86,0
2,2400, Note_on_c,0,84,57
2,2400, Note_on_c,0,62,0
2,2400, Note_on_c,0,60,45
2,2640, Note_on_c,0,84,0
2,2640, Note_on_c,0,86,57
2,2640, Note_on_c,0,60,0
2,2640, Note_on_c,0,62,45
2,2880, Note_on_c,0,86,0
2,2880, Note_on_c,0,88,62
2,2880, Note_on_c,0,62,0
2,2880, Note_on_c,0,64,49
2,3120, Note_on_c,0,88,0
2,3120, Note_on_c,0,89,64
2,3120, Note_on_c,0,64,0
2,3120, Note_on_c,0,65,51
2,3360, Note_on_c,0,89,0
2,3360, Note_on_c,0,91,67
2,3360, Note_on_c,0,65,0
2,3360, Note_on_c,0,67,53
2,3600, Note_on_c,0,91,0
2,3600, Note_on_c,0,88,66
2,3600, Note_on_c,0,67,0
2,3600, Note_on_c,0,64,52
2,3840, Note_on_c,0,88,0
2,3840, Note_on_c,0,89,64
2,3840, Note_on_c,0,64,0
2,3840, Note_on_c,0,65,51
2,4080, Note_on_c,0,89,0
2,4080, Note_on_c,0,88,61
2,4080, Note_on_c,0,65,0
2,4080, Note_on_c,0,64,48
2,4200, Note_on_c,0,88,0
2,4200, Note_on_c,0,86,59
2,4200, Note_on_c,0,64,0
2,4200, Note_on_c,0,62,49
2,4260, Note_on_c,0,86,0
2,4260, Note_on_c,0,88,55
2,4260, Note_on_c,0,62,0
2,4260, Note_on_c,0,64,48
2,4320, Note_on_c,0,88,0
2,4320, Note_on_c,0,86,67
2,4320, Note_on_c,0,64,0
2,4320, Note_on_c,0,62,53
2,4800, Note_on_c,0,86,0
2,4800, Note_on_c,0,84,60
2,4800, Note_on_c,0,62,0
2,4800, Note_on_c,0,60,48
2,5280, Note_on_c,0,84,0
2,5280, Note_on_c,0,82,57
2,5280, Note_on_c,0,60,0
2,5280, Note_on_c,0,58,48
2,5760, Note_on_c,0,82,0
2,5760, Note_on_c,0,58,0
2,5760, Note_on_c,0,45,42
2,6000, Note_on_c,0,57,50
2,6000, Note_on_c,0,45,0
2,6000, Note_on_c,0,52,39
2,6240, Note_on_c,0,57,0
2,6240, Note_on_c,0,61,51
2,6240, Note_on_c,0,52,0
2,6240, Note_on_c,0,57,39
2,6480, Note_on_c,0,61,0
2,6480, Note_on_c,0,64,54
2,6480, Note_on_c,0,57,0
2,6480, Note_on_c,0,61,40
2,6720, Note_on_c,0,64,0
2,6720, Note_on_c,0,69,57
2,6720, Note_on_c,0,61,0
2,6720, Note_on_c,0,64,43
2,6960, Note_on_c,0,69,0
2,6960, Note_on_c,0,73,58
2,6960, Note_on_c,0,64,0
2,6960, Note_on_c,0,69,44
2,7200, Note_on_c,0,73,0
2,7200, Note_on_c,0,76,61
2,7200, Note_on_c,0,69,0
2,7200, Note_on_c,0,73,48
2,7440, Note_on_c,0,76,0
2,7440, Note_on_c,0,69,50
2,7440, Note_on_c,0,73,0
2,7440, Note_on_c,0,61,39
2,7680, Note_on_c,0,69,0
2,7680, Note_on_c,0,73,51
2,7680, Note_on_c,0,61,0
2,7680, Note_on_c,0,64,39
2,7920, Note_on_c,0,73,0
2,7920, Note_on_c,0,76,54
2,7920, Note_on_c,0,64,0
2,7920, Note_on_c,0,69,40
2,8160, Note_on_c,0,76,0
2,8160, Note_on_c,0,81,57
2,8160, Note_on_c,0,69,0
2,8160, Note_on_c,0,73,43
2,8400, Note_on_c,0,81,0
2,8400, Note_on_c,0,85,58
2,8400, Note_on_c,0,73,0
2,8400, Note_on_c,0,76,44
2,8640, Note_on_c,0,85,0
2,8640, Note_on_c,0,88,64
2,8640, Note_on_c,0,76,0
2,8640, Note_on_c,0,81,49
2,8880, Note_on_c,0,88,0
2,8880, Note_on_c,0,85,60
2,8880, Note_on_c,0,81,0
2,8880, Note_on_c,0,76,43
2,9120, Note_on_c,0,85,0
2,9120, Note_on_c,0,81,58
2,9120, Note_on_c,0,76,0
2,9120, Note_on_c,0,73,43
2,9360, Note_on_c,0,81,0
2,9360, Note_on_c,0,76,57
2,9360, Note_on_c,0,73,0
2,9360, Note_on_c,0,69,42
2,9600, Note_on_c,0,76,0
2,9600, Note_on_c,0,73,55
2,9600, Note_on_c,0,69,0
2,9600, Note_on_c,0,64,40
2,9840, Note_on_c,0,73,0
2,9840, Note_on_c,0,69,53
2,9840, Note_on_c,0,64,0
2,9840, Note_on_c,0,61,40
2,10080, Note_on_c,0,69,0
2,10080, Note_on_c,0,76,51
2,10080, Note_on_c,0,61,0
2,10080, Note_on_c,0,69,36
2,10320, Note_on_c,0,76,0
2,10320, Note_on_c,0,73,48
2,10320, Note_on_c,0,69,0
2,10320, Note_on_c,0,64,35
2,10560, Note_on_c,0,73,0
2,10560, Note_on_c,0,69,46
2,10560, Note_on_c,0,64,0
2,10560, Note_on_c,0,61,34
2,10800, Note_on_c,0,69,0
2,10800, Note_on_c,0,64,44
2,10800, Note_on_c,0,61,0
2,10800, Note_on_c,0,57,32
2,11038, Note_on_c,0,57,0
2,11040, Note_on_c,0,64,0
2,11040, Note_on_c,0,61,44
2,11040, Note_on_c,0,57,30
2,11277, Note_on_c,0,57,0
2,11280, Note_on_c,0,61,0
2,11280, Note_on_c,0,57,42
2,11280, Note_on_c,0,52,30
2,11520, Note_on_c,0,57,0
2,11520, Note_on_c,0,52,0
2,11520, Note_on_c,0,45,39
2,11760, Note_on_c,0,81,51
2,11760, Note_on_c,0,45,0
2,11760, Note_on_c,0,57,40
2,12000, Note_on_c,0,81,0
2,12000, Note_on_c,0,88,56
2,12000, Note_on_c,0,57,0
2,12000, Note_on_c,0,64,44
2,13560, Note_on_c,0,88,0
2,13560, Note_on_c,0,86,46
2,13560, Note_on_c,0,64,0
2,13560, Note_on_c,0,62,39
2,13620, Note_on_c,0,86,0
2,13620, Note_on_c,0,88,41
2,13620, Note_on_c,0,62,0
2,13620, Note_on_c,0,64,35
2,13680, Note_on_c,0,88,0
2,13680, Note_on_c,0,86,52
2,13680, Note_on_c,0,64,0
2,13680, Note_on_c,0,62,41
2,13920, Note_on_c,0,86,0
2,13920, Note_on_c,0,84,48
2,13920, Note_on_c,0,62,0
2,13920, Note_on_c,0,60,38
2,14160, Note_on_c,0,84,0
2,14160, Note_on_c,0,86,48
2,14160, Note_on_c,0,60,0
2,14160, Note_on_c,0,62,38
2,14400, Note_on_c,0,86,0
2,14400, Note_on_c,0,88,52
2,14400, Note_on_c,0,62,0
2,14400, Note_on_c,0,64,41
2,14640, Note_on_c,0,88,0
2,14640, Note_on_c,0,89,54
2,14640, Note_on_c,0,64,0
2,14640, Note_on_c,0,65,43
2,14880, Note_on_c,0,89,0
2,14880, Note_on_c,0,91,56
2,14880, Note_on_c,0,65,0
2,14880, Note_on_c,0,67,45
2,15120, Note_on_c,0,91,0
2,15120, Note_on_c,0,88,56
2,15120, Note_on_c,0,67,0
2,15120, Note_on_c,0,64,44
2,15360, Note_on_c,0,88,0
2,15360, Note_on_c,0,89,54
2,15360, Note_on_c,0,64,0
2,15360, Note_on_c,0,65,43
2,15600, Note_on_c,0,89,0
2,15600, Note_on_c,0,88,51
2,15600, Note_on_c,0,65,0
2,15600, Note_on_c,0,64,40
2,15720, Note_on_c,0,88,0
2,15720, Note_on_c,0,86,51
2,15720, Note_on_c,0,64,0
2,15720, Note_on_c,0,62,40
2,15780, Note_on_c,0,86,0
2,15780, Note_on_c,0,88,47
2,15780, Note_on_c,0,62,0
2,15780, Note_on_c,0,64,37
2,15840, Note_on_c,0,88,0
2,15840, Note_on_c,0,86,56
2,15840, Note_on_c,0,64,0
2,15840, Note_on_c,0,62,45
2,16320, Note_on_c,0,86,0
2,16320, Note_on_c,0,84,51
2,16320, Note_on_c,0,62,0
2,16320, Note_on_c,0,60,40
2,16800, Note_on_c,0,84,0
2,16800, Note_on_c,0,82,48
2,16800, Note_on_c,0,60,0
2,16800, Note_on_c,0,58,38
2,17280, Note_on_c,0,82,0
2,17280, Note_on_c,0,81,44
2,17280, Note_on_c,0,58,0
2,17280, Note_on_c,0,57,32
2,17520, Note_on_c,0,81,0
2,17520, Note_on_c,0,82,46
2,17520, Note_on_c,0,57,0
2,17520, Note_on_c,0,58,34
2,17760, Note_on_c,0,82,0
2,17760, Note_on_c,0,84,48
2,17760, Note_on_c,0,58,0
2,17760, Note_on_c,0,60,36
2,18000, Note_on_c,0,84,0
2,18000, Note_on_c,0,86,50
2,18000, Note_on_c,0,60,0
2,18000, Note_on_c,0,62,37
2,18240, Note_on_c,0,86,0
2,18240, Note_on_c,0,89,52
2,18240, Note_on_c,0,62,0
2,18240, Note_on_c,0,65,39
2,18600, Note_on_c,0,89,0
2,18600, Note_on_c,0,86,49
2,18600, Note_on_c,0,65,0
2,18600, Note_on_c,0,62,40
2,18660, Note_on_c,0,86,0
2,18660, Note_on_c,0,88,42
2,18660, Note_on_c,0,62,0
2,18660, Note_on_c,0,64,37
2,18720, Note_on_c,0,88,0
2,18720, Note_on_c,0,86,56
2,18720, Note_on_c,0,64,0
2,18720, Note_on_c,0,62,45
2,19200, Note_on_c,0,86,0
2,19200, Note_on_c,0,84,51
2,19200, Note_on_c,0,62,0
2,19200, Note_on_c,0,60,40
2,19680, Note_on_c,0,84,0
2,19680, Note_on_c,0,82,48
2,19680, Note_on_c,0,60,0
2,19680, Note_on_c,0,58,40
2,20160, Note_on_c,0,82,0
2,20160, Note_on_c,0,81,46
2,20160, Note_on_c,0,58,0
2,20160, Note_on_c,0,57,32
2,20400, Note_on_c,0,81,0
2,20400, Note_on_c,0,82,47
2,20400, Note_on_c,0,57,0
2,20400, Note_on_c,0,58,33
2,20640, Note_on_c,0,82,0
2,20640, Note_on_c,0,84,49
2,20640, Note_on_c,0,58,0
2,20640, Note_on_c,0,60,35
2,20880, Note_on_c,0,84,0
2,20880, Note_on_c,0,86,51
2,20880, Note_on_c,0,60,0
2,20880, Note_on_c,0,62,37
2,21120, Note_on_c,0,86,0
2,21120, Note_on_c,0,88,53
2,21120, Note_on_c,0,62,0
2,21120, Note_on_c,0,64,39
2,21360, Note_on_c,0,88,0
2,21360, Note_on_c,0,91,57
2,21360, Note_on_c,0,64,0
2,21360, Note_on_c,0,67,40
2,21600, Note_on_c,0,91,0
2,21600, Note_on_c,0,89,55
2,21600, Note_on_c,0,67,0
2,21600, Note_on_c,0,65,43
2,21720, Note_on_c,0,89,0
2,21720, Note_on_c,0,86,46
2,21720, Note_on_c,0,65,0
2,21720, Note_on_c,0,62,34
2,21780, Note_on_c,0,86,0
2,21780, Note_on_c,0,88,40
2,21780, Note_on_c,0,62,0
2,21780, Note_on_c,0,64,32
2,21840, Note_on_c,0,88,0
2,21840, Note_on_c,0,86,50
2,21840, Note_on_c,0,64,0
2,21840, Note_on_c,0,62,37
2,22080, Note_on_c,0,86,0
2,22080, Note_on_c,0,84,50
2,22080, Note_on_c,0,62,0
2,22080, Note_on_c,0,60,37
2,22320, Note_on_c,0,84,0
2,22320, Note_on_c,0,82,45
2,22320, Note_on_c,0,60,0
2,22320, Note_on_c,0,58,33
2,22560, Note_on_c,0,82,0
2,22560, Note_on_c,0,86,49
2,22560, Note_on_c,0,58,0
2,22560, Note_on_c,0,62,36
2,22800, Note_on_c,0,86,0
2,22800, Note_on_c,0,85,44
2,22800, Note_on_c,0,62,0
2,22800, Note_on_c,0,61,33
2,23040, Note_on_c,0,85,0
2,23040, Note_on_c,0,61,0
2,23040, Note_on_c,0,45,67
2,23200, Note_on_c,0,70,51
2,23200, Note_on_c,0,61,29
2,23360, Note_on_c,0,70,0
2,23360, Note_on_c,0,69,46
2,23520, Note_on_c,0,69,0
2,23520, Note_on_c,0,61,0
2,23520, Note_on_c,0,45,0
2,23520, Note_on_c,0,52,55
2,23680, Note_on_c,0,61,29
2,23680, Note_on_c,0,70,52
2,23840, Note_on_c,0,70,0
2,23840, Note_on_c,0,69,45
2,24000, Note_on_c,0,69,0
2,24000, Note_on_c,0,61,0
2,24000, Note_on_c,0,52,0
2,24000, Note_on_c,0,57,55
2,24160, Note_on_c,0,61,29
2,24160, Note_on_c,0,70,51
2,24320, Note_on_c,0,70,0
2,24320, Note_on_c,0,69,45
2,24480, Note_on_c,0,69,0
2,24480, Note_on_c,0,61,0
2,24480, Note_on_c,0,57,0
2,24480, Note_on_c,0,45,68
2,24640, Note_on_c,0,62,27
2,24640, Note_on_c,0,69,48
2,24800, Note_on_c,0,69,0
2,24800, Note_on_c,0,67,41
2,24960, Note_on_c,0,67,0
2,24960, Note_on_c,0,62,0
2,24960, Note_on_c,0,45,0
2,24960, Note_on_c,0,52,55
2,25120, Note_on_c,0,69,48
2,25120, Note_on_c,0,62,27
2,25280, Note_on_c,0,69,0
2,25280, Note_on_c,0,67,40
2,25440, Note_on_c,0,67,0
2,25440, Note_on_c,0,62,0
2,25440, Note_on_c,0,52,0
2,25440, Note_on_c,0,58,55
2,25600, Note_on_c,0,62,27
2,25600, Note_on_c,0,69,47
2,25760, Note_on_c,0,69,0
2,25760, Note_on_c,0,67,40
2,25920, Note_on_c,0,67,0
2,25920, Note_on_c,0,62,0
2,25920, Note_on_c,0,58,0
2,25920, Note_on_c,0,45,65
2,26080, Note_on_c,0,61,29
2,26080, Note_on_c,0,70,51
2,26240, Note_on_c,0,70,0
2,26240, Note_on_c,0,69,46
2,26400, Note_on_c,0,69,0
2,26400, Note_on_c,0,61,0
2,26400, Note_on_c,0,45,0
2,26400, Note_on_c,0,52,52
2,26560, Note_on_c,0,70,52
2,26560, Note_on_c,0,61,42
2,26720, Note_on_c,0,70,0
2,26720, Note_on_c,0,69,45
2,26880, Note_on_c,0,69,0
2,26880, Note_on_c,0,61,0
2,26880, Note_on_c,0,52,0
2,26880, Note_on_c,0,57,52
2,27040, Note_on_c,0,61,42
2,27040, Note_on_c,0,70,51
2,27200, Note_on_c,0,70,0
2,27200, Note_on_c,0,69,45
2,27360, Note_on_c,0,69,0
2,27360, Note_on_c,0,61,0
2,27360, Note_on_c,0,57,0
2,27360, Note_on_c,0,45,64
2,27520, Note_on_c,0,70,48
2,27520, Note_on_c,0,62,27
2,27680, Note_on_c,0,70,0
2,27680, Note_on_c,0,69,41
2,27840, Note_on_c,0,69,0
2,27840, Note_on_c,0,62,0
2,27840, Note_on_c,0,45,0
2,27840, Note_on_c,0,52,55
2,28000, Note_on_c,0,69,48
2,28000, Note_on_c,0,62,27
2,28160, Note_on_c,0,69,0
2,28160, Note_on_c,0,67,40
2,28320, Note_on_c,0,67,0
2,28320, Note_on_c,0,62,0
2,28320, Note_on_c,0,52,0
2,28320, Note_on_c,0,58,54
2,28480, Note_on_c,0,67,47
2,28480, Note_on_c,0,62,27
2,28640, Note_on_c,0,67,0
2,28640, Note_on_c,0,64,40
2,28800, Note_on_c,0,64,0
2,28800, Note_on_c,0,62,0
2,28800, Note_on_c,0,58,0
2,28800, Note_on_c,0,45,69
2,28960, Note_on_c,0,61,30
2,28960, Note_on_c,0,70,53
2,29120, Note_on_c,0,70,0
2,29120, Note_on_c,0,69,48
2,29280, Note_on_c,0,69,0
2,29280, Note_on_c,0,61,0
2,29280, Note_on_c,0,45,0
2,29280, Note_on_c,0,52,57
2,29440, Note_on_c,0,70,55
2,29440, Note_on_c,0,61,31
2,29600, Note_on_c,0,70,0
2,29600, Note_on_c,0,69,48
2,29760, Note_on_c,0,69,0
2,29760, Note_on_c,0,61,0
2,29760, Note_on_c,0,52,0
2,29760, Note_on_c,0,57,58
2,29920, Note_on_c,0,70,56
2,29920, Note_on_c,0,61,31
2,30080, Note_on_c,0,70,0
2,30080, Note_on_c,0,69,49
2,30240, Note_on_c,0,69,0
2,30240, Note_on_c,0,61,0
2,30240, Note_on_c,0,57,0
2,30240, Note_on_c,0,41,66
2,30400, Note_on_c,0,67,57
2,30400, Note_on_c,0,57,32
2,30560, Note_on_c,0,67,0
2,30560, Note_on_c,0,65,50
2,30720, Note_on_c,0,65,0
2,30720, Note_on_c,0,57,0
2,30720, Note_on_c,0,41,0
2,30720, Note_on_c,0,48,51
2,30880, Note_on_c,0,57,33
2,30880, Note_on_c,0,67,58
2,31040, Note_on_c,0,67,0
2,31040, Note_on_c,0,65,48
2,31200, Note_on_c,0,65,0
2,31200, Note_on_c,0,57,0
2,31200, Note_on_c,0,48,0
2,31200, Note_on_c,0,57,69
2,31350, Note_on_c,0,57,0
2,31360, Note_on_c,0,67,58
2,31360, Note_on_c,0,57,32
2,31520, Note_on_c,0,67,0
2,31520, Note_on_c,0,65,49
2,31680, Note_on_c,0,65,0
2,31680, Note_on_c,0,57,0
2,31680, Note_on_c,0,48,74
2,31840, Note_on_c,0,60,34
2,31840, Note_on_c,0,65,60
2,32000, Note_on_c,0,65,0
2,32000, Note_on_c,0,64,53
2,32160, Note_on_c,0,64,0
2,32160, Note_on_c,0,60,0
2,32160, Note_on_c,0,48,0
2,32160, Note_on_c,0,55,73
2,32320, Note_on_c,0,65,61
2,32320, Note_on_c,0,60,35
2,32480, Note_on_c,0,65,0
2,32480, Note_on_c,0,64,51
2,32640, Note_on_c,0,64,0
2,32640, Note_on_c,0,60,0
2,32640, Note_on_c,0,55,0
2,32640, Note_on_c,0,60,69
2,32790, Note_on_c,0,60,0
2,32800, Note_on_c,0,60,34
2,32800, Note_on_c,0,65,61
2,32960, Note_on_c,0,65,0
2,32960, Note_on_c,0,64,52
2,33120, Note_on_c,0,64,0
2,33120, Note_on_c,0,60,0
2,33120, Note_on_c,0,55,66
2,33240, Note_on_c,0,55,0
2,33280, Note_on_c,0,64,58
2,33280, Note_on_c,0,58,33
2,33440, Note_on_c,0,64,0
2,33440, Note_on_c,0,62,50
2,33600, Note_on_c,0,62,0
2,33600, Note_on_c,0,58,0
2,33600, Note_on_c,0,57,59
2,33720, Note_on_c,0,57,0
2,33760, Note_on_c,0,64,55
2,33760, Note_on_c,0,58,31
2,33920, Note_on_c,0,64,0
2,33920, Note_on_c,0,62,44
2,34020, Note_on_c,0,60,55
2,34080, Note_on_c,0,62,0
2,34080, Note_on_c,0,58,0
2,34080, Note_on_c,0,60,0
2,34080, Note_on_c,0,58,53
2,34200, Note_on_c,0,58,0
2,34240, Note_on_c,0,64,52
2,34240, Note_on_c,0,58,29
2,34400, Note_on_c,0,64,0
2,34400, Note_on_c,0,62,42
2,34560, Note_on_c,0,62,0
2,34560, Note_on_c,0,58,0
2,34560, Note_on_c,0,45,64
2,34720, Note_on_c,0,61,29
2,34720, Note_on_c,0,70,51
2,34880, Note_on_c,0,70,0
2,34880, Note_on_c,0,69,46
2,35040, Note_on_c,0,69,0
2,35040, Note_on_c,0,61,0
2,35040, Note_on_c,0,45,0
2,35040, Note_on_c,0,52,55
2,35200, Note_on_c,0,61,29
2,35200, Note_on_c,0,70,52
2,35360, Note_on_c,0,70,0
2,35360, Note_on_c,0,69,45
2,35520, Note_on_c,0,69,0
2,35520, Note_on_c,0,61,0
2,35520, Note_on_c,0,52,0
2,35520, Note_on_c,0,57,55
2,35680, Note_on_c,0,61,29
2,35680, Note_on_c,0,70,51
2,35840, Note_on_c,0,70,0
2,35840, Note_on_c,0,69,45
2,36000, Note_on_c,0,69,0
2,36000, Note_on_c,0,61,0
2,36000, Note_on_c,0,57,0
2,36000, Note_on_c,0,45,65
2,36160, Note_on_c,0,69,48
2,36160, Note_on_c,0,62,27
2,36320, Note_on_c,0,69,0
2,36320, Note_on_c,0,67,41
2,36480, Note_on_c,0,67,0
2,36480, Note_on_c,0,62,0
2,36480, Note_on_c,0,45,0
2,36480, Note_on_c,0,52,55
2,36640, Note_on_c,0,62,27
2,36640, Note_on_c,0,69,48
2,36800, Note_on_c,0,69,0
2,36800, Note_on_c,0,67,40
2,36960, Note_on_c,0,67,0
2,36960, Note_on_c,0,62,0
2,36960, Note_on_c,0,52,0
2,36960, Note_on_c,0,58,55
2,37120, Note_on_c,0,62,27
2,37120, Note_on_c,0,69,47
2,37280, Note_on_c,0,69,0
2,37280, Note_on_c,0,67,40
2,37440, Note_on_c,0,67,0
2,37440, Note_on_c,0,62,0
2,37440, Note_on_c,0,58,0
2,37440, Note_on_c,0,45,66
2,37600, Note_on_c,0,70,51
2,37600, Note_on_c,0,61,29
2,37760, Note_on_c,0,70,0
2,37760, Note_on_c,0,69,46
2,37920, Note_on_c,0,69,0
2,37920, Note_on_c,0,61,0
2,37920, Note_on_c,0,45,0
2,37920, Note_on_c,0,52,55
2,38080, Note_on_c,0,61,29
2,38080, Note_on_c,0,70,52
2,38240, Note_on_c,0,70,0
2,38240, Note_on_c,0,69,45
2,38400, Note_on_c,0,69,0
2,38400, Note_on_c,0,61,0
2,38400, Note_on_c,0,52,0
2,38400, Note_on_c,0,57,55
2,38560, Note_on_c,0,70,51
2,38560, Note_on_c,0,61,29
2,38720, Note_on_c,0,70,0
2,38720, Note_on_c,0,69,45
2,38880, Note_on_c,0,69,0
2,38880, Note_on_c,0,61,0
2,38880, Note_on_c,0,57,0
2,38880, Note_on_c,0,45,61
2,39040, Note_on_c,0,69,48
2,39040, Note_on_c,0,62,27
2,39200, Note_on_c,0,69,0
2,39200, Note_on_c,0,67,41
2,39360, Note_on_c,0,67,0
2,39360, Note_on_c,0,62,0
2,39360, Note_on_c,0,45,0
2,39360, Note_on_c,0,52,55
2,39520, Note_on_c,0,62,27
2,39520, Note_on_c,0,69,48
2,39680, Note_on_c,0,69,0
2,39680, Note_on_c,0,67,40
2,39840, Note_on_c,0,67,0
2,39840, Note_on_c,0,62,0
2,39840, Note_on_c,0,52,0
2,39840, Note_on_c,0,58,55
2,40000, Note_on_c,0,69,47
2,40000, Note_on_c,0,62,27
2,40160, Note_on_c,0,69,0
2,40160, Note_on_c,0,67,40
2,40320, Note_on_c,0,67,0
2,40320, Note_on_c,0,62,0
2,40320, Note_on_c,0,58,0
2,40320, Note_on_c,0,45,49
2,40560, Note_on_c,0,81,53
2,40560, Note_on_c,0,45,0
2,40560, Note_on_c,0,57,45
2,40800, Note_on_c,0,81,0
2,40800, Note_on_c,0,83,56
2,40800, Note_on_c,0,57,0
2,40800, Note_on_c,0,59,47
2,41040, Note_on_c,0,83,0
2,41040, Note_on_c,0,85,57
2,41040, Note_on_c,0,59,0
2,41040, Note_on_c,0,61,48
2,41280, Note_on_c,0,85,0
2,41280, Note_on_c,0,86,59
2,41280, Note_on_c,0,61,0
2,41280, Note_on_c,0,62,49
2,41520, Note_on_c,0,86,0
2,41520, Note_on_c,0,88,61
2,41520, Note_on_c,0,62,0
2,41520, Note_on_c,0,64,51
2,41760, Note_on_c,0,88,0
2,41760, Note_on_c,0,89,62
2,41760, Note_on_c,0,64,0
2,41760, Note_on_c,0,65,52
2,42120, Note_on_c,0,89,0
2,42120, Note_on_c,0,88,55
2,42120, Note_on_c,0,65,0
2,42120, Note_on_c,0,64,48
2,42180, Note_on_c,0,88,0
2,42180, Note_on_c,0,89,51
2,42180, Note_on_c,0,64,0
2,42180, Note_on_c,0,65,45
2,42240, Note_on_c,0,89,0
2,42240, Note_on_c,0,88,61
2,42240, Note_on_c,0,65,0
2,42240, Note_on_c,0,64,51
2,42480, Note_on_c,0,88,0
2,42480, Note_on_c,0,86,57
2,42480, Note_on_c,0,64,0
2,42480, Note_on_c,0,62,48
2,42720, Note_on_c,0,86,0
2,42720, Note_on_c,0,84,56
2,42720, Note_on_c,0,62,0
2,42720, Note_on_c,0,60,47
2,42960, Note_on_c,0,84,0
2,42960, Note_on_c,0,86,59
2,42960, Note_on_c,0,60,0
2,42960, Note_on_c,0,62,49
2,43200, Note_on_c,0,86,0
2,43200, Note_on_c,0,88,57
2,43200, Note_on_c,0,62,0
2,43200, Note_on_c,0,64,45
2,43440, Note_on_c,0,88,0
2,43440, Note_on_c,0,89,59
2,43440, Note_on_c,0,64,0
2,43440, Note_on_c,0,65,47
2,43680, Note_on_c,0,89,0
2,43680, Note_on_c,0,91,61
2,43680, Note_on_c,0,65,0
2,43680, Note_on_c,0,67,49
2,43920, Note_on_c,0,91,0
2,43920, Note_on_c,0,88,61
2,43920, Note_on_c,0,67,0
2,43920, Note_on_c,0,64,48
2,44160, Note_on_c,0,88,0
2,44160, Note_on_c,0,89,59
2,44160, Note_on_c,0,64,0
2,44160, Note_on_c,0,65,47
2,44400, Note_on_c,0,89,0
2,44400, Note_on_c,0,88,56
2,44400, Note_on_c,0,65,0
2,44400, Note_on_c,0,64,44
2,44520, Note_on_c,0,88,0
2,44520, Note_on_c,0,86,55
2,44520, Note_on_c,0,64,0
2,44520, Note_on_c,0,62,47
2,44580, Note_on_c,0,86,0
2,44580, Note_on_c,0,88,51
2,44580, Note_on_c,0,62,0
2,44580, Note_on_c,0,64,44
2,44640, Note_on_c,0,88,0
2,44640, Note_on_c,0,86,61
2,44640, Note_on_c,0,64,0
2,44640, Note_on_c,0,62,49
2,45120, Note_on_c,0,86,0
2,45120, Note_on_c,0,84,56
2,45120, Note_on_c,0,62,0
2,45120, Note_on_c,0,60,44
2,45600, Note_on_c,0,84,0
2,45600, Note_on_c,0,82,52
2,45600, Note_on_c,0,60,0
2,45600, Note_on_c,0,58,41
2,46080, Note_on_c,0,82,0
2,46080, Note_on_c,0,81,57
2,46080, Note_on_c,0,58,0
2,46080, Note_on_c,0,57,48
2,46320, Note_on_c,0,81,0
2,46320, Note_on_c,0,83,58
2,46320, Note_on_c,0,57,0
2,46320, Note_on_c,0,59,49
2,46560, Note_on_c,0,83,0
2,46560, Note_on_c,0,85,60
2,46560, Note_on_c,0,59,0
2,46560, Note_on_c,0,61,50
2,46800, Note_on_c,0,85,0
2,46800, Note_on_c,0,86,61
2,46800, Note_on_c,0,61,0
2,46800, Note_on_c,0,62,50
2,47040, Note_on_c,0,86,0
2,47040, Note_on_c,0,88,63
2,47040, Note_on_c,0,62,0
2,47040, Note_on_c,0,64,51
2,47280, Note_on_c,0,88,0
2,47280, Note_on_c,0,89,64
2,47280, Note_on_c,0,64,0
2,47280, Note_on_c,0,65,52
2,47520, Note_on_c,0,89,0
2,47520, Note_on_c,0,91,71
2,47520, Note_on_c,0,65,0
2,47520, Note_on_c,0,67,53
2,47760, Note_on_c,0,91,0
2,47760, Note_on_c,0,93,75
2,47760, Note_on_c,0,67,0
2,47760, Note_on_c,0,69,57
2,47880, Note_on_c,0,93,0
2,47880, Note_on_c,0,94,73
2,47880, Note_on_c,0,69,0
2,47880, Note_on_c,0,70,56
2,47940, Note_on_c,0,94,0
2,47940, Note_on_c,0,96,71
2,47940, Note_on_c,0,70,0
2,47940, Note_on_c,0,72,52
2,48000, Note_on_c,0,96,0
2,48000, Note_on_c,0,94,79
2,48000, Note_on_c,0,72,0
2,48000, Note_on_c,0,70,63
2,48480, Note_on_c,0,94,0
2,48480, Note_on_c,0,93,76
2,48480, Note_on_c,0,70,0
2,48480, Note_on_c,0,69,58
2,48720, Note_on_c,0,93,0
2,48720, Note_on_c,0,91,74
2,48720, Note_on_c,0,69,0
2,48720, Note_on_c,0,67,56
2,48960, Note_on_c,0,91,0
2,48960, Note_on_c,0,93,78
2,48960, Note_on_c,0,67,0
2,48960, Note_on_c,0,69,58
2,49440, Note_on_c,0,93,0
2,49440, Note_on_c,0,93,79
2,49440, Note_on_c,0,69,0
2,49440, Note_on_c,0,69,60
2,49680, Note_on_c,0,93,0
2,49680, Note_on_c,0,91,76
2,49680, Note_on_c,0,69,0
2,49680, Note_on_c,0,67,58
2,49920, Note_on_c,0,91,0
2,49920, Note_on_c,0,94,83
2,49920, Note_on_c,0,67,0
2,49920, Note_on_c,0,70,62
2,50160, Note_on_c,0,94,0
2,50160, Note_on_c,0,93,78
2,50160, Note_on_c,0,70,0
2,50160, Note_on_c,0,69,58
2,50280, Note_on_c,0,93,0
2,50280, Note_on_c,0,89,64
2,50280, Note_on_c,0,69,0
2,50280, Note_on_c,0,65,45
2,50340, Note_on_c,0,89,0
2,50340, Note_on_c,0,91,56
2,50340, Note_on_c,0,65,0
2,50340, Note_on_c,0,67,38
2,50400, Note_on_c,0,91,0
2,50400, Note_on_c,0,89,72
2,50400, Note_on_c,0,67,0
2,50400, Note_on_c,0,65,49
2,50640, Note_on_c,0,89,0
2,50640, Note_on_c,0,87,64
2,50640, Note_on_c,0,65,0
2,50640, Note_on_c,0,63,49
2,50880, Note_on_c,0,87,0
2,50880, Note_on_c,0,86,69
2,50880, Note_on_c,0,63,0
2,50880, Note_on_c,0,62,55
2,51120, Note_on_c,0,86,0
2,51120, Note_on_c,0,88,61
2,51120, Note_on_c,0,62,0
2,51120, Note_on_c,0,64,43
2,51360, Note_on_c,0,88,0
2,51360, Note_on_c,0,84,62
2,51360, Note_on_c,0,64,0
2,51360, Note_on_c,0,60,46
2,51600, Note_on_c,0,84,0
2,51600, Note_on_c,0,82,51
2,51600, Note_on_c,0,60,0
2,51600, Note_on_c,0,58,51
2,51840, Note_on_c,0,82,0
2,51840, Note_on_c,0,58,0
2,51840, Note_on_c,0,45,61
2,52000, Note_on_c,0,61,29
2,52000, Note_on_c,0,70,51
2,52160, Note_on_c,0,70,0
2,52160, Note_on_c,0,69,46
2,52320, Note_on_c,0,69,0
2,52320, Note_on_c,0,61,0
2,52320, Note_on_c,0,45,0
2,52320, Note_on_c,0,52,55
2,52480, Note_on_c,0,70,52
2,52480, Note_on_c,0,61,29
2,52640, Note_on_c,0,70,0
2,52640, Note_on_c,0,69,45
2,52800, Note_on_c,0,69,0
2,52800, Note_on_c,0,61,0
2,52800, Note_on_c,0,52,0
2,52800, Note_on_c,0,57,55
2,52960, Note_on_c,0,61,29
2,52960, Note_on_c,0,70,51
2,53120, Note_on_c,0,70,0
2,53120, Note_on_c,0,69,45
2,53280, Note_on_c,0,69,0
2,53280, Note_on_c,0,61,0
2,53280, Note_on_c,0,57,0
2,53280, Note_on_c,0,45,62
2,53440, Note_on_c,0,69,48
2,53440, Note_on_c,0,62,27
2,53600, Note_on_c,0,69,0
2,53600, Note_on_c,0,67,41
2,53760, Note_on_c,0,67,0
2,53760, Note_on_c,0,62,0
2,53760, Note_on_c,0,45,0
2,53760, Note_on_c,0,52,55
2,53920, Note_on_c,0,69,48
2,53920, Note_on_c,0,62,27
2,54080, Note_on_c,0,69,0
2,54080, Note_on_c,0,67,40
2,54240, Note_on_c,0,67,0
2,54240, Note_on_c,0,62,0
2,54240, Note_on_c,0,52,0
2,54240, Note_on_c,0,58,55
2,54400, Note_on_c,0,69,47
2,54400, Note_on_c,0,62,27
2,54560, Note_on_c,0,69,0
2,54560, Note_on_c,0,67,40
2,54720, Note_on_c,0,67,0
2,54720, Note_on_c,0,62,0
2,54720, Note_on_c,0,58,0
2,54720, Note_on_c,0,45,62
2,54880, Note_on_c,0,61,29
2,54880, Note_on_c,0,70,51
2,55040, Note_on_c,0,70,0
2,55040, Note_on_c,0,69,46
2,55200, Note_on_c,0,69,0
2,55200, Note_on_c,0,61,0
2,55200, Note_on_c,0,45,0
2,55200, Note_on_c,0,52,52
2,55360, Note_on_c,0,70,52
2,55360, Note_on_c,0,61,29
2,55520, Note_on_c,0,70,0
2,55520, Note_on_c,0,69,45
2,55680, Note_on_c,0,69,0
2,55680, Note_on_c,0,61,0
2,55680, Note_on_c,0,52,0
2,55680, Note_on_c,0,57,52
2,55840, Note_on_c,0,70,51
2,55840, Note_on_c,0,61,29
2,56000, Note_on_c,0,70,0
2,56000, Note_on_c,0,69,45
2,56160, Note_on_c,0,69,0
2,56160, Note_on_c,0,61,0
2,56160, Note_on_c,0,57,0
2,56160, Note_on_c,0,45,63
2,56320, Note_on_c,0,70,48
2,56320, Note_on_c,0,62,27
2,56480, Note_on_c,0,70,0
2,56480, Note_on_c,0,69,41
2,56640, Note_on_c,0,69,0
2,56640, Note_on_c,0,62,0
2,56640, Note_on_c,0,45,0
2,56640, Note_on_c,0,52,55
2,56800, Note_on_c,0,62,27
2,56800, Note_on_c,0,69,48
2,56960, Note_on_c,0,69,0
2,56960, Note_on_c,0,67,40
2,57120, Note_on_c,0,67,0
2,57120, Note_on_c,0,62,0
2,57120, Note_on_c,0,52,0
2,57120, Note_on_c,0,58,54
2,57280, Note_on_c,0,67,47
2,57280, Note_on_c,0,62,27
2,57440, Note_on_c,0,67,0
2,57440, Note_on_c,0,64,40
2,57600, Note_on_c,0,64,0
2,57600, Note_on_c,0,62,0
2,57600, Note_on_c,0,58,0
2,57600, Note_on_c,0,45,67
2,57760, Note_on_c,0,61,30
2,57760, Note_on_c,0,70,53
2,57920, Note_on_c,0,70,0
2,57920, Note_on_c,0,69,48
2,58080, Note_on_c,0,69,0
2,58080, Note_on_c,0,61,0
2,58080, Note_on_c,0,45,0
2,58080, Note_on_c,0,52,57
2,58240, Note_on_c,0,70,55
2,58240, Note_on_c,0,61,31
2,58400, Note_on_c,0,70,0
2,58400, Note_on_c,0,69,48
2,58560, Note_on_c,0,69,0
2,58560, Note_on_c,0,61,0
2,58560, Note_on_c,0,52,0
2,58560, Note_on_c,0,57,58
2,58720, Note_on_c,0,61,31
2,58720, Note_on_c,0,70,56
2,58880, Note_on_c,0,70,0
2,58880, Note_on_c,0,69,49
2,59040, Note_on_c,0,69,0
2,59040, Note_on_c,0,61,0
2,59040, Note_on_c,0,57,0
2,59040, Note_on_c,0,41,65
2,59200, Note_on_c,0,67,53
2,59200, Note_on_c,0,57,30
2,59360, Note_on_c,0,67,0
2,59360, Note_on_c,0,65,46
2,59520, Note_on_c,0,65,0
2,59520, Note_on_c,0,57,0
2,59520, Note_on_c,0,41,0
2,59520, Note_on_c,0,48,51
2,59680, Note_on_c,0,67,54
2,59680, Note_on_c,0,57,30
2,59840, Note_on_c,0,67,0
2,59840, Note_on_c,0,65,46
2,60000, Note_on_c,0,65,0
2,60000, Note_on_c,0,57,0
2,60000, Note_on_c,0,48,0
2,60000, Note_on_c,0,57,69
2,60150, Note_on_c,0,57,0
2,60160, Note_on_c,0,67,54
2,60160, Note_on_c,0,57,31
2,60320, Note_on_c,0,67,0
2,60320, Note_on_c,0,65,46
2,60480, Note_on_c,0,65,0
2,60480, Note_on_c,0,57,0
2,60480, Note_on_c,0,48,74
2,60640, Note_on_c,0,60,32
2,60640, Note_on_c,0,65,57
2,60800, Note_on_c,0,65,0
2,60800, Note_on_c,0,64,48
2,60960, Note_on_c,0,64,0
2,60960, Note_on_c,0,60,0
2,60960, Note_on_c,0,48,0
2,60960, Note_on_c,0,55,73
2,61120, Note_on_c,0,60,32
2,61120, Note_on_c,0,65,58
2,61280, Note_on_c,0,65,0
2,61280, Note_on_c,0,64,48
2,61440, Note_on_c,0,64,0
2,61440, Note_on_c,0,60,0
2,61440, Note_on_c,0,55,0
2,61440, Note_on_c,0,60,69
2,61590, Note_on_c,0,60,0
2,61600, Note_on_c,0,60,33
2,61600, Note_on_c,0,65,57
2,61760, Note_on_c,0,65,0
2,61760, Note_on_c,0,64,49
2,61920, Note_on_c,0,64,0
2,61920, Note_on_c,0,60,0
2,61920, Note_on_c,0,55,66
2,62040, Note_on_c,0,55,0
2,62080, Note_on_c,0,64,54
2,62080, Note_on_c,0,58,30
2,62240, Note_on_c,0,64,0
2,62240, Note_on_c,0,62,45
2,62400, Note_on_c,0,62,0
2,62400, Note_on_c,0,58,0
2,62400, Note_on_c,0,57,59
2,62520, Note_on_c,0,57,0
2,62560, Note_on_c,0,58,29
2,62560, Note_on_c,0,64,52
2,62720, Note_on_c,0,64,0
2,62720, Note_on_c,0,62,42
2,62820, Note_on_c,0,60,55
2,62880, Note_on_c,0,62,0
2,62880, Note_on_c,0,58,0
2,62880, Note_on_c,0,60,0
2,62880, Note_on_c,0,58,53
2,63000, Note_on_c,0,58,0
2,63040, Note_on_c,0,58,28
2,63040, Note_on_c,0,64,48
2,63200, Note_on_c,0,64,0
2,63200, Note_on_c,0,62,40
2,63360, Note_on_c,0,62,0
2,63360, Note_on_c,0,58,0
2,63360, Note_on_c,0,45,65
2,63840, Note_on_c,0,45,0
2,63840, Note_on_c,0,52,63
2,64320, Note_on_c,0,64,51
2,64320, Note_on_c,0,61,51
2,64320, Note_on_c,0,52,0
2,64320, Note_on_c,0,57,57
2,64800, Note_on_c,0,61,0
2,64800, Note_on_c,0,64,0
2,64800, Note_on_c,0,57,0
2,64800, Note_on_c,0,50,47
2,64960, Note_on_c,0,50,0
2,64960, Note_on_c,0,52,49
2,65120, Note_on_c,0,52,0
2,65120, Note_on_c,0,53,51
2,65280, Note_on_c,0,58,51
2,65280, Note_on_c,0,64,51
2,65280, Note_on_c,0,62,51
2,65280, Note_on_c,0,53,0
2,65280, Note_on_c,0,55,53
2,65440, Note_on_c,0,55,0
2,65440, Note_on_c,0,57,55
2,65520, Note_on_c,0,62,0
2,65520, Note_on_c,0,64,0
2,65520, Note_on_c,0,58,0
2,65600, Note_on_c,0,57,0
2,65600, Note_on_c,0,58,58
2,65760, Note_on_c,0,58,0
2,65760, Note_on_c,0,60,60
2,65920, Note_on_c,0,60,0
2,65920, Note_on_c,0,58,57
2,66080, Note_on_c,0,58,0
2,66080, Note_on_c,0,57,55
2,66240, Note_on_c,0,57,0
2,66240, Note_on_c,0,45,65
2,66720, Note_on_c,0,45,0
2,66720, Note_on_c,0,52,63
2,67200, Note_on_c,0,61,51
2,67200, Note_on_c,0,64,51
2,67200, Note_on_c,0,52,0
2,67200, Note_on_c,0,57,57
2,67680, Note_on_c,0,64,0
2,67680, Note_on_c,0,61,0
2,67680, Note_on_c,0,57,0
2,67680, Note_on_c,0,50,42
2,67840, Note_on_c,0,50,0
2,67840, Note_on_c,0,52,44
2,68000, Note_on_c,0,52,0
2,68000, Note_on_c,0,53,45
2,68160, Note_on_c,0,58,45
2,68160, Note_on_c,0,64,45
2,68160, Note_on_c,0,62,45
2,68160, Note_on_c,0,53,0
2,68160, Note_on_c,0,55,47
2,68320, Note_on_c,0,55,0
2,68320, Note_on_c,0,57,49
2,68400, Note_on_c,0,62,0
2,68400, Note_on_c,0,64,0
2,68400, Note_on_c,0,58,0
2,68480, Note_on_c,0,57,0
2,68480, Note_on_c,0,58,49
2,68640, Note_on_c,0,58,0
2,68640, Note_on_c,0,60,52
2,68800, Note_on_c,0,60,0
2,68800, Note_on_c,0,58,49
2,68960, Note_on_c,0,58,0
2,68960, Note_on_c,0,57,44
2,69120, Note_on_c,0,70,49
2,69120, Note_on_c,0,76,49
2,69120, Note_on_c,0,57,0
2,69120, Note_on_c,0,56,41
2,69120, Note_on_c,0,62,41
2,70560, Note_on_c,0,76,0
2,70560, Note_on_c,0,70,0
2,70560, Note_on_c,0,82,55
2,70560, Note_on_c,0,62,0
2,70560, Note_on_c,0,56,0
2,70560, Note_on_c,0,58,46
2,72240, Note_on_c,0,82,0
2,72240, Note_on_c,0,84,51
2,72240, Note_on_c,0,58,0
2,72240, Note_on_c,0,60,43
2,72480, Note_on_c,0,84,0
2,72480, Note_on_c,0,86,55
2,72480, Note_on_c,0,60,0
2,72480, Note_on_c,0,62,46
2,72720, Note_on_c,0,86,0
2,72720, Note_on_c,0,89,47
2,72720, Note_on_c,0,62,0
2,72720, Note_on_c,0,65,39
2,72960, Note_on_c,0,89,0
2,72960, Note_on_c,0,86,56
2,72960, Note_on_c,0,65,0
2,72960, Note_on_c,0,62,47
2,73200, Note_on_c,0,86,0
2,73200, Note_on_c,0,84,53
2,73200, Note_on_c,0,62,0
2,73200, Note_on_c,0,60,45
2,73320, Note_on_c,0,84,0
2,73320, Note_on_c,0,84,41
2,73320, Note_on_c,0,60,0
2,73320, Note_on_c,0,60,40
2,73380, Note_on_c,0,84,0
2,73380, Note_on_c,0,86,42
2,73380, Note_on_c,0,60,0
2,73380, Note_on_c,0,62,39
2,73440, Note_on_c,0,86,0
2,73440, Note_on_c,0,84,45
2,73440, Note_on_c,0,62,0
2,73440, Note_on_c,0,60,40
2,73680, Note_on_c,0,84,0
2,73680, Note_on_c,0,82,48
2,73680, Note_on_c,0,60,0
2,73680, Note_on_c,0,58,39
2,73920, Note_on_c,0,82,0
2,73920, Note_on_c,0,77,48
2,73920, Note_on_c,0,58,0
2,73920, Note_on_c,0,53,40
2,74160, Note_on_c,0,77,0
2,74160, Note_on_c,0,82,43
2,74160, Note_on_c,0,53,0
2,74160, Note_on_c,0,58,36
2,74400, Note_on_c,0,82,0
2,74400, Note_on_c,0,81,47
2,74400, Note_on_c,0,58,0
2,74400, Note_on_c,0,57,39
2,75360, Note_on_c,0,81,0
2,75360, Note_on_c,0,80,47
2,75360, Note_on_c,0,57,0
2,75360, Note_on_c,0,56,39
2,75600, Note_on_c,0,80,0
2,75600, Note_on_c,0,77,43
2,75600, Note_on_c,0,56,0
2,75600, Note_on_c,0,53,36
2,75840, Note_on_c,0,77,0
2,75840, Note_on_c,0,76,45
2,75840, Note_on_c,0,53,0
2,75840, Note_on_c,0,52,38
2,76080, Note_on_c,0,76,0
2,76080, Note_on_c,0,74,42
2,76080, Note_on_c,0,52,0
2,76080, Note_on_c,0,50,35
2,76320, Note_on_c,0,74,0
2,76320, Note_on_c,0,50,0
2,76320, Note_on_c,0,45,34
2,76560, Note_on_c,0,57,40
2,76560, Note_on_c,0,45,0
2,76560, Note_on_c,0,52,32
2,76798, Note_on_c,0,57,0
2,76800, Note_on_c,0,61,41
2,76800, Note_on_c,0,52,0
2,76800, Note_on_c,0,57,32
2,77040, Note_on_c,0,61,0
2,77040, Note_on_c,0,64,44
2,77040, Note_on_c,0,57,0
2,77040, Note_on_c,0,61,33
2,77280, Note_on_c,0,64,0
2,77280, Note_on_c,0,69,46
2,77280, Note_on_c,0,61,0
2,77280, Note_on_c,0,64,34
2,77520, Note_on_c,0,69,0
2,77520, Note_on_c,0,73,47
2,77520, Note_on_c,0,64,0
2,77520, Note_on_c,0,69,35
2,77760, Note_on_c,0,73,0
2,77760, Note_on_c,0,76,50
2,77760, Note_on_c,0,69,0
2,77760, Note_on_c,0,73,39
2,78000, Note_on_c,0,76,0
2,78000, Note_on_c,0,69,40
2,78000, Note_on_c,0,73,0
2,78000, Note_on_c,0,61,32
2,78240, Note_on_c,0,69,0
2,78240, Note_on_c,0,73,41
2,78240, Note_on_c,0,61,0
2,78240, Note_on_c,0,64,32
2,78480, Note_on_c,0,73,0
2,78480, Note_on_c,0,76,44
2,78480, Note_on_c,0,64,0
2,78480, Note_on_c,0,69,33
2,78720, Note_on_c,0,76,0
2,78720, Note_on_c,0,81,46
2,78720, Note_on_c,0,69,0
2,78720, Note_on_c,0,73,34
2,78960, Note_on_c,0,81,0
2,78960, Note_on_c,0,85,47
2,78960, Note_on_c,0,73,0
2,78960, Note_on_c,0,76,35
2,79200, Note_on_c,0,85,0
2,79200, Note_on_c,0,88,51
2,79200, Note_on_c,0,76,0
2,79200, Note_on_c,0,81,39
2,79440, Note_on_c,0,88,0
2,79440, Note_on_c,0,69,40
2,79440, Note_on_c,0,81,0
2,79440, Note_on_c,0,61,32
2,79680, Note_on_c,0,69,0
2,79680, Note_on_c,0,73,41
2,79680, Note_on_c,0,61,0
2,79680, Note_on_c,0,64,32
2,79920, Note_on_c,0,73,0
2,79920, Note_on_c,0,76,44
2,79920, Note_on_c,0,64,0
2,79920, Note_on_c,0,69,33
2,80160, Note_on_c,0,76,0
2,80160, Note_on_c,0,81,46
2,80160, Note_on_c,0,69,0
2,80160, Note_on_c,0,73,34
2,80400, Note_on_c,0,81,0
2,80400, Note_on_c,0,85,47
2,80400, Note_on_c,0,73,0
2,80400, Note_on_c,0,76,35
2,80640, Note_on_c,0,85,0
2,80640, Note_on_c,0,88,49
2,80640, Note_on_c,0,76,0
2,80640, Note_on_c,0,81,39
2,80880, Note_on_c,0,88,0
2,80880, Note_on_c,0,81,46
2,80880, Note_on_c,0,81,0
2,80880, Note_on_c,0,73,34
2,81120, Note_on_c,0,81,0
2,81120, Note_on_c,0,85,44
2,81120, Note_on_c,0,73,0
2,81120, Note_on_c,0,76,34
2,81360, Note_on_c,0,85,0
2,81360, Note_on_c,0,88,42
2,81360, Note_on_c,0,76,0
2,81360, Note_on_c,0,81,33
2,81600, Note_on_c,0,88,0
2,81600, Note_on_c,0,93,40
2,81600, Note_on_c,0,81,0
2,81600, Note_on_c,0,85,32
2,81840, Note_on_c,0,93,0
2,81840, Note_on_c,0,97,38
2,81840, Note_on_c,0,85,0
2,81840, Note_on_c,0,88,32
2,82080, Note_on_c,0,97,0
2,82080, Note_on_c,0,100,36
2,82080, Note_on_c,0,93,36
2,82080, Note_on_c,0,105,36
2,82080, Note_on_c,0,88,0
2,82080, Note_on_c,0,85,23
2,82080, Note_on_c,0,69,23
2,82080, Note_on_c,0,76,23
2,83520, Note_on_c,0,105,0
2,83520, Note_on_c,0,93,0
2,83520, Note_on_c,0,100,0
2,83520, Note_on_c,0,76,0
2,83520, Note_on_c,0,69,0
2,83520, Note_on_c,0,85,0
2, 83520, End_track
0,0, End_of_file