0, 0, Header, 1, 1, 480
1, 0, Start_track
1, 0, Note_on_c, 0, 57, 100
1, 0, Note_on_c, 0, 81, 100
1, 240, Note_on_c, 0, 57, 0
1, 240, Note_on_c, 0, 64, 100
1, 240, Note_on_c, 0, 81, 0
1, 240, Note_on_c, 0, 88, 100
1, 1800, Note_on_c, 0, 62, 100
1, 1800, Note_on_c, 0, 64, 0
1, 1800, Note_on_c, 0, 86, 100
1, 1800, Note_on_c, 0, 88, 0
1, 1860, Note_on_c, 0, 62, 0
1, 1860, Note_on_c, 0, 64, 100
1, 1860, Note_on_c, 0, 86, 0
1, 1860, Note_on_c, 0, 88, 100
1, 1920, Note_on_c, 0, 62, 100
1, 1920, Note_on_c, 0, 64, 0
1, 1920, Note_on_c, 0, 86, 100
1, 1920, Note_on_c, 0, 88, 0
1, 2160, Note_on_c, 0, 60, 100
1, 2160, Note_on_c, 0, 62, 0
1, 2160, Note_on_c, 0, 84, 100
1, 2160, Note_on_c, 0, 86, 0
1, 2400, Note_on_c, 0, 60, 0
1, 2400, Note_on_c, 0, 62, 100
1, 2400, Note_on_c, 0, 84, 0
1, 2400, Note_on_c, 0, 86, 100
1, 2640, Note_on_c, 0, 62, 0
1, 2640, Note_on_c, 0, 64, 100
1, 2640, Note_on_c, 0, 86, 0
1, 2640, Note_on_c, 0, 88, 100
1, 2880, Note_on_c, 0, 64, 0
1, 2880, Note_on_c, 0, 65, 100
1, 2880, Note_on_c, 0, 88, 0
1, 2880, Note_on_c, 0, 89, 100
1, 3120, Note_on_c, 0, 65, 0
1, 3120, Note_on_c, 0, 67, 100
1, 3120, Note_on_c, 0, 89, 0
1, 3120, Note_on_c, 0, 91, 100
1, 3360, Note_on_c, 0, 64, 100
1, 3360, Note_on_c, 0, 67, 0
1, 3360, Note_on_c, 0, 88, 100
1, 3360, Note_on_c, 0, 91, 0
1, 3600, Note_on_c, 0, 64, 0
1, 3600, Note_on_c, 0, 65, 100
1, 3600, Note_on_c, 0, 88, 0
1, 3600, Note_on_c, 0, 89, 100
1, 3840, Note_on_c, 0, 64, 100
1, 3840, Note_on_c, 0, 65, 0
1, 3840, Note_on_c, 0, 88, 100
1, 3840, Note_on_c, 0, 89, 0
1, 3960, Note_on_c, 0, 62, 100
1, 3960, Note_on_c, 0, 64, 0
1, 3960, Note_on_c, 0, 86, 100
1, 3960, Note_on_c, 0, 88, 0
1, 4020, Note_on_c, 0, 62, 0
1, 4020, Note_on_c, 0, 64, 100
1, 4020, Note_on_c, 0, 86, 0
1, 4020, Note_on_c, 0, 88, 100
1, 4080, Note_on_c, 0, 62, 100
1, 4080, Note_on_c, 0, 64, 0
1, 4080, Note_on_c, 0, 86, 100
1, 4080, Note_on_c, 0, 88, 0
1, 4560, Note_on_c, 0, 60, 100
1, 4560, Note_on_c, 0, 62, 0
1, 4560, Note_on_c, 0, 84, 100
1, 4560, Note_on_c, 0, 86, 0
1, 5040, Note_on_c, 0, 58, 100
1, 5040, Note_on_c, 0, 60, 0
1, 5040, Note_on_c, 0, 82, 100
1, 5040, Note_on_c, 0, 84, 0
1, 5520, Note_on_c, 0, 45, 100
1, 5520, Note_on_c, 0, 58, 0
1, 5520, Note_on_c, 0, 82, 0
1, 5760, Note_on_c, 0, 45, 0
1, 5760, Note_on_c, 0, 52, 100
1, 5760, Note_on_c, 0, 57, 100
1, 6000, Note_on_c, 0, 52, 0
1, 6000, Note_on_c, 0, 57, 0
1, 6000, Note_on_c, 0, 57, 100
1, 6000, Note_on_c, 0, 61, 100
1, 6240, Note_on_c, 0, 57, 0
1, 6240, Note_on_c, 0, 61, 0
1, 6240, Note_on_c, 0, 61, 100
1, 6240, Note_on_c, 0, 64, 100
1, 6480, Note_on_c, 0, 61, 0
1, 6480, Note_on_c, 0, 64, 0
1, 6480, Note_on_c, 0, 64, 100
1, 6480, Note_on_c, 0, 69, 100
1, 6720, Note_on_c, 0, 64, 0
1, 6720, Note_on_c, 0, 69, 0
1, 6720, Note_on_c, 0, 69, 100
1, 6720, Note_on_c, 0, 73, 100
1, 6960, Note_on_c, 0, 69, 0
1, 6960, Note_on_c, 0, 73, 0
1, 6960, Note_on_c, 0, 73, 100
1, 6960, Note_on_c, 0, 76, 100
1, 7200, Note_on_c, 0, 61, 100
1, 7200, Note_on_c, 0, 69, 100
1, 7200, Note_on_c, 0, 73, 0
1, 7200, Note_on_c, 0, 76, 0
1, 7440, Note_on_c, 0, 61, 0
1, 7440, Note_on_c, 0, 64, 100
1, 7440, Note_on_c, 0, 69, 0
1, 7440, Note_on_c, 0, 73, 100
1, 7680, Note_on_c, 0, 64, 0
1, 7680, Note_on_c, 0, 69, 100
1, 7680, Note_on_c, 0, 73, 0
1, 7680, Note_on_c, 0, 76, 100
1, 7920, Note_on_c, 0, 69, 0
1, 7920, Note_on_c, 0, 73, 100
1, 7920, Note_on_c, 0, 76, 0
1, 7920, Note_on_c, 0, 81, 100
1, 8160, Note_on_c, 0, 73, 0
1, 8160, Note_on_c, 0, 76, 100
1, 8160, Note_on_c, 0, 81, 0
1, 8160, Note_on_c, 0, 85, 100
1, 8400, Note_on_c, 0, 76, 0
1, 8400, Note_on_c, 0, 81, 100
1, 8400, Note_on_c, 0, 85, 0
1, 8400, Note_on_c, 0, 88, 100
1, 8640, Note_on_c, 0, 76, 100
1, 8640, Note_on_c, 0, 81, 0
1, 8640, Note_on_c, 0, 85, 100
1, 8640, Note_on_c, 0, 88, 0
1, 8880, Note_on_c, 0, 73, 100
1, 8880, Note_on_c, 0, 76, 0
1, 8880, Note_on_c, 0, 81, 100
1, 8880, Note_on_c, 0, 85, 0
1, 9120, Note_on_c, 0, 69, 100
1, 9120, Note_on_c, 0, 73, 0
1, 9120, Note_on_c, 0, 76, 100
1, 9120, Note_on_c, 0, 81, 0
1, 9360, Note_on_c, 0, 64, 100
1, 9360, Note_on_c, 0, 69, 0
1, 9360, Note_on_c, 0, 73, 100
1, 9360, Note_on_c, 0, 76, 0
1, 9600, Note_on_c, 0, 61, 100
1, 9600, Note_on_c, 0, 64, 0
1, 9600, Note_on_c, 0, 69, 100
1, 9600, Note_on_c, 0, 73, 0
1, 9840, Note_on_c, 0, 61, 0
1, 9840, Note_on_c, 0, 69, 0
1, 9840, Note_on_c, 0, 69, 100
1, 9840, Note_on_c, 0, 76, 100
1, 10080, Note_on_c, 0, 64, 100
1, 10080, Note_on_c, 0, 69, 0
1, 10080, Note_on_c, 0, 73, 100
1, 10080, Note_on_c, 0, 76, 0
1, 10320, Note_on_c, 0, 61, 100
1, 10320, Note_on_c, 0, 64, 0
1, 10320, Note_on_c, 0, 69, 100
1, 10320, Note_on_c, 0, 73, 0
1, 10560, Note_on_c, 0, 57, 100
1, 10560, Note_on_c, 0, 61, 0
1, 10560, Note_on_c, 0, 64, 100
1, 10560, Note_on_c, 0, 69, 0
1, 10798, Note_on_c, 0, 57, 0
1, 10800, Note_on_c, 0, 57, 100
1, 10800, Note_on_c, 0, 61, 100
1, 10800, Note_on_c, 0, 64, 0
1, 11037, Note_on_c, 0, 57, 0
1, 11040, Note_on_c, 0, 52, 100
1, 11040, Note_on_c, 0, 57, 100
1, 11040, Note_on_c, 0, 61, 0
1, 11280, Note_on_c, 0, 45, 100
1, 11280, Note_on_c, 0, 52, 0
1, 11280, Note_on_c, 0, 57, 0
1, 11520, Note_on_c, 0, 45, 0
1, 11520, Note_on_c, 0, 57, 100
1, 11520, Note_on_c, 0, 81, 100
1, 11760, Note_on_c, 0, 57, 0
1, 11760, Note_on_c, 0, 64, 100
1, 11760, Note_on_c, 0, 81, 0
1, 11760, Note_on_c, 0, 88, 100
1, 13320, Note_on_c, 0, 62, 100
1, 13320, Note_on_c, 0, 64, 0
1, 13320, Note_on_c, 0, 86, 100
1, 13320, Note_on_c, 0, 88, 0
1, 13380, Note_on_c, 0, 62, 0
1, 13380, Note_on_c, 0, 64, 100
1, 13380, Note_on_c, 0, 86, 0
1, 13380, Note_on_c, 0, 88, 100
1, 13440, Note_on_c, 0, 62, 100
1, 13440, Note_on_c, 0, 64, 0
1, 13440, Note_on_c, 0, 86, 100
1, 13440, Note_on_c, 0, 88, 0
1, 13680, Note_on_c, 0, 60, 100
1, 13680, Note_on_c, 0, 62, 0
1, 13680, Note_on_c, 0, 84, 100
1, 13680, Note_on_c, 0, 86, 0
1, 13920, Note_on_c, 0, 60, 0
1, 13920, Note_on_c, 0, 62, 100
1, 13920, Note_on_c, 0, 84, 0
1, 13920, Note_on_c, 0, 86, 100
1, 14160, Note_on_c, 0, 62, 0
1, 14160, Note_on_c, 0, 64, 100
1, 14160, Note_on_c, 0, 86, 0
1, 14160, Note_on_c, 0, 88, 100
1, 14400, Note_on_c, 0, 64, 0
1, 14400, Note_on_c, 0, 65, 100
1, 14400, Note_on_c, 0, 88, 0
1, 14400, Note_on_c, 0, 89, 100
1, 14640, Note_on_c, 0, 65, 0
1, 14640, Note_on_c, 0, 67, 100
1, 14640, Note_on_c, 0, 89, 0
1, 14640, Note_on_c, 0, 91, 100
1, 14880, Note_on_c, 0, 64, 100
1, 14880, Note_on_c, 0, 67, 0
1, 14880, Note_on_c, 0, 88, 100
1, 14880, Note_on_c, 0, 91, 0
1, 15120, Note_on_c, 0, 64, 0
1, 15120, Note_on_c, 0, 65, 100
1, 15120, Note_on_c, 0, 88, 0
1, 15120, Note_on_c, 0, 89, 100
1, 15360, Note_on_c, 0, 64, 100
1, 15360, Note_on_c, 0, 65, 0
1, 15360, Note_on_c, 0, 88, 100
1, 15360, Note_on_c, 0, 89, 0
1, 15480, Note_on_c, 0, 62, 100
1, 15480, Note_on_c, 0, 64, 0
1, 15480, Note_on_c, 0, 86, 100
1, 15480, Note_on_c, 0, 88, 0
1, 15540, Note_on_c, 0, 62, 0
1, 15540, Note_on_c, 0, 64, 100
1, 15540, Note_on_c, 0, 86, 0
1, 15540, Note_on_c, 0, 88, 100
1, 15600, Note_on_c, 0, 62, 100
1, 15600, Note_on_c, 0, 64, 0
1, 15600, Note_on_c, 0, 86, 100
1, 15600, Note_on_c, 0, 88, 0
1, 16080, Note_on_c, 0, 60, 100
1, 16080, Note_on_c, 0, 62, 0
1, 16080, Note_on_c, 0, 84, 100
1, 16080, Note_on_c, 0, 86, 0
1, 16560, Note_on_c, 0, 58, 100
1, 16560, Note_on_c, 0, 60, 0
1, 16560, Note_on_c, 0, 82, 100
1, 16560, Note_on_c, 0, 84, 0
1, 17040, Note_on_c, 0, 57, 100
1, 17040, Note_on_c, 0, 58, 0
1, 17040, Note_on_c, 0, 81, 100
1, 17040, Note_on_c, 0, 82, 0
1, 17280, Note_on_c, 0, 57, 0
1, 17280, Note_on_c, 0, 58, 100
1, 17280, Note_on_c, 0, 81, 0
1, 17280, Note_on_c, 0, 82, 100
1, 17520, Note_on_c, 0, 58, 0
1, 17520, Note_on_c, 0, 60, 100
1, 17520, Note_on_c, 0, 82, 0
1, 17520, Note_on_c, 0, 84, 100
1, 17760, Note_on_c, 0, 60, 0
1, 17760, Note_on_c, 0, 62, 100
1, 17760, Note_on_c, 0, 84, 0
1, 17760, Note_on_c, 0, 86, 100
1, 18000, Note_on_c, 0, 62, 0
1, 18000, Note_on_c, 0, 65, 100
1, 18000, Note_on_c, 0, 86, 0
1, 18000, Note_on_c, 0, 89, 100
1, 18360, Note_on_c, 0, 62, 100
1, 18360, Note_on_c, 0, 65, 0
1, 18360, Note_on_c, 0, 86, 100
1, 18360, Note_on_c, 0, 89, 0
1, 18420, Note_on_c, 0, 62, 0
1, 18420, Note_on_c, 0, 64, 100
1, 18420, Note_on_c, 0, 86, 0
1, 18420, Note_on_c, 0, 88, 100
1, 18480, Note_on_c, 0, 62, 100
1, 18480, Note_on_c, 0, 64, 0
1, 18480, Note_on_c, 0, 86, 100
1, 18480, Note_on_c, 0, 88, 0
1, 18960, Note_on_c, 0, 60, 100
1, 18960, Note_on_c, 0, 62, 0
1, 18960, Note_on_c, 0, 84, 100
1, 18960, Note_on_c, 0, 86, 0
1, 19440, Note_on_c, 0, 58, 100
1, 19440, Note_on_c, 0, 60, 0
1, 19440, Note_on_c, 0, 82, 100
1, 19440, Note_on_c, 0, 84, 0
1, 19920, Note_on_c, 0, 57, 100
1, 19920, Note_on_c, 0, 58, 0
1, 19920, Note_on_c, 0, 81, 100
1, 19920, Note_on_c, 0, 82, 0
1, 20160, Note_on_c, 0, 57, 0
1, 20160, Note_on_c, 0, 58, 100
1, 20160, Note_on_c, 0, 81, 0
1, 20160, Note_on_c, 0, 82, 100
1, 20400, Note_on_c, 0, 58, 0
1, 20400, Note_on_c, 0, 60, 100
1, 20400, Note_on_c, 0, 82, 0
1, 20400, Note_on_c, 0, 84, 100
1, 20640, Note_on_c, 0, 60, 0
1, 20640, Note_on_c, 0, 62, 100
1, 20640, Note_on_c, 0, 84, 0
1, 20640, Note_on_c, 0, 86, 100
1, 20880, Note_on_c, 0, 62, 0
1, 20880, Note_on_c, 0, 64, 100
1, 20880, Note_on_c, 0, 86, 0
1, 20880, Note_on_c, 0, 88, 100
1, 21120, Note_on_c, 0, 64, 0
1, 21120, Note_on_c, 0, 67, 100
1, 21120, Note_on_c, 0, 88, 0
1, 21120, Note_on_c, 0, 91, 100
1, 21360, Note_on_c, 0, 65, 100
1, 21360, Note_on_c, 0, 67, 0
1, 21360, Note_on_c, 0, 89, 100
1, 21360, Note_on_c, 0, 91, 0
1, 21480, Note_on_c, 0, 62, 100
1, 21480, Note_on_c, 0, 65, 0
1, 21480, Note_on_c, 0, 86, 100
1, 21480, Note_on_c, 0, 89, 0
1, 21540, Note_on_c, 0, 62, 0
1, 21540, Note_on_c, 0, 64, 100
1, 21540, Note_on_c, 0, 86, 0
1, 21540, Note_on_c, 0, 88, 100
1, 21600, Note_on_c, 0, 62, 100
1, 21600, Note_on_c, 0, 64, 0
1, 21600, Note_on_c, 0, 86, 100
1, 21600, Note_on_c, 0, 88, 0
1, 21840, Note_on_c, 0, 60, 100
1, 21840, Note_on_c, 0, 62, 0
1, 21840, Note_on_c, 0, 84, 100
1, 21840, Note_on_c, 0, 86, 0
1, 22080, Note_on_c, 0, 58, 100
1, 22080, Note_on_c, 0, 60, 0
1, 22080, Note_on_c, 0, 82, 100
1, 22080, Note_on_c, 0, 84, 0
1, 22320, Note_on_c, 0, 58, 0
1, 22320, Note_on_c, 0, 62, 100
1, 22320, Note_on_c, 0, 82, 0
1, 22320, Note_on_c, 0, 86, 100
1, 22560, Note_on_c, 0, 61, 100
1, 22560, Note_on_c, 0, 62, 0
1, 22560, Note_on_c, 0, 85, 100
1, 22560, Note_on_c, 0, 86, 0
1, 22800, Note_on_c, 0, 45, 100
1, 22800, Note_on_c, 0, 61, 0
1, 22800, Note_on_c, 0, 85, 0
1, 22960, Note_on_c, 0, 61, 100
1, 22960, Note_on_c, 0, 70, 100
1, 23120, Note_on_c, 0, 69, 100
1, 23120, Note_on_c, 0, 70, 0
1, 23280, Note_on_c, 0, 45, 0
1, 23280, Note_on_c, 0, 52, 100
1, 23280, Note_on_c, 0, 61, 0
1, 23280, Note_on_c, 0, 69, 0
1, 23440, Note_on_c, 0, 61, 100
1, 23440, Note_on_c, 0, 70, 100
1, 23600, Note_on_c, 0, 69, 100
1, 23600, Note_on_c, 0, 70, 0
1, 23760, Note_on_c, 0, 52, 0
1, 23760, Note_on_c, 0, 57, 100
1, 23760, Note_on_c, 0, 61, 0
1, 23760, Note_on_c, 0, 69, 0
1, 23920, Note_on_c, 0, 61, 100
1, 23920, Note_on_c, 0, 70, 100
1, 24080, Note_on_c, 0, 69, 100
1, 24080, Note_on_c, 0, 70, 0
1, 24240, Note_on_c, 0, 45, 100
1, 24240, Note_on_c, 0, 57, 0
1, 24240, Note_on_c, 0, 61, 0
1, 24240, Note_on_c, 0, 69, 0
1, 24400, Note_on_c, 0, 62, 100
1, 24400, Note_on_c, 0, 69, 100
1, 24560, Note_on_c, 0, 67, 100
1, 24560, Note_on_c, 0, 69, 0
1, 24720, Note_on_c, 0, 45, 0
1, 24720, Note_on_c, 0, 52, 100
1, 24720, Note_on_c, 0, 62, 0
1, 24720, Note_on_c, 0, 67, 0
1, 24880, Note_on_c, 0, 62, 100
1, 24880, Note_on_c, 0, 69, 100
1, 25040, Note_on_c, 0, 67, 100
1, 25040, Note_on_c, 0, 69, 0
1, 25200, Note_on_c, 0, 52, 0
1, 25200, Note_on_c, 0, 58, 100
1, 25200, Note_on_c, 0, 62, 0
1, 25200, Note_on_c, 0, 67, 0
1, 25360, Note_on_c, 0, 62, 100
1, 25360, Note_on_c, 0, 69, 100
1, 25520, Note_on_c, 0, 67, 100
1, 25520, Note_on_c, 0, 69, 0
1, 25680, Note_on_c, 0, 45, 100
1, 25680, Note_on_c, 0, 58, 0
1, 25680, Note_on_c, 0, 62, 0
1, 25680, Note_on_c, 0, 67, 0
1, 25840, Note_on_c, 0, 61, 100
1, 25840, Note_on_c, 0, 70, 100
1, 26000, Note_on_c, 0, 69, 100
1, 26000, Note_on_c, 0, 70, 0
1, 26160, Note_on_c, 0, 45, 0
1, 26160, Note_on_c, 0, 52, 100
1, 26160, Note_on_c, 0, 61, 0
1, 26160, Note_on_c, 0, 69, 0
1, 26320, Note_on_c, 0, 61, 100
1, 26320, Note_on_c, 0, 70, 100
1, 26480, Note_on_c, 0, 69, 100
1, 26480, Note_on_c, 0, 70, 0
1, 26640, Note_on_c, 0, 52, 0
1, 26640, Note_on_c, 0, 57, 100
1, 26640, Note_on_c, 0, 61, 0
1, 26640, Note_on_c, 0, 69, 0
1, 26800, Note_on_c, 0, 61, 100
1, 26800, Note_on_c, 0, 70, 100
1, 26960, Note_on_c, 0, 69, 100
1, 26960, Note_on_c, 0, 70, 0
1, 27120, Note_on_c, 0, 45, 100
1, 27120, Note_on_c, 0, 57, 0
1, 27120, Note_on_c, 0, 61, 0
1, 27120, Note_on_c, 0, 69, 0
1, 27280, Note_on_c, 0, 62, 100
1, 27280, Note_on_c, 0, 70, 100
1, 27440, Note_on_c, 0, 69, 100
1, 27440, Note_on_c, 0, 70, 0
1, 27600, Note_on_c, 0, 45, 0
1, 27600, Note_on_c, 0, 52, 100
1, 27600, Note_on_c, 0, 62, 0
1, 27600, Note_on_c, 0, 69, 0
1, 27760, Note_on_c, 0, 62, 100
1, 27760, Note_on_c, 0, 69, 100
1, 27920, Note_on_c, 0, 67, 100
1, 27920, Note_on_c, 0, 69, 0
1, 28080, Note_on_c, 0, 52, 0
1, 28080, Note_on_c, 0, 58, 100
1, 28080, Note_on_c, 0, 62, 0
1, 28080, Note_on_c, 0, 67, 0
1, 28240, Note_on_c, 0, 62, 100
1, 28240, Note_on_c, 0, 67, 100
1, 28400, Note_on_c, 0, 64, 100
1, 28400, Note_on_c, 0, 67, 0
1, 28560, Note_on_c, 0, 45, 100
1, 28560, Note_on_c, 0, 58, 0
1, 28560, Note_on_c, 0, 62, 0
1, 28560, Note_on_c, 0, 64, 0
1, 28720, Note_on_c, 0, 61, 100
1, 28720, Note_on_c, 0, 70, 100
1, 28880, Note_on_c, 0, 69, 100
1, 28880, Note_on_c, 0, 70, 0
1, 29040, Note_on_c, 0, 45, 0
1, 29040, Note_on_c, 0, 52, 100
1, 29040, Note_on_c, 0, 61, 0
1, 29040, Note_on_c, 0, 69, 0
1, 29200, Note_on_c, 0, 61, 100
1, 29200, Note_on_c, 0, 70, 100
1, 29360, Note_on_c, 0, 69, 100
1, 29360, Note_on_c, 0, 70, 0
1, 29520, Note_on_c, 0, 52, 0
1, 29520, Note_on_c, 0, 57, 100
1, 29520, Note_on_c, 0, 61, 0
1, 29520, Note_on_c, 0, 69, 0
1, 29680, Note_on_c, 0, 61, 100
1, 29680, Note_on_c, 0, 70, 100
1, 29840, Note_on_c, 0, 69, 100
1, 29840, Note_on_c, 0, 70, 0
1, 30000, Note_on_c, 0, 41, 100
1, 30000, Note_on_c, 0, 57, 0
1, 30000, Note_on_c, 0, 61, 0
1, 30000, Note_on_c, 0, 69, 0
1, 30160, Note_on_c, 0, 57, 100
1, 30160, Note_on_c, 0, 67, 100
1, 30320, Note_on_c, 0, 65, 100
1, 30320, Note_on_c, 0, 67, 0
1, 30480, Note_on_c, 0, 41, 0
1, 30480, Note_on_c, 0, 48, 100
1, 30480, Note_on_c, 0, 57, 0
1, 30480, Note_on_c, 0, 65, 0
1, 30640, Note_on_c, 0, 57, 100
1, 30640, Note_on_c, 0, 67, 100
1, 30800, Note_on_c, 0, 65, 100
1, 30800, Note_on_c, 0, 67, 0
1, 30960, Note_on_c, 0, 48, 0
1, 30960, Note_on_c, 0, 57, 0
1, 30960, Note_on_c, 0, 57, 100
1, 30960, Note_on_c, 0, 65, 0
1, 31110, Note_on_c, 0, 57, 0
1, 31120, Note_on_c, 0, 57, 100
1, 31120, Note_on_c, 0, 67, 100
1, 31280, Note_on_c, 0, 65, 100
1, 31280, Note_on_c, 0, 67, 0
1, 31440, Note_on_c, 0, 48, 100
1, 31440, Note_on_c, 0, 57, 0
1, 31440, Note_on_c, 0, 65, 0
1, 31600, Note_on_c, 0, 60, 100
1, 31600, Note_on_c, 0, 65, 100
1, 31760, Note_on_c, 0, 64, 100
1, 31760, Note_on_c, 0, 65, 0
1, 31920, Note_on_c, 0, 48, 0
1, 31920, Note_on_c, 0, 55, 100
1, 31920, Note_on_c, 0, 60, 0
1, 31920, Note_on_c, 0, 64, 0
1, 32080, Note_on_c, 0, 60, 100
1, 32080, Note_on_c, 0, 65, 100
1, 32240, Note_on_c, 0, 64, 100
1, 32240, Note_on_c, 0, 65, 0
1, 32400, Note_on_c, 0, 55, 0
1, 32400, Note_on_c, 0, 60, 0
1, 32400, Note_on_c, 0, 60, 100
1, 32400, Note_on_c, 0, 64, 0
1, 32550, Note_on_c, 0, 60, 0
1, 32560, Note_on_c, 0, 60, 100
1, 32560, Note_on_c, 0, 65, 100
1, 32720, Note_on_c, 0, 64, 100
1, 32720, Note_on_c, 0, 65, 0
1, 32880, Note_on_c, 0, 55, 100
1, 32880, Note_on_c, 0, 60, 0
1, 32880, Note_on_c, 0, 64, 0
1, 33000, Note_on_c, 0, 55, 0
1, 33040, Note_on_c, 0, 58, 100
1, 33040, Note_on_c, 0, 64, 100
1, 33200, Note_on_c, 0, 62, 100
1, 33200, Note_on_c, 0, 64, 0
1, 33360, Note_on_c, 0, 57, 100
1, 33360, Note_on_c, 0, 58, 0
1, 33360, Note_on_c, 0, 62, 0
1, 33480, Note_on_c, 0, 57, 0
1, 33520, Note_on_c, 0, 58, 100
1, 33520, Note_on_c, 0, 64, 100
1, 33680, Note_on_c, 0, 62, 100
1, 33680, Note_on_c, 0, 64, 0
1, 33780, Note_on_c, 0, 60, 100
1, 33840, Note_on_c, 0, 58, 0
1, 33840, Note_on_c, 0, 58, 100
1, 33840, Note_on_c, 0, 60, 0
1, 33840, Note_on_c, 0, 62, 0
1, 33960, Note_on_c, 0, 58, 0
1, 34000, Note_on_c, 0, 58, 100
1, 34000, Note_on_c, 0, 64, 100
1, 34160, Note_on_c, 0, 62, 100
1, 34160, Note_on_c, 0, 64, 0
1, 34320, Note_on_c, 0, 45, 100
1, 34320, Note_on_c, 0, 58, 0
1, 34320, Note_on_c, 0, 62, 0
1, 34480, Note_on_c, 0, 61, 100
1, 34480, Note_on_c, 0, 70, 100
1, 34640, Note_on_c, 0, 69, 100
1, 34640, Note_on_c, 0, 70, 0
1, 34800, Note_on_c, 0, 45, 0
1, 34800, Note_on_c, 0, 52, 100
1, 34800, Note_on_c, 0, 61, 0
1, 34800, Note_on_c, 0, 69, 0
1, 34960, Note_on_c, 0, 61, 100
1, 34960, Note_on_c, 0, 70, 100
1, 35120, Note_on_c, 0, 69, 100
1, 35120, Note_on_c, 0, 70, 0
1, 35280, Note_on_c, 0, 52, 0
1, 35280, Note_on_c, 0, 57, 100
1, 35280, Note_on_c, 0, 61, 0
1, 35280, Note_on_c, 0, 69, 0
1, 35440, Note_on_c, 0, 61, 100
1, 35440, Note_on_c, 0, 70, 100
1, 35600, Note_on_c, 0, 69, 100
1, 35600, Note_on_c, 0, 70, 0
1, 35760, Note_on_c, 0, 45, 100
1, 35760, Note_on_c, 0, 57, 0
1, 35760, Note_on_c, 0, 61, 0
1, 35760, Note_on_c, 0, 69, 0
1, 35920, Note_on_c, 0, 62, 100
1, 35920, Note_on_c, 0, 69, 100
1, 36080, Note_on_c, 0, 67, 100
1, 36080, Note_on_c, 0, 69, 0
1, 36240, Note_on_c, 0, 45, 0
1, 36240, Note_on_c, 0, 52, 100
1, 36240, Note_on_c, 0, 62, 0
1, 36240, Note_on_c, 0, 67, 0
1, 36400, Note_on_c, 0, 62, 100
1, 36400, Note_on_c, 0, 69, 100
1, 36560, Note_on_c, 0, 67, 100
1, 36560, Note_on_c, 0, 69, 0
1, 36720, Note_on_c, 0, 52, 0
1, 36720, Note_on_c, 0, 58, 100
1, 36720, Note_on_c, 0, 62, 0
1, 36720, Note_on_c, 0, 67, 0
1, 36880, Note_on_c, 0, 62, 100
1, 36880, Note_on_c, 0, 69, 100
1, 37040, Note_on_c, 0, 67, 100
1, 37040, Note_on_c, 0, 69, 0
1, 37200, Note_on_c, 0, 45, 100
1, 37200, Note_on_c, 0, 58, 0
1, 37200, Note_on_c, 0, 62, 0
1, 37200, Note_on_c, 0, 67, 0
1, 37360, Note_on_c, 0, 61, 100
1, 37360, Note_on_c, 0, 70, 100
1, 37520, Note_on_c, 0, 69, 100
1, 37520, Note_on_c, 0, 70, 0
1, 37680, Note_on_c, 0, 45, 0
1, 37680, Note_on_c, 0, 52, 100
1, 37680, Note_on_c, 0, 61, 0
1, 37680, Note_on_c, 0, 69, 0
1, 37840, Note_on_c, 0, 61, 100
1, 37840, Note_on_c, 0, 70, 100
1, 38000, Note_on_c, 0, 69, 100
1, 38000, Note_on_c, 0, 70, 0
1, 38160, Note_on_c, 0, 52, 0
1, 38160, Note_on_c, 0, 57, 100
1, 38160, Note_on_c, 0, 61, 0
1, 38160, Note_on_c, 0, 69, 0
1, 38320, Note_on_c, 0, 61, 100
1, 38320, Note_on_c, 0, 70, 100
1, 38480, Note_on_c, 0, 69, 100
1, 38480, Note_on_c, 0, 70, 0
1, 38640, Note_on_c, 0, 45, 100
1, 38640, Note_on_c, 0, 57, 0
1, 38640, Note_on_c, 0, 61, 0
1, 38640, Note_on_c, 0, 69, 0
1, 38800, Note_on_c, 0, 62, 100
1, 38800, Note_on_c, 0, 69, 100
1, 38960, Note_on_c, 0, 67, 100
1, 38960, Note_on_c, 0, 69, 0
1, 39120, Note_on_c, 0, 45, 0
1, 39120, Note_on_c, 0, 52, 100
1, 39120, Note_on_c, 0, 62, 0
1, 39120, Note_on_c, 0, 67, 0
1, 39280, Note_on_c, 0, 62, 100
1, 39280, Note_on_c, 0, 69, 100
1, 39440, Note_on_c, 0, 67, 100
1, 39440, Note_on_c, 0, 69, 0
1, 39600, Note_on_c, 0, 52, 0
1, 39600, Note_on_c, 0, 58, 100
1, 39600, Note_on_c, 0, 62, 0
1, 39600, Note_on_c, 0, 67, 0
1, 39760, Note_on_c, 0, 62, 100
1, 39760, Note_on_c, 0, 69, 100
1, 39920, Note_on_c, 0, 67, 100
1, 39920, Note_on_c, 0, 69, 0
1, 40080, Note_on_c, 0, 45, 100
1, 40080, Note_on_c, 0, 58, 0
1, 40080, Note_on_c, 0, 62, 0
1, 40080, Note_on_c, 0, 67, 0
1, 40320, Note_on_c, 0, 45, 0
1, 40320, Note_on_c, 0, 57, 100
1, 40320, Note_on_c, 0, 81, 100
1, 40560, Note_on_c, 0, 57, 0
1, 40560, Note_on_c, 0, 59, 100
1, 40560, Note_on_c, 0, 81, 0
1, 40560, Note_on_c, 0, 83, 100
1, 40800, Note_on_c, 0, 59, 0
1, 40800, Note_on_c, 0, 61, 100
1, 40800, Note_on_c, 0, 83, 0
1, 40800, Note_on_c, 0, 85, 100
1, 41040, Note_on_c, 0, 61, 0
1, 41040, Note_on_c, 0, 62, 100
1, 41040, Note_on_c, 0, 85, 0
1, 41040, Note_on_c, 0, 86, 100
1, 41280, Note_on_c, 0, 62, 0
1, 41280, Note_on_c, 0, 64, 100
1, 41280, Note_on_c, 0, 86, 0
1, 41280, Note_on_c, 0, 88, 100
1, 41520, Note_on_c, 0, 64, 0
1, 41520, Note_on_c, 0, 65, 100
1, 41520, Note_on_c, 0, 88, 0
1, 41520, Note_on_c, 0, 89, 100
1, 41880, Note_on_c, 0, 64, 100
1, 41880, Note_on_c, 0, 65, 0
1, 41880, Note_on_c, 0, 88, 100
1, 41880, Note_on_c, 0, 89, 0
1, 41940, Note_on_c, 0, 64, 0
1, 41940, Note_on_c, 0, 65, 100
1, 41940, Note_on_c, 0, 88, 0
1, 41940, Note_on_c, 0, 89, 100
1, 42000, Note_on_c, 0, 64, 100
1, 42000, Note_on_c, 0, 65, 0
1, 42000, Note_on_c, 0, 88, 100
1, 42000, Note_on_c, 0, 89, 0
1, 42240, Note_on_c, 0, 62, 100
1, 42240, Note_on_c, 0, 64, 0
1, 42240, Note_on_c, 0, 86, 100
1, 42240, Note_on_c, 0, 88, 0
1, 42480, Note_on_c, 0, 60, 100
1, 42480, Note_on_c, 0, 62, 0
1, 42480, Note_on_c, 0, 84, 100
1, 42480, Note_on_c, 0, 86, 0
1, 42720, Note_on_c, 0, 60, 0
1, 42720, Note_on_c, 0, 62, 100
1, 42720, Note_on_c, 0, 84, 0
1, 42720, Note_on_c, 0, 86, 100
1, 42960, Note_on_c, 0, 62, 0
1, 42960, Note_on_c, 0, 64, 100
1, 42960, Note_on_c, 0, 86, 0
1, 42960, Note_on_c, 0, 88, 100
1, 43200, Note_on_c, 0, 64, 0
1, 43200, Note_on_c, 0, 65, 100
1, 43200, Note_on_c, 0, 88, 0
1, 43200, Note_on_c, 0, 89, 100
1, 43440, Note_on_c, 0, 65, 0
1, 43440, Note_on_c, 0, 67, 100
1, 43440, Note_on_c, 0, 89, 0
1, 43440, Note_on_c, 0, 91, 100
1, 43680, Note_on_c, 0, 64, 100
1, 43680, Note_on_c, 0, 67, 0
1, 43680, Note_on_c, 0, 88, 100
1, 43680, Note_on_c, 0, 91, 0
1, 43920, Note_on_c, 0, 64, 0
1, 43920, Note_on_c, 0, 65, 100
1, 43920, Note_on_c, 0, 88, 0
1, 43920, Note_on_c, 0, 89, 100
1, 44160, Note_on_c, 0, 64, 100
1, 44160, Note_on_c, 0, 65, 0
1, 44160, Note_on_c, 0, 88, 100
1, 44160, Note_on_c, 0, 89, 0
1, 44280, Note_on_c, 0, 62, 100
1, 44280, Note_on_c, 0, 64, 0
1, 44280, Note_on_c, 0, 86, 100
1, 44280, Note_on_c, 0, 88, 0
1, 44340, Note_on_c, 0, 62, 0
1, 44340, Note_on_c, 0, 64, 100
1, 44340, Note_on_c, 0, 86, 0
1, 44340, Note_on_c, 0, 88, 100
1, 44400, Note_on_c, 0, 62, 100
1, 44400, Note_on_c, 0, 64, 0
1, 44400, Note_on_c, 0, 86, 100
1, 44400, Note_on_c, 0, 88, 0
1, 44880, Note_on_c, 0, 60, 100
1, 44880, Note_on_c, 0, 62, 0
1, 44880, Note_on_c, 0, 84, 100
1, 44880, Note_on_c, 0, 86, 0
1, 45360, Note_on_c, 0, 58, 100
1, 45360, Note_on_c, 0, 60, 0
1, 45360, Note_on_c, 0, 82, 100
1, 45360, Note_on_c, 0, 84, 0
1, 45840, Note_on_c, 0, 57, 100
1, 45840, Note_on_c, 0, 58, 0
1, 45840, Note_on_c, 0, 81, 100
1, 45840, Note_on_c, 0, 82, 0
1, 46080, Note_on_c, 0, 57, 0
1, 46080, Note_on_c, 0, 59, 100
1, 46080, Note_on_c, 0, 81, 0
1, 46080, Note_on_c, 0, 83, 100
1, 46320, Note_on_c, 0, 59, 0
1, 46320, Note_on_c, 0, 61, 100
1, 46320, Note_on_c, 0, 83, 0
1, 46320, Note_on_c, 0, 85, 100
1, 46560, Note_on_c, 0, 61, 0
1, 46560, Note_on_c, 0, 62, 100
1, 46560, Note_on_c, 0, 85, 0
1, 46560, Note_on_c, 0, 86, 100
1, 46800, Note_on_c, 0, 62, 0
1, 46800, Note_on_c, 0, 64, 100
1, 46800, Note_on_c, 0, 86, 0
1, 46800, Note_on_c, 0, 88, 100
1, 47040, Note_on_c, 0, 64, 0
1, 47040, Note_on_c, 0, 65, 100
1, 47040, Note_on_c, 0, 88, 0
1, 47040, Note_on_c, 0, 89, 100
1, 47280, Note_on_c, 0, 65, 0
1, 47280, Note_on_c, 0, 67, 100
1, 47280, Note_on_c, 0, 89, 0
1, 47280, Note_on_c, 0, 91, 100
1, 47520, Note_on_c, 0, 67, 0
1, 47520, Note_on_c, 0, 69, 100
1, 47520, Note_on_c, 0, 91, 0
1, 47520, Note_on_c, 0, 93, 100
1, 47640, Note_on_c, 0, 69, 0
1, 47640, Note_on_c, 0, 70, 100
1, 47640, Note_on_c, 0, 93, 0
1, 47640, Note_on_c, 0, 94, 100
1, 47700, Note_on_c, 0, 70, 0
1, 47700, Note_on_c, 0, 72, 100
1, 47700, Note_on_c, 0, 94, 0
1, 47700, Note_on_c, 0, 96, 100
1, 47760, Note_on_c, 0, 70, 100
1, 47760, Note_on_c, 0, 72, 0
1, 47760, Note_on_c, 0, 94, 100
1, 47760, Note_on_c, 0, 96, 0
1, 48240, Note_on_c, 0, 69, 100
1, 48240, Note_on_c, 0, 70, 0
1, 48240, Note_on_c, 0, 93, 100
1, 48240, Note_on_c, 0, 94, 0
1, 48480, Note_on_c, 0, 67, 100
1, 48480, Note_on_c, 0, 69, 0
1, 48480, Note_on_c, 0, 91, 100
1, 48480, Note_on_c, 0, 93, 0
1, 48720, Note_on_c, 0, 67, 0
1, 48720, Note_on_c, 0, 69, 100
1, 48720, Note_on_c, 0, 91, 0
1, 48720, Note_on_c, 0, 93, 100
1, 49200, Note_on_c, 0, 69, 0
1, 49200, Note_on_c, 0, 69, 100
1, 49200, Note_on_c, 0, 93, 0
1, 49200, Note_on_c, 0, 93, 100
1, 49440, Note_on_c, 0, 67, 100
1, 49440, Note_on_c, 0, 69, 0
1, 49440, Note_on_c, 0, 91, 100
1, 49440, Note_on_c, 0, 93, 0
1, 49680, Note_on_c, 0, 67, 0
1, 49680, Note_on_c, 0, 70, 100
1, 49680, Note_on_c, 0, 91, 0
1, 49680, Note_on_c, 0, 94, 100
1, 49920, Note_on_c, 0, 69, 100
1, 49920, Note_on_c, 0, 70, 0
1, 49920, Note_on_c, 0, 93, 100
1, 49920, Note_on_c, 0, 94, 0
1, 50040, Note_on_c, 0, 65, 100
1, 50040, Note_on_c, 0, 69, 0
1, 50040, Note_on_c, 0, 89, 100
1, 50040, Note_on_c, 0, 93, 0
1, 50100, Note_on_c, 0, 65, 0
1, 50100, Note_on_c, 0, 67, 100
1, 50100, Note_on_c, 0, 89, 0
1, 50100, Note_on_c, 0, 91, 100
1, 50160, Note_on_c, 0, 65, 100
1, 50160, Note_on_c, 0, 67, 0
1, 50160, Note_on_c, 0, 89, 100
1, 50160, Note_on_c, 0, 91, 0
1, 50400, Note_on_c, 0, 63, 100
1, 50400, Note_on_c, 0, 65, 0
1, 50400, Note_on_c, 0, 87, 100
1, 50400, Note_on_c, 0, 89, 0
1, 50640, Note_on_c, 0, 62, 100
1, 50640, Note_on_c, 0, 63, 0
1, 50640, Note_on_c, 0, 86, 100
1, 50640, Note_on_c, 0, 87, 0
1, 50880, Note_on_c, 0, 62, 0
1, 50880, Note_on_c, 0, 64, 100
1, 50880, Note_on_c, 0, 86, 0
1, 50880, Note_on_c, 0, 88, 100
1, 51120, Note_on_c, 0, 60, 100
1, 51120, Note_on_c, 0, 64, 0
1, 51120, Note_on_c, 0, 84, 100
1, 51120, Note_on_c, 0, 88, 0
1, 51360, Note_on_c, 0, 58, 100
1, 51360, Note_on_c, 0, 60, 0
1, 51360, Note_on_c, 0, 82, 100
1, 51360, Note_on_c, 0, 84, 0
1, 51600, Note_on_c, 0, 45, 100
1, 51600, Note_on_c, 0, 58, 0
1, 51600, Note_on_c, 0, 82, 0
1, 51760, Note_on_c, 0, 61, 100
1, 51760, Note_on_c, 0, 70, 100
1, 51920, Note_on_c, 0, 69, 100
1, 51920, Note_on_c, 0, 70, 0
1, 52080, Note_on_c, 0, 45, 0
1, 52080, Note_on_c, 0, 52, 100
1, 52080, Note_on_c, 0, 61, 0
1, 52080, Note_on_c, 0, 69, 0
1, 52240, Note_on_c, 0, 61, 100
1, 52240, Note_on_c, 0, 70, 100
1, 52400, Note_on_c, 0, 69, 100
1, 52400, Note_on_c, 0, 70, 0
1, 52560, Note_on_c, 0, 52, 0
1, 52560, Note_on_c, 0, 57, 100
1, 52560, Note_on_c, 0, 61, 0
1, 52560, Note_on_c, 0, 69, 0
1, 52720, Note_on_c, 0, 61, 100
1, 52720, Note_on_c, 0, 70, 100
1, 52880, Note_on_c, 0, 69, 100
1, 52880, Note_on_c, 0, 70, 0
1, 53040, Note_on_c, 0, 45, 100
1, 53040, Note_on_c, 0, 57, 0
1, 53040, Note_on_c, 0, 61, 0
1, 53040, Note_on_c, 0, 69, 0
1, 53200, Note_on_c, 0, 62, 100
1, 53200, Note_on_c, 0, 69, 100
1, 53360, Note_on_c, 0, 67, 100
1, 53360, Note_on_c, 0, 69, 0
1, 53520, Note_on_c, 0, 45, 0
1, 53520, Note_on_c, 0, 52, 100
1, 53520, Note_on_c, 0, 62, 0
1, 53520, Note_on_c, 0, 67, 0
1, 53680, Note_on_c, 0, 62, 100
1, 53680, Note_on_c, 0, 69, 100
1, 53840, Note_on_c, 0, 67, 100
1, 53840, Note_on_c, 0, 69, 0
1, 54000, Note_on_c, 0, 52, 0
1, 54000, Note_on_c, 0, 58, 100
1, 54000, Note_on_c, 0, 62, 0
1, 54000, Note_on_c, 0, 67, 0
1, 54160, Note_on_c, 0, 62, 100
1, 54160, Note_on_c, 0, 69, 100
1, 54320, Note_on_c, 0, 67, 100
1, 54320, Note_on_c, 0, 69, 0
1, 54480, Note_on_c, 0, 45, 100
1, 54480, Note_on_c, 0, 58, 0
1, 54480, Note_on_c, 0, 62, 0
1, 54480, Note_on_c, 0, 67, 0
1, 54640, Note_on_c, 0, 61, 100
1, 54640, Note_on_c, 0, 70, 100
1, 54800, Note_on_c, 0, 69, 100
1, 54800, Note_on_c, 0, 70, 0
1, 54960, Note_on_c, 0, 45, 0
1, 54960, Note_on_c, 0, 52, 100
1, 54960, Note_on_c, 0, 61, 0
1, 54960, Note_on_c, 0, 69, 0
1, 55120, Note_on_c, 0, 61, 100
1, 55120, Note_on_c, 0, 70, 100
1, 55280, Note_on_c, 0, 69, 100
1, 55280, Note_on_c, 0, 70, 0
1, 55440, Note_on_c, 0, 52, 0
1, 55440, Note_on_c, 0, 57, 100
1, 55440, Note_on_c, 0, 61, 0
1, 55440, Note_on_c, 0, 69, 0
1, 55600, Note_on_c, 0, 61, 100
1, 55600, Note_on_c, 0, 70, 100
1, 55760, Note_on_c, 0, 69, 100
1, 55760, Note_on_c, 0, 70, 0
1, 55920, Note_on_c, 0, 45, 100
1, 55920, Note_on_c, 0, 57, 0
1, 55920, Note_on_c, 0, 61, 0
1, 55920, Note_on_c, 0, 69, 0
1, 56080, Note_on_c, 0, 62, 100
1, 56080, Note_on_c, 0, 70, 100
1, 56240, Note_on_c, 0, 69, 100
1, 56240, Note_on_c, 0, 70, 0
1, 56400, Note_on_c, 0, 45, 0
1, 56400, Note_on_c, 0, 52, 100
1, 56400, Note_on_c, 0, 62, 0
1, 56400, Note_on_c, 0, 69, 0
1, 56560, Note_on_c, 0, 62, 100
1, 56560, Note_on_c, 0, 69, 100
1, 56720, Note_on_c, 0, 67, 100
1, 56720, Note_on_c, 0, 69, 0
1, 56880, Note_on_c, 0, 52, 0
1, 56880, Note_on_c, 0, 58, 100
1, 56880, Note_on_c, 0, 62, 0
1, 56880, Note_on_c, 0, 67, 0
1, 57040, Note_on_c, 0, 62, 100
1, 57040, Note_on_c, 0, 67, 100
1, 57200, Note_on_c, 0, 64, 100
1, 57200, Note_on_c, 0, 67, 0
1, 57360, Note_on_c, 0, 45, 100
1, 57360, Note_on_c, 0, 58, 0
1, 57360, Note_on_c, 0, 62, 0
1, 57360, Note_on_c, 0, 64, 0
1, 57520, Note_on_c, 0, 61, 100
1, 57520, Note_on_c, 0, 70, 100
1, 57680, Note_on_c, 0, 69, 100
1, 57680, Note_on_c, 0, 70, 0
1, 57840, Note_on_c, 0, 45, 0
1, 57840, Note_on_c, 0, 52, 100
1, 57840, Note_on_c, 0, 61, 0
1, 57840, Note_on_c, 0, 69, 0
1, 58000, Note_on_c, 0, 61, 100
1, 58000, Note_on_c, 0, 70, 100
1, 58160, Note_on_c, 0, 69, 100
1, 58160, Note_on_c, 0, 70, 0
1, 58320, Note_on_c, 0, 52, 0
1, 58320, Note_on_c, 0, 57, 100
1, 58320, Note_on_c, 0, 61, 0
1, 58320, Note_on_c, 0, 69, 0
1, 58480, Note_on_c, 0, 61, 100
1, 58480, Note_on_c, 0, 70, 100
1, 58640, Note_on_c, 0, 69, 100
1, 58640, Note_on_c, 0, 70, 0
1, 58800, Note_on_c, 0, 41, 100
1, 58800, Note_on_c, 0, 57, 0
1, 58800, Note_on_c, 0, 61, 0
1, 58800, Note_on_c, 0, 69, 0
1, 58960, Note_on_c, 0, 57, 100
1, 58960, Note_on_c, 0, 67, 100
1, 59120, Note_on_c, 0, 65, 100
1, 59120, Note_on_c, 0, 67, 0
1, 59280, Note_on_c, 0, 41, 0
1, 59280, Note_on_c, 0, 48, 100
1, 59280, Note_on_c, 0, 57, 0
1, 59280, Note_on_c, 0, 65, 0
1, 59440, Note_on_c, 0, 57, 100
1, 59440, Note_on_c, 0, 67, 100
1, 59600, Note_on_c, 0, 65, 100
1, 59600, Note_on_c, 0, 67, 0
1, 59760, Note_on_c, 0, 48, 0
1, 59760, Note_on_c, 0, 57, 0
1, 59760, Note_on_c, 0, 57, 100
1, 59760, Note_on_c, 0, 65, 0
1, 59910, Note_on_c, 0, 57, 0
1, 59920, Note_on_c, 0, 57, 100
1, 59920, Note_on_c, 0, 67, 100
1, 60080, Note_on_c, 0, 65, 100
1, 60080, Note_on_c, 0, 67, 0
1, 60240, Note_on_c, 0, 48, 100
1, 60240, Note_on_c, 0, 57, 0
1, 60240, Note_on_c, 0, 65, 0
1, 60400, Note_on_c, 0, 60, 100
1, 60400, Note_on_c, 0, 65, 100
1, 60560, Note_on_c, 0, 64, 100
1, 60560, Note_on_c, 0, 65, 0
1, 60720, Note_on_c, 0, 48, 0
1, 60720, Note_on_c, 0, 55, 100
1, 60720, Note_on_c, 0, 60, 0
1, 60720, Note_on_c, 0, 64, 0
1, 60880, Note_on_c, 0, 60, 100
1, 60880, Note_on_c, 0, 65, 100
1, 61040, Note_on_c, 0, 64, 100
1, 61040, Note_on_c, 0, 65, 0
1, 61200, Note_on_c, 0, 55, 0
1, 61200, Note_on_c, 0, 60, 0
1, 61200, Note_on_c, 0, 60, 100
1, 61200, Note_on_c, 0, 64, 0
1, 61350, Note_on_c, 0, 60, 0
1, 61360, Note_on_c, 0, 60, 100
1, 61360, Note_on_c, 0, 65, 100
1, 61520, Note_on_c, 0, 64, 100
1, 61520, Note_on_c, 0, 65, 0
1, 61680, Note_on_c, 0, 55, 100
1, 61680, Note_on_c, 0, 60, 0
1, 61680, Note_on_c, 0, 64, 0
1, 61800, Note_on_c, 0, 55, 0
1, 61840, Note_on_c, 0, 58, 100
1, 61840, Note_on_c, 0, 64, 100
1, 62000, Note_on_c, 0, 62, 100
1, 62000, Note_on_c, 0, 64, 0
1, 62160, Note_on_c, 0, 57, 100
1, 62160, Note_on_c, 0, 58, 0
1, 62160, Note_on_c, 0, 62, 0
1, 62280, Note_on_c, 0, 57, 0
1, 62320, Note_on_c, 0, 58, 100
1, 62320, Note_on_c, 0, 64, 100
1, 62480, Note_on_c, 0, 62, 100
1, 62480, Note_on_c, 0, 64, 0
1, 62580, Note_on_c, 0, 60, 100
1, 62640, Note_on_c, 0, 58, 0
1, 62640, Note_on_c, 0, 58, 100
1, 62640, Note_on_c, 0, 60, 0
1, 62640, Note_on_c, 0, 62, 0
1, 62760, Note_on_c, 0, 58, 0
1, 62800, Note_on_c, 0, 58, 100
1, 62800, Note_on_c, 0, 64, 100
1, 62960, Note_on_c, 0, 62, 100
1, 62960, Note_on_c, 0, 64, 0
1, 63120, Note_on_c, 0, 45, 100
1, 63120, Note_on_c, 0, 58, 0
1, 63120, Note_on_c, 0, 62, 0
1, 63600, Note_on_c, 0, 45, 0
1, 63600, Note_on_c, 0, 52, 100
1, 64080, Note_on_c, 0, 52, 0
1, 64080, Note_on_c, 0, 57, 100
1, 64080, Note_on_c, 0, 61, 100
1, 64080, Note_on_c, 0, 64, 100
1, 64560, Note_on_c, 0, 50, 100
1, 64560, Note_on_c, 0, 57, 0
1, 64560, Note_on_c, 0, 61, 0
1, 64560, Note_on_c, 0, 64, 0
1, 64720, Note_on_c, 0, 50, 0
1, 64720, Note_on_c, 0, 52, 100
1, 64880, Note_on_c, 0, 52, 0
1, 64880, Note_on_c, 0, 53, 100
1, 65040, Note_on_c, 0, 53, 0
1, 65040, Note_on_c, 0, 55, 100
1, 65040, Note_on_c, 0, 58, 100
1, 65040, Note_on_c, 0, 62, 100
1, 65040, Note_on_c, 0, 64, 100
1, 65200, Note_on_c, 0, 55, 0
1, 65200, Note_on_c, 0, 57, 100
1, 65280, Note_on_c, 0, 58, 0
1, 65280, Note_on_c, 0, 62, 0
1, 65280, Note_on_c, 0, 64, 0
1, 65360, Note_on_c, 0, 57, 0
1, 65360, Note_on_c, 0, 58, 100
1, 65520, Note_on_c, 0, 58, 0
1, 65520, Note_on_c, 0, 60, 100
1, 65680, Note_on_c, 0, 58, 100
1, 65680, Note_on_c, 0, 60, 0
1, 65840, Note_on_c, 0, 57, 100
1, 65840, Note_on_c, 0, 58, 0
1, 66000, Note_on_c, 0, 45, 100
1, 66000, Note_on_c, 0, 57, 0
1, 66480, Note_on_c, 0, 45, 0
1, 66480, Note_on_c, 0, 52, 100
1, 66960, Note_on_c, 0, 52, 0
1, 66960, Note_on_c, 0, 57, 100
1, 66960, Note_on_c, 0, 61, 100
1, 66960, Note_on_c, 0, 64, 100
1, 67440, Note_on_c, 0, 50, 100
1, 67440, Note_on_c, 0, 57, 0
1, 67440, Note_on_c, 0, 61, 0
1, 67440, Note_on_c, 0, 64, 0
1, 67600, Note_on_c, 0, 50, 0
1, 67600, Note_on_c, 0, 52, 100
1, 67760, Note_on_c, 0, 52, 0
1, 67760, Note_on_c, 0, 53, 100
1, 67920, Note_on_c, 0, 53, 0
1, 67920, Note_on_c, 0, 55, 100
1, 67920, Note_on_c, 0, 58, 100
1, 67920, Note_on_c, 0, 62, 100
1, 67920, Note_on_c, 0, 64, 100
1, 68080, Note_on_c, 0, 55, 0
1, 68080, Note_on_c, 0, 57, 100
1, 68160, Note_on_c, 0, 58, 0
1, 68160, Note_on_c, 0, 62, 0
1, 68160, Note_on_c, 0, 64, 0
1, 68240, Note_on_c, 0, 57, 0
1, 68240, Note_on_c, 0, 58, 100
1, 68400, Note_on_c, 0, 58, 0
1, 68400, Note_on_c, 0, 60, 100
1, 68560, Note_on_c, 0, 58, 100
1, 68560, Note_on_c, 0, 60, 0
1, 68720, Note_on_c, 0, 57, 100
1, 68720, Note_on_c, 0, 58, 0
1, 68880, Note_on_c, 0, 56, 100
1, 68880, Note_on_c, 0, 57, 0
1, 68880, Note_on_c, 0, 62, 100
1, 68880, Note_on_c, 0, 70, 100
1, 68880, Note_on_c, 0, 76, 100
1, 70320, Note_on_c, 0, 56, 0
1, 70320, Note_on_c, 0, 58, 100
1, 70320, Note_on_c, 0, 62, 0
1, 70320, Note_on_c, 0, 70, 0
1, 70320, Note_on_c, 0, 76, 0
1, 70320, Note_on_c, 0, 82, 100
1, 72000, Note_on_c, 0, 58, 0
1, 72000, Note_on_c, 0, 60, 100
1, 72000, Note_on_c, 0, 82, 0
1, 72000, Note_on_c, 0, 84, 100
1, 72240, Note_on_c, 0, 60, 0
1, 72240, Note_on_c, 0, 62, 100
1, 72240, Note_on_c, 0, 84, 0
1, 72240, Note_on_c, 0, 86, 100
1, 72480, Note_on_c, 0, 62, 0
1, 72480, Note_on_c, 0, 65, 100
1, 72480, Note_on_c, 0, 86, 0
1, 72480, Note_on_c, 0, 89, 100
1, 72720, Note_on_c, 0, 62, 100
1, 72720, Note_on_c, 0, 65, 0
1, 72720, Note_on_c, 0, 86, 100
1, 72720, Note_on_c, 0, 89, 0
1, 72960, Note_on_c, 0, 60, 100
1, 72960, Note_on_c, 0, 62, 0
1, 72960, Note_on_c, 0, 84, 100
1, 72960, Note_on_c, 0, 86, 0
1, 73080, Note_on_c, 0, 60, 0
1, 73080, Note_on_c, 0, 60, 100
1, 73080, Note_on_c, 0, 84, 0
1, 73080, Note_on_c, 0, 84, 100
1, 73140, Note_on_c, 0, 60, 0
1, 73140, Note_on_c, 0, 62, 100
1, 73140, Note_on_c, 0, 84, 0
1, 73140, Note_on_c, 0, 86, 100
1, 73200, Note_on_c, 0, 60, 100
1, 73200, Note_on_c, 0, 62, 0
1, 73200, Note_on_c, 0, 84, 100
1, 73200, Note_on_c, 0, 86, 0
1, 73440, Note_on_c, 0, 58, 100
1, 73440, Note_on_c, 0, 60, 0
1, 73440, Note_on_c, 0, 82, 100
1, 73440, Note_on_c, 0, 84, 0
1, 73680, Note_on_c, 0, 53, 100
1, 73680, Note_on_c, 0, 58, 0
1, 73680, Note_on_c, 0, 77, 100
1, 73680, Note_on_c, 0, 82, 0
1, 73920, Note_on_c, 0, 53, 0
1, 73920, Note_on_c, 0, 58, 100
1, 73920, Note_on_c, 0, 77, 0
1, 73920, Note_on_c, 0, 82, 100
1, 74160, Note_on_c, 0, 57, 100
1, 74160, Note_on_c, 0, 58, 0
1, 74160, Note_on_c, 0, 81, 100
1, 74160, Note_on_c, 0, 82, 0
1, 75120, Note_on_c, 0, 56, 100
1, 75120, Note_on_c, 0, 57, 0
1, 75120, Note_on_c, 0, 80, 100
1, 75120, Note_on_c, 0, 81, 0
1, 75360, Note_on_c, 0, 53, 100
1, 75360, Note_on_c, 0, 56, 0
1, 75360, Note_on_c, 0, 77, 100
1, 75360, Note_on_c, 0, 80, 0
1, 75600, Note_on_c, 0, 52, 100
1, 75600, Note_on_c, 0, 53, 0
1, 75600, Note_on_c, 0, 76, 100
1, 75600, Note_on_c, 0, 77, 0
1, 75840, Note_on_c, 0, 50, 100
1, 75840, Note_on_c, 0, 52, 0
1, 75840, Note_on_c, 0, 74, 100
1, 75840, Note_on_c, 0, 76, 0
1, 76080, Note_on_c, 0, 45, 100
1, 76080, Note_on_c, 0, 50, 0
1, 76080, Note_on_c, 0, 74, 0
1, 76320, Note_on_c, 0, 45, 0
1, 76320, Note_on_c, 0, 52, 100
1, 76320, Note_on_c, 0, 57, 100
1, 76558, Note_on_c, 0, 57, 0
1, 76560, Note_on_c, 0, 52, 0
1, 76560, Note_on_c, 0, 57, 100
1, 76560, Note_on_c, 0, 61, 100
1, 76800, Note_on_c, 0, 57, 0
1, 76800, Note_on_c, 0, 61, 0
1, 76800, Note_on_c, 0, 61, 100
1, 76800, Note_on_c, 0, 64, 100
1, 77040, Note_on_c, 0, 61, 0
1, 77040, Note_on_c, 0, 64, 0
1, 77040, Note_on_c, 0, 64, 100
1, 77040, Note_on_c, 0, 69, 100
1, 77280, Note_on_c, 0, 64, 0
1, 77280, Note_on_c, 0, 69, 0
1, 77280, Note_on_c, 0, 69, 100
1, 77280, Note_on_c, 0, 73, 100
1, 77520, Note_on_c, 0, 69, 0
1, 77520, Note_on_c, 0, 73, 0
1, 77520, Note_on_c, 0, 73, 100
1, 77520, Note_on_c, 0, 76, 100
1, 77760, Note_on_c, 0, 61, 100
1, 77760, Note_on_c, 0, 69, 100
1, 77760, Note_on_c, 0, 73, 0
1, 77760, Note_on_c, 0, 76, 0
1, 78000, Note_on_c, 0, 61, 0
1, 78000, Note_on_c, 0, 64, 100
1, 78000, Note_on_c, 0, 69, 0
1, 78000, Note_on_c, 0, 73, 100
1, 78240, Note_on_c, 0, 64, 0
1, 78240, Note_on_c, 0, 69, 100
1, 78240, Note_on_c, 0, 73, 0
1, 78240, Note_on_c, 0, 76, 100
1, 78480, Note_on_c, 0, 69, 0
1, 78480, Note_on_c, 0, 73, 100
1, 78480, Note_on_c, 0, 76, 0
1, 78480, Note_on_c, 0, 81, 100
1, 78720, Note_on_c, 0, 73, 0
1, 78720, Note_on_c, 0, 76, 100
1, 78720, Note_on_c, 0, 81, 0
1, 78720, Note_on_c, 0, 85, 100
1, 78960, Note_on_c, 0, 76, 0
1, 78960, Note_on_c, 0, 81, 100
1, 78960, Note_on_c, 0, 85, 0
1, 78960, Note_on_c, 0, 88, 100
1, 79200, Note_on_c, 0, 61, 100
1, 79200, Note_on_c, 0, 69, 100
1, 79200, Note_on_c, 0, 81, 0
1, 79200, Note_on_c, 0, 88, 0
1, 79440, Note_on_c, 0, 61, 0
1, 79440, Note_on_c, 0, 64, 100
1, 79440, Note_on_c, 0, 69, 0
1, 79440, Note_on_c, 0, 73, 100
1, 79680, Note_on_c, 0, 64, 0
1, 79680, Note_on_c, 0, 69, 100
1, 79680, Note_on_c, 0, 73, 0
1, 79680, Note_on_c, 0, 76, 100
1, 79920, Note_on_c, 0, 69, 0
1, 79920, Note_on_c, 0, 73, 100
1, 79920, Note_on_c, 0, 76, 0
1, 79920, Note_on_c, 0, 81, 100
1, 80160, Note_on_c, 0, 73, 0
1, 80160, Note_on_c, 0, 76, 100
1, 80160, Note_on_c, 0, 81, 0
1, 80160, Note_on_c, 0, 85, 100
1, 80400, Note_on_c, 0, 76, 0
1, 80400, Note_on_c, 0, 81, 100
1, 80400, Note_on_c, 0, 85, 0
1, 80400, Note_on_c, 0, 88, 100
1, 80640, Note_on_c, 0, 73, 100
1, 80640, Note_on_c, 0, 81, 0
1, 80640, Note_on_c, 0, 81, 100
1, 80640, Note_on_c, 0, 88, 0
1, 80880, Note_on_c, 0, 73, 0
1, 80880, Note_on_c, 0, 76, 100
1, 80880, Note_on_c, 0, 81, 0
1, 80880, Note_on_c, 0, 85, 100
1, 81120, Note_on_c, 0, 76, 0
1, 81120, Note_on_c, 0, 81, 100
1, 81120, Note_on_c, 0, 85, 0
1, 81120, Note_on_c, 0, 88, 100
1, 81360, Note_on_c, 0, 81, 0
1, 81360, Note_on_c, 0, 85, 100
1, 81360, Note_on_c, 0, 88, 0
1, 81360, Note_on_c, 0, 93, 100
1, 81600, Note_on_c, 0, 85, 0
1, 81600, Note_on_c, 0, 88, 100
1, 81600, Note_on_c, 0, 93, 0
1, 81600, Note_on_c, 0, 97, 100
1, 81840, Note_on_c, 0, 69, 100
1, 81840, Note_on_c, 0, 76, 100
1, 81840, Note_on_c, 0, 85, 100
1, 81840, Note_on_c, 0, 88, 0
1, 81840, Note_on_c, 0, 93, 100
1, 81840, Note_on_c, 0, 97, 0
1, 81840, Note_on_c, 0, 100, 100
1, 81840, Note_on_c, 0, 105, 100
1, 83280, Note_on_c, 0, 69, 0
1, 83280, Note_on_c, 0, 76, 0
1, 83280, Note_on_c, 0, 85, 0
1, 83280, Note_on_c, 0, 93, 0
1, 83280, Note_on_c, 0, 100, 0
1, 83280, Note_on_c, 0, 105, 0
1, 83280, End_track
0, 0, End_of_file
