0, 0, Header, 1, 1, 480
1, 0, Start_track
1, 0, Note_on_c, 0, 36, 100
1, 0, Note_on_c, 0, 39, 100
1, 0, Note_on_c, 0, 43, 100
1, 0, Note_on_c, 0, 48, 100
1, 0, Note_on_c, 0, 51, 100
1, 0, Note_on_c, 0, 55, 100
1, 0, Note_on_c, 0, 60, 100
1, 1320, Note_on_c, 0, 36, 0
1, 1320, Note_on_c, 0, 39, 0
1, 1320, Note_on_c, 0, 43, 0
1, 1320, Note_on_c, 0, 48, 0
1, 1320, Note_on_c, 0, 51, 0
1, 1320, Note_on_c, 0, 51, 100
1, 1320, Note_on_c, 0, 55, 0
1, 1320, Note_on_c, 0, 55, 100
1, 1320, Note_on_c, 0, 60, 0
1, 1320, Note_on_c, 0, 60, 100
1, 1440, Note_on_c, 0, 50, 100
1, 1440, Note_on_c, 0, 51, 0
1, 1440, Note_on_c, 0, 55, 0
1, 1440, Note_on_c, 0, 55, 100
1, 1440, Note_on_c, 0, 59, 100
1, 1440, Note_on_c, 0, 60, 0
1, 1440, Note_on_c, 0, 62, 100
1, 1800, Note_on_c, 0, 48, 100
1, 1800, Note_on_c, 0, 50, 0
1, 1800, Note_on_c, 0, 55, 0
1, 1800, Note_on_c, 0, 55, 100
1, 1800, Note_on_c, 0, 59, 0
1, 1800, Note_on_c, 0, 60, 100
1, 1800, Note_on_c, 0, 62, 0
1, 1800, Note_on_c, 0, 63, 100
1, 1908, Note_on_c, 0, 48, 0
1, 1908, Note_on_c, 0, 55, 0
1, 1908, Note_on_c, 0, 60, 0
1, 1908, Note_on_c, 0, 63, 0
1, 1920, Note_on_c, 0, 54, 100
1, 1920, Note_on_c, 0, 57, 100
1, 1920, Note_on_c, 0, 60, 100
1, 1920, Note_on_c, 0, 63, 100
1, 2880, Note_on_c, 0, 54, 0
1, 2880, Note_on_c, 0, 55, 100
1, 2880, Note_on_c, 0, 57, 0
1, 2880, Note_on_c, 0, 59, 100
1, 2880, Note_on_c, 0, 60, 0
1, 2880, Note_on_c, 0, 62, 100
1, 2880, Note_on_c, 0, 63, 0
1, 3360, Note_on_c, 0, 55, 0
1, 3360, Note_on_c, 0, 59, 0
1, 3360, Note_on_c, 0, 62, 0
1, 3720, Note_on_c, 0, 44, 100
1, 3840, Note_on_c, 0, 44, 0
1, 3840, Note_on_c, 0, 56, 100
1, 3840, Note_on_c, 0, 59, 100
1, 3840, Note_on_c, 0, 62, 100
1, 3840, Note_on_c, 0, 65, 100
1, 5160, Note_on_c, 0, 56, 0
1, 5160, Note_on_c, 0, 56, 100
1, 5160, Note_on_c, 0, 59, 0
1, 5160, Note_on_c, 0, 59, 100
1, 5160, Note_on_c, 0, 62, 0
1, 5160, Note_on_c, 0, 62, 100
1, 5160, Note_on_c, 0, 65, 0
1, 5160, Note_on_c, 0, 65, 100
1, 5268, Note_on_c, 0, 56, 0
1, 5268, Note_on_c, 0, 59, 0
1, 5268, Note_on_c, 0, 62, 0
1, 5268, Note_on_c, 0, 65, 0
1, 5280, Note_on_c, 0, 55, 100
1, 5280, Note_on_c, 0, 59, 100
1, 5280, Note_on_c, 0, 62, 100
1, 5280, Note_on_c, 0, 67, 100
1, 5640, Note_on_c, 0, 53, 100
1, 5640, Note_on_c, 0, 55, 0
1, 5640, Note_on_c, 0, 59, 0
1, 5640, Note_on_c, 0, 59, 100
1, 5640, Note_on_c, 0, 62, 0
1, 5640, Note_on_c, 0, 62, 100
1, 5640, Note_on_c, 0, 67, 0
1, 5640, Note_on_c, 0, 68, 100
1, 5748, Note_on_c, 0, 53, 0
1, 5748, Note_on_c, 0, 59, 0
1, 5748, Note_on_c, 0, 62, 0
1, 5748, Note_on_c, 0, 68, 0
1, 5760, Note_on_c, 0, 51, 100
1, 5760, Note_on_c, 0, 59, 100
1, 5760, Note_on_c, 0, 62, 100
1, 5760, Note_on_c, 0, 68, 100
1, 6720, Note_on_c, 0, 59, 0
1, 6720, Note_on_c, 0, 60, 100
1, 6720, Note_on_c, 0, 62, 0
1, 6720, Note_on_c, 0, 63, 100
1, 6720, Note_on_c, 0, 67, 100
1, 6720, Note_on_c, 0, 68, 0
1, 7200, Note_on_c, 0, 51, 0
1, 7200, Note_on_c, 0, 60, 0
1, 7200, Note_on_c, 0, 63, 0
1, 7200, Note_on_c, 0, 67, 0
1, 7560, Note_on_c, 0, 51, 100
1, 7680, Note_on_c, 0, 51, 0
1, 7680, Note_on_c, 0, 63, 100
1, 7680, Note_on_c, 0, 66, 100
1, 7680, Note_on_c, 0, 69, 100
1, 7680, Note_on_c, 0, 72, 100
1, 9000, Note_on_c, 0, 63, 0
1, 9000, Note_on_c, 0, 63, 100
1, 9000, Note_on_c, 0, 66, 0
1, 9000, Note_on_c, 0, 66, 100
1, 9000, Note_on_c, 0, 69, 0
1, 9000, Note_on_c, 0, 69, 100
1, 9000, Note_on_c, 0, 72, 0
1, 9000, Note_on_c, 0, 72, 100
1, 9108, Note_on_c, 0, 63, 0
1, 9108, Note_on_c, 0, 66, 0
1, 9108, Note_on_c, 0, 69, 0
1, 9108, Note_on_c, 0, 72, 0
1, 9120, Note_on_c, 0, 62, 100
1, 9120, Note_on_c, 0, 66, 100
1, 9120, Note_on_c, 0, 69, 100
1, 9120, Note_on_c, 0, 74, 100
1, 9480, Note_on_c, 0, 60, 100
1, 9480, Note_on_c, 0, 62, 0
1, 9480, Note_on_c, 0, 66, 0
1, 9480, Note_on_c, 0, 66, 100
1, 9480, Note_on_c, 0, 69, 0
1, 9480, Note_on_c, 0, 69, 100
1, 9480, Note_on_c, 0, 74, 0
1, 9480, Note_on_c, 0, 75, 100
1, 9588, Note_on_c, 0, 60, 0
1, 9588, Note_on_c, 0, 66, 0
1, 9588, Note_on_c, 0, 69, 0
1, 9588, Note_on_c, 0, 75, 0
1, 9600, Note_on_c, 0, 60, 100
1, 9600, Note_on_c, 0, 66, 100
1, 9600, Note_on_c, 0, 69, 100
1, 9600, Note_on_c, 0, 75, 100
1, 10560, Note_on_c, 0, 59, 100
1, 10560, Note_on_c, 0, 60, 0
1, 10560, Note_on_c, 0, 62, 100
1, 10560, Note_on_c, 0, 66, 0
1, 10560, Note_on_c, 0, 67, 100
1, 10560, Note_on_c, 0, 69, 0
1, 10560, Note_on_c, 0, 74, 100
1, 10560, Note_on_c, 0, 75, 0
1, 10680, Note_on_c, 0, 59, 0
1, 10680, Note_on_c, 0, 62, 0
1, 10680, Note_on_c, 0, 67, 0
1, 10680, Note_on_c, 0, 74, 0
1, 10920, Note_on_c, 0, 63, 100
1, 10920, Note_on_c, 0, 66, 100
1, 10920, Note_on_c, 0, 69, 100
1, 10920, Note_on_c, 0, 72, 100
1, 11028, Note_on_c, 0, 63, 0
1, 11028, Note_on_c, 0, 66, 0
1, 11028, Note_on_c, 0, 69, 0
1, 11028, Note_on_c, 0, 72, 0
1, 11040, Note_on_c, 0, 62, 100
1, 11040, Note_on_c, 0, 66, 100
1, 11040, Note_on_c, 0, 69, 100
1, 11040, Note_on_c, 0, 74, 100
1, 11400, Note_on_c, 0, 60, 100
1, 11400, Note_on_c, 0, 62, 0
1, 11400, Note_on_c, 0, 66, 0
1, 11400, Note_on_c, 0, 66, 100
1, 11400, Note_on_c, 0, 69, 0
1, 11400, Note_on_c, 0, 69, 100
1, 11400, Note_on_c, 0, 74, 0
1, 11400, Note_on_c, 0, 75, 100
1, 11508, Note_on_c, 0, 60, 0
1, 11508, Note_on_c, 0, 66, 0
1, 11508, Note_on_c, 0, 69, 0
1, 11508, Note_on_c, 0, 75, 0
1, 11520, Note_on_c, 0, 60, 100
1, 11520, Note_on_c, 0, 66, 100
1, 11520, Note_on_c, 0, 69, 100
1, 11520, Note_on_c, 0, 75, 100
1, 12480, Note_on_c, 0, 59, 100
1, 12480, Note_on_c, 0, 60, 0
1, 12480, Note_on_c, 0, 62, 100
1, 12480, Note_on_c, 0, 66, 0
1, 12480, Note_on_c, 0, 67, 100
1, 12480, Note_on_c, 0, 69, 0
1, 12480, Note_on_c, 0, 74, 100
1, 12480, Note_on_c, 0, 75, 0
1, 12960, Note_on_c, 0, 58, 100
1, 12960, Note_on_c, 0, 59, 0
1, 12960, Note_on_c, 0, 60, 100
1, 12960, Note_on_c, 0, 62, 0
1, 12960, Note_on_c, 0, 64, 100
1, 12960, Note_on_c, 0, 67, 0
1, 12960, Note_on_c, 0, 67, 100
1, 12960, Note_on_c, 0, 72, 100
1, 12960, Note_on_c, 0, 74, 0
1, 12960, Note_on_c, 0, 76, 100
1, 13440, Note_on_c, 0, 56, 100
1, 13440, Note_on_c, 0, 58, 0
1, 13440, Note_on_c, 0, 60, 0
1, 13440, Note_on_c, 0, 60, 100
1, 13440, Note_on_c, 0, 64, 0
1, 13440, Note_on_c, 0, 65, 100
1, 13440, Note_on_c, 0, 67, 0
1, 13440, Note_on_c, 0, 68, 100
1, 13440, Note_on_c, 0, 72, 0
1, 13440, Note_on_c, 0, 72, 100
1, 13440, Note_on_c, 0, 76, 0
1, 13440, Note_on_c, 0, 77, 100
1, 13680, Note_on_c, 0, 56, 0
1, 13680, Note_on_c, 0, 60, 0
1, 13680, Note_on_c, 0, 65, 0
1, 13680, Note_on_c, 0, 68, 0
1, 13680, Note_on_c, 0, 72, 0
1, 13680, Note_on_c, 0, 77, 0
1, 13920, Note_on_c, 0, 80, 100
1, 14400, Note_on_c, 0, 34, 100
1, 14400, Note_on_c, 0, 46, 100
1, 14520, Note_on_c, 0, 79, 100
1, 14520, Note_on_c, 0, 80, 0
1, 14580, Note_on_c, 0, 79, 0
1, 14580, Note_on_c, 0, 80, 100
1, 14640, Note_on_c, 0, 80, 0
1, 14640, Note_on_c, 0, 82, 100
1, 14700, Note_on_c, 0, 80, 100
1, 14700, Note_on_c, 0, 82, 0
1, 14760, Note_on_c, 0, 79, 100
1, 14760, Note_on_c, 0, 80, 0
1, 14820, Note_on_c, 0, 77, 100
1, 14820, Note_on_c, 0, 79, 0
1, 14880, Note_on_c, 0, 75, 100
1, 14880, Note_on_c, 0, 77, 0
1, 14940, Note_on_c, 0, 74, 100
1, 14940, Note_on_c, 0, 75, 0
1, 15000, Note_on_c, 0, 72, 100
1, 15000, Note_on_c, 0, 74, 0
1, 15060, Note_on_c, 0, 70, 100
1, 15060, Note_on_c, 0, 72, 0
1, 15120, Note_on_c, 0, 68, 100
1, 15120, Note_on_c, 0, 70, 0
1, 15147, Note_on_c, 0, 67, 100
1, 15147, Note_on_c, 0, 68, 0
1, 15174, Note_on_c, 0, 65, 100
1, 15174, Note_on_c, 0, 67, 0
1, 15201, Note_on_c, 0, 63, 100
1, 15201, Note_on_c, 0, 65, 0
1, 15228, Note_on_c, 0, 62, 100
1, 15228, Note_on_c, 0, 63, 0
1, 15255, Note_on_c, 0, 62, 0
1, 15255, Note_on_c, 0, 65, 100
1, 15282, Note_on_c, 0, 65, 0
1, 15282, Note_on_c, 0, 68, 100
1, 15309, Note_on_c, 0, 65, 100
1, 15309, Note_on_c, 0, 68, 0
1, 15336, Note_on_c, 0, 62, 100
1, 15336, Note_on_c, 0, 65, 0
1, 15360, Note_on_c, 0, 34, 0
1, 15360, Note_on_c, 0, 39, 100
1, 15360, Note_on_c, 0, 46, 0
1, 15360, Note_on_c, 0, 51, 100
1, 15360, Note_on_c, 0, 62, 0
1, 15360, Note_on_c, 0, 63, 100
1, 15588, Note_on_c, 0, 39, 0
1, 15588, Note_on_c, 0, 51, 0
1, 15600, Note_on_c, 0, 51, 100
1, 15600, Note_on_c, 0, 55, 100
1, 15600, Note_on_c, 0, 58, 100
1, 15600, Note_on_c, 0, 63, 0
1, 15828, Note_on_c, 0, 51, 0
1, 15828, Note_on_c, 0, 55, 0
1, 15828, Note_on_c, 0, 58, 0
1, 15840, Note_on_c, 0, 51, 100
1, 15840, Note_on_c, 0, 55, 100
1, 15840, Note_on_c, 0, 58, 100
1, 15840, Note_on_c, 0, 63, 100
1, 15840, Note_on_c, 0, 75, 100
1, 16068, Note_on_c, 0, 51, 0
1, 16068, Note_on_c, 0, 55, 0
1, 16068, Note_on_c, 0, 58, 0
1, 16080, Note_on_c, 0, 51, 100
1, 16080, Note_on_c, 0, 55, 100
1, 16080, Note_on_c, 0, 58, 100
1, 16308, Note_on_c, 0, 51, 0
1, 16308, Note_on_c, 0, 55, 0
1, 16308, Note_on_c, 0, 58, 0
1, 16320, Note_on_c, 0, 51, 100
1, 16320, Note_on_c, 0, 55, 100
1, 16320, Note_on_c, 0, 58, 100
1, 16548, Note_on_c, 0, 51, 0
1, 16548, Note_on_c, 0, 55, 0
1, 16548, Note_on_c, 0, 58, 0
1, 16560, Note_on_c, 0, 51, 100
1, 16560, Note_on_c, 0, 55, 100
1, 16560, Note_on_c, 0, 58, 100
1, 16680, Note_on_c, 0, 63, 0
1, 16680, Note_on_c, 0, 63, 100
1, 16680, Note_on_c, 0, 75, 0
1, 16680, Note_on_c, 0, 75, 100
1, 16788, Note_on_c, 0, 51, 0
1, 16788, Note_on_c, 0, 55, 0
1, 16788, Note_on_c, 0, 58, 0
1, 16800, Note_on_c, 0, 51, 100
1, 16800, Note_on_c, 0, 55, 100
1, 16800, Note_on_c, 0, 58, 100
1, 16800, Note_on_c, 0, 63, 0
1, 16800, Note_on_c, 0, 65, 100
1, 16800, Note_on_c, 0, 75, 0
1, 16800, Note_on_c, 0, 77, 100
1, 17028, Note_on_c, 0, 51, 0
1, 17028, Note_on_c, 0, 55, 0
1, 17028, Note_on_c, 0, 58, 0
1, 17040, Note_on_c, 0, 51, 100
1, 17040, Note_on_c, 0, 55, 100
1, 17040, Note_on_c, 0, 58, 100
1, 17160, Note_on_c, 0, 65, 0
1, 17160, Note_on_c, 0, 67, 100
1, 17160, Note_on_c, 0, 77, 0
1, 17160, Note_on_c, 0, 79, 100
1, 17268, Note_on_c, 0, 51, 0
1, 17268, Note_on_c, 0, 55, 0
1, 17268, Note_on_c, 0, 58, 0
1, 17274, Note_on_c, 0, 67, 0
1, 17274, Note_on_c, 0, 79, 0
1, 17280, Note_on_c, 0, 51, 100
1, 17280, Note_on_c, 0, 56, 100
1, 17280, Note_on_c, 0, 60, 100
1, 17280, Note_on_c, 0, 67, 100
1, 17280, Note_on_c, 0, 79, 100
1, 17508, Note_on_c, 0, 51, 0
1, 17508, Note_on_c, 0, 56, 0
1, 17508, Note_on_c, 0, 60, 0
1, 17520, Note_on_c, 0, 51, 100
1, 17520, Note_on_c, 0, 56, 100
1, 17520, Note_on_c, 0, 60, 100
1, 17748, Note_on_c, 0, 51, 0
1, 17748, Note_on_c, 0, 56, 0
1, 17748, Note_on_c, 0, 60, 0
1, 17760, Note_on_c, 0, 51, 100
1, 17760, Note_on_c, 0, 56, 100
1, 17760, Note_on_c, 0, 60, 100
1, 17760, Note_on_c, 0, 65, 100
1, 17760, Note_on_c, 0, 67, 0
1, 17760, Note_on_c, 0, 77, 100
1, 17760, Note_on_c, 0, 79, 0
1, 17988, Note_on_c, 0, 51, 0
1, 17988, Note_on_c, 0, 56, 0
1, 17988, Note_on_c, 0, 60, 0
1, 18000, Note_on_c, 0, 51, 100
1, 18000, Note_on_c, 0, 56, 100
1, 18000, Note_on_c, 0, 60, 100
1, 18000, Note_on_c, 0, 65, 0
1, 18000, Note_on_c, 0, 77, 0
1, 18120, Note_on_c, 0, 65, 100
1, 18228, Note_on_c, 0, 51, 0
1, 18228, Note_on_c, 0, 56, 0
1, 18228, Note_on_c, 0, 60, 0
1, 18240, Note_on_c, 0, 38, 100
1, 18240, Note_on_c, 0, 50, 100
1, 18240, Note_on_c, 0, 53, 100
1, 18240, Note_on_c, 0, 56, 100
1, 18240, Note_on_c, 0, 59, 100
1, 18240, Note_on_c, 0, 65, 0
1, 18240, Note_on_c, 0, 65, 100
1, 18468, Note_on_c, 0, 38, 0
1, 18468, Note_on_c, 0, 50, 0
1, 18480, Note_on_c, 0, 38, 100
1, 18480, Note_on_c, 0, 50, 100
1, 18600, Note_on_c, 0, 53, 0
1, 18600, Note_on_c, 0, 53, 100
1, 18600, Note_on_c, 0, 56, 0
1, 18600, Note_on_c, 0, 56, 100
1, 18600, Note_on_c, 0, 59, 0
1, 18600, Note_on_c, 0, 59, 100
1, 18600, Note_on_c, 0, 65, 0
1, 18600, Note_on_c, 0, 65, 100
1, 18708, Note_on_c, 0, 38, 0
1, 18708, Note_on_c, 0, 50, 0
1, 18714, Note_on_c, 0, 53, 0
1, 18714, Note_on_c, 0, 56, 0
1, 18714, Note_on_c, 0, 59, 0
1, 18714, Note_on_c, 0, 65, 0
1, 18720, Note_on_c, 0, 36, 100
1, 18720, Note_on_c, 0, 48, 100
1, 18720, Note_on_c, 0, 53, 100
1, 18720, Note_on_c, 0, 56, 100
1, 18720, Note_on_c, 0, 60, 100
1, 18720, Note_on_c, 0, 65, 100
1, 18948, Note_on_c, 0, 36, 0
1, 18948, Note_on_c, 0, 48, 0
1, 18960, Note_on_c, 0, 36, 100
1, 18960, Note_on_c, 0, 48, 100
1, 19080, Note_on_c, 0, 53, 0
1, 19080, Note_on_c, 0, 53, 100
1, 19080, Note_on_c, 0, 56, 0
1, 19080, Note_on_c, 0, 56, 100
1, 19080, Note_on_c, 0, 60, 0
1, 19080, Note_on_c, 0, 60, 100
1, 19080, Note_on_c, 0, 65, 0
1, 19080, Note_on_c, 0, 65, 100
1, 19188, Note_on_c, 0, 36, 0
1, 19188, Note_on_c, 0, 48, 0
1, 19194, Note_on_c, 0, 53, 0
1, 19194, Note_on_c, 0, 56, 0
1, 19194, Note_on_c, 0, 60, 0
1, 19194, Note_on_c, 0, 65, 0
1, 19200, Note_on_c, 0, 35, 100
1, 19200, Note_on_c, 0, 47, 100
1, 19200, Note_on_c, 0, 53, 100
1, 19200, Note_on_c, 0, 56, 100
1, 19200, Note_on_c, 0, 62, 100
1, 19200, Note_on_c, 0, 65, 100
1, 19428, Note_on_c, 0, 35, 0
1, 19428, Note_on_c, 0, 47, 0
1, 19440, Note_on_c, 0, 47, 100
1, 19440, Note_on_c, 0, 50, 100
1, 19440, Note_on_c, 0, 53, 100
1, 19440, Note_on_c, 0, 56, 100
1, 19668, Note_on_c, 0, 47, 0
1, 19668, Note_on_c, 0, 50, 0
1, 19668, Note_on_c, 0, 53, 0
1, 19668, Note_on_c, 0, 56, 0
1, 19680, Note_on_c, 0, 47, 100
1, 19680, Note_on_c, 0, 50, 100
1, 19680, Note_on_c, 0, 53, 0
1, 19680, Note_on_c, 0, 53, 100
1, 19680, Note_on_c, 0, 56, 0
1, 19680, Note_on_c, 0, 56, 100
1, 19680, Note_on_c, 0, 62, 0
1, 19680, Note_on_c, 0, 65, 0
1, 19680, Note_on_c, 0, 65, 100
1, 19680, Note_on_c, 0, 77, 100
1, 19908, Note_on_c, 0, 47, 0
1, 19908, Note_on_c, 0, 50, 0
1, 19908, Note_on_c, 0, 53, 0
1, 19908, Note_on_c, 0, 56, 0
1, 19920, Note_on_c, 0, 47, 100
1, 19920, Note_on_c, 0, 50, 100
1, 19920, Note_on_c, 0, 53, 100
1, 19920, Note_on_c, 0, 56, 100
1, 20148, Note_on_c, 0, 47, 0
1, 20148, Note_on_c, 0, 50, 0
1, 20148, Note_on_c, 0, 53, 0
1, 20148, Note_on_c, 0, 56, 0
1, 20160, Note_on_c, 0, 46, 100
1, 20160, Note_on_c, 0, 50, 100
1, 20160, Note_on_c, 0, 53, 100
1, 20160, Note_on_c, 0, 56, 100
1, 20388, Note_on_c, 0, 46, 0
1, 20388, Note_on_c, 0, 50, 0
1, 20388, Note_on_c, 0, 53, 0
1, 20388, Note_on_c, 0, 56, 0
1, 20400, Note_on_c, 0, 46, 100
1, 20400, Note_on_c, 0, 50, 100
1, 20400, Note_on_c, 0, 53, 100
1, 20400, Note_on_c, 0, 56, 100
1, 20520, Note_on_c, 0, 65, 0
1, 20520, Note_on_c, 0, 65, 100
1, 20520, Note_on_c, 0, 77, 0
1, 20520, Note_on_c, 0, 77, 100
1, 20628, Note_on_c, 0, 46, 0
1, 20628, Note_on_c, 0, 50, 0
1, 20628, Note_on_c, 0, 53, 0
1, 20628, Note_on_c, 0, 56, 0
1, 20640, Note_on_c, 0, 46, 100
1, 20640, Note_on_c, 0, 50, 100
1, 20640, Note_on_c, 0, 53, 100
1, 20640, Note_on_c, 0, 56, 100
1, 20640, Note_on_c, 0, 65, 0
1, 20640, Note_on_c, 0, 67, 100
1, 20640, Note_on_c, 0, 77, 0
1, 20640, Note_on_c, 0, 79, 100
1, 20868, Note_on_c, 0, 46, 0
1, 20868, Note_on_c, 0, 50, 0
1, 20868, Note_on_c, 0, 53, 0
1, 20868, Note_on_c, 0, 56, 0
1, 20880, Note_on_c, 0, 46, 100
1, 20880, Note_on_c, 0, 50, 100
1, 20880, Note_on_c, 0, 53, 100
1, 20880, Note_on_c, 0, 56, 100
1, 21000, Note_on_c, 0, 67, 0
1, 21000, Note_on_c, 0, 68, 100
1, 21000, Note_on_c, 0, 79, 0
1, 21000, Note_on_c, 0, 80, 100
1, 21108, Note_on_c, 0, 46, 0
1, 21108, Note_on_c, 0, 50, 0
1, 21108, Note_on_c, 0, 53, 0
1, 21108, Note_on_c, 0, 56, 0
1, 21114, Note_on_c, 0, 68, 0
1, 21114, Note_on_c, 0, 80, 0
1, 21120, Note_on_c, 0, 46, 100
1, 21120, Note_on_c, 0, 49, 100
1, 21120, Note_on_c, 0, 52, 100
1, 21120, Note_on_c, 0, 55, 100
1, 21120, Note_on_c, 0, 68, 100
1, 21120, Note_on_c, 0, 80, 100
1, 21348, Note_on_c, 0, 46, 0
1, 21348, Note_on_c, 0, 49, 0
1, 21348, Note_on_c, 0, 52, 0
1, 21348, Note_on_c, 0, 55, 0
1, 21360, Note_on_c, 0, 46, 100
1, 21360, Note_on_c, 0, 49, 100
1, 21360, Note_on_c, 0, 52, 100
1, 21360, Note_on_c, 0, 55, 100
1, 21588, Note_on_c, 0, 46, 0
1, 21588, Note_on_c, 0, 49, 0
1, 21588, Note_on_c, 0, 52, 0
1, 21588, Note_on_c, 0, 55, 0
1, 21600, Note_on_c, 0, 46, 100
1, 21600, Note_on_c, 0, 49, 100
1, 21600, Note_on_c, 0, 52, 100
1, 21600, Note_on_c, 0, 55, 100
1, 21600, Note_on_c, 0, 67, 100
1, 21600, Note_on_c, 0, 68, 0
1, 21600, Note_on_c, 0, 79, 100
1, 21600, Note_on_c, 0, 80, 0
1, 21828, Note_on_c, 0, 46, 0
1, 21828, Note_on_c, 0, 49, 0
1, 21828, Note_on_c, 0, 52, 0
1, 21828, Note_on_c, 0, 55, 0
1, 21840, Note_on_c, 0, 46, 100
1, 21840, Note_on_c, 0, 49, 100
1, 21840, Note_on_c, 0, 52, 100
1, 21840, Note_on_c, 0, 55, 100
1, 21840, Note_on_c, 0, 67, 0
1, 21840, Note_on_c, 0, 79, 0
1, 21960, Note_on_c, 0, 55, 100
1, 21960, Note_on_c, 0, 61, 100
1, 21960, Note_on_c, 0, 64, 100
1, 21960, Note_on_c, 0, 67, 100
1, 22068, Note_on_c, 0, 46, 0
1, 22068, Note_on_c, 0, 49, 0
1, 22068, Note_on_c, 0, 52, 0
1, 22068, Note_on_c, 0, 55, 0
1, 22080, Note_on_c, 0, 33, 100
1, 22080, Note_on_c, 0, 45, 100
1, 22080, Note_on_c, 0, 55, 0
1, 22080, Note_on_c, 0, 57, 100
1, 22080, Note_on_c, 0, 61, 0
1, 22080, Note_on_c, 0, 61, 100
1, 22080, Note_on_c, 0, 63, 100
1, 22080, Note_on_c, 0, 64, 0
1, 22080, Note_on_c, 0, 67, 0
1, 22080, Note_on_c, 0, 69, 100
1, 22308, Note_on_c, 0, 33, 0
1, 22308, Note_on_c, 0, 45, 0
1, 22320, Note_on_c, 0, 33, 100
1, 22320, Note_on_c, 0, 45, 100
1, 22440, Note_on_c, 0, 57, 0
1, 22440, Note_on_c, 0, 57, 100
1, 22440, Note_on_c, 0, 61, 0
1, 22440, Note_on_c, 0, 61, 100
1, 22440, Note_on_c, 0, 63, 0
1, 22440, Note_on_c, 0, 63, 100
1, 22440, Note_on_c, 0, 69, 0
1, 22440, Note_on_c, 0, 69, 100
1, 22548, Note_on_c, 0, 33, 0
1, 22548, Note_on_c, 0, 45, 0
1, 22554, Note_on_c, 0, 57, 0
1, 22554, Note_on_c, 0, 61, 0
1, 22554, Note_on_c, 0, 63, 0
1, 22554, Note_on_c, 0, 69, 0
1, 22560, Note_on_c, 0, 31, 100
1, 22560, Note_on_c, 0, 43, 100
1, 22560, Note_on_c, 0, 58, 100
1, 22560, Note_on_c, 0, 61, 100
1, 22560, Note_on_c, 0, 63, 100
1, 22560, Note_on_c, 0, 70, 100
1, 22788, Note_on_c, 0, 31, 0
1, 22788, Note_on_c, 0, 43, 0
1, 22800, Note_on_c, 0, 31, 100
1, 22800, Note_on_c, 0, 43, 100
1, 22920, Note_on_c, 0, 58, 0
1, 22920, Note_on_c, 0, 58, 100
1, 22920, Note_on_c, 0, 61, 0
1, 22920, Note_on_c, 0, 61, 100
1, 22920, Note_on_c, 0, 63, 0
1, 22920, Note_on_c, 0, 63, 100
1, 22920, Note_on_c, 0, 70, 0
1, 22920, Note_on_c, 0, 70, 100
1, 23028, Note_on_c, 0, 31, 0
1, 23028, Note_on_c, 0, 43, 0
1, 23034, Note_on_c, 0, 58, 0
1, 23034, Note_on_c, 0, 61, 0
1, 23034, Note_on_c, 0, 63, 0
1, 23034, Note_on_c, 0, 70, 0
1, 23040, Note_on_c, 0, 30, 100
1, 23040, Note_on_c, 0, 42, 100
1, 23040, Note_on_c, 0, 57, 100
1, 23040, Note_on_c, 0, 62, 100
1, 23040, Note_on_c, 0, 66, 100
1, 23040, Note_on_c, 0, 69, 100
1, 23268, Note_on_c, 0, 30, 0
1, 23268, Note_on_c, 0, 42, 0
1, 23280, Note_on_c, 0, 54, 100
1, 23280, Note_on_c, 0, 57, 100
1, 23280, Note_on_c, 0, 62, 100
1, 23508, Note_on_c, 0, 54, 0
1, 23508, Note_on_c, 0, 57, 0
1, 23508, Note_on_c, 0, 62, 0
1, 23520, Note_on_c, 0, 54, 100
1, 23520, Note_on_c, 0, 57, 0
1, 23520, Note_on_c, 0, 57, 100
1, 23520, Note_on_c, 0, 62, 0
1, 23520, Note_on_c, 0, 62, 100
1, 23520, Note_on_c, 0, 66, 0
1, 23520, Note_on_c, 0, 69, 0
1, 23520, Note_on_c, 0, 69, 100
1, 23520, Note_on_c, 0, 81, 100
1, 23748, Note_on_c, 0, 54, 0
1, 23748, Note_on_c, 0, 57, 0
1, 23748, Note_on_c, 0, 62, 0
1, 23760, Note_on_c, 0, 54, 100
1, 23760, Note_on_c, 0, 57, 100
1, 23760, Note_on_c, 0, 62, 100
1, 23988, Note_on_c, 0, 54, 0
1, 23988, Note_on_c, 0, 57, 0
1, 23988, Note_on_c, 0, 62, 0
1, 24000, Note_on_c, 0, 54, 100
1, 24000, Note_on_c, 0, 57, 100
1, 24000, Note_on_c, 0, 62, 100
1, 24228, Note_on_c, 0, 54, 0
1, 24228, Note_on_c, 0, 57, 0
1, 24228, Note_on_c, 0, 62, 0
1, 24240, Note_on_c, 0, 54, 100
1, 24240, Note_on_c, 0, 57, 100
1, 24240, Note_on_c, 0, 62, 100
1, 24360, Note_on_c, 0, 69, 0
1, 24360, Note_on_c, 0, 69, 100
1, 24360, Note_on_c, 0, 81, 0
1, 24360, Note_on_c, 0, 81, 100
1, 24468, Note_on_c, 0, 54, 0
1, 24468, Note_on_c, 0, 57, 0
1, 24468, Note_on_c, 0, 62, 0
1, 24480, Note_on_c, 0, 54, 100
1, 24480, Note_on_c, 0, 57, 100
1, 24480, Note_on_c, 0, 62, 100
1, 24480, Note_on_c, 0, 69, 0
1, 24480, Note_on_c, 0, 71, 100
1, 24480, Note_on_c, 0, 81, 0
1, 24480, Note_on_c, 0, 83, 100
1, 24708, Note_on_c, 0, 54, 0
1, 24708, Note_on_c, 0, 57, 0
1, 24708, Note_on_c, 0, 62, 0
1, 24720, Note_on_c, 0, 54, 100
1, 24720, Note_on_c, 0, 57, 100
1, 24720, Note_on_c, 0, 62, 100
1, 24840, Note_on_c, 0, 71, 0
1, 24840, Note_on_c, 0, 72, 100
1, 24840, Note_on_c, 0, 83, 0
1, 24840, Note_on_c, 0, 84, 100
1, 24948, Note_on_c, 0, 54, 0
1, 24948, Note_on_c, 0, 57, 0
1, 24948, Note_on_c, 0, 62, 0
1, 24954, Note_on_c, 0, 72, 0
1, 24954, Note_on_c, 0, 84, 0
1, 24960, Note_on_c, 0, 53, 100
1, 24960, Note_on_c, 0, 56, 100
1, 24960, Note_on_c, 0, 62, 100
1, 24960, Note_on_c, 0, 72, 100
1, 24960, Note_on_c, 0, 84, 100
1, 25188, Note_on_c, 0, 53, 0
1, 25188, Note_on_c, 0, 56, 0
1, 25188, Note_on_c, 0, 62, 0
1, 25200, Note_on_c, 0, 53, 100
1, 25200, Note_on_c, 0, 56, 100
1, 25200, Note_on_c, 0, 62, 100
1, 25428, Note_on_c, 0, 53, 0
1, 25428, Note_on_c, 0, 56, 0
1, 25428, Note_on_c, 0, 62, 0
1, 25440, Note_on_c, 0, 53, 100
1, 25440, Note_on_c, 0, 56, 100
1, 25440, Note_on_c, 0, 62, 100
1, 25440, Note_on_c, 0, 71, 100
1, 25440, Note_on_c, 0, 72, 0
1, 25440, Note_on_c, 0, 83, 100
1, 25440, Note_on_c, 0, 84, 0
1, 25668, Note_on_c, 0, 53, 0
1, 25668, Note_on_c, 0, 56, 0
1, 25668, Note_on_c, 0, 62, 0
1, 25680, Note_on_c, 0, 53, 100
1, 25680, Note_on_c, 0, 56, 100
1, 25680, Note_on_c, 0, 62, 100
1, 25680, Note_on_c, 0, 71, 0
1, 25680, Note_on_c, 0, 83, 0
1, 25908, Note_on_c, 0, 53, 0
1, 25908, Note_on_c, 0, 56, 0
1, 25908, Note_on_c, 0, 62, 0
1, 25920, Note_on_c, 0, 50, 100
1, 25920, Note_on_c, 0, 53, 100
1, 25920, Note_on_c, 0, 59, 100
1, 26148, Note_on_c, 0, 50, 0
1, 26148, Note_on_c, 0, 53, 0
1, 26148, Note_on_c, 0, 59, 0
1, 26160, Note_on_c, 0, 50, 100
1, 26160, Note_on_c, 0, 53, 100
1, 26160, Note_on_c, 0, 59, 100
1, 26388, Note_on_c, 0, 50, 0
1, 26388, Note_on_c, 0, 53, 0
1, 26388, Note_on_c, 0, 59, 0
1, 26400, Note_on_c, 0, 50, 100
1, 26400, Note_on_c, 0, 53, 100
1, 26400, Note_on_c, 0, 59, 100
1, 26400, Note_on_c, 0, 71, 100
1, 26400, Note_on_c, 0, 83, 100
1, 26628, Note_on_c, 0, 50, 0
1, 26628, Note_on_c, 0, 53, 0
1, 26628, Note_on_c, 0, 59, 0
1, 26640, Note_on_c, 0, 50, 100
1, 26640, Note_on_c, 0, 53, 100
1, 26640, Note_on_c, 0, 59, 100
1, 26760, Note_on_c, 0, 71, 0
1, 26760, Note_on_c, 0, 72, 100
1, 26760, Note_on_c, 0, 83, 0
1, 26760, Note_on_c, 0, 84, 100
1, 26868, Note_on_c, 0, 50, 0
1, 26868, Note_on_c, 0, 53, 0
1, 26868, Note_on_c, 0, 59, 0
1, 26880, Note_on_c, 0, 47, 100
1, 26880, Note_on_c, 0, 50, 100
1, 26880, Note_on_c, 0, 56, 100
1, 26880, Note_on_c, 0, 72, 0
1, 26880, Note_on_c, 0, 73, 100
1, 26880, Note_on_c, 0, 84, 0
1, 26880, Note_on_c, 0, 85, 100
1, 27108, Note_on_c, 0, 47, 0
1, 27108, Note_on_c, 0, 50, 0
1, 27108, Note_on_c, 0, 56, 0
1, 27120, Note_on_c, 0, 47, 100
1, 27120, Note_on_c, 0, 50, 100
1, 27120, Note_on_c, 0, 56, 100
1, 27348, Note_on_c, 0, 47, 0
1, 27348, Note_on_c, 0, 50, 0
1, 27348, Note_on_c, 0, 56, 0
1, 27360, Note_on_c, 0, 47, 100
1, 27360, Note_on_c, 0, 50, 100
1, 27360, Note_on_c, 0, 56, 100
1, 27360, Note_on_c, 0, 73, 0
1, 27360, Note_on_c, 0, 74, 100
1, 27360, Note_on_c, 0, 85, 0
1, 27360, Note_on_c, 0, 86, 100
1, 27588, Note_on_c, 0, 47, 0
1, 27588, Note_on_c, 0, 50, 0
1, 27588, Note_on_c, 0, 56, 0
1, 27600, Note_on_c, 0, 47, 100
1, 27600, Note_on_c, 0, 50, 100
1, 27600, Note_on_c, 0, 56, 100
1, 27828, Note_on_c, 0, 47, 0
1, 27828, Note_on_c, 0, 50, 0
1, 27828, Note_on_c, 0, 56, 0
1, 27840, Note_on_c, 0, 44, 100
1, 27840, Note_on_c, 0, 47, 100
1, 27840, Note_on_c, 0, 53, 100
1, 27840, Note_on_c, 0, 74, 0
1, 27840, Note_on_c, 0, 86, 0
1, 28068, Note_on_c, 0, 44, 0
1, 28068, Note_on_c, 0, 47, 0
1, 28068, Note_on_c, 0, 53, 0
1, 28080, Note_on_c, 0, 44, 100
1, 28080, Note_on_c, 0, 47, 100
1, 28080, Note_on_c, 0, 53, 100
1, 28308, Note_on_c, 0, 44, 0
1, 28308, Note_on_c, 0, 47, 0
1, 28308, Note_on_c, 0, 53, 0
1, 28320, Note_on_c, 0, 44, 100
1, 28320, Note_on_c, 0, 47, 100
1, 28320, Note_on_c, 0, 53, 100
1, 28320, Note_on_c, 0, 74, 100
1, 28320, Note_on_c, 0, 86, 100
1, 28548, Note_on_c, 0, 44, 0
1, 28548, Note_on_c, 0, 47, 0
1, 28548, Note_on_c, 0, 53, 0
1, 28560, Note_on_c, 0, 44, 100
1, 28560, Note_on_c, 0, 47, 100
1, 28560, Note_on_c, 0, 53, 100
1, 28680, Note_on_c, 0, 74, 0
1, 28680, Note_on_c, 0, 75, 100
1, 28680, Note_on_c, 0, 86, 0
1, 28680, Note_on_c, 0, 87, 100
1, 28788, Note_on_c, 0, 44, 0
1, 28788, Note_on_c, 0, 47, 0
1, 28788, Note_on_c, 0, 53, 0
1, 28800, Note_on_c, 0, 43, 100
1, 28800, Note_on_c, 0, 47, 100
1, 28800, Note_on_c, 0, 53, 100
1, 28800, Note_on_c, 0, 75, 0
1, 28800, Note_on_c, 0, 76, 100
1, 28800, Note_on_c, 0, 87, 0
1, 28800, Note_on_c, 0, 88, 100
1, 29028, Note_on_c, 0, 43, 0
1, 29028, Note_on_c, 0, 47, 0
1, 29028, Note_on_c, 0, 53, 0
1, 29040, Note_on_c, 0, 43, 100
1, 29040, Note_on_c, 0, 47, 100
1, 29040, Note_on_c, 0, 53, 100
1, 29268, Note_on_c, 0, 43, 0
1, 29268, Note_on_c, 0, 47, 0
1, 29268, Note_on_c, 0, 53, 0
1, 29280, Note_on_c, 0, 43, 100
1, 29280, Note_on_c, 0, 47, 100
1, 29280, Note_on_c, 0, 53, 100
1, 29280, Note_on_c, 0, 76, 0
1, 29280, Note_on_c, 0, 77, 100
1, 29280, Note_on_c, 0, 88, 0
1, 29280, Note_on_c, 0, 89, 100
1, 29508, Note_on_c, 0, 43, 0
1, 29508, Note_on_c, 0, 47, 0
1, 29508, Note_on_c, 0, 53, 0
1, 29520, Note_on_c, 0, 43, 100
1, 29520, Note_on_c, 0, 47, 100
1, 29520, Note_on_c, 0, 53, 100
1, 29748, Note_on_c, 0, 43, 0
1, 29748, Note_on_c, 0, 47, 0
1, 29748, Note_on_c, 0, 53, 0
1, 29760, Note_on_c, 0, 44, 100
1, 29760, Note_on_c, 0, 48, 100
1, 29760, Note_on_c, 0, 53, 100
1, 29988, Note_on_c, 0, 44, 0
1, 29988, Note_on_c, 0, 48, 0
1, 29988, Note_on_c, 0, 53, 0
1, 30000, Note_on_c, 0, 44, 100
1, 30000, Note_on_c, 0, 48, 100
1, 30000, Note_on_c, 0, 53, 100
1, 30228, Note_on_c, 0, 44, 0
1, 30228, Note_on_c, 0, 48, 0
1, 30228, Note_on_c, 0, 53, 0
1, 30230, Note_on_c, 0, 77, 0
1, 30230, Note_on_c, 0, 89, 0
1, 30240, Note_on_c, 0, 44, 100
1, 30240, Note_on_c, 0, 48, 100
1, 30240, Note_on_c, 0, 53, 100
1, 30240, Note_on_c, 0, 77, 100
1, 30240, Note_on_c, 0, 89, 100
1, 30468, Note_on_c, 0, 44, 0
1, 30468, Note_on_c, 0, 48, 0
1, 30468, Note_on_c, 0, 53, 0
1, 30480, Note_on_c, 0, 44, 100
1, 30480, Note_on_c, 0, 48, 100
1, 30480, Note_on_c, 0, 53, 100
1, 30708, Note_on_c, 0, 44, 0
1, 30708, Note_on_c, 0, 48, 0
1, 30708, Note_on_c, 0, 53, 0
1, 30710, Note_on_c, 0, 77, 0
1, 30710, Note_on_c, 0, 89, 0
1, 30720, Note_on_c, 0, 43, 100
1, 30720, Note_on_c, 0, 47, 100
1, 30720, Note_on_c, 0, 53, 100
1, 30720, Note_on_c, 0, 77, 100
1, 30720, Note_on_c, 0, 89, 100
1, 31200, Note_on_c, 0, 43, 0
1, 31200, Note_on_c, 0, 47, 0
1, 31200, Note_on_c, 0, 53, 0
1, 31320, Note_on_c, 0, 77, 0
1, 31320, Note_on_c, 0, 87, 100
1, 31320, Note_on_c, 0, 89, 0
1, 31380, Note_on_c, 0, 86, 100
1, 31380, Note_on_c, 0, 87, 0
1, 31440, Note_on_c, 0, 86, 0
1, 31440, Note_on_c, 0, 89, 100
1, 31500, Note_on_c, 0, 87, 100
1, 31500, Note_on_c, 0, 89, 0
1, 31560, Note_on_c, 0, 86, 100
1, 31560, Note_on_c, 0, 87, 0
1, 31620, Note_on_c, 0, 84, 100
1, 31620, Note_on_c, 0, 86, 0
1, 31680, Note_on_c, 0, 83, 100
1, 31680, Note_on_c, 0, 84, 0
1, 31800, Note_on_c, 0, 83, 0
1, 31920, Note_on_c, 0, 83, 100
1, 32040, Note_on_c, 0, 83, 0
1, 32160, Note_on_c, 0, 67, 100
1, 32160, Note_on_c, 0, 74, 100
1, 32160, Note_on_c, 0, 77, 100
1, 32160, Note_on_c, 0, 83, 100
1, 32280, Note_on_c, 0, 67, 0
1, 32280, Note_on_c, 0, 74, 0
1, 32280, Note_on_c, 0, 77, 0
1, 32280, Note_on_c, 0, 83, 0
1, 32400, Note_on_c, 0, 67, 100
1, 32400, Note_on_c, 0, 74, 100
1, 32400, Note_on_c, 0, 77, 100
1, 32400, Note_on_c, 0, 83, 100
1, 32520, Note_on_c, 0, 67, 0
1, 32520, Note_on_c, 0, 74, 0
1, 32520, Note_on_c, 0, 77, 0
1, 32520, Note_on_c, 0, 83, 0
1, 32640, Note_on_c, 0, 68, 100
1, 32640, Note_on_c, 0, 72, 100
1, 32640, Note_on_c, 0, 75, 100
1, 32640, Note_on_c, 0, 84, 100
1, 33120, Note_on_c, 0, 68, 0
1, 33120, Note_on_c, 0, 72, 0
1, 33120, Note_on_c, 0, 75, 0
1, 33120, Note_on_c, 0, 84, 0
1, 34560, Note_on_c, 0, 84, 100
1, 35160, Note_on_c, 0, 83, 100
1, 35160, Note_on_c, 0, 84, 0
1, 35220, Note_on_c, 0, 83, 0
1, 35220, Note_on_c, 0, 84, 100
1, 35280, Note_on_c, 0, 84, 0
1, 35280, Note_on_c, 0, 86, 100
1, 35320, Note_on_c, 0, 84, 100
1, 35320, Note_on_c, 0, 86, 0
1, 35360, Note_on_c, 0, 82, 100
1, 35360, Note_on_c, 0, 84, 0
1, 35400, Note_on_c, 0, 80, 100
1, 35400, Note_on_c, 0, 82, 0
1, 35440, Note_on_c, 0, 79, 100
1, 35440, Note_on_c, 0, 80, 0
1, 35480, Note_on_c, 0, 79, 0
1, 35480, Note_on_c, 0, 82, 100
1, 35520, Note_on_c, 0, 80, 100
1, 35520, Note_on_c, 0, 82, 0
1, 35640, Note_on_c, 0, 80, 0
1, 35760, Note_on_c, 0, 80, 100
1, 35880, Note_on_c, 0, 80, 0
1, 36000, Note_on_c, 0, 53, 100
1, 36000, Note_on_c, 0, 60, 100
1, 36000, Note_on_c, 0, 62, 100
1, 36000, Note_on_c, 0, 80, 100
1, 36120, Note_on_c, 0, 53, 0
1, 36120, Note_on_c, 0, 60, 0
1, 36120, Note_on_c, 0, 62, 0
1, 36120, Note_on_c, 0, 80, 0
1, 36240, Note_on_c, 0, 53, 100
1, 36240, Note_on_c, 0, 60, 100
1, 36240, Note_on_c, 0, 62, 100
1, 36240, Note_on_c, 0, 80, 100
1, 36360, Note_on_c, 0, 53, 0
1, 36360, Note_on_c, 0, 60, 0
1, 36360, Note_on_c, 0, 62, 0
1, 36360, Note_on_c, 0, 80, 0
1, 36480, Note_on_c, 0, 55, 100
1, 36480, Note_on_c, 0, 60, 100
1, 36480, Note_on_c, 0, 63, 100
1, 36480, Note_on_c, 0, 79, 100
1, 36720, Note_on_c, 0, 79, 0
1, 36720, Note_on_c, 0, 87, 100
1, 36960, Note_on_c, 0, 55, 0
1, 36960, Note_on_c, 0, 60, 0
1, 36960, Note_on_c, 0, 63, 0
1, 37000, Note_on_c, 0, 86, 100
1, 37000, Note_on_c, 0, 87, 0
1, 37040, Note_on_c, 0, 85, 100
1, 37040, Note_on_c, 0, 86, 0
1, 37080, Note_on_c, 0, 84, 100
1, 37080, Note_on_c, 0, 85, 0
1, 37120, Note_on_c, 0, 83, 100
1, 37120, Note_on_c, 0, 84, 0
1, 37160, Note_on_c, 0, 82, 100
1, 37160, Note_on_c, 0, 83, 0
1, 37200, Note_on_c, 0, 81, 100
1, 37200, Note_on_c, 0, 82, 0
1, 37234, Note_on_c, 0, 80, 100
1, 37234, Note_on_c, 0, 81, 0
1, 37268, Note_on_c, 0, 79, 100
1, 37268, Note_on_c, 0, 80, 0
1, 37302, Note_on_c, 0, 78, 100
1, 37302, Note_on_c, 0, 79, 0
1, 37336, Note_on_c, 0, 77, 100
1, 37336, Note_on_c, 0, 78, 0
1, 37370, Note_on_c, 0, 76, 100
1, 37370, Note_on_c, 0, 77, 0
1, 37404, Note_on_c, 0, 75, 100
1, 37404, Note_on_c, 0, 76, 0
1, 37440, Note_on_c, 0, 43, 100
1, 37440, Note_on_c, 0, 50, 100
1, 37440, Note_on_c, 0, 53, 100
1, 37440, Note_on_c, 0, 74, 100
1, 37440, Note_on_c, 0, 75, 0
1, 37500, Note_on_c, 0, 73, 100
1, 37500, Note_on_c, 0, 74, 0
1, 37560, Note_on_c, 0, 72, 100
1, 37560, Note_on_c, 0, 73, 0
1, 37620, Note_on_c, 0, 71, 100
1, 37620, Note_on_c, 0, 72, 0
1, 37680, Note_on_c, 0, 70, 100
1, 37680, Note_on_c, 0, 71, 0
1, 37740, Note_on_c, 0, 69, 100
1, 37740, Note_on_c, 0, 70, 0
1, 37800, Note_on_c, 0, 68, 100
1, 37800, Note_on_c, 0, 69, 0
1, 37860, Note_on_c, 0, 67, 100
1, 37860, Note_on_c, 0, 68, 0
1, 37920, Note_on_c, 0, 43, 0
1, 37920, Note_on_c, 0, 50, 0
1, 37920, Note_on_c, 0, 53, 0
1, 37920, Note_on_c, 0, 66, 100
1, 37920, Note_on_c, 0, 67, 0
1, 37980, Note_on_c, 0, 65, 100
1, 37980, Note_on_c, 0, 66, 0
1, 38040, Note_on_c, 0, 64, 100
1, 38040, Note_on_c, 0, 65, 0
1, 38100, Note_on_c, 0, 63, 100
1, 38100, Note_on_c, 0, 64, 0
1, 38160, Note_on_c, 0, 62, 100
1, 38160, Note_on_c, 0, 63, 0
1, 38220, Note_on_c, 0, 61, 100
1, 38220, Note_on_c, 0, 62, 0
1, 38280, Note_on_c, 0, 60, 100
1, 38280, Note_on_c, 0, 61, 0
1, 38340, Note_on_c, 0, 59, 100
1, 38340, Note_on_c, 0, 60, 0
1, 38400, Note_on_c, 0, 59, 0
1, 38400, Note_on_c, 0, 68, 100
1, 38760, Note_on_c, 0, 59, 100
1, 38760, Note_on_c, 0, 68, 0
1, 38880, Note_on_c, 0, 36, 100
1, 38880, Note_on_c, 0, 59, 0
1, 38880, Note_on_c, 0, 60, 100
1, 39000, Note_on_c, 0, 48, 100
1, 39108, Note_on_c, 0, 36, 0
1, 39120, Note_on_c, 0, 36, 100
1, 39120, Note_on_c, 0, 48, 0
1, 39240, Note_on_c, 0, 48, 100
1, 39348, Note_on_c, 0, 36, 0
1, 39360, Note_on_c, 0, 36, 100
1, 39360, Note_on_c, 0, 48, 0
1, 39480, Note_on_c, 0, 48, 100
1, 39588, Note_on_c, 0, 36, 0
1, 39600, Note_on_c, 0, 36, 100
1, 39600, Note_on_c, 0, 48, 0
1, 39600, Note_on_c, 0, 58, 100
1, 39600, Note_on_c, 0, 60, 0
1, 39600, Note_on_c, 0, 64, 100
1, 39690, Note_on_c, 0, 58, 0
1, 39690, Note_on_c, 0, 64, 0
1, 39720, Note_on_c, 0, 48, 100
1, 39828, Note_on_c, 0, 36, 0
1, 39840, Note_on_c, 0, 36, 100
1, 39840, Note_on_c, 0, 48, 0
1, 39840, Note_on_c, 0, 56, 100
1, 39840, Note_on_c, 0, 65, 100
1, 39930, Note_on_c, 0, 56, 0
1, 39930, Note_on_c, 0, 65, 0
1, 39960, Note_on_c, 0, 48, 100
1, 40068, Note_on_c, 0, 36, 0
1, 40080, Note_on_c, 0, 36, 100
1, 40080, Note_on_c, 0, 48, 0
1, 40080, Note_on_c, 0, 64, 100
1, 40080, Note_on_c, 0, 67, 100
1, 40170, Note_on_c, 0, 64, 0
1, 40170, Note_on_c, 0, 67, 0
1, 40200, Note_on_c, 0, 48, 100
1, 40308, Note_on_c, 0, 36, 0
1, 40320, Note_on_c, 0, 36, 100
1, 40320, Note_on_c, 0, 48, 0
1, 40320, Note_on_c, 0, 65, 100
1, 40320, Note_on_c, 0, 68, 100
1, 40410, Note_on_c, 0, 65, 0
1, 40410, Note_on_c, 0, 68, 0
1, 40440, Note_on_c, 0, 48, 100
1, 40548, Note_on_c, 0, 36, 0
1, 40560, Note_on_c, 0, 36, 100
1, 40560, Note_on_c, 0, 48, 0
1, 40560, Note_on_c, 0, 62, 100
1, 40560, Note_on_c, 0, 71, 100
1, 40650, Note_on_c, 0, 62, 0
1, 40650, Note_on_c, 0, 71, 0
1, 40680, Note_on_c, 0, 48, 100
1, 40788, Note_on_c, 0, 36, 0
1, 40800, Note_on_c, 0, 36, 100
1, 40800, Note_on_c, 0, 48, 0
1, 40800, Note_on_c, 0, 63, 100
1, 40800, Note_on_c, 0, 72, 100
1, 40890, Note_on_c, 0, 63, 0
1, 40890, Note_on_c, 0, 72, 0
1, 40920, Note_on_c, 0, 48, 100
1, 41028, Note_on_c, 0, 36, 0
1, 41040, Note_on_c, 0, 36, 100
1, 41040, Note_on_c, 0, 48, 0
1, 41040, Note_on_c, 0, 64, 100
1, 41040, Note_on_c, 0, 72, 100
1, 41160, Note_on_c, 0, 48, 100
1, 41268, Note_on_c, 0, 36, 0
1, 41280, Note_on_c, 0, 36, 100
1, 41280, Note_on_c, 0, 48, 0
1, 41400, Note_on_c, 0, 48, 100
1, 41508, Note_on_c, 0, 36, 0
1, 41520, Note_on_c, 0, 36, 100
1, 41520, Note_on_c, 0, 48, 0
1, 41520, Note_on_c, 0, 64, 0
1, 41520, Note_on_c, 0, 70, 100
1, 41520, Note_on_c, 0, 72, 0
1, 41520, Note_on_c, 0, 76, 100
1, 41610, Note_on_c, 0, 70, 0
1, 41610, Note_on_c, 0, 76, 0
1, 41640, Note_on_c, 0, 48, 100
1, 41748, Note_on_c, 0, 36, 0
1, 41760, Note_on_c, 0, 36, 100
1, 41760, Note_on_c, 0, 48, 0
1, 41760, Note_on_c, 0, 68, 100
1, 41760, Note_on_c, 0, 77, 100
1, 41850, Note_on_c, 0, 68, 0
1, 41850, Note_on_c, 0, 77, 0
1, 41880, Note_on_c, 0, 48, 100
1, 41988, Note_on_c, 0, 36, 0
1, 42000, Note_on_c, 0, 36, 100
1, 42000, Note_on_c, 0, 48, 0
1, 42000, Note_on_c, 0, 76, 100
1, 42000, Note_on_c, 0, 79, 100
1, 42090, Note_on_c, 0, 76, 0
1, 42090, Note_on_c, 0, 79, 0
1, 42120, Note_on_c, 0, 48, 100
1, 42228, Note_on_c, 0, 36, 0
1, 42240, Note_on_c, 0, 36, 100
1, 42240, Note_on_c, 0, 48, 0
1, 42240, Note_on_c, 0, 77, 100
1, 42240, Note_on_c, 0, 80, 100
1, 42330, Note_on_c, 0, 77, 0
1, 42330, Note_on_c, 0, 80, 0
1, 42360, Note_on_c, 0, 48, 100
1, 42468, Note_on_c, 0, 36, 0
1, 42480, Note_on_c, 0, 36, 100
1, 42480, Note_on_c, 0, 48, 0
1, 42480, Note_on_c, 0, 74, 100
1, 42480, Note_on_c, 0, 83, 100
1, 42570, Note_on_c, 0, 74, 0
1, 42570, Note_on_c, 0, 83, 0
1, 42600, Note_on_c, 0, 48, 100
1, 42708, Note_on_c, 0, 36, 0
1, 42720, Note_on_c, 0, 36, 100
1, 42720, Note_on_c, 0, 48, 0
1, 42720, Note_on_c, 0, 72, 100
1, 42720, Note_on_c, 0, 75, 100
1, 42720, Note_on_c, 0, 79, 100
1, 42720, Note_on_c, 0, 84, 100
1, 42840, Note_on_c, 0, 48, 100
1, 42948, Note_on_c, 0, 36, 0
1, 42960, Note_on_c, 0, 36, 100
1, 42960, Note_on_c, 0, 48, 0
1, 43080, Note_on_c, 0, 48, 100
1, 43188, Note_on_c, 0, 36, 0
1, 43200, Note_on_c, 0, 38, 100
1, 43200, Note_on_c, 0, 48, 0
1, 43200, Note_on_c, 0, 67, 100
1, 43200, Note_on_c, 0, 71, 100
1, 43200, Note_on_c, 0, 72, 0
1, 43200, Note_on_c, 0, 75, 0
1, 43200, Note_on_c, 0, 77, 100
1, 43200, Note_on_c, 0, 79, 0
1, 43200, Note_on_c, 0, 79, 100
1, 43200, Note_on_c, 0, 84, 0
1, 43320, Note_on_c, 0, 50, 100
1, 43428, Note_on_c, 0, 38, 0
1, 43440, Note_on_c, 0, 38, 100
1, 43440, Note_on_c, 0, 50, 0
1, 43560, Note_on_c, 0, 50, 100
1, 43668, Note_on_c, 0, 38, 0
1, 43680, Note_on_c, 0, 39, 100
1, 43680, Note_on_c, 0, 50, 0
1, 43680, Note_on_c, 0, 67, 0
1, 43680, Note_on_c, 0, 67, 100
1, 43680, Note_on_c, 0, 71, 0
1, 43680, Note_on_c, 0, 72, 100
1, 43680, Note_on_c, 0, 75, 100
1, 43680, Note_on_c, 0, 77, 0
1, 43680, Note_on_c, 0, 79, 0
1, 43800, Note_on_c, 0, 51, 100
1, 43908, Note_on_c, 0, 39, 0
1, 43920, Note_on_c, 0, 39, 100
1, 43920, Note_on_c, 0, 51, 0
1, 44040, Note_on_c, 0, 51, 100
1, 44148, Note_on_c, 0, 39, 0
1, 44160, Note_on_c, 0, 41, 100
1, 44160, Note_on_c, 0, 51, 0
1, 44160, Note_on_c, 0, 65, 100
1, 44160, Note_on_c, 0, 67, 0
1, 44160, Note_on_c, 0, 68, 100
1, 44160, Note_on_c, 0, 72, 0
1, 44160, Note_on_c, 0, 74, 100
1, 44160, Note_on_c, 0, 75, 0
1, 44280, Note_on_c, 0, 53, 100
1, 44388, Note_on_c, 0, 41, 0
1, 44400, Note_on_c, 0, 41, 100
1, 44400, Note_on_c, 0, 53, 0
1, 44520, Note_on_c, 0, 53, 100
1, 44628, Note_on_c, 0, 41, 0
1, 44640, Note_on_c, 0, 43, 100
1, 44640, Note_on_c, 0, 53, 0
1, 44640, Note_on_c, 0, 63, 100
1, 44640, Note_on_c, 0, 65, 0
1, 44640, Note_on_c, 0, 67, 100
1, 44640, Note_on_c, 0, 68, 0
1, 44640, Note_on_c, 0, 72, 100
1, 44640, Note_on_c, 0, 74, 0
1, 44760, Note_on_c, 0, 55, 100
1, 44868, Note_on_c, 0, 43, 0
1, 44880, Note_on_c, 0, 43, 100
1, 44880, Note_on_c, 0, 55, 0
1, 45000, Note_on_c, 0, 55, 100
1, 45108, Note_on_c, 0, 43, 0
1, 45120, Note_on_c, 0, 44, 100
1, 45120, Note_on_c, 0, 55, 0
1, 45120, Note_on_c, 0, 66, 100
1, 45120, Note_on_c, 0, 67, 0
1, 45240, Note_on_c, 0, 56, 100
1, 45348, Note_on_c, 0, 44, 0
1, 45360, Note_on_c, 0, 44, 100
1, 45360, Note_on_c, 0, 56, 0
1, 45480, Note_on_c, 0, 56, 100
1, 45588, Note_on_c, 0, 44, 0
1, 45600, Note_on_c, 0, 42, 100
1, 45600, Note_on_c, 0, 56, 0
1, 45600, Note_on_c, 0, 66, 0
1, 45600, Note_on_c, 0, 69, 100
1, 45720, Note_on_c, 0, 54, 100
1, 45828, Note_on_c, 0, 42, 0
1, 45840, Note_on_c, 0, 42, 100
1, 45840, Note_on_c, 0, 54, 0
1, 45960, Note_on_c, 0, 54, 100
1, 46068, Note_on_c, 0, 42, 0
1, 46080, Note_on_c, 0, 43, 100
1, 46080, Note_on_c, 0, 54, 0
1, 46080, Note_on_c, 0, 62, 100
1, 46080, Note_on_c, 0, 63, 0
1, 46080, Note_on_c, 0, 65, 100
1, 46080, Note_on_c, 0, 69, 0
1, 46080, Note_on_c, 0, 71, 100
1, 46080, Note_on_c, 0, 72, 0
1, 46200, Note_on_c, 0, 55, 100
1, 46308, Note_on_c, 0, 43, 0
1, 46320, Note_on_c, 0, 43, 100
1, 46320, Note_on_c, 0, 55, 0
1, 46440, Note_on_c, 0, 55, 100
1, 46548, Note_on_c, 0, 43, 0
1, 46560, Note_on_c, 0, 36, 100
1, 46560, Note_on_c, 0, 55, 0
1, 46560, Note_on_c, 0, 60, 100
1, 46560, Note_on_c, 0, 62, 0
1, 46560, Note_on_c, 0, 63, 100
1, 46560, Note_on_c, 0, 65, 0
1, 46560, Note_on_c, 0, 71, 0
1, 46560, Note_on_c, 0, 72, 100
1, 46650, Note_on_c, 0, 60, 0
1, 46650, Note_on_c, 0, 63, 0
1, 46650, Note_on_c, 0, 72, 0
1, 46680, Note_on_c, 0, 48, 100
1, 46788, Note_on_c, 0, 36, 0
1, 46800, Note_on_c, 0, 36, 100
1, 46800, Note_on_c, 0, 48, 0
1, 46800, Note_on_c, 0, 60, 100
1, 46920, Note_on_c, 0, 48, 100
1, 47028, Note_on_c, 0, 36, 0
1, 47040, Note_on_c, 0, 36, 100
1, 47040, Note_on_c, 0, 48, 0
1, 47160, Note_on_c, 0, 48, 100
1, 47268, Note_on_c, 0, 36, 0
1, 47280, Note_on_c, 0, 36, 100
1, 47280, Note_on_c, 0, 48, 0
1, 47280, Note_on_c, 0, 58, 100
1, 47280, Note_on_c, 0, 60, 0
1, 47280, Note_on_c, 0, 64, 100
1, 47370, Note_on_c, 0, 58, 0
1, 47370, Note_on_c, 0, 64, 0
1, 47400, Note_on_c, 0, 48, 100
1, 47508, Note_on_c, 0, 36, 0
1, 47520, Note_on_c, 0, 36, 100
1, 47520, Note_on_c, 0, 48, 0
1, 47520, Note_on_c, 0, 56, 100
1, 47520, Note_on_c, 0, 65, 100
1, 47610, Note_on_c, 0, 56, 0
1, 47610, Note_on_c, 0, 65, 0
1, 47640, Note_on_c, 0, 48, 100
1, 47748, Note_on_c, 0, 36, 0
1, 47760, Note_on_c, 0, 36, 100
1, 47760, Note_on_c, 0, 48, 0
1, 47760, Note_on_c, 0, 64, 100
1, 47760, Note_on_c, 0, 67, 100
1, 47850, Note_on_c, 0, 64, 0
1, 47850, Note_on_c, 0, 67, 0
1, 47880, Note_on_c, 0, 48, 100
1, 47988, Note_on_c, 0, 36, 0
1, 48000, Note_on_c, 0, 36, 100
1, 48000, Note_on_c, 0, 48, 0
1, 48000, Note_on_c, 0, 65, 100
1, 48000, Note_on_c, 0, 68, 100
1, 48090, Note_on_c, 0, 65, 0
1, 48090, Note_on_c, 0, 68, 0
1, 48120, Note_on_c, 0, 48, 100
1, 48228, Note_on_c, 0, 36, 0
1, 48240, Note_on_c, 0, 36, 100
1, 48240, Note_on_c, 0, 48, 0
1, 48240, Note_on_c, 0, 62, 100
1, 48240, Note_on_c, 0, 71, 100
1, 48330, Note_on_c, 0, 62, 0
1, 48330, Note_on_c, 0, 71, 0
1, 48360, Note_on_c, 0, 48, 100
1, 48468, Note_on_c, 0, 36, 0
1, 48480, Note_on_c, 0, 36, 100
1, 48480, Note_on_c, 0, 48, 0
1, 48480, Note_on_c, 0, 63, 100
1, 48480, Note_on_c, 0, 72, 100
1, 48570, Note_on_c, 0, 63, 0
1, 48570, Note_on_c, 0, 72, 0
1, 48600, Note_on_c, 0, 48, 100
1, 48708, Note_on_c, 0, 36, 0
1, 48720, Note_on_c, 0, 36, 100
1, 48720, Note_on_c, 0, 48, 0
1, 48720, Note_on_c, 0, 64, 100
1, 48720, Note_on_c, 0, 72, 100
1, 48840, Note_on_c, 0, 48, 100
1, 48948, Note_on_c, 0, 36, 0
1, 48960, Note_on_c, 0, 36, 100
1, 48960, Note_on_c, 0, 48, 0
1, 49080, Note_on_c, 0, 48, 100
1, 49188, Note_on_c, 0, 36, 0
1, 49200, Note_on_c, 0, 36, 100
1, 49200, Note_on_c, 0, 48, 0
1, 49200, Note_on_c, 0, 64, 0
1, 49200, Note_on_c, 0, 70, 100
1, 49200, Note_on_c, 0, 72, 0
1, 49200, Note_on_c, 0, 76, 100
1, 49290, Note_on_c, 0, 70, 0
1, 49290, Note_on_c, 0, 76, 0
1, 49320, Note_on_c, 0, 48, 100
1, 49428, Note_on_c, 0, 36, 0
1, 49440, Note_on_c, 0, 36, 100
1, 49440, Note_on_c, 0, 48, 0
1, 49440, Note_on_c, 0, 68, 100
1, 49440, Note_on_c, 0, 77, 100
1, 49530, Note_on_c, 0, 68, 0
1, 49530, Note_on_c, 0, 77, 0
1, 49560, Note_on_c, 0, 48, 100
1, 49668, Note_on_c, 0, 36, 0
1, 49680, Note_on_c, 0, 36, 100
1, 49680, Note_on_c, 0, 48, 0
1, 49680, Note_on_c, 0, 76, 100
1, 49680, Note_on_c, 0, 79, 100
1, 49770, Note_on_c, 0, 76, 0
1, 49770, Note_on_c, 0, 79, 0
1, 49800, Note_on_c, 0, 48, 100
1, 49908, Note_on_c, 0, 36, 0
1, 49920, Note_on_c, 0, 36, 100
1, 49920, Note_on_c, 0, 48, 0
1, 49920, Note_on_c, 0, 77, 100
1, 49920, Note_on_c, 0, 80, 100
1, 50010, Note_on_c, 0, 77, 0
1, 50010, Note_on_c, 0, 80, 0
1, 50040, Note_on_c, 0, 48, 100
1, 50148, Note_on_c, 0, 36, 0
1, 50160, Note_on_c, 0, 36, 100
1, 50160, Note_on_c, 0, 48, 0
1, 50160, Note_on_c, 0, 74, 100
1, 50160, Note_on_c, 0, 83, 100
1, 50250, Note_on_c, 0, 74, 0
1, 50250, Note_on_c, 0, 83, 0
1, 50280, Note_on_c, 0, 48, 100
1, 50388, Note_on_c, 0, 36, 0
1, 50400, Note_on_c, 0, 36, 100
1, 50400, Note_on_c, 0, 48, 0
1, 50400, Note_on_c, 0, 72, 100
1, 50400, Note_on_c, 0, 75, 100
1, 50400, Note_on_c, 0, 79, 100
1, 50400, Note_on_c, 0, 84, 100
1, 50520, Note_on_c, 0, 48, 100
1, 50628, Note_on_c, 0, 36, 0
1, 50640, Note_on_c, 0, 36, 100
1, 50640, Note_on_c, 0, 48, 0
1, 50760, Note_on_c, 0, 48, 100
1, 50868, Note_on_c, 0, 36, 0
1, 50880, Note_on_c, 0, 38, 100
1, 50880, Note_on_c, 0, 48, 0
1, 50880, Note_on_c, 0, 67, 100
1, 50880, Note_on_c, 0, 71, 100
1, 50880, Note_on_c, 0, 72, 0
1, 50880, Note_on_c, 0, 75, 0
1, 50880, Note_on_c, 0, 77, 100
1, 50880, Note_on_c, 0, 79, 0
1, 50880, Note_on_c, 0, 79, 100
1, 50880, Note_on_c, 0, 84, 0
1, 51000, Note_on_c, 0, 50, 100
1, 51108, Note_on_c, 0, 38, 0
1, 51120, Note_on_c, 0, 38, 100
1, 51120, Note_on_c, 0, 50, 0
1, 51240, Note_on_c, 0, 50, 100
1, 51348, Note_on_c, 0, 38, 0
1, 51360, Note_on_c, 0, 39, 100
1, 51360, Note_on_c, 0, 50, 0
1, 51360, Note_on_c, 0, 67, 0
1, 51360, Note_on_c, 0, 67, 100
1, 51360, Note_on_c, 0, 71, 0
1, 51360, Note_on_c, 0, 72, 100
1, 51360, Note_on_c, 0, 75, 100
1, 51360, Note_on_c, 0, 77, 0
1, 51360, Note_on_c, 0, 79, 0
1, 51480, Note_on_c, 0, 51, 100
1, 51588, Note_on_c, 0, 39, 0
1, 51600, Note_on_c, 0, 39, 100
1, 51600, Note_on_c, 0, 51, 0
1, 51720, Note_on_c, 0, 51, 100
1, 51828, Note_on_c, 0, 39, 0
1, 51840, Note_on_c, 0, 41, 100
1, 51840, Note_on_c, 0, 51, 0
1, 51840, Note_on_c, 0, 65, 100
1, 51840, Note_on_c, 0, 67, 0
1, 51840, Note_on_c, 0, 68, 100
1, 51840, Note_on_c, 0, 72, 0
1, 51840, Note_on_c, 0, 74, 100
1, 51840, Note_on_c, 0, 75, 0
1, 51960, Note_on_c, 0, 53, 100
1, 52068, Note_on_c, 0, 41, 0
1, 52080, Note_on_c, 0, 41, 100
1, 52080, Note_on_c, 0, 53, 0
1, 52200, Note_on_c, 0, 53, 100
1, 52308, Note_on_c, 0, 41, 0
1, 52320, Note_on_c, 0, 43, 100
1, 52320, Note_on_c, 0, 53, 0
1, 52320, Note_on_c, 0, 63, 100
1, 52320, Note_on_c, 0, 65, 0
1, 52320, Note_on_c, 0, 67, 100
1, 52320, Note_on_c, 0, 68, 0
1, 52320, Note_on_c, 0, 72, 100
1, 52320, Note_on_c, 0, 74, 0
1, 52440, Note_on_c, 0, 55, 100
1, 52548, Note_on_c, 0, 43, 0
1, 52560, Note_on_c, 0, 43, 100
1, 52560, Note_on_c, 0, 55, 0
1, 52680, Note_on_c, 0, 55, 100
1, 52788, Note_on_c, 0, 43, 0
1, 52800, Note_on_c, 0, 44, 100
1, 52800, Note_on_c, 0, 55, 0
1, 52800, Note_on_c, 0, 66, 100
1, 52800, Note_on_c, 0, 67, 0
1, 52920, Note_on_c, 0, 56, 100
1, 53028, Note_on_c, 0, 44, 0
1, 53040, Note_on_c, 0, 44, 100
1, 53040, Note_on_c, 0, 56, 0
1, 53160, Note_on_c, 0, 56, 100
1, 53268, Note_on_c, 0, 44, 0
1, 53280, Note_on_c, 0, 42, 100
1, 53280, Note_on_c, 0, 56, 0
1, 53280, Note_on_c, 0, 66, 0
1, 53280, Note_on_c, 0, 69, 100
1, 53400, Note_on_c, 0, 54, 100
1, 53508, Note_on_c, 0, 42, 0
1, 53520, Note_on_c, 0, 42, 100
1, 53520, Note_on_c, 0, 54, 0
1, 53640, Note_on_c, 0, 54, 100
1, 53748, Note_on_c, 0, 42, 0
1, 53760, Note_on_c, 0, 42, 100
1, 53760, Note_on_c, 0, 54, 0
1, 53880, Note_on_c, 0, 54, 100
1, 53988, Note_on_c, 0, 42, 0
1, 54000, Note_on_c, 0, 42, 100
1, 54000, Note_on_c, 0, 54, 0
1, 54120, Note_on_c, 0, 54, 100
1, 54228, Note_on_c, 0, 42, 0
1, 54240, Note_on_c, 0, 43, 100
1, 54240, Note_on_c, 0, 54, 0
1, 54240, Note_on_c, 0, 55, 100
1, 54240, Note_on_c, 0, 62, 100
1, 54240, Note_on_c, 0, 63, 0
1, 54240, Note_on_c, 0, 67, 100
1, 54240, Note_on_c, 0, 69, 0
1, 54240, Note_on_c, 0, 71, 100
1, 54240, Note_on_c, 0, 72, 0
1, 54480, Note_on_c, 0, 43, 0
1, 54480, Note_on_c, 0, 55, 0
1, 54480, Note_on_c, 0, 59, 100
1, 54480, Note_on_c, 0, 62, 0
1, 54480, Note_on_c, 0, 62, 100
1, 54480, Note_on_c, 0, 67, 0
1, 54480, Note_on_c, 0, 71, 0
1, 54708, Note_on_c, 0, 59, 0
1, 54708, Note_on_c, 0, 62, 0
1, 54720, Note_on_c, 0, 59, 100
1, 54720, Note_on_c, 0, 62, 100
1, 54720, Note_on_c, 0, 67, 100
1, 54720, Note_on_c, 0, 79, 100
1, 54948, Note_on_c, 0, 59, 0
1, 54948, Note_on_c, 0, 62, 0
1, 54960, Note_on_c, 0, 59, 100
1, 54960, Note_on_c, 0, 62, 100
1, 55188, Note_on_c, 0, 59, 0
1, 55188, Note_on_c, 0, 62, 0
1, 55200, Note_on_c, 0, 55, 100
1, 55440, Note_on_c, 0, 55, 0
1, 55440, Note_on_c, 0, 60, 100
1, 55440, Note_on_c, 0, 63, 100
1, 55440, Note_on_c, 0, 67, 0
1, 55440, Note_on_c, 0, 79, 0
1, 55668, Note_on_c, 0, 60, 0
1, 55668, Note_on_c, 0, 63, 0
1, 55680, Note_on_c, 0, 60, 100
1, 55680, Note_on_c, 0, 63, 100
1, 55680, Note_on_c, 0, 67, 100
1, 55680, Note_on_c, 0, 79, 100
1, 55908, Note_on_c, 0, 60, 0
1, 55908, Note_on_c, 0, 63, 0
1, 55920, Note_on_c, 0, 60, 100
1, 55920, Note_on_c, 0, 63, 100
1, 56148, Note_on_c, 0, 60, 0
1, 56148, Note_on_c, 0, 63, 0
1, 56160, Note_on_c, 0, 62, 100
1, 56160, Note_on_c, 0, 65, 100
1, 56280, Note_on_c, 0, 67, 0
1, 56280, Note_on_c, 0, 77, 100
1, 56280, Note_on_c, 0, 79, 0
1, 56400, Note_on_c, 0, 62, 0
1, 56400, Note_on_c, 0, 65, 0
1, 56400, Note_on_c, 0, 74, 100
1, 56400, Note_on_c, 0, 77, 0
1, 56520, Note_on_c, 0, 71, 100
1, 56520, Note_on_c, 0, 74, 0
1, 56640, Note_on_c, 0, 67, 100
1, 56640, Note_on_c, 0, 71, 0
1, 56760, Note_on_c, 0, 65, 100
1, 56760, Note_on_c, 0, 67, 0
1, 56880, Note_on_c, 0, 62, 100
1, 56880, Note_on_c, 0, 65, 0
1, 57000, Note_on_c, 0, 59, 100
1, 57000, Note_on_c, 0, 62, 0
1, 57120, Note_on_c, 0, 59, 0
1, 57120, Note_on_c, 0, 60, 100
1, 57240, Note_on_c, 0, 60, 0
1, 57240, Note_on_c, 0, 63, 100
1, 57360, Note_on_c, 0, 60, 100
1, 57360, Note_on_c, 0, 63, 0
1, 57480, Note_on_c, 0, 55, 100
1, 57480, Note_on_c, 0, 60, 0
1, 57600, Note_on_c, 0, 32, 100
1, 57600, Note_on_c, 0, 54, 100
1, 57600, Note_on_c, 0, 55, 0
1, 57720, Note_on_c, 0, 32, 0
1, 57720, Note_on_c, 0, 44, 100
1, 57720, Note_on_c, 0, 54, 0
1, 57720, Note_on_c, 0, 60, 100
1, 57840, Note_on_c, 0, 32, 100
1, 57840, Note_on_c, 0, 44, 0
1, 57840, Note_on_c, 0, 56, 100
1, 57840, Note_on_c, 0, 60, 0
1, 57960, Note_on_c, 0, 32, 0
1, 57960, Note_on_c, 0, 44, 100
1, 57960, Note_on_c, 0, 54, 100
1, 57960, Note_on_c, 0, 56, 0
1, 58080, Note_on_c, 0, 31, 100
1, 58080, Note_on_c, 0, 43, 100
1, 58080, Note_on_c, 0, 44, 0
1, 58080, Note_on_c, 0, 54, 0
1, 58080, Note_on_c, 0, 55, 100
1, 58320, Note_on_c, 0, 31, 0
1, 58320, Note_on_c, 0, 43, 0
1, 58320, Note_on_c, 0, 55, 0
1, 58320, Note_on_c, 0, 59, 100
1, 58320, Note_on_c, 0, 62, 100
1, 58548, Note_on_c, 0, 59, 0
1, 58548, Note_on_c, 0, 62, 0
1, 58560, Note_on_c, 0, 59, 100
1, 58560, Note_on_c, 0, 62, 100
1, 58560, Note_on_c, 0, 67, 100
1, 58560, Note_on_c, 0, 79, 100
1, 58788, Note_on_c, 0, 59, 0
1, 58788, Note_on_c, 0, 62, 0
1, 58800, Note_on_c, 0, 59, 100
1, 58800, Note_on_c, 0, 62, 100
1, 59028, Note_on_c, 0, 59, 0
1, 59028, Note_on_c, 0, 62, 0
1, 59040, Note_on_c, 0, 55, 100
1, 59280, Note_on_c, 0, 55, 0
1, 59280, Note_on_c, 0, 60, 100
1, 59280, Note_on_c, 0, 63, 100
1, 59280, Note_on_c, 0, 67, 0
1, 59280, Note_on_c, 0, 79, 0
1, 59508, Note_on_c, 0, 60, 0
1, 59508, Note_on_c, 0, 63, 0
1, 59520, Note_on_c, 0, 60, 100
1, 59520, Note_on_c, 0, 63, 100
1, 59520, Note_on_c, 0, 67, 100
1, 59520, Note_on_c, 0, 79, 100
1, 59748, Note_on_c, 0, 60, 0
1, 59748, Note_on_c, 0, 63, 0
1, 59760, Note_on_c, 0, 60, 100
1, 59760, Note_on_c, 0, 63, 100
1, 59988, Note_on_c, 0, 60, 0
1, 59988, Note_on_c, 0, 63, 0
1, 60000, Note_on_c, 0, 62, 100
1, 60000, Note_on_c, 0, 65, 100
1, 60120, Note_on_c, 0, 67, 0
1, 60120, Note_on_c, 0, 77, 100
1, 60120, Note_on_c, 0, 79, 0
1, 60240, Note_on_c, 0, 62, 0
1, 60240, Note_on_c, 0, 65, 0
1, 60240, Note_on_c, 0, 74, 100
1, 60240, Note_on_c, 0, 77, 0
1, 60360, Note_on_c, 0, 71, 100
1, 60360, Note_on_c, 0, 74, 0
1, 60480, Note_on_c, 0, 67, 100
1, 60480, Note_on_c, 0, 71, 0
1, 60600, Note_on_c, 0, 65, 100
1, 60600, Note_on_c, 0, 67, 0
1, 60720, Note_on_c, 0, 62, 100
1, 60720, Note_on_c, 0, 65, 0
1, 60840, Note_on_c, 0, 59, 100
1, 60840, Note_on_c, 0, 62, 0
1, 60960, Note_on_c, 0, 59, 0
1, 60960, Note_on_c, 0, 60, 100
1, 61080, Note_on_c, 0, 60, 0
1, 61080, Note_on_c, 0, 63, 100
1, 61200, Note_on_c, 0, 60, 100
1, 61200, Note_on_c, 0, 63, 0
1, 61320, Note_on_c, 0, 55, 100
1, 61320, Note_on_c, 0, 60, 0
1, 61440, Note_on_c, 0, 32, 100
1, 61440, Note_on_c, 0, 54, 100
1, 61440, Note_on_c, 0, 55, 0
1, 61560, Note_on_c, 0, 44, 100
1, 61560, Note_on_c, 0, 54, 0
1, 61560, Note_on_c, 0, 60, 100
1, 61668, Note_on_c, 0, 32, 0
1, 61680, Note_on_c, 0, 32, 100
1, 61680, Note_on_c, 0, 44, 0
1, 61680, Note_on_c, 0, 56, 100
1, 61680, Note_on_c, 0, 60, 0
1, 61800, Note_on_c, 0, 44, 100
1, 61800, Note_on_c, 0, 54, 100
1, 61800, Note_on_c, 0, 56, 0
1, 61908, Note_on_c, 0, 32, 0
1, 61920, Note_on_c, 0, 31, 100
1, 61920, Note_on_c, 0, 44, 0
1, 61920, Note_on_c, 0, 54, 0
1, 61920, Note_on_c, 0, 55, 100
1, 62040, Note_on_c, 0, 43, 100
1, 62148, Note_on_c, 0, 31, 0
1, 62160, Note_on_c, 0, 31, 100
1, 62160, Note_on_c, 0, 43, 0
1, 62160, Note_on_c, 0, 55, 0
1, 62160, Note_on_c, 0, 66, 100
1, 62250, Note_on_c, 0, 66, 0
1, 62280, Note_on_c, 0, 43, 100
1, 62388, Note_on_c, 0, 31, 0
1, 62400, Note_on_c, 0, 31, 100
1, 62400, Note_on_c, 0, 43, 0
1, 62400, Note_on_c, 0, 67, 100
1, 62490, Note_on_c, 0, 67, 0
1, 62520, Note_on_c, 0, 43, 100
1, 62628, Note_on_c, 0, 31, 0
1, 62640, Note_on_c, 0, 31, 100
1, 62640, Note_on_c, 0, 43, 0
1, 62640, Note_on_c, 0, 66, 100
1, 62640, Note_on_c, 0, 72, 100
1, 62730, Note_on_c, 0, 66, 0
1, 62730, Note_on_c, 0, 72, 0
1, 62760, Note_on_c, 0, 43, 100
1, 62868, Note_on_c, 0, 31, 0
1, 62880, Note_on_c, 0, 31, 100
1, 62880, Note_on_c, 0, 43, 0
1, 62880, Note_on_c, 0, 67, 100
1, 62880, Note_on_c, 0, 71, 100
1, 62970, Note_on_c, 0, 67, 0
1, 62970, Note_on_c, 0, 71, 0
1, 63000, Note_on_c, 0, 43, 100
1, 63108, Note_on_c, 0, 31, 0
1, 63120, Note_on_c, 0, 31, 100
1, 63120, Note_on_c, 0, 43, 0
1, 63120, Note_on_c, 0, 72, 100
1, 63120, Note_on_c, 0, 78, 100
1, 63210, Note_on_c, 0, 72, 0
1, 63210, Note_on_c, 0, 78, 0
1, 63240, Note_on_c, 0, 43, 100
1, 63348, Note_on_c, 0, 31, 0
1, 63360, Note_on_c, 0, 31, 100
1, 63360, Note_on_c, 0, 43, 0
1, 63360, Note_on_c, 0, 71, 100
1, 63360, Note_on_c, 0, 79, 100
1, 63450, Note_on_c, 0, 71, 0
1, 63450, Note_on_c, 0, 79, 0
1, 63480, Note_on_c, 0, 43, 100
1, 63588, Note_on_c, 0, 31, 0
1, 63600, Note_on_c, 0, 31, 100
1, 63600, Note_on_c, 0, 43, 0
1, 63600, Note_on_c, 0, 78, 100
1, 63600, Note_on_c, 0, 84, 100
1, 63690, Note_on_c, 0, 78, 0
1, 63690, Note_on_c, 0, 84, 0
1, 63720, Note_on_c, 0, 43, 100
1, 63828, Note_on_c, 0, 31, 0
1, 63840, Note_on_c, 0, 31, 100
1, 63840, Note_on_c, 0, 43, 0
1, 63840, Note_on_c, 0, 79, 100
1, 63840, Note_on_c, 0, 83, 100
1, 63960, Note_on_c, 0, 43, 100
1, 63960, Note_on_c, 0, 79, 0
1, 63960, Note_on_c, 0, 83, 0
1, 64068, Note_on_c, 0, 31, 0
1, 64080, Note_on_c, 0, 31, 100
1, 64080, Note_on_c, 0, 43, 0
1, 64200, Note_on_c, 0, 43, 100
1, 64308, Note_on_c, 0, 31, 0
1, 64320, Note_on_c, 0, 31, 100
1, 64320, Note_on_c, 0, 43, 0
1, 64440, Note_on_c, 0, 43, 100
1, 64548, Note_on_c, 0, 31, 0
1, 64560, Note_on_c, 0, 31, 100
1, 64560, Note_on_c, 0, 43, 0
1, 64680, Note_on_c, 0, 43, 100
1, 64788, Note_on_c, 0, 31, 0
1, 64800, Note_on_c, 0, 31, 100
1, 64800, Note_on_c, 0, 43, 0
1, 64800, Note_on_c, 0, 58, 100
1, 64800, Note_on_c, 0, 61, 100
1, 64800, Note_on_c, 0, 63, 100
1, 64920, Note_on_c, 0, 43, 100
1, 65028, Note_on_c, 0, 31, 0
1, 65040, Note_on_c, 0, 31, 100
1, 65040, Note_on_c, 0, 43, 0
1, 65160, Note_on_c, 0, 43, 100
1, 65268, Note_on_c, 0, 31, 0
1, 65280, Note_on_c, 0, 31, 100
1, 65280, Note_on_c, 0, 43, 0
1, 65400, Note_on_c, 0, 43, 100
1, 65508, Note_on_c, 0, 31, 0
1, 65520, Note_on_c, 0, 31, 100
1, 65520, Note_on_c, 0, 43, 0
1, 65640, Note_on_c, 0, 43, 100
1, 65748, Note_on_c, 0, 31, 0
1, 65760, Note_on_c, 0, 32, 100
1, 65760, Note_on_c, 0, 43, 0
1, 65760, Note_on_c, 0, 58, 0
1, 65760, Note_on_c, 0, 60, 100
1, 65760, Note_on_c, 0, 61, 0
1, 65880, Note_on_c, 0, 44, 100
1, 65988, Note_on_c, 0, 32, 0
1, 66000, Note_on_c, 0, 32, 100
1, 66000, Note_on_c, 0, 44, 0
1, 66000, Note_on_c, 0, 60, 0
1, 66000, Note_on_c, 0, 63, 0
1, 66000, Note_on_c, 0, 73, 100
1, 66090, Note_on_c, 0, 73, 0
1, 66120, Note_on_c, 0, 44, 100
1, 66228, Note_on_c, 0, 32, 0
1, 66240, Note_on_c, 0, 32, 100
1, 66240, Note_on_c, 0, 44, 0
1, 66240, Note_on_c, 0, 72, 100
1, 66330, Note_on_c, 0, 72, 0
1, 66360, Note_on_c, 0, 44, 100
1, 66468, Note_on_c, 0, 32, 0
1, 66480, Note_on_c, 0, 32, 100
1, 66480, Note_on_c, 0, 44, 0
1, 66480, Note_on_c, 0, 73, 100
1, 66480, Note_on_c, 0, 79, 100
1, 66570, Note_on_c, 0, 73, 0
1, 66570, Note_on_c, 0, 79, 0
1, 66600, Note_on_c, 0, 44, 100
1, 66708, Note_on_c, 0, 32, 0
1, 66720, Note_on_c, 0, 32, 100
1, 66720, Note_on_c, 0, 44, 0
1, 66720, Note_on_c, 0, 72, 100
1, 66720, Note_on_c, 0, 80, 100
1, 66810, Note_on_c, 0, 72, 0
1, 66810, Note_on_c, 0, 80, 0
1, 66840, Note_on_c, 0, 44, 100
1, 66948, Note_on_c, 0, 32, 0
1, 66960, Note_on_c, 0, 32, 100
1, 66960, Note_on_c, 0, 44, 0
1, 66960, Note_on_c, 0, 79, 100
1, 66960, Note_on_c, 0, 85, 100
1, 67050, Note_on_c, 0, 79, 0
1, 67050, Note_on_c, 0, 85, 0
1, 67080, Note_on_c, 0, 44, 100
1, 67188, Note_on_c, 0, 32, 0
1, 67200, Note_on_c, 0, 32, 100
1, 67200, Note_on_c, 0, 44, 0
1, 67200, Note_on_c, 0, 80, 100
1, 67200, Note_on_c, 0, 84, 100
1, 67290, Note_on_c, 0, 80, 0
1, 67290, Note_on_c, 0, 84, 0
1, 67320, Note_on_c, 0, 44, 100
1, 67428, Note_on_c, 0, 32, 0
1, 67440, Note_on_c, 0, 32, 100
1, 67440, Note_on_c, 0, 44, 0
1, 67440, Note_on_c, 0, 79, 100
1, 67440, Note_on_c, 0, 85, 100
1, 67530, Note_on_c, 0, 79, 0
1, 67530, Note_on_c, 0, 85, 0
1, 67560, Note_on_c, 0, 44, 100
1, 67668, Note_on_c, 0, 32, 0
1, 67680, Note_on_c, 0, 32, 100
1, 67680, Note_on_c, 0, 44, 0
1, 67680, Note_on_c, 0, 80, 100
1, 67680, Note_on_c, 0, 84, 100
1, 67800, Note_on_c, 0, 44, 100
1, 67800, Note_on_c, 0, 80, 0
1, 67800, Note_on_c, 0, 84, 0
1, 67908, Note_on_c, 0, 32, 0
1, 67920, Note_on_c, 0, 32, 100
1, 67920, Note_on_c, 0, 44, 0
1, 68040, Note_on_c, 0, 44, 100
1, 68148, Note_on_c, 0, 32, 0
1, 68160, Note_on_c, 0, 32, 100
1, 68160, Note_on_c, 0, 44, 0
1, 68280, Note_on_c, 0, 44, 100
1, 68388, Note_on_c, 0, 32, 0
1, 68400, Note_on_c, 0, 32, 100
1, 68400, Note_on_c, 0, 44, 0
1, 68520, Note_on_c, 0, 44, 100
1, 68628, Note_on_c, 0, 32, 0
1, 68640, Note_on_c, 0, 33, 100
1, 68640, Note_on_c, 0, 44, 0
1, 68640, Note_on_c, 0, 60, 100
1, 68640, Note_on_c, 0, 63, 100
1, 68640, Note_on_c, 0, 66, 100
1, 68760, Note_on_c, 0, 45, 100
1, 68868, Note_on_c, 0, 33, 0
1, 68880, Note_on_c, 0, 33, 100
1, 68880, Note_on_c, 0, 45, 0
1, 69000, Note_on_c, 0, 45, 100
1, 69108, Note_on_c, 0, 33, 0
1, 69120, Note_on_c, 0, 33, 100
1, 69120, Note_on_c, 0, 45, 0
1, 69240, Note_on_c, 0, 45, 100
1, 69348, Note_on_c, 0, 33, 0
1, 69360, Note_on_c, 0, 33, 100
1, 69360, Note_on_c, 0, 45, 0
1, 69480, Note_on_c, 0, 45, 100
1, 69588, Note_on_c, 0, 33, 0
1, 69600, Note_on_c, 0, 34, 100
1, 69600, Note_on_c, 0, 45, 0
1, 69600, Note_on_c, 0, 60, 0
1, 69600, Note_on_c, 0, 62, 100
1, 69600, Note_on_c, 0, 63, 0
1, 69600, Note_on_c, 0, 65, 100
1, 69600, Note_on_c, 0, 66, 0
1, 69720, Note_on_c, 0, 46, 100
1, 69828, Note_on_c, 0, 34, 0
1, 69840, Note_on_c, 0, 34, 100
1, 69840, Note_on_c, 0, 46, 0
1, 69840, Note_on_c, 0, 62, 0
1, 69840, Note_on_c, 0, 65, 0
1, 69840, Note_on_c, 0, 69, 100
1, 69840, Note_on_c, 0, 75, 100
1, 69930, Note_on_c, 0, 69, 0
1, 69930, Note_on_c, 0, 75, 0
1, 69960, Note_on_c, 0, 46, 100
1, 70068, Note_on_c, 0, 34, 0
1, 70080, Note_on_c, 0, 34, 100
1, 70080, Note_on_c, 0, 46, 0
1, 70080, Note_on_c, 0, 70, 100
1, 70080, Note_on_c, 0, 74, 100
1, 70170, Note_on_c, 0, 70, 0
1, 70170, Note_on_c, 0, 74, 0
1, 70200, Note_on_c, 0, 46, 100
1, 70308, Note_on_c, 0, 34, 0
1, 70320, Note_on_c, 0, 34, 100
1, 70320, Note_on_c, 0, 46, 0
1, 70320, Note_on_c, 0, 75, 100
1, 70320, Note_on_c, 0, 81, 100
1, 70410, Note_on_c, 0, 75, 0
1, 70410, Note_on_c, 0, 81, 0
1, 70440, Note_on_c, 0, 46, 100
1, 70548, Note_on_c, 0, 34, 0
1, 70560, Note_on_c, 0, 34, 100
1, 70560, Note_on_c, 0, 46, 0
1, 70560, Note_on_c, 0, 74, 100
1, 70560, Note_on_c, 0, 82, 100
1, 70650, Note_on_c, 0, 74, 0
1, 70650, Note_on_c, 0, 82, 0
1, 70680, Note_on_c, 0, 46, 100
1, 70788, Note_on_c, 0, 34, 0
1, 70800, Note_on_c, 0, 34, 100
1, 70800, Note_on_c, 0, 46, 0
1, 70800, Note_on_c, 0, 81, 100
1, 70800, Note_on_c, 0, 87, 100
1, 70890, Note_on_c, 0, 81, 0
1, 70890, Note_on_c, 0, 87, 0
1, 70920, Note_on_c, 0, 46, 100
1, 71028, Note_on_c, 0, 34, 0
1, 71040, Note_on_c, 0, 34, 100
1, 71040, Note_on_c, 0, 46, 0
1, 71040, Note_on_c, 0, 82, 100
1, 71040, Note_on_c, 0, 86, 100
1, 71130, Note_on_c, 0, 82, 0
1, 71130, Note_on_c, 0, 86, 0
1, 71160, Note_on_c, 0, 46, 100
1, 71268, Note_on_c, 0, 34, 0
1, 71280, Note_on_c, 0, 34, 100
1, 71280, Note_on_c, 0, 46, 0
1, 71280, Note_on_c, 0, 81, 100
1, 71280, Note_on_c, 0, 87, 100
1, 71370, Note_on_c, 0, 81, 0
1, 71370, Note_on_c, 0, 87, 0
1, 71400, Note_on_c, 0, 46, 100
1, 71508, Note_on_c, 0, 34, 0
1, 71520, Note_on_c, 0, 34, 100
1, 71520, Note_on_c, 0, 46, 0
1, 71520, Note_on_c, 0, 82, 100
1, 71520, Note_on_c, 0, 86, 100
1, 71640, Note_on_c, 0, 46, 100
1, 71640, Note_on_c, 0, 82, 0
1, 71640, Note_on_c, 0, 86, 0
1, 71748, Note_on_c, 0, 34, 0
1, 71760, Note_on_c, 0, 34, 100
1, 71760, Note_on_c, 0, 46, 0
1, 71880, Note_on_c, 0, 46, 100
1, 71988, Note_on_c, 0, 34, 0
1, 72000, Note_on_c, 0, 34, 100
1, 72000, Note_on_c, 0, 46, 0
1, 72000, Note_on_c, 0, 75, 100
1, 72000, Note_on_c, 0, 81, 100
1, 72120, Note_on_c, 0, 46, 100
1, 72228, Note_on_c, 0, 34, 0
1, 72240, Note_on_c, 0, 34, 100
1, 72240, Note_on_c, 0, 46, 0
1, 72360, Note_on_c, 0, 46, 100
1, 72468, Note_on_c, 0, 34, 0
1, 72480, Note_on_c, 0, 34, 100
1, 72480, Note_on_c, 0, 46, 0
1, 72480, Note_on_c, 0, 74, 100
1, 72480, Note_on_c, 0, 75, 0
1, 72480, Note_on_c, 0, 81, 0
1, 72480, Note_on_c, 0, 82, 100
1, 72600, Note_on_c, 0, 46, 100
1, 72708, Note_on_c, 0, 34, 0
1, 72720, Note_on_c, 0, 34, 100
1, 72720, Note_on_c, 0, 46, 0
1, 72720, Note_on_c, 0, 74, 0
1, 72720, Note_on_c, 0, 82, 0
1, 72840, Note_on_c, 0, 46, 100
1, 72948, Note_on_c, 0, 34, 0
1, 72960, Note_on_c, 0, 34, 100
1, 72960, Note_on_c, 0, 46, 0
1, 72960, Note_on_c, 0, 69, 100
1, 72960, Note_on_c, 0, 75, 100
1, 73080, Note_on_c, 0, 46, 100
1, 73188, Note_on_c, 0, 34, 0
1, 73200, Note_on_c, 0, 34, 100
1, 73200, Note_on_c, 0, 46, 0
1, 73320, Note_on_c, 0, 46, 100
1, 73428, Note_on_c, 0, 34, 0
1, 73440, Note_on_c, 0, 34, 100
1, 73440, Note_on_c, 0, 46, 0
1, 73440, Note_on_c, 0, 69, 0
1, 73440, Note_on_c, 0, 70, 100
1, 73440, Note_on_c, 0, 74, 100
1, 73440, Note_on_c, 0, 75, 0
1, 73560, Note_on_c, 0, 46, 100
1, 73668, Note_on_c, 0, 34, 0
1, 73680, Note_on_c, 0, 34, 100
1, 73680, Note_on_c, 0, 46, 0
1, 73680, Note_on_c, 0, 70, 0
1, 73680, Note_on_c, 0, 74, 0
1, 73800, Note_on_c, 0, 46, 100
1, 73908, Note_on_c, 0, 34, 0
1, 73920, Note_on_c, 0, 34, 100
1, 73920, Note_on_c, 0, 46, 0
1, 73920, Note_on_c, 0, 63, 100
1, 73920, Note_on_c, 0, 69, 100
1, 74040, Note_on_c, 0, 46, 100
1, 74148, Note_on_c, 0, 34, 0
1, 74160, Note_on_c, 0, 34, 100
1, 74160, Note_on_c, 0, 46, 0
1, 74280, Note_on_c, 0, 46, 100
1, 74388, Note_on_c, 0, 34, 0
1, 74400, Note_on_c, 0, 34, 100
1, 74400, Note_on_c, 0, 46, 0
1, 74400, Note_on_c, 0, 62, 100
1, 74400, Note_on_c, 0, 63, 0
1, 74400, Note_on_c, 0, 69, 0
1, 74400, Note_on_c, 0, 70, 100
1, 74520, Note_on_c, 0, 46, 100
1, 74628, Note_on_c, 0, 34, 0
1, 74640, Note_on_c, 0, 34, 100
1, 74640, Note_on_c, 0, 46, 0
1, 74640, Note_on_c, 0, 62, 0
1, 74640, Note_on_c, 0, 70, 0
1, 74760, Note_on_c, 0, 46, 100
1, 74868, Note_on_c, 0, 34, 0
1, 74880, Note_on_c, 0, 34, 100
1, 74880, Note_on_c, 0, 46, 0
1, 74880, Note_on_c, 0, 57, 100
1, 74880, Note_on_c, 0, 63, 100
1, 75000, Note_on_c, 0, 46, 100
1, 75108, Note_on_c, 0, 34, 0
1, 75120, Note_on_c, 0, 34, 100
1, 75120, Note_on_c, 0, 46, 0
1, 75240, Note_on_c, 0, 46, 100
1, 75348, Note_on_c, 0, 34, 0
1, 75360, Note_on_c, 0, 34, 100
1, 75360, Note_on_c, 0, 46, 0
1, 75360, Note_on_c, 0, 46, 100
1, 75360, Note_on_c, 0, 57, 0
1, 75360, Note_on_c, 0, 58, 100
1, 75360, Note_on_c, 0, 62, 100
1, 75360, Note_on_c, 0, 63, 0
1, 75600, Note_on_c, 0, 34, 0
1, 75600, Note_on_c, 0, 46, 0
1, 75600, Note_on_c, 0, 57, 100
1, 75600, Note_on_c, 0, 58, 0
1, 75600, Note_on_c, 0, 62, 0
1, 75840, Note_on_c, 0, 57, 0
1, 75840, Note_on_c, 0, 58, 100
1, 76080, Note_on_c, 0, 57, 100
1, 76080, Note_on_c, 0, 58, 0
1, 76320, Note_on_c, 0, 57, 0
1, 76320, Note_on_c, 0, 58, 100
1, 76560, Note_on_c, 0, 57, 100
1, 76560, Note_on_c, 0, 58, 0
1, 76800, Note_on_c, 0, 57, 0
1, 76800, Note_on_c, 0, 58, 100
1, 77040, Note_on_c, 0, 57, 100
1, 77040, Note_on_c, 0, 58, 0
1, 77280, Note_on_c, 0, 57, 0
1, 77280, Note_on_c, 0, 58, 100
1, 77520, Note_on_c, 0, 46, 100
1, 77520, Note_on_c, 0, 63, 100
1, 77520, Note_on_c, 0, 66, 100
1, 77640, Note_on_c, 0, 46, 0
1, 77748, Note_on_c, 0, 63, 0
1, 77748, Note_on_c, 0, 66, 0
1, 77760, Note_on_c, 0, 51, 100
1, 77760, Note_on_c, 0, 63, 100
1, 77760, Note_on_c, 0, 66, 100
1, 77880, Note_on_c, 0, 51, 0
1, 77988, Note_on_c, 0, 63, 0
1, 77988, Note_on_c, 0, 66, 0
1, 78000, Note_on_c, 0, 53, 100
1, 78000, Note_on_c, 0, 63, 100
1, 78000, Note_on_c, 0, 66, 100
1, 78120, Note_on_c, 0, 53, 0
1, 78228, Note_on_c, 0, 63, 0
1, 78228, Note_on_c, 0, 66, 0
1, 78240, Note_on_c, 0, 54, 100
1, 78240, Note_on_c, 0, 58, 0
1, 78240, Note_on_c, 0, 58, 100
1, 78360, Note_on_c, 0, 54, 0
1, 78480, Note_on_c, 0, 63, 100
1, 78480, Note_on_c, 0, 66, 100
1, 78480, Note_on_c, 0, 70, 100
1, 78600, Note_on_c, 0, 70, 0
1, 78708, Note_on_c, 0, 63, 0
1, 78708, Note_on_c, 0, 66, 0
1, 78720, Note_on_c, 0, 63, 100
1, 78720, Note_on_c, 0, 66, 100
1, 78720, Note_on_c, 0, 75, 100
1, 78840, Note_on_c, 0, 75, 0
1, 78948, Note_on_c, 0, 63, 0
1, 78948, Note_on_c, 0, 66, 0
1, 78960, Note_on_c, 0, 63, 100
1, 78960, Note_on_c, 0, 66, 100
1, 78960, Note_on_c, 0, 77, 100
1, 79080, Note_on_c, 0, 77, 0
1, 79140, Note_on_c, 0, 70, 100
1, 79188, Note_on_c, 0, 63, 0
1, 79188, Note_on_c, 0, 66, 0
1, 79200, Note_on_c, 0, 58, 0
1, 79200, Note_on_c, 0, 58, 100
1, 79200, Note_on_c, 0, 70, 0
1, 79200, Note_on_c, 0, 78, 100
1, 79440, Note_on_c, 0, 63, 100
1, 79440, Note_on_c, 0, 66, 100
1, 79668, Note_on_c, 0, 63, 0
1, 79668, Note_on_c, 0, 66, 0
1, 79680, Note_on_c, 0, 63, 100
1, 79680, Note_on_c, 0, 66, 100
1, 79908, Note_on_c, 0, 63, 0
1, 79908, Note_on_c, 0, 66, 0
1, 79920, Note_on_c, 0, 63, 100
1, 79920, Note_on_c, 0, 66, 100
1, 79920, Note_on_c, 0, 75, 100
1, 79920, Note_on_c, 0, 78, 0
1, 80100, Note_on_c, 0, 70, 100
1, 80148, Note_on_c, 0, 63, 0
1, 80148, Note_on_c, 0, 66, 0
1, 80160, Note_on_c, 0, 58, 0
1, 80160, Note_on_c, 0, 58, 100
1, 80160, Note_on_c, 0, 70, 0
1, 80160, Note_on_c, 0, 75, 0
1, 80160, Note_on_c, 0, 78, 100
1, 80400, Note_on_c, 0, 63, 100
1, 80400, Note_on_c, 0, 66, 100
1, 80628, Note_on_c, 0, 63, 0
1, 80628, Note_on_c, 0, 66, 0
1, 80640, Note_on_c, 0, 63, 100
1, 80640, Note_on_c, 0, 66, 100
1, 80868, Note_on_c, 0, 63, 0
1, 80868, Note_on_c, 0, 66, 0
1, 80880, Note_on_c, 0, 63, 100
1, 80880, Note_on_c, 0, 66, 100
1, 80880, Note_on_c, 0, 75, 100
1, 80880, Note_on_c, 0, 78, 0
1, 81120, Note_on_c, 0, 58, 0
1, 81120, Note_on_c, 0, 58, 100
1, 81120, Note_on_c, 0, 63, 0
1, 81120, Note_on_c, 0, 66, 0
1, 81120, Note_on_c, 0, 74, 100
1, 81120, Note_on_c, 0, 75, 0
1, 81360, Note_on_c, 0, 46, 100
1, 81360, Note_on_c, 0, 65, 100
1, 81360, Note_on_c, 0, 68, 100
1, 81360, Note_on_c, 0, 74, 0
1, 81480, Note_on_c, 0, 46, 0
1, 81588, Note_on_c, 0, 65, 0
1, 81588, Note_on_c, 0, 68, 0
1, 81600, Note_on_c, 0, 53, 100
1, 81600, Note_on_c, 0, 65, 100
1, 81600, Note_on_c, 0, 68, 100
1, 81720, Note_on_c, 0, 53, 0
1, 81828, Note_on_c, 0, 65, 0
1, 81828, Note_on_c, 0, 68, 0
1, 81840, Note_on_c, 0, 54, 100
1, 81840, Note_on_c, 0, 65, 100
1, 81840, Note_on_c, 0, 68, 100
1, 81960, Note_on_c, 0, 54, 0
1, 82068, Note_on_c, 0, 65, 0
1, 82068, Note_on_c, 0, 68, 0
1, 82080, Note_on_c, 0, 56, 100
1, 82080, Note_on_c, 0, 58, 0
1, 82080, Note_on_c, 0, 58, 100
1, 82200, Note_on_c, 0, 56, 0
1, 82320, Note_on_c, 0, 65, 100
1, 82320, Note_on_c, 0, 68, 100
1, 82320, Note_on_c, 0, 70, 100
1, 82548, Note_on_c, 0, 65, 0
1, 82548, Note_on_c, 0, 68, 0
1, 82560, Note_on_c, 0, 65, 100
1, 82560, Note_on_c, 0, 68, 100
1, 82560, Note_on_c, 0, 70, 0
1, 82560, Note_on_c, 0, 80, 100
1, 82788, Note_on_c, 0, 65, 0
1, 82788, Note_on_c, 0, 68, 0
1, 82800, Note_on_c, 0, 65, 100
1, 82800, Note_on_c, 0, 68, 100
1, 82800, Note_on_c, 0, 78, 100
1, 82800, Note_on_c, 0, 80, 0
1, 83028, Note_on_c, 0, 65, 0
1, 83028, Note_on_c, 0, 68, 0
1, 83040, Note_on_c, 0, 58, 0
1, 83040, Note_on_c, 0, 58, 100
1, 83040, Note_on_c, 0, 78, 0
1, 83040, Note_on_c, 0, 78, 100
1, 83100, Note_on_c, 0, 78, 0
1, 83100, Note_on_c, 0, 80, 100
1, 83160, Note_on_c, 0, 78, 100
1, 83160, Note_on_c, 0, 80, 0
1, 83280, Note_on_c, 0, 65, 100
1, 83280, Note_on_c, 0, 68, 100
1, 83280, Note_on_c, 0, 77, 100
1, 83280, Note_on_c, 0, 78, 0
1, 83508, Note_on_c, 0, 65, 0
1, 83508, Note_on_c, 0, 68, 0
1, 83520, Note_on_c, 0, 65, 100
1, 83520, Note_on_c, 0, 68, 100
1, 83520, Note_on_c, 0, 77, 0
1, 83520, Note_on_c, 0, 77, 100
1, 83580, Note_on_c, 0, 77, 0
1, 83580, Note_on_c, 0, 78, 100
1, 83640, Note_on_c, 0, 77, 100
1, 83640, Note_on_c, 0, 78, 0
1, 83748, Note_on_c, 0, 65, 0
1, 83748, Note_on_c, 0, 68, 0
1, 83760, Note_on_c, 0, 65, 100
1, 83760, Note_on_c, 0, 68, 100
1, 83760, Note_on_c, 0, 75, 100
1, 83760, Note_on_c, 0, 77, 0
1, 83988, Note_on_c, 0, 65, 0
1, 83988, Note_on_c, 0, 68, 0
1, 84000, Note_on_c, 0, 58, 0
1, 84000, Note_on_c, 0, 58, 100
1, 84000, Note_on_c, 0, 75, 0
1, 84000, Note_on_c, 0, 75, 100
1, 84060, Note_on_c, 0, 75, 0
1, 84060, Note_on_c, 0, 77, 100
1, 84120, Note_on_c, 0, 75, 100
1, 84120, Note_on_c, 0, 77, 0
1, 84240, Note_on_c, 0, 65, 100
1, 84240, Note_on_c, 0, 68, 100
1, 84240, Note_on_c, 0, 74, 100
1, 84240, Note_on_c, 0, 75, 0
1, 84468, Note_on_c, 0, 65, 0
1, 84468, Note_on_c, 0, 68, 0
1, 84480, Note_on_c, 0, 65, 100
1, 84480, Note_on_c, 0, 68, 100
1, 84480, Note_on_c, 0, 72, 100
1, 84480, Note_on_c, 0, 74, 0
1, 84600, Note_on_c, 0, 72, 0
1, 84708, Note_on_c, 0, 65, 0
1, 84708, Note_on_c, 0, 68, 0
1, 84720, Note_on_c, 0, 65, 100
1, 84720, Note_on_c, 0, 68, 100
1, 84720, Note_on_c, 0, 74, 100
1, 84840, Note_on_c, 0, 74, 0
1, 84948, Note_on_c, 0, 65, 0
1, 84948, Note_on_c, 0, 68, 0
1, 84960, Note_on_c, 0, 58, 0
1, 84960, Note_on_c, 0, 58, 100
1, 84960, Note_on_c, 0, 75, 100
1, 85200, Note_on_c, 0, 46, 100
1, 85200, Note_on_c, 0, 63, 100
1, 85200, Note_on_c, 0, 66, 100
1, 85200, Note_on_c, 0, 75, 0
1, 85320, Note_on_c, 0, 46, 0
1, 85428, Note_on_c, 0, 63, 0
1, 85428, Note_on_c, 0, 66, 0
1, 85440, Note_on_c, 0, 51, 100
1, 85440, Note_on_c, 0, 63, 100
1, 85440, Note_on_c, 0, 66, 100
1, 85560, Note_on_c, 0, 51, 0
1, 85668, Note_on_c, 0, 63, 0
1, 85668, Note_on_c, 0, 66, 0
1, 85680, Note_on_c, 0, 53, 100
1, 85680, Note_on_c, 0, 63, 100
1, 85680, Note_on_c, 0, 66, 100
1, 85800, Note_on_c, 0, 53, 0
1, 85908, Note_on_c, 0, 63, 0
1, 85908, Note_on_c, 0, 66, 0
1, 85920, Note_on_c, 0, 54, 100
1, 85920, Note_on_c, 0, 58, 0
1, 85920, Note_on_c, 0, 58, 100
1, 86040, Note_on_c, 0, 54, 0
1, 86160, Note_on_c, 0, 63, 100
1, 86160, Note_on_c, 0, 66, 100
1, 86160, Note_on_c, 0, 70, 100
1, 86280, Note_on_c, 0, 70, 0
1, 86388, Note_on_c, 0, 63, 0
1, 86388, Note_on_c, 0, 66, 0
1, 86400, Note_on_c, 0, 63, 100
1, 86400, Note_on_c, 0, 66, 100
1, 86400, Note_on_c, 0, 75, 100
1, 86520, Note_on_c, 0, 75, 0
1, 86628, Note_on_c, 0, 63, 0
1, 86628, Note_on_c, 0, 66, 0
1, 86640, Note_on_c, 0, 63, 100
1, 86640, Note_on_c, 0, 66, 100
1, 86640, Note_on_c, 0, 77, 100
1, 86760, Note_on_c, 0, 77, 0
1, 86820, Note_on_c, 0, 70, 100
1, 86868, Note_on_c, 0, 63, 0
1, 86868, Note_on_c, 0, 66, 0
1, 86880, Note_on_c, 0, 58, 0
1, 86880, Note_on_c, 0, 58, 100
1, 86880, Note_on_c, 0, 70, 0
1, 86880, Note_on_c, 0, 78, 100
1, 87120, Note_on_c, 0, 63, 100
1, 87120, Note_on_c, 0, 66, 100
1, 87348, Note_on_c, 0, 63, 0
1, 87348, Note_on_c, 0, 66, 0
1, 87360, Note_on_c, 0, 63, 100
1, 87360, Note_on_c, 0, 66, 100
1, 87588, Note_on_c, 0, 63, 0
1, 87588, Note_on_c, 0, 66, 0
1, 87600, Note_on_c, 0, 63, 100
1, 87600, Note_on_c, 0, 66, 100
1, 87600, Note_on_c, 0, 75, 100
1, 87600, Note_on_c, 0, 78, 0
1, 87780, Note_on_c, 0, 70, 100
1, 87828, Note_on_c, 0, 63, 0
1, 87828, Note_on_c, 0, 66, 0
1, 87840, Note_on_c, 0, 58, 0
1, 87840, Note_on_c, 0, 58, 100
1, 87840, Note_on_c, 0, 70, 0
1, 87840, Note_on_c, 0, 75, 0
1, 87840, Note_on_c, 0, 78, 100
1, 88080, Note_on_c, 0, 63, 100
1, 88080, Note_on_c, 0, 66, 100
1, 88308, Note_on_c, 0, 63, 0
1, 88308, Note_on_c, 0, 66, 0
1, 88320, Note_on_c, 0, 63, 100
1, 88320, Note_on_c, 0, 66, 100
1, 88548, Note_on_c, 0, 63, 0
1, 88548, Note_on_c, 0, 66, 0
1, 88560, Note_on_c, 0, 63, 100
1, 88560, Note_on_c, 0, 66, 100
1, 88560, Note_on_c, 0, 75, 100
1, 88560, Note_on_c, 0, 78, 0
1, 88788, Note_on_c, 0, 63, 0
1, 88788, Note_on_c, 0, 66, 0
1, 88800, Note_on_c, 0, 56, 100
1, 88800, Note_on_c, 0, 58, 0
1, 88800, Note_on_c, 0, 72, 100
1, 88800, Note_on_c, 0, 75, 0
1, 89040, Note_on_c, 0, 44, 100
1, 89040, Note_on_c, 0, 63, 100
1, 89040, Note_on_c, 0, 66, 100
1, 89040, Note_on_c, 0, 72, 0
1, 89160, Note_on_c, 0, 44, 0
1, 89268, Note_on_c, 0, 63, 0
1, 89268, Note_on_c, 0, 66, 0
1, 89280, Note_on_c, 0, 51, 100
1, 89280, Note_on_c, 0, 63, 100
1, 89280, Note_on_c, 0, 66, 100
1, 89400, Note_on_c, 0, 51, 0
1, 89508, Note_on_c, 0, 63, 0
1, 89508, Note_on_c, 0, 66, 0
1, 89520, Note_on_c, 0, 53, 100
1, 89520, Note_on_c, 0, 63, 100
1, 89520, Note_on_c, 0, 66, 100
1, 89640, Note_on_c, 0, 53, 0
1, 89748, Note_on_c, 0, 63, 0
1, 89748, Note_on_c, 0, 66, 0
1, 89760, Note_on_c, 0, 54, 100
1, 89760, Note_on_c, 0, 56, 0
1, 89760, Note_on_c, 0, 56, 100
1, 89880, Note_on_c, 0, 54, 0
1, 90000, Note_on_c, 0, 63, 100
1, 90000, Note_on_c, 0, 66, 100
1, 90000, Note_on_c, 0, 68, 100
1, 90228, Note_on_c, 0, 63, 0
1, 90228, Note_on_c, 0, 66, 0
1, 90240, Note_on_c, 0, 63, 100
1, 90240, Note_on_c, 0, 66, 100
1, 90240, Note_on_c, 0, 68, 0
1, 90240, Note_on_c, 0, 78, 100
1, 90468, Note_on_c, 0, 63, 0
1, 90468, Note_on_c, 0, 66, 0
1, 90480, Note_on_c, 0, 63, 100
1, 90480, Note_on_c, 0, 66, 100
1, 90480, Note_on_c, 0, 77, 100
1, 90480, Note_on_c, 0, 78, 0
1, 90708, Note_on_c, 0, 63, 0
1, 90708, Note_on_c, 0, 66, 0
1, 90720, Note_on_c, 0, 56, 0
1, 90720, Note_on_c, 0, 56, 100
1, 90720, Note_on_c, 0, 77, 0
1, 90720, Note_on_c, 0, 77, 100
1, 90780, Note_on_c, 0, 77, 0
1, 90780, Note_on_c, 0, 78, 100
1, 90840, Note_on_c, 0, 77, 100
1, 90840, Note_on_c, 0, 78, 0
1, 90960, Note_on_c, 0, 63, 100
1, 90960, Note_on_c, 0, 66, 100
1, 90960, Note_on_c, 0, 75, 100
1, 90960, Note_on_c, 0, 77, 0
1, 91188, Note_on_c, 0, 63, 0
1, 91188, Note_on_c, 0, 66, 0
1, 91200, Note_on_c, 0, 63, 100
1, 91200, Note_on_c, 0, 66, 100
1, 91200, Note_on_c, 0, 75, 0
1, 91200, Note_on_c, 0, 75, 100
1, 91260, Note_on_c, 0, 75, 0
1, 91260, Note_on_c, 0, 77, 100
1, 91320, Note_on_c, 0, 75, 100
1, 91320, Note_on_c, 0, 77, 0
1, 91428, Note_on_c, 0, 63, 0
1, 91428, Note_on_c, 0, 66, 0
1, 91440, Note_on_c, 0, 63, 100
1, 91440, Note_on_c, 0, 66, 100
1, 91440, Note_on_c, 0, 73, 100
1, 91440, Note_on_c, 0, 75, 0
1, 91668, Note_on_c, 0, 63, 0
1, 91668, Note_on_c, 0, 66, 0
1, 91680, Note_on_c, 0, 56, 0
1, 91680, Note_on_c, 0, 56, 100
1, 91680, Note_on_c, 0, 73, 0
1, 91680, Note_on_c, 0, 73, 100
1, 91740, Note_on_c, 0, 73, 0
1, 91740, Note_on_c, 0, 75, 100
1, 91800, Note_on_c, 0, 73, 100
1, 91800, Note_on_c, 0, 75, 0
1, 91920, Note_on_c, 0, 63, 100
1, 91920, Note_on_c, 0, 66, 100
1, 91920, Note_on_c, 0, 72, 100
1, 91920, Note_on_c, 0, 73, 0
1, 92148, Note_on_c, 0, 63, 0
1, 92148, Note_on_c, 0, 66, 0
1, 92160, Note_on_c, 0, 63, 100
1, 92160, Note_on_c, 0, 66, 100
1, 92160, Note_on_c, 0, 70, 100
1, 92160, Note_on_c, 0, 72, 0
1, 92280, Note_on_c, 0, 70, 0
1, 92388, Note_on_c, 0, 63, 0
1, 92388, Note_on_c, 0, 66, 0
1, 92400, Note_on_c, 0, 63, 100
1, 92400, Note_on_c, 0, 66, 100
1, 92400, Note_on_c, 0, 72, 100
1, 92520, Note_on_c, 0, 72, 0
1, 92628, Note_on_c, 0, 63, 0
1, 92628, Note_on_c, 0, 66, 0
1, 92640, Note_on_c, 0, 56, 0
1, 92640, Note_on_c, 0, 56, 100
1, 92640, Note_on_c, 0, 73, 100
1, 92880, Note_on_c, 0, 44, 100
1, 92880, Note_on_c, 0, 61, 100
1, 92880, Note_on_c, 0, 65, 100
1, 92880, Note_on_c, 0, 73, 0
1, 93000, Note_on_c, 0, 44, 0
1, 93108, Note_on_c, 0, 61, 0
1, 93108, Note_on_c, 0, 65, 0
1, 93120, Note_on_c, 0, 49, 100
1, 93120, Note_on_c, 0, 61, 100
1, 93120, Note_on_c, 0, 65, 100
1, 93240, Note_on_c, 0, 49, 0
1, 93348, Note_on_c, 0, 61, 0
1, 93348, Note_on_c, 0, 65, 0
1, 93360, Note_on_c, 0, 51, 100
1, 93360, Note_on_c, 0, 61, 100
1, 93360, Note_on_c, 0, 65, 100
1, 93480, Note_on_c, 0, 51, 0
1, 93588, Note_on_c, 0, 61, 0
1, 93588, Note_on_c, 0, 65, 0
1, 93600, Note_on_c, 0, 53, 100
1, 93600, Note_on_c, 0, 56, 0
1, 93600, Note_on_c, 0, 56, 100
1, 93720, Note_on_c, 0, 53, 0
1, 93840, Note_on_c, 0, 61, 100
1, 93840, Note_on_c, 0, 65, 100
1, 93840, Note_on_c, 0, 68, 100
1, 93960, Note_on_c, 0, 68, 0
1, 94068, Note_on_c, 0, 61, 0
1, 94068, Note_on_c, 0, 65, 0
1, 94080, Note_on_c, 0, 61, 100
1, 94080, Note_on_c, 0, 65, 100
1, 94080, Note_on_c, 0, 73, 100
1, 94200, Note_on_c, 0, 73, 0
1, 94308, Note_on_c, 0, 61, 0
1, 94308, Note_on_c, 0, 65, 0
1, 94320, Note_on_c, 0, 61, 100
1, 94320, Note_on_c, 0, 65, 100
1, 94320, Note_on_c, 0, 75, 100
1, 94440, Note_on_c, 0, 75, 0
1, 94500, Note_on_c, 0, 68, 100
1, 94548, Note_on_c, 0, 61, 0
1, 94548, Note_on_c, 0, 65, 0
1, 94560, Note_on_c, 0, 56, 0
1, 94560, Note_on_c, 0, 56, 100
1, 94560, Note_on_c, 0, 68, 0
1, 94560, Note_on_c, 0, 77, 100
1, 94800, Note_on_c, 0, 61, 100
1, 94800, Note_on_c, 0, 65, 100
1, 95028, Note_on_c, 0, 61, 0
1, 95028, Note_on_c, 0, 65, 0
1, 95040, Note_on_c, 0, 61, 100
1, 95040, Note_on_c, 0, 65, 100
1, 95268, Note_on_c, 0, 61, 0
1, 95268, Note_on_c, 0, 65, 0
1, 95280, Note_on_c, 0, 61, 100
1, 95280, Note_on_c, 0, 65, 100
1, 95280, Note_on_c, 0, 73, 100
1, 95280, Note_on_c, 0, 77, 0
1, 95460, Note_on_c, 0, 68, 100
1, 95508, Note_on_c, 0, 61, 0
1, 95508, Note_on_c, 0, 65, 0
1, 95520, Note_on_c, 0, 56, 0
1, 95520, Note_on_c, 0, 56, 100
1, 95520, Note_on_c, 0, 68, 0
1, 95520, Note_on_c, 0, 73, 0
1, 95520, Note_on_c, 0, 77, 100
1, 95760, Note_on_c, 0, 61, 100
1, 95760, Note_on_c, 0, 65, 100
1, 95988, Note_on_c, 0, 61, 0
1, 95988, Note_on_c, 0, 65, 0
1, 96000, Note_on_c, 0, 61, 100
1, 96000, Note_on_c, 0, 65, 100
1, 96228, Note_on_c, 0, 61, 0
1, 96228, Note_on_c, 0, 65, 0
1, 96240, Note_on_c, 0, 61, 100
1, 96240, Note_on_c, 0, 65, 100
1, 96240, Note_on_c, 0, 73, 100
1, 96240, Note_on_c, 0, 77, 0
1, 96468, Note_on_c, 0, 61, 0
1, 96468, Note_on_c, 0, 65, 0
1, 96480, Note_on_c, 0, 56, 0
1, 96480, Note_on_c, 0, 56, 100
1, 96480, Note_on_c, 0, 72, 100
1, 96480, Note_on_c, 0, 73, 0
1, 96720, Note_on_c, 0, 44, 100
1, 96720, Note_on_c, 0, 63, 100
1, 96720, Note_on_c, 0, 66, 100
1, 96720, Note_on_c, 0, 72, 0
1, 96840, Note_on_c, 0, 44, 0
1, 96948, Note_on_c, 0, 63, 0
1, 96948, Note_on_c, 0, 66, 0
1, 96960, Note_on_c, 0, 51, 100
1, 96960, Note_on_c, 0, 63, 100
1, 96960, Note_on_c, 0, 66, 100
1, 97080, Note_on_c, 0, 51, 0
1, 97188, Note_on_c, 0, 63, 0
1, 97188, Note_on_c, 0, 66, 0
1, 97200, Note_on_c, 0, 53, 100
1, 97200, Note_on_c, 0, 63, 100
1, 97200, Note_on_c, 0, 66, 100
1, 97320, Note_on_c, 0, 53, 0
1, 97428, Note_on_c, 0, 63, 0
1, 97428, Note_on_c, 0, 66, 0
1, 97440, Note_on_c, 0, 54, 100
1, 97440, Note_on_c, 0, 56, 0
1, 97440, Note_on_c, 0, 56, 100
1, 97560, Note_on_c, 0, 54, 0
1, 97680, Note_on_c, 0, 63, 100
1, 97680, Note_on_c, 0, 66, 100
1, 97680, Note_on_c, 0, 68, 100
1, 97908, Note_on_c, 0, 63, 0
1, 97908, Note_on_c, 0, 66, 0
1, 97920, Note_on_c, 0, 63, 100
1, 97920, Note_on_c, 0, 66, 100
1, 97920, Note_on_c, 0, 68, 0
1, 97920, Note_on_c, 0, 78, 100
1, 98148, Note_on_c, 0, 63, 0
1, 98148, Note_on_c, 0, 66, 0
1, 98160, Note_on_c, 0, 63, 100
1, 98160, Note_on_c, 0, 66, 100
1, 98160, Note_on_c, 0, 77, 100
1, 98160, Note_on_c, 0, 78, 0
1, 98388, Note_on_c, 0, 63, 0
1, 98388, Note_on_c, 0, 66, 0
1, 98400, Note_on_c, 0, 56, 0
1, 98400, Note_on_c, 0, 56, 100
1, 98400, Note_on_c, 0, 77, 0
1, 98400, Note_on_c, 0, 77, 100
1, 98460, Note_on_c, 0, 77, 0
1, 98460, Note_on_c, 0, 78, 100
1, 98520, Note_on_c, 0, 77, 100
1, 98520, Note_on_c, 0, 78, 0
1, 98640, Note_on_c, 0, 63, 100
1, 98640, Note_on_c, 0, 66, 100
1, 98640, Note_on_c, 0, 75, 100
1, 98640, Note_on_c, 0, 77, 0
1, 98868, Note_on_c, 0, 63, 0
1, 98868, Note_on_c, 0, 66, 0
1, 98880, Note_on_c, 0, 63, 100
1, 98880, Note_on_c, 0, 66, 100
1, 98880, Note_on_c, 0, 75, 0
1, 98880, Note_on_c, 0, 75, 100
1, 98940, Note_on_c, 0, 75, 0
1, 98940, Note_on_c, 0, 77, 100
1, 99000, Note_on_c, 0, 75, 100
1, 99000, Note_on_c, 0, 77, 0
1, 99108, Note_on_c, 0, 63, 0
1, 99108, Note_on_c, 0, 66, 0
1, 99120, Note_on_c, 0, 63, 100
1, 99120, Note_on_c, 0, 66, 100
1, 99120, Note_on_c, 0, 73, 100
1, 99120, Note_on_c, 0, 75, 0
1, 99348, Note_on_c, 0, 63, 0
1, 99348, Note_on_c, 0, 66, 0
1, 99360, Note_on_c, 0, 56, 0
1, 99360, Note_on_c, 0, 56, 100
1, 99360, Note_on_c, 0, 73, 0
1, 99360, Note_on_c, 0, 73, 100
1, 99420, Note_on_c, 0, 73, 0
1, 99420, Note_on_c, 0, 75, 100
1, 99480, Note_on_c, 0, 73, 100
1, 99480, Note_on_c, 0, 75, 0
1, 99600, Note_on_c, 0, 63, 100
1, 99600, Note_on_c, 0, 66, 100
1, 99600, Note_on_c, 0, 72, 100
1, 99600, Note_on_c, 0, 73, 0
1, 99828, Note_on_c, 0, 63, 0
1, 99828, Note_on_c, 0, 66, 0
1, 99840, Note_on_c, 0, 63, 100
1, 99840, Note_on_c, 0, 66, 100
1, 99840, Note_on_c, 0, 70, 100
1, 99840, Note_on_c, 0, 72, 0
1, 99960, Note_on_c, 0, 70, 0
1, 100068, Note_on_c, 0, 63, 0
1, 100068, Note_on_c, 0, 66, 0
1, 100080, Note_on_c, 0, 63, 100
1, 100080, Note_on_c, 0, 66, 100
1, 100080, Note_on_c, 0, 72, 100
1, 100200, Note_on_c, 0, 72, 0
1, 100308, Note_on_c, 0, 63, 0
1, 100308, Note_on_c, 0, 66, 0
1, 100320, Note_on_c, 0, 56, 0
1, 100320, Note_on_c, 0, 61, 100
1, 100320, Note_on_c, 0, 73, 100
1, 100560, Note_on_c, 0, 49, 100
1, 100560, Note_on_c, 0, 65, 100
1, 100560, Note_on_c, 0, 68, 100
1, 100560, Note_on_c, 0, 73, 0
1, 100800, Note_on_c, 0, 49, 0
1, 100800, Note_on_c, 0, 56, 100
1, 100800, Note_on_c, 0, 59, 100
1, 100800, Note_on_c, 0, 61, 0
1, 100800, Note_on_c, 0, 65, 0
1, 100800, Note_on_c, 0, 68, 0
1, 101040, Note_on_c, 0, 47, 100
1, 101040, Note_on_c, 0, 56, 0
1, 101040, Note_on_c, 0, 65, 100
1, 101040, Note_on_c, 0, 68, 100
1, 101160, Note_on_c, 0, 47, 0
1, 101280, Note_on_c, 0, 46, 100
1, 101280, Note_on_c, 0, 58, 100
1, 101280, Note_on_c, 0, 59, 0
1, 101280, Note_on_c, 0, 65, 0
1, 101280, Note_on_c, 0, 68, 0
1, 101400, Note_on_c, 0, 46, 0
1, 101520, Note_on_c, 0, 65, 100
1, 101520, Note_on_c, 0, 68, 100
1, 101520, Note_on_c, 0, 70, 100
1, 101748, Note_on_c, 0, 65, 0
1, 101748, Note_on_c, 0, 68, 0
1, 101760, Note_on_c, 0, 65, 100
1, 101760, Note_on_c, 0, 68, 100
1, 101760, Note_on_c, 0, 70, 0
1, 101760, Note_on_c, 0, 80, 100
1, 101988, Note_on_c, 0, 65, 0
1, 101988, Note_on_c, 0, 68, 0
1, 102000, Note_on_c, 0, 65, 100
1, 102000, Note_on_c, 0, 68, 100
1, 102000, Note_on_c, 0, 78, 100
1, 102000, Note_on_c, 0, 80, 0
1, 102228, Note_on_c, 0, 65, 0
1, 102228, Note_on_c, 0, 68, 0
1, 102240, Note_on_c, 0, 58, 0
1, 102240, Note_on_c, 0, 58, 100
1, 102240, Note_on_c, 0, 78, 0
1, 102240, Note_on_c, 0, 78, 100
1, 102300, Note_on_c, 0, 78, 0
1, 102300, Note_on_c, 0, 80, 100
1, 102360, Note_on_c, 0, 78, 100
1, 102360, Note_on_c, 0, 80, 0
1, 102480, Note_on_c, 0, 65, 100
1, 102480, Note_on_c, 0, 68, 100
1, 102480, Note_on_c, 0, 77, 100
1, 102480, Note_on_c, 0, 78, 0
1, 102708, Note_on_c, 0, 65, 0
1, 102708, Note_on_c, 0, 68, 0
1, 102720, Note_on_c, 0, 65, 100
1, 102720, Note_on_c, 0, 68, 100
1, 102720, Note_on_c, 0, 77, 0
1, 102720, Note_on_c, 0, 77, 100
1, 102780, Note_on_c, 0, 77, 0
1, 102780, Note_on_c, 0, 78, 100
1, 102840, Note_on_c, 0, 77, 100
1, 102840, Note_on_c, 0, 78, 0
1, 102948, Note_on_c, 0, 65, 0
1, 102948, Note_on_c, 0, 68, 0
1, 102960, Note_on_c, 0, 65, 100
1, 102960, Note_on_c, 0, 68, 100
1, 102960, Note_on_c, 0, 75, 100
1, 102960, Note_on_c, 0, 77, 0
1, 103188, Note_on_c, 0, 65, 0
1, 103188, Note_on_c, 0, 68, 0
1, 103200, Note_on_c, 0, 58, 0
1, 103200, Note_on_c, 0, 58, 100
1, 103200, Note_on_c, 0, 75, 0
1, 103200, Note_on_c, 0, 75, 100
1, 103260, Note_on_c, 0, 75, 0
1, 103260, Note_on_c, 0, 77, 100
1, 103320, Note_on_c, 0, 75, 100
1, 103320, Note_on_c, 0, 77, 0
1, 103440, Note_on_c, 0, 65, 100
1, 103440, Note_on_c, 0, 68, 100
1, 103440, Note_on_c, 0, 74, 100
1, 103440, Note_on_c, 0, 75, 0
1, 103668, Note_on_c, 0, 65, 0
1, 103668, Note_on_c, 0, 68, 0
1, 103680, Note_on_c, 0, 65, 100
1, 103680, Note_on_c, 0, 68, 100
1, 103680, Note_on_c, 0, 72, 100
1, 103680, Note_on_c, 0, 74, 0
1, 103800, Note_on_c, 0, 72, 0
1, 103908, Note_on_c, 0, 65, 0
1, 103908, Note_on_c, 0, 68, 0
1, 103920, Note_on_c, 0, 65, 100
1, 103920, Note_on_c, 0, 68, 100
1, 103920, Note_on_c, 0, 74, 100
1, 104040, Note_on_c, 0, 74, 0
1, 104148, Note_on_c, 0, 65, 0
1, 104148, Note_on_c, 0, 68, 0
1, 104160, Note_on_c, 0, 58, 0
1, 104160, Note_on_c, 0, 63, 100
1, 104160, Note_on_c, 0, 75, 100
1, 104400, Note_on_c, 0, 51, 100
1, 104400, Note_on_c, 0, 66, 100
1, 104400, Note_on_c, 0, 70, 100
1, 104400, Note_on_c, 0, 75, 0
1, 104640, Note_on_c, 0, 51, 0
1, 104640, Note_on_c, 0, 58, 100
1, 104640, Note_on_c, 0, 61, 100
1, 104640, Note_on_c, 0, 63, 0
1, 104640, Note_on_c, 0, 66, 0
1, 104640, Note_on_c, 0, 70, 0
1, 104880, Note_on_c, 0, 49, 100
1, 104880, Note_on_c, 0, 58, 0
1, 104880, Note_on_c, 0, 65, 100
1, 104880, Note_on_c, 0, 70, 100
1, 105000, Note_on_c, 0, 49, 0
1, 105120, Note_on_c, 0, 48, 100
1, 105120, Note_on_c, 0, 60, 100
1, 105120, Note_on_c, 0, 61, 0
1, 105120, Note_on_c, 0, 65, 0
1, 105120, Note_on_c, 0, 70, 0
1, 105240, Note_on_c, 0, 48, 0
1, 105360, Note_on_c, 0, 67, 100
1, 105360, Note_on_c, 0, 70, 100
1, 105360, Note_on_c, 0, 72, 100
1, 105588, Note_on_c, 0, 67, 0
1, 105588, Note_on_c, 0, 70, 0
1, 105600, Note_on_c, 0, 67, 100
1, 105600, Note_on_c, 0, 70, 100
1, 105600, Note_on_c, 0, 72, 0
1, 105600, Note_on_c, 0, 82, 100
1, 105828, Note_on_c, 0, 67, 0
1, 105828, Note_on_c, 0, 70, 0
1, 105840, Note_on_c, 0, 67, 100
1, 105840, Note_on_c, 0, 70, 100
1, 105840, Note_on_c, 0, 80, 100
1, 105840, Note_on_c, 0, 82, 0
1, 106068, Note_on_c, 0, 67, 0
1, 106068, Note_on_c, 0, 70, 0
1, 106080, Note_on_c, 0, 60, 0
1, 106080, Note_on_c, 0, 60, 100
1, 106080, Note_on_c, 0, 80, 0
1, 106080, Note_on_c, 0, 80, 100
1, 106140, Note_on_c, 0, 80, 0
1, 106140, Note_on_c, 0, 82, 100
1, 106200, Note_on_c, 0, 80, 100
1, 106200, Note_on_c, 0, 82, 0
1, 106320, Note_on_c, 0, 67, 100
1, 106320, Note_on_c, 0, 70, 100
1, 106320, Note_on_c, 0, 79, 100
1, 106320, Note_on_c, 0, 80, 0
1, 106548, Note_on_c, 0, 67, 0
1, 106548, Note_on_c, 0, 70, 0
1, 106560, Note_on_c, 0, 67, 100
1, 106560, Note_on_c, 0, 70, 100
1, 106560, Note_on_c, 0, 79, 0
1, 106560, Note_on_c, 0, 79, 100
1, 106620, Note_on_c, 0, 79, 0
1, 106620, Note_on_c, 0, 80, 100
1, 106680, Note_on_c, 0, 79, 100
1, 106680, Note_on_c, 0, 80, 0
1, 106788, Note_on_c, 0, 67, 0
1, 106788, Note_on_c, 0, 70, 0
1, 106800, Note_on_c, 0, 67, 100
1, 106800, Note_on_c, 0, 70, 100
1, 106800, Note_on_c, 0, 77, 100
1, 106800, Note_on_c, 0, 79, 0
1, 107028, Note_on_c, 0, 67, 0
1, 107028, Note_on_c, 0, 70, 0
1, 107040, Note_on_c, 0, 60, 0
1, 107040, Note_on_c, 0, 60, 100
1, 107040, Note_on_c, 0, 77, 0
1, 107040, Note_on_c, 0, 77, 100
1, 107100, Note_on_c, 0, 77, 0
1, 107100, Note_on_c, 0, 79, 100
1, 107160, Note_on_c, 0, 77, 100
1, 107160, Note_on_c, 0, 79, 0
1, 107280, Note_on_c, 0, 67, 100
1, 107280, Note_on_c, 0, 70, 100
1, 107280, Note_on_c, 0, 76, 100
1, 107280, Note_on_c, 0, 77, 0
1, 107508, Note_on_c, 0, 67, 0
1, 107508, Note_on_c, 0, 70, 0
1, 107520, Note_on_c, 0, 67, 100
1, 107520, Note_on_c, 0, 70, 100
1, 107520, Note_on_c, 0, 74, 100
1, 107520, Note_on_c, 0, 76, 0
1, 107748, Note_on_c, 0, 67, 0
1, 107748, Note_on_c, 0, 70, 0
1, 107760, Note_on_c, 0, 67, 100
1, 107760, Note_on_c, 0, 70, 100
1, 107760, Note_on_c, 0, 74, 0
1, 107760, Note_on_c, 0, 76, 100
1, 107988, Note_on_c, 0, 67, 0
1, 107988, Note_on_c, 0, 70, 0
1, 108000, Note_on_c, 0, 60, 0
1, 108000, Note_on_c, 0, 65, 100
1, 108000, Note_on_c, 0, 76, 0
1, 108000, Note_on_c, 0, 79, 100
1, 108060, Note_on_c, 0, 79, 0
1, 108060, Note_on_c, 0, 80, 100
1, 108120, Note_on_c, 0, 79, 100
1, 108120, Note_on_c, 0, 80, 0
1, 108240, Note_on_c, 0, 68, 100
1, 108240, Note_on_c, 0, 72, 100
1, 108240, Note_on_c, 0, 77, 100
1, 108240, Note_on_c, 0, 79, 0
1, 108468, Note_on_c, 0, 68, 0
1, 108468, Note_on_c, 0, 72, 0
1, 108480, Note_on_c, 0, 68, 100
1, 108480, Note_on_c, 0, 72, 100
1, 108480, Note_on_c, 0, 77, 0
1, 108480, Note_on_c, 0, 77, 100
1, 108540, Note_on_c, 0, 77, 0
1, 108540, Note_on_c, 0, 79, 100
1, 108600, Note_on_c, 0, 77, 100
1, 108600, Note_on_c, 0, 79, 0
1, 108708, Note_on_c, 0, 68, 0
1, 108708, Note_on_c, 0, 72, 0
1, 108720, Note_on_c, 0, 68, 100
1, 108720, Note_on_c, 0, 72, 100
1, 108720, Note_on_c, 0, 75, 100
1, 108720, Note_on_c, 0, 77, 0
1, 108948, Note_on_c, 0, 68, 0
1, 108948, Note_on_c, 0, 72, 0
1, 108960, Note_on_c, 0, 58, 100
1, 108960, Note_on_c, 0, 65, 0
1, 108960, Note_on_c, 0, 75, 0
1, 108960, Note_on_c, 0, 75, 100
1, 109020, Note_on_c, 0, 75, 0
1, 109020, Note_on_c, 0, 77, 100
1, 109080, Note_on_c, 0, 75, 100
1, 109080, Note_on_c, 0, 77, 0
1, 109200, Note_on_c, 0, 65, 100
1, 109200, Note_on_c, 0, 68, 100
1, 109200, Note_on_c, 0, 74, 100
1, 109200, Note_on_c, 0, 75, 0
1, 109428, Note_on_c, 0, 65, 0
1, 109428, Note_on_c, 0, 68, 0
1, 109440, Note_on_c, 0, 58, 0
1, 109440, Note_on_c, 0, 59, 100
1, 109440, Note_on_c, 0, 65, 100
1, 109440, Note_on_c, 0, 68, 100
1, 109440, Note_on_c, 0, 72, 100
1, 109440, Note_on_c, 0, 74, 0
1, 109668, Note_on_c, 0, 65, 0
1, 109668, Note_on_c, 0, 68, 0
1, 109680, Note_on_c, 0, 65, 100
1, 109680, Note_on_c, 0, 68, 100
1, 109680, Note_on_c, 0, 72, 0
1, 109680, Note_on_c, 0, 74, 100
1, 109908, Note_on_c, 0, 65, 0
1, 109908, Note_on_c, 0, 68, 0
1, 109920, Note_on_c, 0, 59, 0
1, 109920, Note_on_c, 0, 60, 100
1, 109920, Note_on_c, 0, 74, 0
1, 109920, Note_on_c, 0, 77, 100
1, 109980, Note_on_c, 0, 77, 0
1, 109980, Note_on_c, 0, 79, 100
1, 110040, Note_on_c, 0, 77, 100
1, 110040, Note_on_c, 0, 79, 0
1, 110160, Note_on_c, 0, 63, 100
1, 110160, Note_on_c, 0, 67, 100
1, 110160, Note_on_c, 0, 75, 100
1, 110160, Note_on_c, 0, 77, 0
1, 110388, Note_on_c, 0, 63, 0
1, 110388, Note_on_c, 0, 67, 0
1, 110400, Note_on_c, 0, 63, 100
1, 110400, Note_on_c, 0, 67, 100
1, 110400, Note_on_c, 0, 75, 0
1, 110400, Note_on_c, 0, 75, 100
1, 110460, Note_on_c, 0, 75, 0
1, 110460, Note_on_c, 0, 77, 100
1, 110520, Note_on_c, 0, 75, 100
1, 110520, Note_on_c, 0, 77, 0
1, 110628, Note_on_c, 0, 63, 0
1, 110628, Note_on_c, 0, 67, 0
1, 110640, Note_on_c, 0, 63, 100
1, 110640, Note_on_c, 0, 67, 100
1, 110640, Note_on_c, 0, 74, 100
1, 110640, Note_on_c, 0, 75, 0
1, 110868, Note_on_c, 0, 63, 0
1, 110868, Note_on_c, 0, 67, 0
1, 110880, Note_on_c, 0, 56, 100
1, 110880, Note_on_c, 0, 60, 0
1, 110880, Note_on_c, 0, 74, 0
1, 110880, Note_on_c, 0, 74, 100
1, 110940, Note_on_c, 0, 74, 0
1, 110940, Note_on_c, 0, 75, 100
1, 111000, Note_on_c, 0, 74, 100
1, 111000, Note_on_c, 0, 75, 0
1, 111120, Note_on_c, 0, 63, 100
1, 111120, Note_on_c, 0, 65, 100
1, 111120, Note_on_c, 0, 72, 100
1, 111120, Note_on_c, 0, 74, 0
1, 111348, Note_on_c, 0, 63, 0
1, 111348, Note_on_c, 0, 65, 0
1, 111360, Note_on_c, 0, 63, 100
1, 111360, Note_on_c, 0, 65, 100
1, 111360, Note_on_c, 0, 72, 0
1, 111360, Note_on_c, 0, 72, 100
1, 111420, Note_on_c, 0, 72, 0
1, 111420, Note_on_c, 0, 74, 100
1, 111480, Note_on_c, 0, 72, 100
1, 111480, Note_on_c, 0, 74, 0
1, 111588, Note_on_c, 0, 63, 0
1, 111588, Note_on_c, 0, 65, 0
1, 111600, Note_on_c, 0, 63, 100
1, 111600, Note_on_c, 0, 65, 100
1, 111600, Note_on_c, 0, 71, 100
1, 111600, Note_on_c, 0, 72, 0
1, 111828, Note_on_c, 0, 63, 0
1, 111828, Note_on_c, 0, 65, 0
1, 111840, Note_on_c, 0, 56, 0
1, 111840, Note_on_c, 0, 58, 100
1, 111840, Note_on_c, 0, 71, 0
1, 111840, Note_on_c, 0, 72, 100
1, 111900, Note_on_c, 0, 72, 0
1, 111900, Note_on_c, 0, 74, 100
1, 111960, Note_on_c, 0, 72, 100
1, 111960, Note_on_c, 0, 74, 0
1, 112080, Note_on_c, 0, 63, 100
1, 112080, Note_on_c, 0, 67, 100
1, 112080, Note_on_c, 0, 70, 100
1, 112080, Note_on_c, 0, 72, 0
1, 112308, Note_on_c, 0, 63, 0
1, 112308, Note_on_c, 0, 67, 0
1, 112320, Note_on_c, 0, 63, 100
1, 112320, Note_on_c, 0, 67, 100
1, 112320, Note_on_c, 0, 70, 0
1, 112320, Note_on_c, 0, 70, 100
1, 112410, Note_on_c, 0, 70, 0
1, 112548, Note_on_c, 0, 63, 0
1, 112548, Note_on_c, 0, 67, 0
1, 112560, Note_on_c, 0, 63, 100
1, 112560, Note_on_c, 0, 67, 100
1, 112560, Note_on_c, 0, 70, 100
1, 112650, Note_on_c, 0, 70, 0
1, 112788, Note_on_c, 0, 63, 0
1, 112788, Note_on_c, 0, 67, 0
1, 112800, Note_on_c, 0, 58, 0
1, 112800, Note_on_c, 0, 58, 100
1, 112800, Note_on_c, 0, 72, 100
1, 112860, Note_on_c, 0, 72, 0
1, 112860, Note_on_c, 0, 74, 100
1, 112920, Note_on_c, 0, 72, 100
1, 112920, Note_on_c, 0, 74, 0
1, 113040, Note_on_c, 0, 62, 100
1, 113040, Note_on_c, 0, 65, 100
1, 113040, Note_on_c, 0, 70, 100
1, 113040, Note_on_c, 0, 72, 0
1, 113268, Note_on_c, 0, 62, 0
1, 113268, Note_on_c, 0, 65, 0
1, 113280, Note_on_c, 0, 62, 100
1, 113280, Note_on_c, 0, 65, 100
1, 113280, Note_on_c, 0, 70, 0
1, 113280, Note_on_c, 0, 70, 100
1, 113370, Note_on_c, 0, 70, 0
1, 113508, Note_on_c, 0, 62, 0
1, 113508, Note_on_c, 0, 65, 0
1, 113520, Note_on_c, 0, 62, 100
1, 113520, Note_on_c, 0, 65, 100
1, 113520, Note_on_c, 0, 70, 100
1, 113610, Note_on_c, 0, 70, 0
1, 113748, Note_on_c, 0, 62, 0
1, 113748, Note_on_c, 0, 65, 0
1, 113760, Note_on_c, 0, 51, 100
1, 113760, Note_on_c, 0, 58, 0
1, 113880, Note_on_c, 0, 58, 100
1, 113880, Note_on_c, 0, 63, 100
1, 114000, Note_on_c, 0, 55, 100
1, 114000, Note_on_c, 0, 58, 0
1, 114000, Note_on_c, 0, 63, 0
1, 114000, Note_on_c, 0, 67, 100
1, 114120, Note_on_c, 0, 55, 0
1, 114120, Note_on_c, 0, 58, 100
1, 114120, Note_on_c, 0, 63, 100
1, 114120, Note_on_c, 0, 67, 0
1, 114240, Note_on_c, 0, 55, 100
1, 114240, Note_on_c, 0, 58, 0
1, 114240, Note_on_c, 0, 63, 0
1, 114240, Note_on_c, 0, 75, 100
1, 114360, Note_on_c, 0, 55, 0
1, 114360, Note_on_c, 0, 58, 100
1, 114360, Note_on_c, 0, 63, 100
1, 114480, Note_on_c, 0, 55, 100
1, 114480, Note_on_c, 0, 58, 0
1, 114480, Note_on_c, 0, 63, 0
1, 114480, Note_on_c, 0, 67, 100
1, 114600, Note_on_c, 0, 55, 0
1, 114600, Note_on_c, 0, 58, 100
1, 114600, Note_on_c, 0, 63, 100
1, 114600, Note_on_c, 0, 67, 0
1, 114720, Note_on_c, 0, 55, 100
1, 114720, Note_on_c, 0, 58, 0
1, 114720, Note_on_c, 0, 63, 0
1, 114720, Note_on_c, 0, 67, 100
1, 114840, Note_on_c, 0, 55, 0
1, 114840, Note_on_c, 0, 58, 100
1, 114840, Note_on_c, 0, 63, 100
1, 114840, Note_on_c, 0, 67, 0
1, 114960, Note_on_c, 0, 55, 100
1, 114960, Note_on_c, 0, 58, 0
1, 114960, Note_on_c, 0, 63, 0
1, 114960, Note_on_c, 0, 67, 100
1, 115080, Note_on_c, 0, 55, 0
1, 115080, Note_on_c, 0, 58, 100
1, 115080, Note_on_c, 0, 63, 100
1, 115080, Note_on_c, 0, 67, 0
1, 115200, Note_on_c, 0, 51, 0
1, 115200, Note_on_c, 0, 51, 100
1, 115200, Note_on_c, 0, 58, 0
1, 115200, Note_on_c, 0, 63, 0
1, 115200, Note_on_c, 0, 75, 0
1, 115200, Note_on_c, 0, 75, 100
1, 115320, Note_on_c, 0, 58, 100
1, 115320, Note_on_c, 0, 63, 100
1, 115440, Note_on_c, 0, 55, 100
1, 115440, Note_on_c, 0, 58, 0
1, 115440, Note_on_c, 0, 63, 0
1, 115440, Note_on_c, 0, 67, 100
1, 115560, Note_on_c, 0, 55, 0
1, 115560, Note_on_c, 0, 58, 100
1, 115560, Note_on_c, 0, 63, 100
1, 115560, Note_on_c, 0, 67, 0
1, 115680, Note_on_c, 0, 49, 100
1, 115680, Note_on_c, 0, 51, 0
1, 115680, Note_on_c, 0, 58, 0
1, 115680, Note_on_c, 0, 63, 0
1, 115680, Note_on_c, 0, 75, 0
1, 115800, Note_on_c, 0, 58, 100
1, 115800, Note_on_c, 0, 63, 100
1, 115920, Note_on_c, 0, 55, 100
1, 115920, Note_on_c, 0, 58, 0
1, 115920, Note_on_c, 0, 63, 0
1, 115920, Note_on_c, 0, 67, 100
1, 116040, Note_on_c, 0, 55, 0
1, 116040, Note_on_c, 0, 58, 100
1, 116040, Note_on_c, 0, 63, 100
1, 116040, Note_on_c, 0, 67, 0
1, 116160, Note_on_c, 0, 55, 100
1, 116160, Note_on_c, 0, 58, 0
1, 116160, Note_on_c, 0, 63, 0
1, 116160, Note_on_c, 0, 75, 100
1, 116280, Note_on_c, 0, 55, 0
1, 116280, Note_on_c, 0, 58, 100
1, 116280, Note_on_c, 0, 63, 100
1, 116400, Note_on_c, 0, 55, 100
1, 116400, Note_on_c, 0, 58, 0
1, 116400, Note_on_c, 0, 63, 0
1, 116400, Note_on_c, 0, 67, 100
1, 116520, Note_on_c, 0, 55, 0
1, 116520, Note_on_c, 0, 58, 100
1, 116520, Note_on_c, 0, 63, 100
1, 116520, Note_on_c, 0, 67, 0
1, 116640, Note_on_c, 0, 55, 100
1, 116640, Note_on_c, 0, 58, 0
1, 116640, Note_on_c, 0, 63, 0
1, 116640, Note_on_c, 0, 67, 100
1, 116760, Note_on_c, 0, 55, 0
1, 116760, Note_on_c, 0, 58, 100
1, 116760, Note_on_c, 0, 63, 100
1, 116760, Note_on_c, 0, 67, 0
1, 116880, Note_on_c, 0, 55, 100
1, 116880, Note_on_c, 0, 58, 0
1, 116880, Note_on_c, 0, 63, 0
1, 116880, Note_on_c, 0, 67, 100
1, 117000, Note_on_c, 0, 55, 0
1, 117000, Note_on_c, 0, 58, 100
1, 117000, Note_on_c, 0, 63, 100
1, 117000, Note_on_c, 0, 67, 0
1, 117120, Note_on_c, 0, 49, 0
1, 117120, Note_on_c, 0, 49, 100
1, 117120, Note_on_c, 0, 58, 0
1, 117120, Note_on_c, 0, 63, 0
1, 117120, Note_on_c, 0, 75, 0
1, 117120, Note_on_c, 0, 75, 100
1, 117240, Note_on_c, 0, 58, 100
1, 117240, Note_on_c, 0, 63, 100
1, 117360, Note_on_c, 0, 55, 100
1, 117360, Note_on_c, 0, 58, 0
1, 117360, Note_on_c, 0, 63, 0
1, 117360, Note_on_c, 0, 67, 100
1, 117480, Note_on_c, 0, 55, 0
1, 117480, Note_on_c, 0, 58, 100
1, 117480, Note_on_c, 0, 63, 100
1, 117480, Note_on_c, 0, 67, 0
1, 117600, Note_on_c, 0, 48, 100
1, 117600, Note_on_c, 0, 49, 0
1, 117600, Note_on_c, 0, 58, 0
1, 117600, Note_on_c, 0, 63, 0
1, 117600, Note_on_c, 0, 75, 0
1, 117600, Note_on_c, 0, 75, 100
1, 117690, Note_on_c, 0, 48, 0
1, 117690, Note_on_c, 0, 75, 0
1, 117720, Note_on_c, 0, 56, 100
1, 117720, Note_on_c, 0, 63, 100
1, 117840, Note_on_c, 0, 51, 100
1, 117840, Note_on_c, 0, 56, 0
1, 117840, Note_on_c, 0, 63, 0
1, 117840, Note_on_c, 0, 68, 100
1, 117960, Note_on_c, 0, 51, 0
1, 117960, Note_on_c, 0, 56, 100
1, 117960, Note_on_c, 0, 63, 100
1, 117960, Note_on_c, 0, 68, 0
1, 118080, Note_on_c, 0, 46, 100
1, 118080, Note_on_c, 0, 56, 0
1, 118080, Note_on_c, 0, 63, 0
1, 118080, Note_on_c, 0, 76, 100
1, 118170, Note_on_c, 0, 46, 0
1, 118170, Note_on_c, 0, 76, 0
1, 118200, Note_on_c, 0, 55, 100
1, 118200, Note_on_c, 0, 64, 100
1, 118320, Note_on_c, 0, 48, 100
1, 118320, Note_on_c, 0, 55, 0
1, 118320, Note_on_c, 0, 64, 0
1, 118320, Note_on_c, 0, 72, 100
1, 118440, Note_on_c, 0, 48, 0
1, 118440, Note_on_c, 0, 55, 100
1, 118440, Note_on_c, 0, 64, 100
1, 118440, Note_on_c, 0, 72, 0
1, 118560, Note_on_c, 0, 44, 100
1, 118560, Note_on_c, 0, 55, 0
1, 118560, Note_on_c, 0, 64, 0
1, 118560, Note_on_c, 0, 77, 100
1, 118650, Note_on_c, 0, 44, 0
1, 118650, Note_on_c, 0, 77, 0
1, 118680, Note_on_c, 0, 56, 100
1, 118680, Note_on_c, 0, 65, 100
1, 118800, Note_on_c, 0, 48, 100
1, 118800, Note_on_c, 0, 56, 0
1, 118800, Note_on_c, 0, 65, 0
1, 118800, Note_on_c, 0, 72, 100
1, 118920, Note_on_c, 0, 48, 0
1, 118920, Note_on_c, 0, 56, 100
1, 118920, Note_on_c, 0, 65, 100
1, 118920, Note_on_c, 0, 72, 0
1, 119040, Note_on_c, 0, 43, 100
1, 119040, Note_on_c, 0, 56, 0
1, 119040, Note_on_c, 0, 65, 0
1, 119040, Note_on_c, 0, 79, 100
1, 119130, Note_on_c, 0, 43, 0
1, 119130, Note_on_c, 0, 79, 0
1, 119160, Note_on_c, 0, 55, 100
1, 119160, Note_on_c, 0, 67, 100
1, 119280, Note_on_c, 0, 48, 100
1, 119280, Note_on_c, 0, 55, 0
1, 119280, Note_on_c, 0, 67, 0
1, 119280, Note_on_c, 0, 72, 100
1, 119400, Note_on_c, 0, 48, 0
1, 119400, Note_on_c, 0, 55, 100
1, 119400, Note_on_c, 0, 67, 100
1, 119400, Note_on_c, 0, 72, 0
1, 119520, Note_on_c, 0, 41, 100
1, 119520, Note_on_c, 0, 55, 0
1, 119520, Note_on_c, 0, 67, 0
1, 119520, Note_on_c, 0, 80, 100
1, 119610, Note_on_c, 0, 41, 0
1, 119610, Note_on_c, 0, 80, 0
1, 119640, Note_on_c, 0, 53, 100
1, 119640, Note_on_c, 0, 68, 100
1, 119760, Note_on_c, 0, 48, 100
1, 119760, Note_on_c, 0, 53, 0
1, 119760, Note_on_c, 0, 68, 0
1, 119760, Note_on_c, 0, 72, 100
1, 119880, Note_on_c, 0, 48, 0
1, 119880, Note_on_c, 0, 53, 100
1, 119880, Note_on_c, 0, 68, 100
1, 119880, Note_on_c, 0, 72, 0
1, 120000, Note_on_c, 0, 39, 100
1, 120000, Note_on_c, 0, 53, 0
1, 120000, Note_on_c, 0, 68, 0
1, 120000, Note_on_c, 0, 81, 100
1, 120090, Note_on_c, 0, 39, 0
1, 120090, Note_on_c, 0, 81, 0
1, 120120, Note_on_c, 0, 51, 100
1, 120120, Note_on_c, 0, 69, 100
1, 120240, Note_on_c, 0, 41, 100
1, 120240, Note_on_c, 0, 51, 0
1, 120240, Note_on_c, 0, 69, 0
1, 120240, Note_on_c, 0, 72, 100
1, 120360, Note_on_c, 0, 41, 0
1, 120360, Note_on_c, 0, 51, 100
1, 120360, Note_on_c, 0, 69, 100
1, 120360, Note_on_c, 0, 72, 0
1, 120480, Note_on_c, 0, 38, 100
1, 120480, Note_on_c, 0, 51, 0
1, 120480, Note_on_c, 0, 69, 0
1, 120480, Note_on_c, 0, 82, 100
1, 120570, Note_on_c, 0, 38, 0
1, 120570, Note_on_c, 0, 82, 0
1, 120600, Note_on_c, 0, 50, 100
1, 120600, Note_on_c, 0, 70, 100
1, 120720, Note_on_c, 0, 41, 100
1, 120720, Note_on_c, 0, 50, 0
1, 120720, Note_on_c, 0, 70, 0
1, 120720, Note_on_c, 0, 77, 100
1, 120840, Note_on_c, 0, 41, 0
1, 120840, Note_on_c, 0, 50, 100
1, 120840, Note_on_c, 0, 70, 100
1, 120840, Note_on_c, 0, 77, 0
1, 120960, Note_on_c, 0, 36, 100
1, 120960, Note_on_c, 0, 50, 0
1, 120960, Note_on_c, 0, 70, 0
1, 120960, Note_on_c, 0, 84, 100
1, 121050, Note_on_c, 0, 36, 0
1, 121050, Note_on_c, 0, 84, 0
1, 121080, Note_on_c, 0, 48, 100
1, 121080, Note_on_c, 0, 72, 100
1, 121200, Note_on_c, 0, 41, 100
1, 121200, Note_on_c, 0, 48, 0
1, 121200, Note_on_c, 0, 72, 0
1, 121200, Note_on_c, 0, 77, 100
1, 121320, Note_on_c, 0, 41, 0
1, 121320, Note_on_c, 0, 48, 100
1, 121320, Note_on_c, 0, 72, 100
1, 121320, Note_on_c, 0, 77, 0
1, 121440, Note_on_c, 0, 34, 100
1, 121440, Note_on_c, 0, 48, 0
1, 121440, Note_on_c, 0, 72, 0
1, 121440, Note_on_c, 0, 85, 100
1, 121530, Note_on_c, 0, 34, 0
1, 121530, Note_on_c, 0, 85, 0
1, 121560, Note_on_c, 0, 46, 100
1, 121560, Note_on_c, 0, 73, 100
1, 121680, Note_on_c, 0, 41, 100
1, 121680, Note_on_c, 0, 46, 0
1, 121680, Note_on_c, 0, 73, 0
1, 121680, Note_on_c, 0, 77, 100
1, 121800, Note_on_c, 0, 41, 0
1, 121800, Note_on_c, 0, 46, 100
1, 121800, Note_on_c, 0, 73, 100
1, 121800, Note_on_c, 0, 77, 0
1, 121920, Note_on_c, 0, 32, 100
1, 121920, Note_on_c, 0, 46, 0
1, 121920, Note_on_c, 0, 73, 0
1, 121920, Note_on_c, 0, 86, 100
1, 122010, Note_on_c, 0, 32, 0
1, 122010, Note_on_c, 0, 86, 0
1, 122040, Note_on_c, 0, 44, 100
1, 122040, Note_on_c, 0, 74, 100
1, 122160, Note_on_c, 0, 41, 100
1, 122160, Note_on_c, 0, 44, 0
1, 122160, Note_on_c, 0, 74, 0
1, 122160, Note_on_c, 0, 77, 100
1, 122280, Note_on_c, 0, 41, 0
1, 122280, Note_on_c, 0, 44, 100
1, 122280, Note_on_c, 0, 74, 100
1, 122280, Note_on_c, 0, 77, 0
1, 122400, Note_on_c, 0, 31, 100
1, 122400, Note_on_c, 0, 44, 0
1, 122400, Note_on_c, 0, 74, 0
1, 122400, Note_on_c, 0, 87, 100
1, 122490, Note_on_c, 0, 31, 0
1, 122490, Note_on_c, 0, 87, 0
1, 122520, Note_on_c, 0, 43, 100
1, 122520, Note_on_c, 0, 75, 100
1, 122640, Note_on_c, 0, 39, 100
1, 122640, Note_on_c, 0, 43, 0
1, 122640, Note_on_c, 0, 75, 0
1, 122640, Note_on_c, 0, 82, 100
1, 122760, Note_on_c, 0, 39, 0
1, 122760, Note_on_c, 0, 43, 100
1, 122760, Note_on_c, 0, 75, 100
1, 122760, Note_on_c, 0, 82, 0
1, 122880, Note_on_c, 0, 31, 100
1, 122880, Note_on_c, 0, 43, 0
1, 122880, Note_on_c, 0, 75, 0
1, 122880, Note_on_c, 0, 83, 100
1, 122970, Note_on_c, 0, 31, 0
1, 122970, Note_on_c, 0, 83, 0
1, 123000, Note_on_c, 0, 43, 100
1, 123000, Note_on_c, 0, 71, 100
1, 123120, Note_on_c, 0, 39, 100
1, 123120, Note_on_c, 0, 43, 0
1, 123120, Note_on_c, 0, 71, 0
1, 123120, Note_on_c, 0, 75, 100
1, 123240, Note_on_c, 0, 39, 0
1, 123240, Note_on_c, 0, 43, 100
1, 123240, Note_on_c, 0, 71, 100
1, 123240, Note_on_c, 0, 75, 0
1, 123360, Note_on_c, 0, 32, 100
1, 123360, Note_on_c, 0, 43, 0
1, 123360, Note_on_c, 0, 44, 100
1, 123360, Note_on_c, 0, 71, 0
1, 123480, Note_on_c, 0, 72, 100
1, 123600, Note_on_c, 0, 32, 0
1, 123600, Note_on_c, 0, 44, 0
1, 123600, Note_on_c, 0, 72, 0
1, 123600, Note_on_c, 0, 75, 100
1, 123720, Note_on_c, 0, 72, 100
1, 123720, Note_on_c, 0, 75, 0
1, 123840, Note_on_c, 0, 72, 0
1, 123840, Note_on_c, 0, 84, 100
1, 123930, Note_on_c, 0, 84, 0
1, 123960, Note_on_c, 0, 72, 100
1, 124080, Note_on_c, 0, 72, 0
1, 124080, Note_on_c, 0, 75, 100
1, 124200, Note_on_c, 0, 72, 100
1, 124200, Note_on_c, 0, 75, 0
1, 124320, Note_on_c, 0, 34, 100
1, 124320, Note_on_c, 0, 46, 100
1, 124320, Note_on_c, 0, 72, 0
1, 124440, Note_on_c, 0, 65, 100
1, 124560, Note_on_c, 0, 34, 0
1, 124560, Note_on_c, 0, 46, 0
1, 124560, Note_on_c, 0, 65, 0
1, 124560, Note_on_c, 0, 68, 100
1, 124680, Note_on_c, 0, 65, 100
1, 124680, Note_on_c, 0, 68, 0
1, 124800, Note_on_c, 0, 65, 0
1, 124800, Note_on_c, 0, 74, 100
1, 124890, Note_on_c, 0, 74, 0
1, 124920, Note_on_c, 0, 65, 100
1, 125040, Note_on_c, 0, 65, 0
1, 125040, Note_on_c, 0, 68, 100
1, 125160, Note_on_c, 0, 65, 100
1, 125160, Note_on_c, 0, 68, 0
1, 125280, Note_on_c, 0, 51, 100
1, 125280, Note_on_c, 0, 65, 0
1, 125400, Note_on_c, 0, 58, 100
1, 125400, Note_on_c, 0, 63, 100
1, 125520, Note_on_c, 0, 55, 100
1, 125520, Note_on_c, 0, 58, 0
1, 125520, Note_on_c, 0, 63, 0
1, 125520, Note_on_c, 0, 67, 100
1, 125640, Note_on_c, 0, 55, 0
1, 125640, Note_on_c, 0, 58, 100
1, 125640, Note_on_c, 0, 63, 100
1, 125640, Note_on_c, 0, 67, 0
1, 125760, Note_on_c, 0, 55, 100
1, 125760, Note_on_c, 0, 58, 0
1, 125760, Note_on_c, 0, 63, 0
1, 125760, Note_on_c, 0, 75, 100
1, 125880, Note_on_c, 0, 55, 0
1, 125880, Note_on_c, 0, 58, 100
1, 125880, Note_on_c, 0, 63, 100
1, 126000, Note_on_c, 0, 55, 100
1, 126000, Note_on_c, 0, 58, 0
1, 126000, Note_on_c, 0, 63, 0
1, 126000, Note_on_c, 0, 67, 100
1, 126120, Note_on_c, 0, 55, 0
1, 126120, Note_on_c, 0, 58, 100
1, 126120, Note_on_c, 0, 63, 100
1, 126120, Note_on_c, 0, 67, 0
1, 126240, Note_on_c, 0, 55, 100
1, 126240, Note_on_c, 0, 58, 0
1, 126240, Note_on_c, 0, 63, 0
1, 126240, Note_on_c, 0, 67, 100
1, 126360, Note_on_c, 0, 55, 0
1, 126360, Note_on_c, 0, 58, 100
1, 126360, Note_on_c, 0, 63, 100
1, 126360, Note_on_c, 0, 67, 0
1, 126480, Note_on_c, 0, 55, 100
1, 126480, Note_on_c, 0, 58, 0
1, 126480, Note_on_c, 0, 63, 0
1, 126480, Note_on_c, 0, 67, 100
1, 126600, Note_on_c, 0, 55, 0
1, 126600, Note_on_c, 0, 58, 100
1, 126600, Note_on_c, 0, 63, 100
1, 126600, Note_on_c, 0, 67, 0
1, 126720, Note_on_c, 0, 51, 0
1, 126720, Note_on_c, 0, 51, 100
1, 126720, Note_on_c, 0, 58, 0
1, 126720, Note_on_c, 0, 63, 0
1, 126720, Note_on_c, 0, 75, 0
1, 126720, Note_on_c, 0, 75, 100
1, 126840, Note_on_c, 0, 58, 100
1, 126840, Note_on_c, 0, 63, 100
1, 126960, Note_on_c, 0, 55, 100
1, 126960, Note_on_c, 0, 58, 0
1, 126960, Note_on_c, 0, 63, 0
1, 126960, Note_on_c, 0, 67, 100
1, 127080, Note_on_c, 0, 55, 0
1, 127080, Note_on_c, 0, 58, 100
1, 127080, Note_on_c, 0, 63, 100
1, 127080, Note_on_c, 0, 67, 0
1, 127200, Note_on_c, 0, 49, 100
1, 127200, Note_on_c, 0, 51, 0
1, 127200, Note_on_c, 0, 58, 0
1, 127200, Note_on_c, 0, 63, 0
1, 127200, Note_on_c, 0, 75, 0
1, 127320, Note_on_c, 0, 58, 100
1, 127320, Note_on_c, 0, 63, 100
1, 127440, Note_on_c, 0, 55, 100
1, 127440, Note_on_c, 0, 58, 0
1, 127440, Note_on_c, 0, 63, 0
1, 127440, Note_on_c, 0, 67, 100
1, 127560, Note_on_c, 0, 55, 0
1, 127560, Note_on_c, 0, 58, 100
1, 127560, Note_on_c, 0, 63, 100
1, 127560, Note_on_c, 0, 67, 0
1, 127680, Note_on_c, 0, 55, 100
1, 127680, Note_on_c, 0, 58, 0
1, 127680, Note_on_c, 0, 63, 0
1, 127680, Note_on_c, 0, 75, 100
1, 127800, Note_on_c, 0, 55, 0
1, 127800, Note_on_c, 0, 58, 100
1, 127800, Note_on_c, 0, 63, 100
1, 127920, Note_on_c, 0, 55, 100
1, 127920, Note_on_c, 0, 58, 0
1, 127920, Note_on_c, 0, 63, 0
1, 127920, Note_on_c, 0, 67, 100
1, 128040, Note_on_c, 0, 55, 0
1, 128040, Note_on_c, 0, 58, 100
1, 128040, Note_on_c, 0, 63, 100
1, 128040, Note_on_c, 0, 67, 0
1, 128160, Note_on_c, 0, 55, 100
1, 128160, Note_on_c, 0, 58, 0
1, 128160, Note_on_c, 0, 63, 0
1, 128160, Note_on_c, 0, 67, 100
1, 128280, Note_on_c, 0, 55, 0
1, 128280, Note_on_c, 0, 58, 100
1, 128280, Note_on_c, 0, 63, 100
1, 128280, Note_on_c, 0, 67, 0
1, 128400, Note_on_c, 0, 55, 100
1, 128400, Note_on_c, 0, 58, 0
1, 128400, Note_on_c, 0, 63, 0
1, 128400, Note_on_c, 0, 67, 100
1, 128520, Note_on_c, 0, 55, 0
1, 128520, Note_on_c, 0, 58, 100
1, 128520, Note_on_c, 0, 63, 100
1, 128520, Note_on_c, 0, 67, 0
1, 128640, Note_on_c, 0, 49, 0
1, 128640, Note_on_c, 0, 49, 100
1, 128640, Note_on_c, 0, 58, 0
1, 128640, Note_on_c, 0, 63, 0
1, 128640, Note_on_c, 0, 75, 0
1, 128640, Note_on_c, 0, 75, 100
1, 128760, Note_on_c, 0, 58, 100
1, 128760, Note_on_c, 0, 63, 100
1, 128880, Note_on_c, 0, 55, 100
1, 128880, Note_on_c, 0, 58, 0
1, 128880, Note_on_c, 0, 63, 0
1, 128880, Note_on_c, 0, 67, 100
1, 129000, Note_on_c, 0, 55, 0
1, 129000, Note_on_c, 0, 58, 100
1, 129000, Note_on_c, 0, 63, 100
1, 129000, Note_on_c, 0, 67, 0
1, 129120, Note_on_c, 0, 48, 100
1, 129120, Note_on_c, 0, 49, 0
1, 129120, Note_on_c, 0, 58, 0
1, 129120, Note_on_c, 0, 63, 0
1, 129120, Note_on_c, 0, 75, 0
1, 129120, Note_on_c, 0, 75, 100
1, 129210, Note_on_c, 0, 48, 0
1, 129210, Note_on_c, 0, 75, 0
1, 129240, Note_on_c, 0, 56, 100
1, 129240, Note_on_c, 0, 63, 100
1, 129360, Note_on_c, 0, 51, 100
1, 129360, Note_on_c, 0, 56, 0
1, 129360, Note_on_c, 0, 63, 0
1, 129360, Note_on_c, 0, 68, 100
1, 129480, Note_on_c, 0, 51, 0
1, 129480, Note_on_c, 0, 56, 100
1, 129480, Note_on_c, 0, 63, 100
1, 129480, Note_on_c, 0, 68, 0
1, 129600, Note_on_c, 0, 46, 100
1, 129600, Note_on_c, 0, 56, 0
1, 129600, Note_on_c, 0, 63, 0
1, 129600, Note_on_c, 0, 76, 100
1, 129690, Note_on_c, 0, 46, 0
1, 129690, Note_on_c, 0, 76, 0
1, 129720, Note_on_c, 0, 55, 100
1, 129720, Note_on_c, 0, 64, 100
1, 129840, Note_on_c, 0, 48, 100
1, 129840, Note_on_c, 0, 55, 0
1, 129840, Note_on_c, 0, 64, 0
1, 129840, Note_on_c, 0, 72, 100
1, 129960, Note_on_c, 0, 48, 0
1, 129960, Note_on_c, 0, 55, 100
1, 129960, Note_on_c, 0, 64, 100
1, 129960, Note_on_c, 0, 72, 0
1, 130080, Note_on_c, 0, 44, 100
1, 130080, Note_on_c, 0, 55, 0
1, 130080, Note_on_c, 0, 64, 0
1, 130080, Note_on_c, 0, 77, 100
1, 130170, Note_on_c, 0, 44, 0
1, 130170, Note_on_c, 0, 77, 0
1, 130200, Note_on_c, 0, 56, 100
1, 130200, Note_on_c, 0, 65, 100
1, 130320, Note_on_c, 0, 48, 100
1, 130320, Note_on_c, 0, 56, 0
1, 130320, Note_on_c, 0, 65, 0
1, 130320, Note_on_c, 0, 72, 100
1, 130440, Note_on_c, 0, 48, 0
1, 130440, Note_on_c, 0, 56, 100
1, 130440, Note_on_c, 0, 65, 100
1, 130440, Note_on_c, 0, 72, 0
1, 130560, Note_on_c, 0, 43, 100
1, 130560, Note_on_c, 0, 56, 0
1, 130560, Note_on_c, 0, 65, 0
1, 130560, Note_on_c, 0, 79, 100
1, 130650, Note_on_c, 0, 43, 0
1, 130650, Note_on_c, 0, 79, 0
1, 130680, Note_on_c, 0, 55, 100
1, 130680, Note_on_c, 0, 67, 100
1, 130800, Note_on_c, 0, 48, 100
1, 130800, Note_on_c, 0, 55, 0
1, 130800, Note_on_c, 0, 67, 0
1, 130800, Note_on_c, 0, 72, 100
1, 130920, Note_on_c, 0, 48, 0
1, 130920, Note_on_c, 0, 55, 100
1, 130920, Note_on_c, 0, 67, 100
1, 130920, Note_on_c, 0, 72, 0
1, 131040, Note_on_c, 0, 41, 100
1, 131040, Note_on_c, 0, 55, 0
1, 131040, Note_on_c, 0, 67, 0
1, 131040, Note_on_c, 0, 80, 100
1, 131130, Note_on_c, 0, 41, 0
1, 131130, Note_on_c, 0, 80, 0
1, 131160, Note_on_c, 0, 53, 100
1, 131160, Note_on_c, 0, 68, 100
1, 131280, Note_on_c, 0, 48, 100
1, 131280, Note_on_c, 0, 53, 0
1, 131280, Note_on_c, 0, 68, 0
1, 131280, Note_on_c, 0, 72, 100
1, 131400, Note_on_c, 0, 48, 0
1, 131400, Note_on_c, 0, 53, 100
1, 131400, Note_on_c, 0, 68, 100
1, 131400, Note_on_c, 0, 72, 0
1, 131520, Note_on_c, 0, 39, 100
1, 131520, Note_on_c, 0, 53, 0
1, 131520, Note_on_c, 0, 68, 0
1, 131520, Note_on_c, 0, 81, 100
1, 131610, Note_on_c, 0, 39, 0
1, 131610, Note_on_c, 0, 81, 0
1, 131640, Note_on_c, 0, 51, 100
1, 131640, Note_on_c, 0, 69, 100
1, 131760, Note_on_c, 0, 41, 100
1, 131760, Note_on_c, 0, 51, 0
1, 131760, Note_on_c, 0, 69, 0
1, 131760, Note_on_c, 0, 72, 100
1, 131880, Note_on_c, 0, 41, 0
1, 131880, Note_on_c, 0, 51, 100
1, 131880, Note_on_c, 0, 69, 100
1, 131880, Note_on_c, 0, 72, 0
1, 132000, Note_on_c, 0, 38, 100
1, 132000, Note_on_c, 0, 51, 0
1, 132000, Note_on_c, 0, 69, 0
1, 132000, Note_on_c, 0, 82, 100
1, 132090, Note_on_c, 0, 38, 0
1, 132090, Note_on_c, 0, 82, 0
1, 132120, Note_on_c, 0, 50, 100
1, 132120, Note_on_c, 0, 70, 100
1, 132240, Note_on_c, 0, 41, 100
1, 132240, Note_on_c, 0, 50, 0
1, 132240, Note_on_c, 0, 70, 0
1, 132240, Note_on_c, 0, 77, 100
1, 132360, Note_on_c, 0, 41, 0
1, 132360, Note_on_c, 0, 50, 100
1, 132360, Note_on_c, 0, 70, 100
1, 132360, Note_on_c, 0, 77, 0
1, 132480, Note_on_c, 0, 36, 100
1, 132480, Note_on_c, 0, 50, 0
1, 132480, Note_on_c, 0, 70, 0
1, 132480, Note_on_c, 0, 84, 100
1, 132570, Note_on_c, 0, 36, 0
1, 132570, Note_on_c, 0, 84, 0
1, 132600, Note_on_c, 0, 48, 100
1, 132600, Note_on_c, 0, 72, 100
1, 132720, Note_on_c, 0, 41, 100
1, 132720, Note_on_c, 0, 48, 0
1, 132720, Note_on_c, 0, 72, 0
1, 132720, Note_on_c, 0, 77, 100
1, 132840, Note_on_c, 0, 41, 0
1, 132840, Note_on_c, 0, 48, 100
1, 132840, Note_on_c, 0, 72, 100
1, 132840, Note_on_c, 0, 77, 0
1, 132960, Note_on_c, 0, 34, 100
1, 132960, Note_on_c, 0, 48, 0
1, 132960, Note_on_c, 0, 72, 0
1, 132960, Note_on_c, 0, 85, 100
1, 133050, Note_on_c, 0, 34, 0
1, 133050, Note_on_c, 0, 85, 0
1, 133080, Note_on_c, 0, 46, 100
1, 133080, Note_on_c, 0, 73, 100
1, 133200, Note_on_c, 0, 41, 100
1, 133200, Note_on_c, 0, 46, 0
1, 133200, Note_on_c, 0, 73, 0
1, 133200, Note_on_c, 0, 77, 100
1, 133320, Note_on_c, 0, 41, 0
1, 133320, Note_on_c, 0, 46, 100
1, 133320, Note_on_c, 0, 73, 100
1, 133320, Note_on_c, 0, 77, 0
1, 133440, Note_on_c, 0, 32, 100
1, 133440, Note_on_c, 0, 46, 0
1, 133440, Note_on_c, 0, 73, 0
1, 133440, Note_on_c, 0, 86, 100
1, 133530, Note_on_c, 0, 32, 0
1, 133530, Note_on_c, 0, 86, 0
1, 133560, Note_on_c, 0, 44, 100
1, 133560, Note_on_c, 0, 74, 100
1, 133680, Note_on_c, 0, 41, 100
1, 133680, Note_on_c, 0, 44, 0
1, 133680, Note_on_c, 0, 74, 0
1, 133680, Note_on_c, 0, 77, 100
1, 133800, Note_on_c, 0, 41, 0
1, 133800, Note_on_c, 0, 44, 100
1, 133800, Note_on_c, 0, 74, 100
1, 133800, Note_on_c, 0, 77, 0
1, 133920, Note_on_c, 0, 31, 100
1, 133920, Note_on_c, 0, 44, 0
1, 133920, Note_on_c, 0, 74, 0
1, 133920, Note_on_c, 0, 87, 100
1, 134010, Note_on_c, 0, 31, 0
1, 134010, Note_on_c, 0, 87, 0
1, 134040, Note_on_c, 0, 43, 100
1, 134040, Note_on_c, 0, 75, 100
1, 134160, Note_on_c, 0, 39, 100
1, 134160, Note_on_c, 0, 43, 0
1, 134160, Note_on_c, 0, 75, 0
1, 134160, Note_on_c, 0, 82, 100
1, 134280, Note_on_c, 0, 39, 0
1, 134280, Note_on_c, 0, 43, 100
1, 134280, Note_on_c, 0, 75, 100
1, 134280, Note_on_c, 0, 82, 0
1, 134400, Note_on_c, 0, 31, 100
1, 134400, Note_on_c, 0, 43, 0
1, 134400, Note_on_c, 0, 75, 0
1, 134400, Note_on_c, 0, 88, 100
1, 134490, Note_on_c, 0, 31, 0
1, 134490, Note_on_c, 0, 88, 0
1, 134520, Note_on_c, 0, 43, 100
1, 134520, Note_on_c, 0, 76, 100
1, 134640, Note_on_c, 0, 31, 100
1, 134640, Note_on_c, 0, 43, 0
1, 134640, Note_on_c, 0, 76, 0
1, 134640, Note_on_c, 0, 82, 100
1, 134760, Note_on_c, 0, 31, 0
1, 134760, Note_on_c, 0, 43, 100
1, 134760, Note_on_c, 0, 76, 100
1, 134760, Note_on_c, 0, 82, 0
1, 134880, Note_on_c, 0, 32, 100
1, 134880, Note_on_c, 0, 43, 0
1, 134880, Note_on_c, 0, 44, 100
1, 134880, Note_on_c, 0, 76, 0
1, 135000, Note_on_c, 0, 80, 100
1, 135120, Note_on_c, 0, 32, 0
1, 135120, Note_on_c, 0, 44, 0
1, 135120, Note_on_c, 0, 80, 0
1, 135120, Note_on_c, 0, 84, 100
1, 135240, Note_on_c, 0, 80, 100
1, 135240, Note_on_c, 0, 84, 0
1, 135360, Note_on_c, 0, 80, 0
1, 135360, Note_on_c, 0, 89, 100
1, 135450, Note_on_c, 0, 89, 0
1, 135480, Note_on_c, 0, 80, 100
1, 135600, Note_on_c, 0, 80, 0
1, 135600, Note_on_c, 0, 84, 100
1, 135720, Note_on_c, 0, 80, 100
1, 135720, Note_on_c, 0, 84, 0
1, 135840, Note_on_c, 0, 34, 100
1, 135840, Note_on_c, 0, 46, 100
1, 135840, Note_on_c, 0, 80, 0
1, 135960, Note_on_c, 0, 77, 100
1, 136080, Note_on_c, 0, 34, 0
1, 136080, Note_on_c, 0, 46, 0
1, 136080, Note_on_c, 0, 77, 0
1, 136080, Note_on_c, 0, 80, 100
1, 136200, Note_on_c, 0, 77, 100
1, 136200, Note_on_c, 0, 80, 0
1, 136320, Note_on_c, 0, 77, 0
1, 136320, Note_on_c, 0, 86, 100
1, 136410, Note_on_c, 0, 86, 0
1, 136440, Note_on_c, 0, 77, 100
1, 136560, Note_on_c, 0, 77, 0
1, 136560, Note_on_c, 0, 80, 100
1, 136680, Note_on_c, 0, 77, 100
1, 136680, Note_on_c, 0, 80, 0
1, 136800, Note_on_c, 0, 39, 100
1, 136800, Note_on_c, 0, 51, 100
1, 136800, Note_on_c, 0, 77, 0
1, 136800, Note_on_c, 0, 79, 100
1, 136890, Note_on_c, 0, 79, 0
1, 137040, Note_on_c, 0, 39, 0
1, 137040, Note_on_c, 0, 51, 0
1, 137040, Note_on_c, 0, 63, 100
1, 137040, Note_on_c, 0, 67, 100
1, 137040, Note_on_c, 0, 87, 100
1, 137268, Note_on_c, 0, 63, 0
1, 137268, Note_on_c, 0, 67, 0
1, 137280, Note_on_c, 0, 63, 100
1, 137280, Note_on_c, 0, 67, 100
1, 137508, Note_on_c, 0, 63, 0
1, 137508, Note_on_c, 0, 67, 0
1, 137520, Note_on_c, 0, 63, 100
1, 137520, Note_on_c, 0, 67, 100
1, 137520, Note_on_c, 0, 86, 100
1, 137520, Note_on_c, 0, 87, 0
1, 137640, Note_on_c, 0, 86, 0
1, 137640, Note_on_c, 0, 87, 100
1, 137748, Note_on_c, 0, 63, 0
1, 137748, Note_on_c, 0, 67, 0
1, 137760, Note_on_c, 0, 60, 100
1, 137760, Note_on_c, 0, 87, 0
1, 137760, Note_on_c, 0, 89, 100
1, 137880, Note_on_c, 0, 87, 100
1, 137880, Note_on_c, 0, 89, 0
1, 138000, Note_on_c, 0, 63, 100
1, 138000, Note_on_c, 0, 67, 100
1, 138000, Note_on_c, 0, 86, 100
1, 138000, Note_on_c, 0, 87, 0
1, 138120, Note_on_c, 0, 84, 100
1, 138120, Note_on_c, 0, 86, 0
1, 138228, Note_on_c, 0, 63, 0
1, 138228, Note_on_c, 0, 67, 0
1, 138240, Note_on_c, 0, 63, 100
1, 138240, Note_on_c, 0, 67, 100
1, 138240, Note_on_c, 0, 83, 100
1, 138240, Note_on_c, 0, 84, 0
1, 138360, Note_on_c, 0, 83, 0
1, 138360, Note_on_c, 0, 84, 100
1, 138468, Note_on_c, 0, 63, 0
1, 138468, Note_on_c, 0, 67, 0
1, 138480, Note_on_c, 0, 63, 100
1, 138480, Note_on_c, 0, 67, 100
1, 138480, Note_on_c, 0, 84, 0
1, 138480, Note_on_c, 0, 86, 100
1, 138600, Note_on_c, 0, 84, 100
1, 138600, Note_on_c, 0, 86, 0
1, 138708, Note_on_c, 0, 63, 0
1, 138708, Note_on_c, 0, 67, 0
1, 138720, Note_on_c, 0, 56, 100
1, 138720, Note_on_c, 0, 60, 0
1, 138720, Note_on_c, 0, 82, 100
1, 138720, Note_on_c, 0, 84, 0
1, 138840, Note_on_c, 0, 80, 100
1, 138840, Note_on_c, 0, 82, 0
1, 138960, Note_on_c, 0, 63, 100
1, 138960, Note_on_c, 0, 65, 100
1, 138960, Note_on_c, 0, 79, 100
1, 138960, Note_on_c, 0, 80, 0
1, 139080, Note_on_c, 0, 77, 100
1, 139080, Note_on_c, 0, 79, 0
1, 139188, Note_on_c, 0, 63, 0
1, 139188, Note_on_c, 0, 65, 0
1, 139200, Note_on_c, 0, 63, 100
1, 139200, Note_on_c, 0, 65, 100
1, 139200, Note_on_c, 0, 76, 100
1, 139200, Note_on_c, 0, 77, 0
1, 139320, Note_on_c, 0, 76, 0
1, 139320, Note_on_c, 0, 77, 100
1, 139428, Note_on_c, 0, 63, 0
1, 139428, Note_on_c, 0, 65, 0
1, 139440, Note_on_c, 0, 63, 100
1, 139440, Note_on_c, 0, 65, 100
1, 139440, Note_on_c, 0, 77, 0
1, 139440, Note_on_c, 0, 79, 100
1, 139560, Note_on_c, 0, 77, 100
1, 139560, Note_on_c, 0, 79, 0
1, 139668, Note_on_c, 0, 63, 0
1, 139668, Note_on_c, 0, 65, 0
1, 139680, Note_on_c, 0, 56, 0
1, 139680, Note_on_c, 0, 58, 100
1, 139680, Note_on_c, 0, 75, 100
1, 139680, Note_on_c, 0, 77, 0
1, 139800, Note_on_c, 0, 74, 100
1, 139800, Note_on_c, 0, 75, 0
1, 139920, Note_on_c, 0, 62, 100
1, 139920, Note_on_c, 0, 65, 100
1, 139920, Note_on_c, 0, 72, 100
1, 139920, Note_on_c, 0, 74, 0
1, 140040, Note_on_c, 0, 70, 100
1, 140040, Note_on_c, 0, 72, 0
1, 140148, Note_on_c, 0, 62, 0
1, 140148, Note_on_c, 0, 65, 0
1, 140160, Note_on_c, 0, 62, 100
1, 140160, Note_on_c, 0, 65, 100
1, 140160, Note_on_c, 0, 69, 100
1, 140160, Note_on_c, 0, 70, 0
1, 140280, Note_on_c, 0, 69, 0
1, 140280, Note_on_c, 0, 70, 100
1, 140388, Note_on_c, 0, 62, 0
1, 140388, Note_on_c, 0, 65, 0
1, 140400, Note_on_c, 0, 62, 100
1, 140400, Note_on_c, 0, 65, 100
1, 140400, Note_on_c, 0, 70, 0
1, 140400, Note_on_c, 0, 72, 100
1, 140520, Note_on_c, 0, 68, 100
1, 140520, Note_on_c, 0, 72, 0
1, 140628, Note_on_c, 0, 62, 0
1, 140628, Note_on_c, 0, 65, 0
1, 140640, Note_on_c, 0, 51, 100
1, 140640, Note_on_c, 0, 58, 0
1, 140640, Note_on_c, 0, 67, 100
1, 140640, Note_on_c, 0, 68, 0
1, 140730, Note_on_c, 0, 67, 0
1, 140880, Note_on_c, 0, 55, 100
1, 140880, Note_on_c, 0, 63, 100
1, 140880, Note_on_c, 0, 75, 100
1, 140880, Note_on_c, 0, 87, 100
1, 141108, Note_on_c, 0, 55, 0
1, 141108, Note_on_c, 0, 63, 0
1, 141120, Note_on_c, 0, 55, 100
1, 141120, Note_on_c, 0, 63, 100
1, 141348, Note_on_c, 0, 55, 0
1, 141348, Note_on_c, 0, 63, 0
1, 141360, Note_on_c, 0, 55, 100
1, 141360, Note_on_c, 0, 63, 100
1, 141360, Note_on_c, 0, 75, 0
1, 141360, Note_on_c, 0, 86, 100
1, 141360, Note_on_c, 0, 87, 0
1, 141480, Note_on_c, 0, 86, 0
1, 141480, Note_on_c, 0, 87, 100
1, 141588, Note_on_c, 0, 55, 0
1, 141588, Note_on_c, 0, 63, 0
1, 141600, Note_on_c, 0, 48, 100
1, 141600, Note_on_c, 0, 51, 0
1, 141600, Note_on_c, 0, 87, 0
1, 141600, Note_on_c, 0, 89, 100
1, 141720, Note_on_c, 0, 87, 100
1, 141720, Note_on_c, 0, 89, 0
1, 141840, Note_on_c, 0, 51, 100
1, 141840, Note_on_c, 0, 55, 100
1, 141840, Note_on_c, 0, 60, 100
1, 141840, Note_on_c, 0, 86, 100
1, 141840, Note_on_c, 0, 87, 0
1, 141960, Note_on_c, 0, 84, 100
1, 141960, Note_on_c, 0, 86, 0
1, 142068, Note_on_c, 0, 51, 0
1, 142068, Note_on_c, 0, 55, 0
1, 142068, Note_on_c, 0, 60, 0
1, 142080, Note_on_c, 0, 51, 100
1, 142080, Note_on_c, 0, 55, 100
1, 142080, Note_on_c, 0, 60, 100
1, 142080, Note_on_c, 0, 83, 100
1, 142080, Note_on_c, 0, 84, 0
1, 142200, Note_on_c, 0, 83, 0
1, 142200, Note_on_c, 0, 84, 100
1, 142308, Note_on_c, 0, 51, 0
1, 142308, Note_on_c, 0, 55, 0
1, 142308, Note_on_c, 0, 60, 0
1, 142320, Note_on_c, 0, 51, 100
1, 142320, Note_on_c, 0, 55, 100
1, 142320, Note_on_c, 0, 60, 100
1, 142320, Note_on_c, 0, 84, 0
1, 142320, Note_on_c, 0, 86, 100
1, 142440, Note_on_c, 0, 84, 100
1, 142440, Note_on_c, 0, 86, 0
1, 142548, Note_on_c, 0, 51, 0
1, 142548, Note_on_c, 0, 55, 0
1, 142548, Note_on_c, 0, 60, 0
1, 142560, Note_on_c, 0, 44, 100
1, 142560, Note_on_c, 0, 48, 0
1, 142560, Note_on_c, 0, 82, 100
1, 142560, Note_on_c, 0, 84, 0
1, 142680, Note_on_c, 0, 80, 100
1, 142680, Note_on_c, 0, 82, 0
1, 142800, Note_on_c, 0, 51, 100
1, 142800, Note_on_c, 0, 53, 100
1, 142800, Note_on_c, 0, 56, 100
1, 142800, Note_on_c, 0, 79, 100
1, 142800, Note_on_c, 0, 80, 0
1, 142920, Note_on_c, 0, 77, 100
1, 142920, Note_on_c, 0, 79, 0
1, 143028, Note_on_c, 0, 51, 0
1, 143028, Note_on_c, 0, 53, 0
1, 143028, Note_on_c, 0, 56, 0
1, 143040, Note_on_c, 0, 51, 100
1, 143040, Note_on_c, 0, 53, 100
1, 143040, Note_on_c, 0, 56, 100
1, 143040, Note_on_c, 0, 76, 100
1, 143040, Note_on_c, 0, 77, 0
1, 143160, Note_on_c, 0, 76, 0
1, 143160, Note_on_c, 0, 77, 100
1, 143268, Note_on_c, 0, 51, 0
1, 143268, Note_on_c, 0, 53, 0
1, 143268, Note_on_c, 0, 56, 0
1, 143280, Note_on_c, 0, 51, 100
1, 143280, Note_on_c, 0, 53, 100
1, 143280, Note_on_c, 0, 56, 100
1, 143280, Note_on_c, 0, 77, 0
1, 143280, Note_on_c, 0, 79, 100
1, 143400, Note_on_c, 0, 77, 100
1, 143400, Note_on_c, 0, 79, 0
1, 143508, Note_on_c, 0, 51, 0
1, 143508, Note_on_c, 0, 53, 0
1, 143508, Note_on_c, 0, 56, 0
1, 143520, Note_on_c, 0, 44, 0
1, 143520, Note_on_c, 0, 46, 100
1, 143520, Note_on_c, 0, 75, 100
1, 143520, Note_on_c, 0, 77, 0
1, 143640, Note_on_c, 0, 74, 100
1, 143640, Note_on_c, 0, 75, 0
1, 143760, Note_on_c, 0, 50, 100
1, 143760, Note_on_c, 0, 53, 100
1, 143760, Note_on_c, 0, 58, 100
1, 143760, Note_on_c, 0, 72, 100
1, 143760, Note_on_c, 0, 74, 0
1, 143880, Note_on_c, 0, 70, 100
1, 143880, Note_on_c, 0, 72, 0
1, 143988, Note_on_c, 0, 50, 0
1, 143988, Note_on_c, 0, 53, 0
1, 143988, Note_on_c, 0, 58, 0
1, 144000, Note_on_c, 0, 50, 100
1, 144000, Note_on_c, 0, 53, 100
1, 144000, Note_on_c, 0, 58, 100
1, 144000, Note_on_c, 0, 69, 100
1, 144000, Note_on_c, 0, 70, 0
1, 144120, Note_on_c, 0, 69, 0
1, 144120, Note_on_c, 0, 70, 100
1, 144228, Note_on_c, 0, 50, 0
1, 144228, Note_on_c, 0, 53, 0
1, 144228, Note_on_c, 0, 58, 0
1, 144240, Note_on_c, 0, 50, 100
1, 144240, Note_on_c, 0, 53, 100
1, 144240, Note_on_c, 0, 58, 100
1, 144240, Note_on_c, 0, 70, 0
1, 144240, Note_on_c, 0, 72, 100
1, 144360, Note_on_c, 0, 70, 100
1, 144360, Note_on_c, 0, 72, 0
1, 144468, Note_on_c, 0, 50, 0
1, 144468, Note_on_c, 0, 53, 0
1, 144468, Note_on_c, 0, 58, 0
1, 144480, Note_on_c, 0, 39, 100
1, 144480, Note_on_c, 0, 46, 0
1, 144480, Note_on_c, 0, 70, 0
1, 144480, Note_on_c, 0, 75, 100
1, 144600, Note_on_c, 0, 51, 100
1, 144600, Note_on_c, 0, 75, 0
1, 144708, Note_on_c, 0, 39, 0
1, 144720, Note_on_c, 0, 39, 100
1, 144720, Note_on_c, 0, 51, 0
1, 144720, Note_on_c, 0, 63, 100
1, 144840, Note_on_c, 0, 51, 100
1, 144948, Note_on_c, 0, 39, 0
1, 144960, Note_on_c, 0, 39, 100
1, 144960, Note_on_c, 0, 51, 0
1, 145080, Note_on_c, 0, 51, 100
1, 145188, Note_on_c, 0, 39, 0
1, 145200, Note_on_c, 0, 39, 100
1, 145200, Note_on_c, 0, 51, 0
1, 145200, Note_on_c, 0, 61, 100
1, 145200, Note_on_c, 0, 63, 0
1, 145200, Note_on_c, 0, 67, 100
1, 145320, Note_on_c, 0, 51, 100
1, 145320, Note_on_c, 0, 61, 0
1, 145320, Note_on_c, 0, 67, 0
1, 145428, Note_on_c, 0, 39, 0
1, 145440, Note_on_c, 0, 39, 100
1, 145440, Note_on_c, 0, 51, 0
1, 145440, Note_on_c, 0, 60, 100
1, 145440, Note_on_c, 0, 68, 100
1, 145560, Note_on_c, 0, 51, 100
1, 145560, Note_on_c, 0, 60, 0
1, 145560, Note_on_c, 0, 68, 0
1, 145668, Note_on_c, 0, 39, 0
1, 145680, Note_on_c, 0, 39, 100
1, 145680, Note_on_c, 0, 51, 0
1, 145680, Note_on_c, 0, 67, 100
1, 145680, Note_on_c, 0, 70, 100
1, 145800, Note_on_c, 0, 51, 100
1, 145800, Note_on_c, 0, 67, 0
1, 145800, Note_on_c, 0, 70, 0
1, 145908, Note_on_c, 0, 39, 0
1, 145920, Note_on_c, 0, 39, 100
1, 145920, Note_on_c, 0, 51, 0
1, 145920, Note_on_c, 0, 68, 100
1, 145920, Note_on_c, 0, 72, 100
1, 146040, Note_on_c, 0, 51, 100
1, 146040, Note_on_c, 0, 68, 0
1, 146040, Note_on_c, 0, 72, 0
1, 146148, Note_on_c, 0, 39, 0
1, 146160, Note_on_c, 0, 39, 100
1, 146160, Note_on_c, 0, 51, 0
1, 146160, Note_on_c, 0, 68, 100
1, 146160, Note_on_c, 0, 74, 100
1, 146280, Note_on_c, 0, 51, 100
1, 146280, Note_on_c, 0, 68, 0
1, 146280, Note_on_c, 0, 74, 0
1, 146388, Note_on_c, 0, 39, 0
1, 146400, Note_on_c, 0, 39, 100
1, 146400, Note_on_c, 0, 51, 0
1, 146400, Note_on_c, 0, 67, 100
1, 146400, Note_on_c, 0, 75, 100
1, 146520, Note_on_c, 0, 51, 100
1, 146520, Note_on_c, 0, 67, 0
1, 146520, Note_on_c, 0, 75, 0
1, 146628, Note_on_c, 0, 39, 0
1, 146640, Note_on_c, 0, 39, 100
1, 146640, Note_on_c, 0, 51, 0
1, 146640, Note_on_c, 0, 75, 100
1, 146760, Note_on_c, 0, 51, 100
1, 146868, Note_on_c, 0, 39, 0
1, 146880, Note_on_c, 0, 39, 100
1, 146880, Note_on_c, 0, 51, 0
1, 147000, Note_on_c, 0, 51, 100
1, 147108, Note_on_c, 0, 39, 0
1, 147120, Note_on_c, 0, 39, 100
1, 147120, Note_on_c, 0, 51, 0
1, 147120, Note_on_c, 0, 73, 100
1, 147120, Note_on_c, 0, 75, 0
1, 147120, Note_on_c, 0, 79, 100
1, 147240, Note_on_c, 0, 51, 100
1, 147240, Note_on_c, 0, 73, 0
1, 147240, Note_on_c, 0, 79, 0
1, 147348, Note_on_c, 0, 39, 0
1, 147360, Note_on_c, 0, 39, 100
1, 147360, Note_on_c, 0, 51, 0
1, 147360, Note_on_c, 0, 72, 100
1, 147360, Note_on_c, 0, 80, 100
1, 147480, Note_on_c, 0, 51, 100
1, 147480, Note_on_c, 0, 72, 0
1, 147480, Note_on_c, 0, 80, 0
1, 147588, Note_on_c, 0, 39, 0
1, 147600, Note_on_c, 0, 39, 100
1, 147600, Note_on_c, 0, 51, 0
1, 147600, Note_on_c, 0, 79, 100
1, 147600, Note_on_c, 0, 82, 100
1, 147720, Note_on_c, 0, 51, 100
1, 147720, Note_on_c, 0, 79, 0
1, 147720, Note_on_c, 0, 82, 0
1, 147828, Note_on_c, 0, 39, 0
1, 147840, Note_on_c, 0, 39, 100
1, 147840, Note_on_c, 0, 51, 0
1, 147840, Note_on_c, 0, 80, 100
1, 147840, Note_on_c, 0, 84, 100
1, 147960, Note_on_c, 0, 51, 100
1, 147960, Note_on_c, 0, 80, 0
1, 147960, Note_on_c, 0, 84, 0
1, 148068, Note_on_c, 0, 39, 0
1, 148080, Note_on_c, 0, 39, 100
1, 148080, Note_on_c, 0, 51, 0
1, 148080, Note_on_c, 0, 80, 100
1, 148080, Note_on_c, 0, 86, 100
1, 148200, Note_on_c, 0, 51, 100
1, 148200, Note_on_c, 0, 80, 0
1, 148200, Note_on_c, 0, 86, 0
1, 148308, Note_on_c, 0, 39, 0
1, 148320, Note_on_c, 0, 39, 100
1, 148320, Note_on_c, 0, 51, 0
1, 148320, Note_on_c, 0, 79, 100
1, 148320, Note_on_c, 0, 87, 100
1, 148440, Note_on_c, 0, 51, 100
1, 148548, Note_on_c, 0, 39, 0
1, 148560, Note_on_c, 0, 39, 100
1, 148560, Note_on_c, 0, 51, 0
1, 148680, Note_on_c, 0, 51, 100
1, 148788, Note_on_c, 0, 39, 0
1, 148800, Note_on_c, 0, 39, 100
1, 148800, Note_on_c, 0, 51, 0
1, 148920, Note_on_c, 0, 51, 100
1, 149028, Note_on_c, 0, 39, 0
1, 149040, Note_on_c, 0, 39, 100
1, 149040, Note_on_c, 0, 51, 0
1, 149160, Note_on_c, 0, 51, 100
1, 149268, Note_on_c, 0, 39, 0
1, 149280, Note_on_c, 0, 38, 100
1, 149280, Note_on_c, 0, 51, 0
1, 149280, Note_on_c, 0, 67, 100
1, 149280, Note_on_c, 0, 75, 100
1, 149280, Note_on_c, 0, 79, 0
1, 149280, Note_on_c, 0, 87, 0
1, 149400, Note_on_c, 0, 50, 100
1, 149508, Note_on_c, 0, 38, 0
1, 149520, Note_on_c, 0, 38, 100
1, 149520, Note_on_c, 0, 50, 0
1, 149640, Note_on_c, 0, 50, 100
1, 149748, Note_on_c, 0, 38, 0
1, 149760, Note_on_c, 0, 38, 100
1, 149760, Note_on_c, 0, 50, 0
1, 149880, Note_on_c, 0, 50, 100
1, 149988, Note_on_c, 0, 38, 0
1, 150000, Note_on_c, 0, 38, 100
1, 150000, Note_on_c, 0, 50, 0
1, 150120, Note_on_c, 0, 50, 100
1, 150228, Note_on_c, 0, 38, 0
1, 150240, Note_on_c, 0, 36, 100
1, 150240, Note_on_c, 0, 50, 0
1, 150240, Note_on_c, 0, 67, 0
1, 150240, Note_on_c, 0, 75, 0
1, 150240, Note_on_c, 0, 79, 100
1, 150240, Note_on_c, 0, 87, 100
1, 150360, Note_on_c, 0, 48, 100
1, 150468, Note_on_c, 0, 36, 0
1, 150480, Note_on_c, 0, 36, 100
1, 150480, Note_on_c, 0, 48, 0
1, 150600, Note_on_c, 0, 48, 100
1, 150708, Note_on_c, 0, 36, 0
1, 150720, Note_on_c, 0, 36, 100
1, 150720, Note_on_c, 0, 48, 0
1, 150840, Note_on_c, 0, 48, 100
1, 150948, Note_on_c, 0, 36, 0
1, 150960, Note_on_c, 0, 36, 100
1, 150960, Note_on_c, 0, 48, 0
1, 151080, Note_on_c, 0, 48, 100
1, 151188, Note_on_c, 0, 36, 0
1, 151200, Note_on_c, 0, 34, 100
1, 151200, Note_on_c, 0, 48, 0
1, 151200, Note_on_c, 0, 67, 100
1, 151200, Note_on_c, 0, 75, 100
1, 151200, Note_on_c, 0, 79, 0
1, 151200, Note_on_c, 0, 87, 0
1, 151320, Note_on_c, 0, 46, 100
1, 151428, Note_on_c, 0, 34, 0
1, 151440, Note_on_c, 0, 34, 100
1, 151440, Note_on_c, 0, 46, 0
1, 151560, Note_on_c, 0, 46, 100
1, 151668, Note_on_c, 0, 34, 0
1, 151680, Note_on_c, 0, 34, 100
1, 151680, Note_on_c, 0, 46, 0
1, 151800, Note_on_c, 0, 46, 100
1, 151908, Note_on_c, 0, 34, 0
1, 151920, Note_on_c, 0, 34, 100
1, 151920, Note_on_c, 0, 46, 0
1, 152040, Note_on_c, 0, 46, 100
1, 152148, Note_on_c, 0, 34, 0
1, 152160, Note_on_c, 0, 32, 100
1, 152160, Note_on_c, 0, 46, 0
1, 152160, Note_on_c, 0, 67, 0
1, 152160, Note_on_c, 0, 75, 0
1, 152160, Note_on_c, 0, 84, 100
1, 152160, Note_on_c, 0, 87, 100
1, 152280, Note_on_c, 0, 44, 100
1, 152388, Note_on_c, 0, 32, 0
1, 152400, Note_on_c, 0, 32, 100
1, 152400, Note_on_c, 0, 44, 0
1, 152520, Note_on_c, 0, 44, 100
1, 152628, Note_on_c, 0, 32, 0
1, 152640, Note_on_c, 0, 32, 100
1, 152640, Note_on_c, 0, 44, 0
1, 152760, Note_on_c, 0, 44, 100
1, 152868, Note_on_c, 0, 32, 0
1, 152880, Note_on_c, 0, 32, 100
1, 152880, Note_on_c, 0, 44, 0
1, 153000, Note_on_c, 0, 44, 100
1, 153108, Note_on_c, 0, 32, 0
1, 153120, Note_on_c, 0, 31, 100
1, 153120, Note_on_c, 0, 44, 0
1, 153120, Note_on_c, 0, 72, 100
1, 153120, Note_on_c, 0, 75, 100
1, 153120, Note_on_c, 0, 84, 0
1, 153120, Note_on_c, 0, 87, 0
1, 153240, Note_on_c, 0, 43, 100
1, 153348, Note_on_c, 0, 31, 0
1, 153360, Note_on_c, 0, 31, 100
1, 153360, Note_on_c, 0, 43, 0
1, 153480, Note_on_c, 0, 43, 100
1, 153588, Note_on_c, 0, 31, 0
1, 153600, Note_on_c, 0, 31, 100
1, 153600, Note_on_c, 0, 43, 0
1, 153720, Note_on_c, 0, 43, 100
1, 153828, Note_on_c, 0, 31, 0
1, 153840, Note_on_c, 0, 31, 100
1, 153840, Note_on_c, 0, 43, 0
1, 153960, Note_on_c, 0, 43, 100
1, 154068, Note_on_c, 0, 31, 0
1, 154080, Note_on_c, 0, 30, 100
1, 154080, Note_on_c, 0, 42, 100
1, 154080, Note_on_c, 0, 43, 0
1, 154080, Note_on_c, 0, 72, 0
1, 154080, Note_on_c, 0, 75, 0
1, 154080, Note_on_c, 0, 81, 100
1, 154080, Note_on_c, 0, 84, 100
1, 154080, Note_on_c, 0, 86, 100
1, 155040, Note_on_c, 0, 30, 0
1, 155040, Note_on_c, 0, 31, 100
1, 155040, Note_on_c, 0, 42, 0
1, 155040, Note_on_c, 0, 43, 100
1, 155040, Note_on_c, 0, 53, 100
1, 155040, Note_on_c, 0, 59, 100
1, 155040, Note_on_c, 0, 62, 100
1, 155040, Note_on_c, 0, 81, 0
1, 155040, Note_on_c, 0, 84, 0
1, 155040, Note_on_c, 0, 86, 0
1, 156000, Note_on_c, 0, 31, 0
1, 156000, Note_on_c, 0, 36, 100
1, 156000, Note_on_c, 0, 43, 0
1, 156000, Note_on_c, 0, 53, 0
1, 156000, Note_on_c, 0, 59, 0
1, 156000, Note_on_c, 0, 60, 100
1, 156000, Note_on_c, 0, 62, 0
1, 156120, Note_on_c, 0, 48, 100
1, 156228, Note_on_c, 0, 36, 0
1, 156240, Note_on_c, 0, 36, 100
1, 156240, Note_on_c, 0, 48, 0
1, 156360, Note_on_c, 0, 48, 100
1, 156468, Note_on_c, 0, 36, 0
1, 156480, Note_on_c, 0, 36, 100
1, 156480, Note_on_c, 0, 48, 0
1, 156600, Note_on_c, 0, 48, 100
1, 156708, Note_on_c, 0, 36, 0
1, 156720, Note_on_c, 0, 36, 100
1, 156720, Note_on_c, 0, 48, 0
1, 156720, Note_on_c, 0, 58, 100
1, 156720, Note_on_c, 0, 60, 0
1, 156720, Note_on_c, 0, 64, 100
1, 156810, Note_on_c, 0, 58, 0
1, 156810, Note_on_c, 0, 64, 0
1, 156840, Note_on_c, 0, 48, 100
1, 156948, Note_on_c, 0, 36, 0
1, 156960, Note_on_c, 0, 36, 100
1, 156960, Note_on_c, 0, 48, 0
1, 156960, Note_on_c, 0, 56, 100
1, 156960, Note_on_c, 0, 65, 100
1, 157050, Note_on_c, 0, 56, 0
1, 157050, Note_on_c, 0, 65, 0
1, 157080, Note_on_c, 0, 48, 100
1, 157188, Note_on_c, 0, 36, 0
1, 157200, Note_on_c, 0, 36, 100
1, 157200, Note_on_c, 0, 48, 0
1, 157200, Note_on_c, 0, 64, 100
1, 157200, Note_on_c, 0, 67, 100
1, 157290, Note_on_c, 0, 64, 0
1, 157290, Note_on_c, 0, 67, 0
1, 157320, Note_on_c, 0, 48, 100
1, 157428, Note_on_c, 0, 36, 0
1, 157440, Note_on_c, 0, 36, 100
1, 157440, Note_on_c, 0, 48, 0
1, 157440, Note_on_c, 0, 65, 100
1, 157440, Note_on_c, 0, 68, 100
1, 157530, Note_on_c, 0, 65, 0
1, 157530, Note_on_c, 0, 68, 0
1, 157560, Note_on_c, 0, 48, 100
1, 157668, Note_on_c, 0, 36, 0
1, 157680, Note_on_c, 0, 36, 100
1, 157680, Note_on_c, 0, 48, 0
1, 157680, Note_on_c, 0, 62, 100
1, 157680, Note_on_c, 0, 71, 100
1, 157770, Note_on_c, 0, 62, 0
1, 157770, Note_on_c, 0, 71, 0
1, 157800, Note_on_c, 0, 48, 100
1, 157908, Note_on_c, 0, 36, 0
1, 157920, Note_on_c, 0, 36, 100
1, 157920, Note_on_c, 0, 48, 0
1, 157920, Note_on_c, 0, 63, 100
1, 157920, Note_on_c, 0, 72, 100
1, 158010, Note_on_c, 0, 63, 0
1, 158010, Note_on_c, 0, 72, 0
1, 158040, Note_on_c, 0, 48, 100
1, 158148, Note_on_c, 0, 36, 0
1, 158160, Note_on_c, 0, 36, 100
1, 158160, Note_on_c, 0, 48, 0
1, 158160, Note_on_c, 0, 64, 100
1, 158160, Note_on_c, 0, 72, 100
1, 158280, Note_on_c, 0, 48, 100
1, 158388, Note_on_c, 0, 36, 0
1, 158400, Note_on_c, 0, 36, 100
1, 158400, Note_on_c, 0, 48, 0
1, 158520, Note_on_c, 0, 48, 100
1, 158628, Note_on_c, 0, 36, 0
1, 158640, Note_on_c, 0, 36, 100
1, 158640, Note_on_c, 0, 48, 0
1, 158640, Note_on_c, 0, 64, 0
1, 158640, Note_on_c, 0, 70, 100
1, 158640, Note_on_c, 0, 72, 0
1, 158640, Note_on_c, 0, 76, 100
1, 158730, Note_on_c, 0, 70, 0
1, 158730, Note_on_c, 0, 76, 0
1, 158760, Note_on_c, 0, 48, 100
1, 158868, Note_on_c, 0, 36, 0
1, 158880, Note_on_c, 0, 36, 100
1, 158880, Note_on_c, 0, 48, 0
1, 158880, Note_on_c, 0, 68, 100
1, 158880, Note_on_c, 0, 77, 100
1, 158970, Note_on_c, 0, 68, 0
1, 158970, Note_on_c, 0, 77, 0
1, 159000, Note_on_c, 0, 48, 100
1, 159108, Note_on_c, 0, 36, 0
1, 159120, Note_on_c, 0, 36, 100
1, 159120, Note_on_c, 0, 48, 0
1, 159120, Note_on_c, 0, 76, 100
1, 159120, Note_on_c, 0, 79, 100
1, 159210, Note_on_c, 0, 76, 0
1, 159210, Note_on_c, 0, 79, 0
1, 159240, Note_on_c, 0, 48, 100
1, 159348, Note_on_c, 0, 36, 0
1, 159360, Note_on_c, 0, 36, 100
1, 159360, Note_on_c, 0, 48, 0
1, 159360, Note_on_c, 0, 77, 100
1, 159360, Note_on_c, 0, 80, 100
1, 159450, Note_on_c, 0, 77, 0
1, 159450, Note_on_c, 0, 80, 0
1, 159480, Note_on_c, 0, 48, 100
1, 159588, Note_on_c, 0, 36, 0
1, 159600, Note_on_c, 0, 36, 100
1, 159600, Note_on_c, 0, 48, 0
1, 159600, Note_on_c, 0, 74, 100
1, 159600, Note_on_c, 0, 83, 100
1, 159690, Note_on_c, 0, 74, 0
1, 159690, Note_on_c, 0, 83, 0
1, 159720, Note_on_c, 0, 48, 100
1, 159828, Note_on_c, 0, 36, 0
1, 159840, Note_on_c, 0, 36, 100
1, 159840, Note_on_c, 0, 48, 0
1, 159840, Note_on_c, 0, 72, 100
1, 159840, Note_on_c, 0, 75, 100
1, 159840, Note_on_c, 0, 79, 100
1, 159840, Note_on_c, 0, 84, 100
1, 159960, Note_on_c, 0, 48, 100
1, 160068, Note_on_c, 0, 36, 0
1, 160080, Note_on_c, 0, 36, 100
1, 160080, Note_on_c, 0, 48, 0
1, 160200, Note_on_c, 0, 48, 100
1, 160308, Note_on_c, 0, 36, 0
1, 160320, Note_on_c, 0, 38, 100
1, 160320, Note_on_c, 0, 48, 0
1, 160320, Note_on_c, 0, 67, 100
1, 160320, Note_on_c, 0, 71, 100
1, 160320, Note_on_c, 0, 72, 0
1, 160320, Note_on_c, 0, 75, 0
1, 160320, Note_on_c, 0, 77, 100
1, 160320, Note_on_c, 0, 79, 0
1, 160320, Note_on_c, 0, 79, 100
1, 160320, Note_on_c, 0, 84, 0
1, 160440, Note_on_c, 0, 50, 100
1, 160548, Note_on_c, 0, 38, 0
1, 160560, Note_on_c, 0, 38, 100
1, 160560, Note_on_c, 0, 50, 0
1, 160680, Note_on_c, 0, 50, 100
1, 160788, Note_on_c, 0, 38, 0
1, 160800, Note_on_c, 0, 39, 100
1, 160800, Note_on_c, 0, 50, 0
1, 160800, Note_on_c, 0, 67, 0
1, 160800, Note_on_c, 0, 67, 100
1, 160800, Note_on_c, 0, 71, 0
1, 160800, Note_on_c, 0, 72, 100
1, 160800, Note_on_c, 0, 75, 100
1, 160800, Note_on_c, 0, 77, 0
1, 160800, Note_on_c, 0, 79, 0
1, 160920, Note_on_c, 0, 51, 100
1, 161028, Note_on_c, 0, 39, 0
1, 161040, Note_on_c, 0, 39, 100
1, 161040, Note_on_c, 0, 51, 0
1, 161160, Note_on_c, 0, 51, 100
1, 161268, Note_on_c, 0, 39, 0
1, 161280, Note_on_c, 0, 41, 100
1, 161280, Note_on_c, 0, 51, 0
1, 161280, Note_on_c, 0, 65, 100
1, 161280, Note_on_c, 0, 67, 0
1, 161280, Note_on_c, 0, 68, 100
1, 161280, Note_on_c, 0, 72, 0
1, 161280, Note_on_c, 0, 74, 100
1, 161280, Note_on_c, 0, 75, 0
1, 161400, Note_on_c, 0, 53, 100
1, 161508, Note_on_c, 0, 41, 0
1, 161520, Note_on_c, 0, 41, 100
1, 161520, Note_on_c, 0, 53, 0
1, 161640, Note_on_c, 0, 53, 100
1, 161748, Note_on_c, 0, 41, 0
1, 161760, Note_on_c, 0, 43, 100
1, 161760, Note_on_c, 0, 53, 0
1, 161760, Note_on_c, 0, 63, 100
1, 161760, Note_on_c, 0, 65, 0
1, 161760, Note_on_c, 0, 67, 100
1, 161760, Note_on_c, 0, 68, 0
1, 161760, Note_on_c, 0, 72, 100
1, 161760, Note_on_c, 0, 74, 0
1, 161880, Note_on_c, 0, 55, 100
1, 161988, Note_on_c, 0, 43, 0
1, 162000, Note_on_c, 0, 43, 100
1, 162000, Note_on_c, 0, 55, 0
1, 162120, Note_on_c, 0, 55, 100
1, 162228, Note_on_c, 0, 43, 0
1, 162240, Note_on_c, 0, 44, 100
1, 162240, Note_on_c, 0, 55, 0
1, 162240, Note_on_c, 0, 66, 100
1, 162240, Note_on_c, 0, 67, 0
1, 162360, Note_on_c, 0, 56, 100
1, 162468, Note_on_c, 0, 44, 0
1, 162480, Note_on_c, 0, 44, 100
1, 162480, Note_on_c, 0, 56, 0
1, 162600, Note_on_c, 0, 56, 100
1, 162708, Note_on_c, 0, 44, 0
1, 162720, Note_on_c, 0, 42, 100
1, 162720, Note_on_c, 0, 56, 0
1, 162720, Note_on_c, 0, 66, 0
1, 162720, Note_on_c, 0, 69, 100
1, 162840, Note_on_c, 0, 54, 100
1, 162948, Note_on_c, 0, 42, 0
1, 162960, Note_on_c, 0, 42, 100
1, 162960, Note_on_c, 0, 54, 0
1, 163080, Note_on_c, 0, 54, 100
1, 163188, Note_on_c, 0, 42, 0
1, 163200, Note_on_c, 0, 43, 100
1, 163200, Note_on_c, 0, 54, 0
1, 163200, Note_on_c, 0, 62, 100
1, 163200, Note_on_c, 0, 63, 0
1, 163200, Note_on_c, 0, 65, 100
1, 163200, Note_on_c, 0, 69, 0
1, 163200, Note_on_c, 0, 71, 100
1, 163200, Note_on_c, 0, 72, 0
1, 163320, Note_on_c, 0, 55, 100
1, 163428, Note_on_c, 0, 43, 0
1, 163440, Note_on_c, 0, 43, 100
1, 163440, Note_on_c, 0, 55, 0
1, 163560, Note_on_c, 0, 55, 100
1, 163668, Note_on_c, 0, 43, 0
1, 163680, Note_on_c, 0, 36, 100
1, 163680, Note_on_c, 0, 55, 0
1, 163680, Note_on_c, 0, 60, 100
1, 163680, Note_on_c, 0, 62, 0
1, 163680, Note_on_c, 0, 63, 100
1, 163680, Note_on_c, 0, 65, 0
1, 163680, Note_on_c, 0, 71, 0
1, 163680, Note_on_c, 0, 72, 100
1, 163770, Note_on_c, 0, 60, 0
1, 163770, Note_on_c, 0, 63, 0
1, 163770, Note_on_c, 0, 72, 0
1, 163800, Note_on_c, 0, 48, 100
1, 163908, Note_on_c, 0, 36, 0
1, 163920, Note_on_c, 0, 36, 100
1, 163920, Note_on_c, 0, 48, 0
1, 163920, Note_on_c, 0, 60, 100
1, 164040, Note_on_c, 0, 48, 100
1, 164148, Note_on_c, 0, 36, 0
1, 164160, Note_on_c, 0, 36, 100
1, 164160, Note_on_c, 0, 48, 0
1, 164280, Note_on_c, 0, 48, 100
1, 164388, Note_on_c, 0, 36, 0
1, 164400, Note_on_c, 0, 36, 100
1, 164400, Note_on_c, 0, 48, 0
1, 164400, Note_on_c, 0, 58, 100
1, 164400, Note_on_c, 0, 60, 0
1, 164400, Note_on_c, 0, 64, 100
1, 164490, Note_on_c, 0, 58, 0
1, 164490, Note_on_c, 0, 64, 0
1, 164520, Note_on_c, 0, 48, 100
1, 164628, Note_on_c, 0, 36, 0
1, 164640, Note_on_c, 0, 36, 100
1, 164640, Note_on_c, 0, 48, 0
1, 164640, Note_on_c, 0, 56, 100
1, 164640, Note_on_c, 0, 65, 100
1, 164730, Note_on_c, 0, 56, 0
1, 164730, Note_on_c, 0, 65, 0
1, 164760, Note_on_c, 0, 48, 100
1, 164868, Note_on_c, 0, 36, 0
1, 164880, Note_on_c, 0, 36, 100
1, 164880, Note_on_c, 0, 48, 0
1, 164880, Note_on_c, 0, 64, 100
1, 164880, Note_on_c, 0, 67, 100
1, 164970, Note_on_c, 0, 64, 0
1, 164970, Note_on_c, 0, 67, 0
1, 165000, Note_on_c, 0, 48, 100
1, 165108, Note_on_c, 0, 36, 0
1, 165120, Note_on_c, 0, 36, 100
1, 165120, Note_on_c, 0, 48, 0
1, 165120, Note_on_c, 0, 65, 100
1, 165120, Note_on_c, 0, 68, 100
1, 165210, Note_on_c, 0, 65, 0
1, 165210, Note_on_c, 0, 68, 0
1, 165240, Note_on_c, 0, 48, 100
1, 165348, Note_on_c, 0, 36, 0
1, 165360, Note_on_c, 0, 36, 100
1, 165360, Note_on_c, 0, 48, 0
1, 165360, Note_on_c, 0, 62, 100
1, 165360, Note_on_c, 0, 71, 100
1, 165450, Note_on_c, 0, 62, 0
1, 165450, Note_on_c, 0, 71, 0
1, 165480, Note_on_c, 0, 48, 100
1, 165588, Note_on_c, 0, 36, 0
1, 165600, Note_on_c, 0, 36, 100
1, 165600, Note_on_c, 0, 48, 0
1, 165600, Note_on_c, 0, 63, 100
1, 165600, Note_on_c, 0, 72, 100
1, 165690, Note_on_c, 0, 63, 0
1, 165690, Note_on_c, 0, 72, 0
1, 165720, Note_on_c, 0, 48, 100
1, 165828, Note_on_c, 0, 36, 0
1, 165840, Note_on_c, 0, 36, 100
1, 165840, Note_on_c, 0, 48, 0
1, 165840, Note_on_c, 0, 64, 100
1, 165840, Note_on_c, 0, 72, 100
1, 165960, Note_on_c, 0, 48, 100
1, 166068, Note_on_c, 0, 36, 0
1, 166080, Note_on_c, 0, 36, 100
1, 166080, Note_on_c, 0, 48, 0
1, 166200, Note_on_c, 0, 48, 100
1, 166308, Note_on_c, 0, 36, 0
1, 166320, Note_on_c, 0, 36, 100
1, 166320, Note_on_c, 0, 48, 0
1, 166320, Note_on_c, 0, 64, 0
1, 166320, Note_on_c, 0, 70, 100
1, 166320, Note_on_c, 0, 72, 0
1, 166320, Note_on_c, 0, 76, 100
1, 166410, Note_on_c, 0, 70, 0
1, 166410, Note_on_c, 0, 76, 0
1, 166440, Note_on_c, 0, 48, 100
1, 166548, Note_on_c, 0, 36, 0
1, 166560, Note_on_c, 0, 36, 100
1, 166560, Note_on_c, 0, 48, 0
1, 166560, Note_on_c, 0, 68, 100
1, 166560, Note_on_c, 0, 77, 100
1, 166650, Note_on_c, 0, 68, 0
1, 166650, Note_on_c, 0, 77, 0
1, 166680, Note_on_c, 0, 48, 100
1, 166788, Note_on_c, 0, 36, 0
1, 166800, Note_on_c, 0, 36, 100
1, 166800, Note_on_c, 0, 48, 0
1, 166800, Note_on_c, 0, 76, 100
1, 166800, Note_on_c, 0, 79, 100
1, 166890, Note_on_c, 0, 76, 0
1, 166890, Note_on_c, 0, 79, 0
1, 166920, Note_on_c, 0, 48, 100
1, 167028, Note_on_c, 0, 36, 0
1, 167040, Note_on_c, 0, 36, 100
1, 167040, Note_on_c, 0, 48, 0
1, 167040, Note_on_c, 0, 77, 100
1, 167040, Note_on_c, 0, 80, 100
1, 167130, Note_on_c, 0, 77, 0
1, 167130, Note_on_c, 0, 80, 0
1, 167160, Note_on_c, 0, 48, 100
1, 167268, Note_on_c, 0, 36, 0
1, 167280, Note_on_c, 0, 36, 100
1, 167280, Note_on_c, 0, 48, 0
1, 167280, Note_on_c, 0, 74, 100
1, 167280, Note_on_c, 0, 83, 100
1, 167370, Note_on_c, 0, 74, 0
1, 167370, Note_on_c, 0, 83, 0
1, 167400, Note_on_c, 0, 48, 100
1, 167508, Note_on_c, 0, 36, 0
1, 167520, Note_on_c, 0, 36, 100
1, 167520, Note_on_c, 0, 48, 0
1, 167520, Note_on_c, 0, 72, 100
1, 167520, Note_on_c, 0, 75, 100
1, 167520, Note_on_c, 0, 79, 100
1, 167520, Note_on_c, 0, 84, 100
1, 167640, Note_on_c, 0, 48, 100
1, 167748, Note_on_c, 0, 36, 0
1, 167760, Note_on_c, 0, 36, 100
1, 167760, Note_on_c, 0, 48, 0
1, 167880, Note_on_c, 0, 48, 100
1, 167988, Note_on_c, 0, 36, 0
1, 168000, Note_on_c, 0, 38, 100
1, 168000, Note_on_c, 0, 48, 0
1, 168000, Note_on_c, 0, 67, 100
1, 168000, Note_on_c, 0, 71, 100
1, 168000, Note_on_c, 0, 72, 0
1, 168000, Note_on_c, 0, 75, 0
1, 168000, Note_on_c, 0, 77, 100
1, 168000, Note_on_c, 0, 79, 0
1, 168000, Note_on_c, 0, 79, 100
1, 168000, Note_on_c, 0, 84, 0
1, 168120, Note_on_c, 0, 50, 100
1, 168228, Note_on_c, 0, 38, 0
1, 168240, Note_on_c, 0, 38, 100
1, 168240, Note_on_c, 0, 50, 0
1, 168360, Note_on_c, 0, 50, 100
1, 168468, Note_on_c, 0, 38, 0
1, 168480, Note_on_c, 0, 39, 100
1, 168480, Note_on_c, 0, 50, 0
1, 168480, Note_on_c, 0, 67, 0
1, 168480, Note_on_c, 0, 67, 100
1, 168480, Note_on_c, 0, 71, 0
1, 168480, Note_on_c, 0, 72, 100
1, 168480, Note_on_c, 0, 75, 100
1, 168480, Note_on_c, 0, 77, 0
1, 168480, Note_on_c, 0, 79, 0
1, 168600, Note_on_c, 0, 51, 100
1, 168708, Note_on_c, 0, 39, 0
1, 168720, Note_on_c, 0, 39, 100
1, 168720, Note_on_c, 0, 51, 0
1, 168840, Note_on_c, 0, 51, 100
1, 168948, Note_on_c, 0, 39, 0
1, 168960, Note_on_c, 0, 41, 100
1, 168960, Note_on_c, 0, 51, 0
1, 168960, Note_on_c, 0, 65, 100
1, 168960, Note_on_c, 0, 67, 0
1, 168960, Note_on_c, 0, 68, 100
1, 168960, Note_on_c, 0, 72, 0
1, 168960, Note_on_c, 0, 74, 100
1, 168960, Note_on_c, 0, 75, 0
1, 169080, Note_on_c, 0, 53, 100
1, 169188, Note_on_c, 0, 41, 0
1, 169200, Note_on_c, 0, 41, 100
1, 169200, Note_on_c, 0, 53, 0
1, 169320, Note_on_c, 0, 53, 100
1, 169428, Note_on_c, 0, 41, 0
1, 169440, Note_on_c, 0, 43, 100
1, 169440, Note_on_c, 0, 53, 0
1, 169440, Note_on_c, 0, 63, 100
1, 169440, Note_on_c, 0, 65, 0
1, 169440, Note_on_c, 0, 67, 100
1, 169440, Note_on_c, 0, 68, 0
1, 169440, Note_on_c, 0, 72, 100
1, 169440, Note_on_c, 0, 74, 0
1, 169560, Note_on_c, 0, 55, 100
1, 169668, Note_on_c, 0, 43, 0
1, 169680, Note_on_c, 0, 43, 100
1, 169680, Note_on_c, 0, 55, 0
1, 169800, Note_on_c, 0, 55, 100
1, 169908, Note_on_c, 0, 43, 0
1, 169920, Note_on_c, 0, 44, 100
1, 169920, Note_on_c, 0, 55, 0
1, 169920, Note_on_c, 0, 66, 100
1, 169920, Note_on_c, 0, 67, 0
1, 170040, Note_on_c, 0, 56, 100
1, 170148, Note_on_c, 0, 44, 0
1, 170160, Note_on_c, 0, 44, 100
1, 170160, Note_on_c, 0, 56, 0
1, 170280, Note_on_c, 0, 56, 100
1, 170388, Note_on_c, 0, 44, 0
1, 170400, Note_on_c, 0, 42, 100
1, 170400, Note_on_c, 0, 56, 0
1, 170400, Note_on_c, 0, 66, 0
1, 170400, Note_on_c, 0, 69, 100
1, 170520, Note_on_c, 0, 54, 100
1, 170628, Note_on_c, 0, 42, 0
1, 170640, Note_on_c, 0, 42, 100
1, 170640, Note_on_c, 0, 54, 0
1, 170760, Note_on_c, 0, 54, 100
1, 170868, Note_on_c, 0, 42, 0
1, 170880, Note_on_c, 0, 42, 100
1, 170880, Note_on_c, 0, 54, 0
1, 171000, Note_on_c, 0, 54, 100
1, 171108, Note_on_c, 0, 42, 0
1, 171120, Note_on_c, 0, 42, 100
1, 171120, Note_on_c, 0, 54, 0
1, 171240, Note_on_c, 0, 54, 100
1, 171348, Note_on_c, 0, 42, 0
1, 171360, Note_on_c, 0, 43, 100
1, 171360, Note_on_c, 0, 54, 0
1, 171360, Note_on_c, 0, 55, 100
1, 171360, Note_on_c, 0, 62, 100
1, 171360, Note_on_c, 0, 63, 0
1, 171360, Note_on_c, 0, 67, 100
1, 171360, Note_on_c, 0, 69, 0
1, 171360, Note_on_c, 0, 71, 100
1, 171360, Note_on_c, 0, 72, 0
1, 171600, Note_on_c, 0, 43, 0
1, 171600, Note_on_c, 0, 55, 0
1, 171600, Note_on_c, 0, 59, 100
1, 171600, Note_on_c, 0, 62, 0
1, 171600, Note_on_c, 0, 62, 100
1, 171600, Note_on_c, 0, 67, 0
1, 171600, Note_on_c, 0, 71, 0
1, 171828, Note_on_c, 0, 59, 0
1, 171828, Note_on_c, 0, 62, 0
1, 171840, Note_on_c, 0, 59, 100
1, 171840, Note_on_c, 0, 62, 100
1, 171840, Note_on_c, 0, 67, 100
1, 171840, Note_on_c, 0, 79, 100
1, 172068, Note_on_c, 0, 59, 0
1, 172068, Note_on_c, 0, 62, 0
1, 172080, Note_on_c, 0, 59, 100
1, 172080, Note_on_c, 0, 62, 100
1, 172308, Note_on_c, 0, 59, 0
1, 172308, Note_on_c, 0, 62, 0
1, 172320, Note_on_c, 0, 55, 100
1, 172560, Note_on_c, 0, 55, 0
1, 172560, Note_on_c, 0, 60, 100
1, 172560, Note_on_c, 0, 63, 100
1, 172560, Note_on_c, 0, 67, 0
1, 172560, Note_on_c, 0, 79, 0
1, 172788, Note_on_c, 0, 60, 0
1, 172788, Note_on_c, 0, 63, 0
1, 172800, Note_on_c, 0, 60, 100
1, 172800, Note_on_c, 0, 63, 100
1, 172800, Note_on_c, 0, 67, 100
1, 172800, Note_on_c, 0, 79, 100
1, 173028, Note_on_c, 0, 60, 0
1, 173028, Note_on_c, 0, 63, 0
1, 173040, Note_on_c, 0, 60, 100
1, 173040, Note_on_c, 0, 63, 100
1, 173268, Note_on_c, 0, 60, 0
1, 173268, Note_on_c, 0, 63, 0
1, 173280, Note_on_c, 0, 62, 100
1, 173280, Note_on_c, 0, 65, 100
1, 173400, Note_on_c, 0, 67, 0
1, 173400, Note_on_c, 0, 77, 100
1, 173400, Note_on_c, 0, 79, 0
1, 173520, Note_on_c, 0, 62, 0
1, 173520, Note_on_c, 0, 65, 0
1, 173520, Note_on_c, 0, 74, 100
1, 173520, Note_on_c, 0, 77, 0
1, 173640, Note_on_c, 0, 71, 100
1, 173640, Note_on_c, 0, 74, 0
1, 173760, Note_on_c, 0, 67, 100
1, 173760, Note_on_c, 0, 71, 0
1, 173880, Note_on_c, 0, 65, 100
1, 173880, Note_on_c, 0, 67, 0
1, 174000, Note_on_c, 0, 62, 100
1, 174000, Note_on_c, 0, 65, 0
1, 174120, Note_on_c, 0, 59, 100
1, 174120, Note_on_c, 0, 62, 0
1, 174240, Note_on_c, 0, 59, 0
1, 174240, Note_on_c, 0, 60, 100
1, 174360, Note_on_c, 0, 60, 0
1, 174360, Note_on_c, 0, 63, 100
1, 174480, Note_on_c, 0, 60, 100
1, 174480, Note_on_c, 0, 63, 0
1, 174600, Note_on_c, 0, 55, 100
1, 174600, Note_on_c, 0, 60, 0
1, 174720, Note_on_c, 0, 32, 100
1, 174720, Note_on_c, 0, 54, 100
1, 174720, Note_on_c, 0, 55, 0
1, 174840, Note_on_c, 0, 32, 0
1, 174840, Note_on_c, 0, 44, 100
1, 174840, Note_on_c, 0, 54, 0
1, 174840, Note_on_c, 0, 60, 100
1, 174960, Note_on_c, 0, 32, 100
1, 174960, Note_on_c, 0, 44, 0
1, 174960, Note_on_c, 0, 56, 100
1, 174960, Note_on_c, 0, 60, 0
1, 175080, Note_on_c, 0, 32, 0
1, 175080, Note_on_c, 0, 44, 100
1, 175080, Note_on_c, 0, 54, 100
1, 175080, Note_on_c, 0, 56, 0
1, 175200, Note_on_c, 0, 31, 100
1, 175200, Note_on_c, 0, 43, 100
1, 175200, Note_on_c, 0, 44, 0
1, 175200, Note_on_c, 0, 54, 0
1, 175200, Note_on_c, 0, 55, 100
1, 175440, Note_on_c, 0, 31, 0
1, 175440, Note_on_c, 0, 43, 0
1, 175440, Note_on_c, 0, 55, 0
1, 175440, Note_on_c, 0, 59, 100
1, 175440, Note_on_c, 0, 62, 100
1, 175668, Note_on_c, 0, 59, 0
1, 175668, Note_on_c, 0, 62, 0
1, 175680, Note_on_c, 0, 59, 100
1, 175680, Note_on_c, 0, 62, 100
1, 175680, Note_on_c, 0, 67, 100
1, 175680, Note_on_c, 0, 79, 100
1, 175908, Note_on_c, 0, 59, 0
1, 175908, Note_on_c, 0, 62, 0
1, 175920, Note_on_c, 0, 59, 100
1, 175920, Note_on_c, 0, 62, 100
1, 176160, Note_on_c, 0, 55, 100
1, 176160, Note_on_c, 0, 59, 0
1, 176160, Note_on_c, 0, 62, 0
1, 176400, Note_on_c, 0, 55, 0
1, 176400, Note_on_c, 0, 60, 100
1, 176400, Note_on_c, 0, 63, 100
1, 176400, Note_on_c, 0, 67, 0
1, 176400, Note_on_c, 0, 79, 0
1, 176628, Note_on_c, 0, 60, 0
1, 176628, Note_on_c, 0, 63, 0
1, 176640, Note_on_c, 0, 60, 100
1, 176640, Note_on_c, 0, 63, 100
1, 176640, Note_on_c, 0, 67, 100
1, 176640, Note_on_c, 0, 79, 100
1, 176868, Note_on_c, 0, 60, 0
1, 176868, Note_on_c, 0, 63, 0
1, 176880, Note_on_c, 0, 60, 100
1, 176880, Note_on_c, 0, 63, 100
1, 177108, Note_on_c, 0, 60, 0
1, 177108, Note_on_c, 0, 63, 0
1, 177120, Note_on_c, 0, 62, 100
1, 177120, Note_on_c, 0, 65, 100
1, 177240, Note_on_c, 0, 67, 0
1, 177240, Note_on_c, 0, 77, 100
1, 177240, Note_on_c, 0, 79, 0
1, 177360, Note_on_c, 0, 62, 0
1, 177360, Note_on_c, 0, 65, 0
1, 177360, Note_on_c, 0, 74, 100
1, 177360, Note_on_c, 0, 77, 0
1, 177480, Note_on_c, 0, 71, 100
1, 177480, Note_on_c, 0, 74, 0
1, 177600, Note_on_c, 0, 67, 100
1, 177600, Note_on_c, 0, 71, 0
1, 177720, Note_on_c, 0, 65, 100
1, 177720, Note_on_c, 0, 67, 0
1, 177840, Note_on_c, 0, 62, 100
1, 177840, Note_on_c, 0, 65, 0
1, 177960, Note_on_c, 0, 59, 100
1, 177960, Note_on_c, 0, 62, 0
1, 178080, Note_on_c, 0, 59, 0
1, 178080, Note_on_c, 0, 60, 100
1, 178200, Note_on_c, 0, 60, 0
1, 178200, Note_on_c, 0, 63, 100
1, 178320, Note_on_c, 0, 60, 100
1, 178320, Note_on_c, 0, 63, 0
1, 178440, Note_on_c, 0, 55, 100
1, 178440, Note_on_c, 0, 60, 0
1, 178560, Note_on_c, 0, 32, 100
1, 178560, Note_on_c, 0, 54, 100
1, 178560, Note_on_c, 0, 55, 0
1, 178680, Note_on_c, 0, 44, 100
1, 178680, Note_on_c, 0, 54, 0
1, 178680, Note_on_c, 0, 60, 100
1, 178788, Note_on_c, 0, 32, 0
1, 178800, Note_on_c, 0, 32, 100
1, 178800, Note_on_c, 0, 44, 0
1, 178800, Note_on_c, 0, 56, 100
1, 178800, Note_on_c, 0, 60, 0
1, 178920, Note_on_c, 0, 44, 100
1, 178920, Note_on_c, 0, 54, 100
1, 178920, Note_on_c, 0, 56, 0
1, 179028, Note_on_c, 0, 32, 0
1, 179040, Note_on_c, 0, 31, 100
1, 179040, Note_on_c, 0, 44, 0
1, 179040, Note_on_c, 0, 54, 0
1, 179040, Note_on_c, 0, 55, 100
1, 179160, Note_on_c, 0, 43, 100
1, 179268, Note_on_c, 0, 31, 0
1, 179280, Note_on_c, 0, 31, 100
1, 179280, Note_on_c, 0, 43, 0
1, 179280, Note_on_c, 0, 55, 0
1, 179280, Note_on_c, 0, 66, 100
1, 179370, Note_on_c, 0, 66, 0
1, 179400, Note_on_c, 0, 43, 100
1, 179508, Note_on_c, 0, 31, 0
1, 179520, Note_on_c, 0, 31, 100
1, 179520, Note_on_c, 0, 43, 0
1, 179520, Note_on_c, 0, 67, 100
1, 179610, Note_on_c, 0, 67, 0
1, 179640, Note_on_c, 0, 43, 100
1, 179748, Note_on_c, 0, 31, 0
1, 179760, Note_on_c, 0, 31, 100
1, 179760, Note_on_c, 0, 43, 0
1, 179760, Note_on_c, 0, 66, 100
1, 179760, Note_on_c, 0, 72, 100
1, 179850, Note_on_c, 0, 66, 0
1, 179850, Note_on_c, 0, 72, 0
1, 179880, Note_on_c, 0, 43, 100
1, 179988, Note_on_c, 0, 31, 0
1, 180000, Note_on_c, 0, 31, 100
1, 180000, Note_on_c, 0, 43, 0
1, 180000, Note_on_c, 0, 67, 100
1, 180000, Note_on_c, 0, 71, 100
1, 180090, Note_on_c, 0, 67, 0
1, 180090, Note_on_c, 0, 71, 0
1, 180120, Note_on_c, 0, 43, 100
1, 180228, Note_on_c, 0, 31, 0
1, 180240, Note_on_c, 0, 31, 100
1, 180240, Note_on_c, 0, 43, 0
1, 180240, Note_on_c, 0, 72, 100
1, 180240, Note_on_c, 0, 78, 100
1, 180330, Note_on_c, 0, 72, 0
1, 180330, Note_on_c, 0, 78, 0
1, 180360, Note_on_c, 0, 43, 100
1, 180468, Note_on_c, 0, 31, 0
1, 180480, Note_on_c, 0, 31, 100
1, 180480, Note_on_c, 0, 43, 0
1, 180480, Note_on_c, 0, 71, 100
1, 180480, Note_on_c, 0, 79, 100
1, 180570, Note_on_c, 0, 71, 0
1, 180570, Note_on_c, 0, 79, 0
1, 180600, Note_on_c, 0, 43, 100
1, 180708, Note_on_c, 0, 31, 0
1, 180720, Note_on_c, 0, 31, 100
1, 180720, Note_on_c, 0, 43, 0
1, 180720, Note_on_c, 0, 78, 100
1, 180720, Note_on_c, 0, 84, 100
1, 180810, Note_on_c, 0, 78, 0
1, 180810, Note_on_c, 0, 84, 0
1, 180840, Note_on_c, 0, 43, 100
1, 180948, Note_on_c, 0, 31, 0
1, 180960, Note_on_c, 0, 31, 100
1, 180960, Note_on_c, 0, 43, 0
1, 180960, Note_on_c, 0, 79, 100
1, 180960, Note_on_c, 0, 83, 100
1, 181080, Note_on_c, 0, 43, 100
1, 181080, Note_on_c, 0, 79, 0
1, 181080, Note_on_c, 0, 83, 0
1, 181188, Note_on_c, 0, 31, 0
1, 181200, Note_on_c, 0, 31, 100
1, 181200, Note_on_c, 0, 43, 0
1, 181320, Note_on_c, 0, 43, 100
1, 181428, Note_on_c, 0, 31, 0
1, 181440, Note_on_c, 0, 31, 100
1, 181440, Note_on_c, 0, 43, 0
1, 181560, Note_on_c, 0, 43, 100
1, 181668, Note_on_c, 0, 31, 0
1, 181680, Note_on_c, 0, 31, 100
1, 181680, Note_on_c, 0, 43, 0
1, 181800, Note_on_c, 0, 43, 100
1, 181908, Note_on_c, 0, 31, 0
1, 181920, Note_on_c, 0, 31, 100
1, 181920, Note_on_c, 0, 43, 0
1, 181920, Note_on_c, 0, 58, 100
1, 181920, Note_on_c, 0, 61, 100
1, 181920, Note_on_c, 0, 63, 100
1, 182040, Note_on_c, 0, 43, 100
1, 182148, Note_on_c, 0, 31, 0
1, 182160, Note_on_c, 0, 31, 100
1, 182160, Note_on_c, 0, 43, 0
1, 182280, Note_on_c, 0, 43, 100
1, 182388, Note_on_c, 0, 31, 0
1, 182400, Note_on_c, 0, 31, 100
1, 182400, Note_on_c, 0, 43, 0
1, 182520, Note_on_c, 0, 43, 100
1, 182628, Note_on_c, 0, 31, 0
1, 182640, Note_on_c, 0, 31, 100
1, 182640, Note_on_c, 0, 43, 0
1, 182760, Note_on_c, 0, 43, 100
1, 182868, Note_on_c, 0, 31, 0
1, 182880, Note_on_c, 0, 32, 100
1, 182880, Note_on_c, 0, 43, 0
1, 182880, Note_on_c, 0, 58, 0
1, 182880, Note_on_c, 0, 60, 100
1, 182880, Note_on_c, 0, 61, 0
1, 183000, Note_on_c, 0, 44, 100
1, 183108, Note_on_c, 0, 32, 0
1, 183120, Note_on_c, 0, 32, 100
1, 183120, Note_on_c, 0, 44, 0
1, 183120, Note_on_c, 0, 60, 0
1, 183120, Note_on_c, 0, 63, 0
1, 183120, Note_on_c, 0, 73, 100
1, 183210, Note_on_c, 0, 73, 0
1, 183240, Note_on_c, 0, 44, 100
1, 183348, Note_on_c, 0, 32, 0
1, 183360, Note_on_c, 0, 32, 100
1, 183360, Note_on_c, 0, 44, 0
1, 183360, Note_on_c, 0, 72, 100
1, 183450, Note_on_c, 0, 72, 0
1, 183480, Note_on_c, 0, 44, 100
1, 183588, Note_on_c, 0, 32, 0
1, 183600, Note_on_c, 0, 32, 100
1, 183600, Note_on_c, 0, 44, 0
1, 183600, Note_on_c, 0, 73, 100
1, 183600, Note_on_c, 0, 79, 100
1, 183690, Note_on_c, 0, 73, 0
1, 183690, Note_on_c, 0, 79, 0
1, 183720, Note_on_c, 0, 44, 100
1, 183828, Note_on_c, 0, 32, 0
1, 183840, Note_on_c, 0, 32, 100
1, 183840, Note_on_c, 0, 44, 0
1, 183840, Note_on_c, 0, 72, 100
1, 183840, Note_on_c, 0, 80, 100
1, 183930, Note_on_c, 0, 72, 0
1, 183930, Note_on_c, 0, 80, 0
1, 183960, Note_on_c, 0, 44, 100
1, 184068, Note_on_c, 0, 32, 0
1, 184080, Note_on_c, 0, 32, 100
1, 184080, Note_on_c, 0, 44, 0
1, 184080, Note_on_c, 0, 79, 100
1, 184080, Note_on_c, 0, 85, 100
1, 184170, Note_on_c, 0, 79, 0
1, 184170, Note_on_c, 0, 85, 0
1, 184200, Note_on_c, 0, 44, 100
1, 184308, Note_on_c, 0, 32, 0
1, 184320, Note_on_c, 0, 32, 100
1, 184320, Note_on_c, 0, 44, 0
1, 184320, Note_on_c, 0, 80, 100
1, 184320, Note_on_c, 0, 84, 100
1, 184410, Note_on_c, 0, 80, 0
1, 184410, Note_on_c, 0, 84, 0
1, 184440, Note_on_c, 0, 44, 100
1, 184548, Note_on_c, 0, 32, 0
1, 184560, Note_on_c, 0, 32, 100
1, 184560, Note_on_c, 0, 44, 0
1, 184560, Note_on_c, 0, 79, 100
1, 184560, Note_on_c, 0, 85, 100
1, 184650, Note_on_c, 0, 79, 0
1, 184650, Note_on_c, 0, 85, 0
1, 184680, Note_on_c, 0, 44, 100
1, 184788, Note_on_c, 0, 32, 0
1, 184800, Note_on_c, 0, 32, 100
1, 184800, Note_on_c, 0, 44, 0
1, 184800, Note_on_c, 0, 80, 100
1, 184800, Note_on_c, 0, 84, 100
1, 184920, Note_on_c, 0, 44, 100
1, 184920, Note_on_c, 0, 80, 0
1, 184920, Note_on_c, 0, 84, 0
1, 185028, Note_on_c, 0, 32, 0
1, 185040, Note_on_c, 0, 32, 100
1, 185040, Note_on_c, 0, 44, 0
1, 185160, Note_on_c, 0, 44, 100
1, 185268, Note_on_c, 0, 32, 0
1, 185280, Note_on_c, 0, 32, 100
1, 185280, Note_on_c, 0, 44, 0
1, 185400, Note_on_c, 0, 44, 100
1, 185508, Note_on_c, 0, 32, 0
1, 185520, Note_on_c, 0, 32, 100
1, 185520, Note_on_c, 0, 44, 0
1, 185640, Note_on_c, 0, 44, 100
1, 185748, Note_on_c, 0, 32, 0
1, 185760, Note_on_c, 0, 33, 100
1, 185760, Note_on_c, 0, 44, 0
1, 185760, Note_on_c, 0, 60, 100
1, 185760, Note_on_c, 0, 63, 100
1, 185760, Note_on_c, 0, 66, 100
1, 185880, Note_on_c, 0, 45, 100
1, 185988, Note_on_c, 0, 33, 0
1, 186000, Note_on_c, 0, 33, 100
1, 186000, Note_on_c, 0, 45, 0
1, 186120, Note_on_c, 0, 45, 100
1, 186228, Note_on_c, 0, 33, 0
1, 186240, Note_on_c, 0, 33, 100
1, 186240, Note_on_c, 0, 45, 0
1, 186360, Note_on_c, 0, 45, 100
1, 186468, Note_on_c, 0, 33, 0
1, 186480, Note_on_c, 0, 33, 100
1, 186480, Note_on_c, 0, 45, 0
1, 186600, Note_on_c, 0, 45, 100
1, 186708, Note_on_c, 0, 33, 0
1, 186720, Note_on_c, 0, 34, 100
1, 186720, Note_on_c, 0, 45, 0
1, 186720, Note_on_c, 0, 60, 0
1, 186720, Note_on_c, 0, 62, 100
1, 186720, Note_on_c, 0, 63, 0
1, 186720, Note_on_c, 0, 65, 100
1, 186720, Note_on_c, 0, 66, 0
1, 186840, Note_on_c, 0, 46, 100
1, 186948, Note_on_c, 0, 34, 0
1, 186960, Note_on_c, 0, 34, 100
1, 186960, Note_on_c, 0, 46, 0
1, 186960, Note_on_c, 0, 62, 0
1, 186960, Note_on_c, 0, 65, 0
1, 186960, Note_on_c, 0, 69, 100
1, 186960, Note_on_c, 0, 75, 100
1, 187050, Note_on_c, 0, 69, 0
1, 187050, Note_on_c, 0, 75, 0
1, 187080, Note_on_c, 0, 46, 100
1, 187188, Note_on_c, 0, 34, 0
1, 187200, Note_on_c, 0, 34, 100
1, 187200, Note_on_c, 0, 46, 0
1, 187200, Note_on_c, 0, 70, 100
1, 187200, Note_on_c, 0, 74, 100
1, 187290, Note_on_c, 0, 70, 0
1, 187290, Note_on_c, 0, 74, 0
1, 187320, Note_on_c, 0, 46, 100
1, 187428, Note_on_c, 0, 34, 0
1, 187440, Note_on_c, 0, 34, 100
1, 187440, Note_on_c, 0, 46, 0
1, 187440, Note_on_c, 0, 75, 100
1, 187440, Note_on_c, 0, 81, 100
1, 187530, Note_on_c, 0, 75, 0
1, 187530, Note_on_c, 0, 81, 0
1, 187560, Note_on_c, 0, 46, 100
1, 187668, Note_on_c, 0, 34, 0
1, 187680, Note_on_c, 0, 34, 100
1, 187680, Note_on_c, 0, 46, 0
1, 187680, Note_on_c, 0, 74, 100
1, 187680, Note_on_c, 0, 82, 100
1, 187770, Note_on_c, 0, 74, 0
1, 187770, Note_on_c, 0, 82, 0
1, 187800, Note_on_c, 0, 46, 100
1, 187908, Note_on_c, 0, 34, 0
1, 187920, Note_on_c, 0, 34, 100
1, 187920, Note_on_c, 0, 46, 0
1, 187920, Note_on_c, 0, 81, 100
1, 187920, Note_on_c, 0, 87, 100
1, 188010, Note_on_c, 0, 81, 0
1, 188010, Note_on_c, 0, 87, 0
1, 188040, Note_on_c, 0, 46, 100
1, 188148, Note_on_c, 0, 34, 0
1, 188160, Note_on_c, 0, 34, 100
1, 188160, Note_on_c, 0, 46, 0
1, 188160, Note_on_c, 0, 82, 100
1, 188160, Note_on_c, 0, 86, 100
1, 188250, Note_on_c, 0, 82, 0
1, 188250, Note_on_c, 0, 86, 0
1, 188280, Note_on_c, 0, 46, 100
1, 188388, Note_on_c, 0, 34, 0
1, 188400, Note_on_c, 0, 34, 100
1, 188400, Note_on_c, 0, 46, 0
1, 188400, Note_on_c, 0, 81, 100
1, 188400, Note_on_c, 0, 87, 100
1, 188490, Note_on_c, 0, 81, 0
1, 188490, Note_on_c, 0, 87, 0
1, 188520, Note_on_c, 0, 46, 100
1, 188628, Note_on_c, 0, 34, 0
1, 188640, Note_on_c, 0, 34, 100
1, 188640, Note_on_c, 0, 46, 0
1, 188640, Note_on_c, 0, 82, 100
1, 188640, Note_on_c, 0, 86, 100
1, 188760, Note_on_c, 0, 46, 100
1, 188760, Note_on_c, 0, 82, 0
1, 188760, Note_on_c, 0, 86, 0
1, 188868, Note_on_c, 0, 34, 0
1, 188880, Note_on_c, 0, 34, 100
1, 188880, Note_on_c, 0, 46, 0
1, 189000, Note_on_c, 0, 46, 100
1, 189108, Note_on_c, 0, 34, 0
1, 189120, Note_on_c, 0, 34, 100
1, 189120, Note_on_c, 0, 46, 0
1, 189120, Note_on_c, 0, 75, 100
1, 189120, Note_on_c, 0, 81, 100
1, 189240, Note_on_c, 0, 46, 100
1, 189348, Note_on_c, 0, 34, 0
1, 189360, Note_on_c, 0, 34, 100
1, 189360, Note_on_c, 0, 46, 0
1, 189480, Note_on_c, 0, 46, 100
1, 189588, Note_on_c, 0, 34, 0
1, 189600, Note_on_c, 0, 34, 100
1, 189600, Note_on_c, 0, 46, 0
1, 189600, Note_on_c, 0, 74, 100
1, 189600, Note_on_c, 0, 75, 0
1, 189600, Note_on_c, 0, 81, 0
1, 189600, Note_on_c, 0, 82, 100
1, 189720, Note_on_c, 0, 46, 100
1, 189828, Note_on_c, 0, 34, 0
1, 189840, Note_on_c, 0, 34, 100
1, 189840, Note_on_c, 0, 46, 0
1, 189840, Note_on_c, 0, 74, 0
1, 189840, Note_on_c, 0, 82, 0
1, 189960, Note_on_c, 0, 46, 100
1, 190068, Note_on_c, 0, 34, 0
1, 190080, Note_on_c, 0, 34, 100
1, 190080, Note_on_c, 0, 46, 0
1, 190080, Note_on_c, 0, 69, 100
1, 190080, Note_on_c, 0, 75, 100
1, 190200, Note_on_c, 0, 46, 100
1, 190308, Note_on_c, 0, 34, 0
1, 190320, Note_on_c, 0, 34, 100
1, 190320, Note_on_c, 0, 46, 0
1, 190440, Note_on_c, 0, 46, 100
1, 190548, Note_on_c, 0, 34, 0
1, 190560, Note_on_c, 0, 34, 100
1, 190560, Note_on_c, 0, 46, 0
1, 190560, Note_on_c, 0, 69, 0
1, 190560, Note_on_c, 0, 70, 100
1, 190560, Note_on_c, 0, 74, 100
1, 190560, Note_on_c, 0, 75, 0
1, 190680, Note_on_c, 0, 46, 100
1, 190788, Note_on_c, 0, 34, 0
1, 190800, Note_on_c, 0, 34, 100
1, 190800, Note_on_c, 0, 46, 0
1, 190800, Note_on_c, 0, 70, 0
1, 190800, Note_on_c, 0, 74, 0
1, 190920, Note_on_c, 0, 46, 100
1, 191028, Note_on_c, 0, 34, 0
1, 191040, Note_on_c, 0, 34, 100
1, 191040, Note_on_c, 0, 46, 0
1, 191040, Note_on_c, 0, 63, 100
1, 191040, Note_on_c, 0, 69, 100
1, 191160, Note_on_c, 0, 46, 100
1, 191268, Note_on_c, 0, 34, 0
1, 191280, Note_on_c, 0, 34, 100
1, 191280, Note_on_c, 0, 46, 0
1, 191400, Note_on_c, 0, 46, 100
1, 191508, Note_on_c, 0, 34, 0
1, 191520, Note_on_c, 0, 34, 100
1, 191520, Note_on_c, 0, 46, 0
1, 191520, Note_on_c, 0, 62, 100
1, 191520, Note_on_c, 0, 63, 0
1, 191520, Note_on_c, 0, 69, 0
1, 191520, Note_on_c, 0, 70, 100
1, 191640, Note_on_c, 0, 46, 100
1, 191748, Note_on_c, 0, 34, 0
1, 191760, Note_on_c, 0, 34, 100
1, 191760, Note_on_c, 0, 46, 0
1, 191760, Note_on_c, 0, 62, 0
1, 191760, Note_on_c, 0, 70, 0
1, 191880, Note_on_c, 0, 46, 100
1, 191988, Note_on_c, 0, 34, 0
1, 192000, Note_on_c, 0, 34, 100
1, 192000, Note_on_c, 0, 46, 0
1, 192000, Note_on_c, 0, 57, 100
1, 192000, Note_on_c, 0, 63, 100
1, 192120, Note_on_c, 0, 46, 100
1, 192228, Note_on_c, 0, 34, 0
1, 192240, Note_on_c, 0, 34, 100
1, 192240, Note_on_c, 0, 46, 0
1, 192360, Note_on_c, 0, 46, 100
1, 192468, Note_on_c, 0, 34, 0
1, 192480, Note_on_c, 0, 34, 100
1, 192480, Note_on_c, 0, 46, 0
1, 192480, Note_on_c, 0, 46, 100
1, 192480, Note_on_c, 0, 57, 0
1, 192480, Note_on_c, 0, 58, 100
1, 192480, Note_on_c, 0, 62, 100
1, 192480, Note_on_c, 0, 63, 0
1, 192720, Note_on_c, 0, 34, 0
1, 192720, Note_on_c, 0, 46, 0
1, 192720, Note_on_c, 0, 57, 100
1, 192720, Note_on_c, 0, 58, 0
1, 192720, Note_on_c, 0, 62, 0
1, 192960, Note_on_c, 0, 57, 0
1, 192960, Note_on_c, 0, 58, 100
1, 193200, Note_on_c, 0, 57, 100
1, 193200, Note_on_c, 0, 58, 0
1, 193440, Note_on_c, 0, 57, 0
1, 193440, Note_on_c, 0, 58, 100
1, 193680, Note_on_c, 0, 57, 100
1, 193680, Note_on_c, 0, 58, 0
1, 193920, Note_on_c, 0, 57, 0
1, 193920, Note_on_c, 0, 58, 100
1, 194160, Note_on_c, 0, 57, 100
1, 194160, Note_on_c, 0, 58, 0
1, 194400, Note_on_c, 0, 57, 0
1, 194400, Note_on_c, 0, 58, 100
1, 194640, Note_on_c, 0, 46, 100
1, 194640, Note_on_c, 0, 63, 100
1, 194640, Note_on_c, 0, 66, 100
1, 194760, Note_on_c, 0, 46, 0
1, 194868, Note_on_c, 0, 63, 0
1, 194868, Note_on_c, 0, 66, 0
1, 194880, Note_on_c, 0, 51, 100
1, 194880, Note_on_c, 0, 63, 100
1, 194880, Note_on_c, 0, 66, 100
1, 195000, Note_on_c, 0, 51, 0
1, 195108, Note_on_c, 0, 63, 0
1, 195108, Note_on_c, 0, 66, 0
1, 195120, Note_on_c, 0, 53, 100
1, 195120, Note_on_c, 0, 63, 100
1, 195120, Note_on_c, 0, 66, 100
1, 195240, Note_on_c, 0, 53, 0
1, 195348, Note_on_c, 0, 63, 0
1, 195348, Note_on_c, 0, 66, 0
1, 195360, Note_on_c, 0, 54, 100
1, 195360, Note_on_c, 0, 58, 0
1, 195360, Note_on_c, 0, 58, 100
1, 195480, Note_on_c, 0, 54, 0
1, 195600, Note_on_c, 0, 63, 100
1, 195600, Note_on_c, 0, 66, 100
1, 195600, Note_on_c, 0, 70, 100
1, 195720, Note_on_c, 0, 70, 0
1, 195828, Note_on_c, 0, 63, 0
1, 195828, Note_on_c, 0, 66, 0
1, 195840, Note_on_c, 0, 63, 100
1, 195840, Note_on_c, 0, 66, 100
1, 195840, Note_on_c, 0, 75, 100
1, 195960, Note_on_c, 0, 75, 0
1, 196068, Note_on_c, 0, 63, 0
1, 196068, Note_on_c, 0, 66, 0
1, 196080, Note_on_c, 0, 63, 100
1, 196080, Note_on_c, 0, 66, 100
1, 196080, Note_on_c, 0, 77, 100
1, 196200, Note_on_c, 0, 77, 0
1, 196260, Note_on_c, 0, 70, 100
1, 196320, Note_on_c, 0, 58, 0
1, 196320, Note_on_c, 0, 58, 100
1, 196320, Note_on_c, 0, 63, 0
1, 196320, Note_on_c, 0, 66, 0
1, 196320, Note_on_c, 0, 70, 0
1, 196320, Note_on_c, 0, 78, 100
1, 196560, Note_on_c, 0, 63, 100
1, 196560, Note_on_c, 0, 66, 100
1, 196788, Note_on_c, 0, 63, 0
1, 196788, Note_on_c, 0, 66, 0
1, 196800, Note_on_c, 0, 63, 100
1, 196800, Note_on_c, 0, 66, 100
1, 197028, Note_on_c, 0, 63, 0
1, 197028, Note_on_c, 0, 66, 0
1, 197040, Note_on_c, 0, 63, 100
1, 197040, Note_on_c, 0, 66, 100
1, 197040, Note_on_c, 0, 75, 100
1, 197040, Note_on_c, 0, 78, 0
1, 197220, Note_on_c, 0, 70, 100
1, 197268, Note_on_c, 0, 63, 0
1, 197268, Note_on_c, 0, 66, 0
1, 197280, Note_on_c, 0, 58, 0
1, 197280, Note_on_c, 0, 58, 100
1, 197280, Note_on_c, 0, 70, 0
1, 197280, Note_on_c, 0, 75, 0
1, 197280, Note_on_c, 0, 78, 100
1, 197520, Note_on_c, 0, 63, 100
1, 197520, Note_on_c, 0, 66, 100
1, 197748, Note_on_c, 0, 63, 0
1, 197748, Note_on_c, 0, 66, 0
1, 197760, Note_on_c, 0, 63, 100
1, 197760, Note_on_c, 0, 66, 100
1, 197988, Note_on_c, 0, 63, 0
1, 197988, Note_on_c, 0, 66, 0
1, 198000, Note_on_c, 0, 63, 100
1, 198000, Note_on_c, 0, 66, 100
1, 198000, Note_on_c, 0, 75, 100
1, 198000, Note_on_c, 0, 78, 0
1, 198228, Note_on_c, 0, 63, 0
1, 198228, Note_on_c, 0, 66, 0
1, 198240, Note_on_c, 0, 58, 0
1, 198240, Note_on_c, 0, 58, 100
1, 198240, Note_on_c, 0, 74, 100
1, 198240, Note_on_c, 0, 75, 0
1, 198480, Note_on_c, 0, 46, 100
1, 198480, Note_on_c, 0, 65, 100
1, 198480, Note_on_c, 0, 68, 100
1, 198480, Note_on_c, 0, 74, 0
1, 198600, Note_on_c, 0, 46, 0
1, 198708, Note_on_c, 0, 65, 0
1, 198708, Note_on_c, 0, 68, 0
1, 198720, Note_on_c, 0, 53, 100
1, 198720, Note_on_c, 0, 65, 100
1, 198720, Note_on_c, 0, 68, 100
1, 198840, Note_on_c, 0, 53, 0
1, 198948, Note_on_c, 0, 65, 0
1, 198948, Note_on_c, 0, 68, 0
1, 198960, Note_on_c, 0, 54, 100
1, 198960, Note_on_c, 0, 65, 100
1, 198960, Note_on_c, 0, 68, 100
1, 199080, Note_on_c, 0, 54, 0
1, 199188, Note_on_c, 0, 65, 0
1, 199188, Note_on_c, 0, 68, 0
1, 199200, Note_on_c, 0, 56, 100
1, 199200, Note_on_c, 0, 58, 0
1, 199200, Note_on_c, 0, 58, 100
1, 199320, Note_on_c, 0, 56, 0
1, 199440, Note_on_c, 0, 65, 100
1, 199440, Note_on_c, 0, 68, 100
1, 199440, Note_on_c, 0, 70, 100
1, 199668, Note_on_c, 0, 65, 0
1, 199668, Note_on_c, 0, 68, 0
1, 199680, Note_on_c, 0, 65, 100
1, 199680, Note_on_c, 0, 68, 100
1, 199680, Note_on_c, 0, 70, 0
1, 199680, Note_on_c, 0, 80, 100
1, 199908, Note_on_c, 0, 65, 0
1, 199908, Note_on_c, 0, 68, 0
1, 199920, Note_on_c, 0, 65, 100
1, 199920, Note_on_c, 0, 68, 100
1, 199920, Note_on_c, 0, 78, 100
1, 199920, Note_on_c, 0, 80, 0
1, 200148, Note_on_c, 0, 65, 0
1, 200148, Note_on_c, 0, 68, 0
1, 200160, Note_on_c, 0, 58, 0
1, 200160, Note_on_c, 0, 58, 100
1, 200160, Note_on_c, 0, 78, 0
1, 200160, Note_on_c, 0, 78, 100
1, 200220, Note_on_c, 0, 78, 0
1, 200220, Note_on_c, 0, 80, 100
1, 200280, Note_on_c, 0, 78, 100
1, 200280, Note_on_c, 0, 80, 0
1, 200400, Note_on_c, 0, 65, 100
1, 200400, Note_on_c, 0, 68, 100
1, 200400, Note_on_c, 0, 77, 100
1, 200400, Note_on_c, 0, 78, 0
1, 200628, Note_on_c, 0, 65, 0
1, 200628, Note_on_c, 0, 68, 0
1, 200640, Note_on_c, 0, 65, 100
1, 200640, Note_on_c, 0, 68, 100
1, 200640, Note_on_c, 0, 77, 0
1, 200640, Note_on_c, 0, 77, 100
1, 200700, Note_on_c, 0, 77, 0
1, 200700, Note_on_c, 0, 78, 100
1, 200760, Note_on_c, 0, 77, 100
1, 200760, Note_on_c, 0, 78, 0
1, 200868, Note_on_c, 0, 65, 0
1, 200868, Note_on_c, 0, 68, 0
1, 200880, Note_on_c, 0, 65, 100
1, 200880, Note_on_c, 0, 68, 100
1, 200880, Note_on_c, 0, 75, 100
1, 200880, Note_on_c, 0, 77, 0
1, 201108, Note_on_c, 0, 65, 0
1, 201108, Note_on_c, 0, 68, 0
1, 201120, Note_on_c, 0, 58, 0
1, 201120, Note_on_c, 0, 58, 100
1, 201120, Note_on_c, 0, 75, 0
1, 201120, Note_on_c, 0, 75, 100
1, 201180, Note_on_c, 0, 75, 0
1, 201180, Note_on_c, 0, 77, 100
1, 201240, Note_on_c, 0, 75, 100
1, 201240, Note_on_c, 0, 77, 0
1, 201360, Note_on_c, 0, 65, 100
1, 201360, Note_on_c, 0, 68, 100
1, 201360, Note_on_c, 0, 74, 100
1, 201360, Note_on_c, 0, 75, 0
1, 201588, Note_on_c, 0, 65, 0
1, 201588, Note_on_c, 0, 68, 0
1, 201600, Note_on_c, 0, 65, 100
1, 201600, Note_on_c, 0, 68, 100
1, 201600, Note_on_c, 0, 72, 100
1, 201600, Note_on_c, 0, 74, 0
1, 201720, Note_on_c, 0, 72, 0
1, 201828, Note_on_c, 0, 65, 0
1, 201828, Note_on_c, 0, 68, 0
1, 201840, Note_on_c, 0, 65, 100
1, 201840, Note_on_c, 0, 68, 100
1, 201840, Note_on_c, 0, 74, 100
1, 201960, Note_on_c, 0, 74, 0
1, 202068, Note_on_c, 0, 65, 0
1, 202068, Note_on_c, 0, 68, 0
1, 202080, Note_on_c, 0, 58, 0
1, 202080, Note_on_c, 0, 58, 100
1, 202080, Note_on_c, 0, 75, 100
1, 202320, Note_on_c, 0, 46, 100
1, 202320, Note_on_c, 0, 63, 100
1, 202320, Note_on_c, 0, 66, 100
1, 202320, Note_on_c, 0, 75, 0
1, 202440, Note_on_c, 0, 46, 0
1, 202548, Note_on_c, 0, 63, 0
1, 202548, Note_on_c, 0, 66, 0
1, 202560, Note_on_c, 0, 51, 100
1, 202560, Note_on_c, 0, 63, 100
1, 202560, Note_on_c, 0, 66, 100
1, 202680, Note_on_c, 0, 51, 0
1, 202788, Note_on_c, 0, 63, 0
1, 202788, Note_on_c, 0, 66, 0
1, 202800, Note_on_c, 0, 53, 100
1, 202800, Note_on_c, 0, 63, 100
1, 202800, Note_on_c, 0, 66, 100
1, 202920, Note_on_c, 0, 53, 0
1, 203028, Note_on_c, 0, 63, 0
1, 203028, Note_on_c, 0, 66, 0
1, 203040, Note_on_c, 0, 54, 100
1, 203040, Note_on_c, 0, 58, 0
1, 203040, Note_on_c, 0, 58, 100
1, 203160, Note_on_c, 0, 54, 0
1, 203280, Note_on_c, 0, 63, 100
1, 203280, Note_on_c, 0, 66, 100
1, 203280, Note_on_c, 0, 70, 100
1, 203400, Note_on_c, 0, 70, 0
1, 203508, Note_on_c, 0, 63, 0
1, 203508, Note_on_c, 0, 66, 0
1, 203520, Note_on_c, 0, 63, 100
1, 203520, Note_on_c, 0, 66, 100
1, 203520, Note_on_c, 0, 75, 100
1, 203640, Note_on_c, 0, 75, 0
1, 203748, Note_on_c, 0, 63, 0
1, 203748, Note_on_c, 0, 66, 0
1, 203760, Note_on_c, 0, 63, 100
1, 203760, Note_on_c, 0, 66, 100
1, 203760, Note_on_c, 0, 77, 100
1, 203880, Note_on_c, 0, 77, 0
1, 203940, Note_on_c, 0, 70, 100
1, 203988, Note_on_c, 0, 63, 0
1, 203988, Note_on_c, 0, 66, 0
1, 204000, Note_on_c, 0, 58, 0
1, 204000, Note_on_c, 0, 58, 100
1, 204000, Note_on_c, 0, 70, 0
1, 204000, Note_on_c, 0, 78, 100
1, 204240, Note_on_c, 0, 63, 100
1, 204240, Note_on_c, 0, 66, 100
1, 204468, Note_on_c, 0, 63, 0
1, 204468, Note_on_c, 0, 66, 0
1, 204480, Note_on_c, 0, 63, 100
1, 204480, Note_on_c, 0, 66, 100
1, 204708, Note_on_c, 0, 63, 0
1, 204708, Note_on_c, 0, 66, 0
1, 204720, Note_on_c, 0, 63, 100
1, 204720, Note_on_c, 0, 66, 100
1, 204720, Note_on_c, 0, 75, 100
1, 204720, Note_on_c, 0, 78, 0
1, 204900, Note_on_c, 0, 70, 100
1, 204948, Note_on_c, 0, 63, 0
1, 204948, Note_on_c, 0, 66, 0
1, 204960, Note_on_c, 0, 58, 0
1, 204960, Note_on_c, 0, 58, 100
1, 204960, Note_on_c, 0, 70, 0
1, 204960, Note_on_c, 0, 75, 0
1, 204960, Note_on_c, 0, 78, 100
1, 205200, Note_on_c, 0, 63, 100
1, 205200, Note_on_c, 0, 66, 100
1, 205428, Note_on_c, 0, 63, 0
1, 205428, Note_on_c, 0, 66, 0
1, 205440, Note_on_c, 0, 63, 100
1, 205440, Note_on_c, 0, 66, 100
1, 205668, Note_on_c, 0, 63, 0
1, 205668, Note_on_c, 0, 66, 0
1, 205680, Note_on_c, 0, 63, 100
1, 205680, Note_on_c, 0, 66, 100
1, 205680, Note_on_c, 0, 75, 100
1, 205680, Note_on_c, 0, 78, 0
1, 205908, Note_on_c, 0, 63, 0
1, 205908, Note_on_c, 0, 66, 0
1, 205920, Note_on_c, 0, 56, 100
1, 205920, Note_on_c, 0, 58, 0
1, 205920, Note_on_c, 0, 72, 100
1, 205920, Note_on_c, 0, 75, 0
1, 206160, Note_on_c, 0, 44, 100
1, 206160, Note_on_c, 0, 63, 100
1, 206160, Note_on_c, 0, 66, 100
1, 206160, Note_on_c, 0, 72, 0
1, 206280, Note_on_c, 0, 44, 0
1, 206388, Note_on_c, 0, 63, 0
1, 206388, Note_on_c, 0, 66, 0
1, 206400, Note_on_c, 0, 51, 100
1, 206400, Note_on_c, 0, 63, 100
1, 206400, Note_on_c, 0, 66, 100
1, 206520, Note_on_c, 0, 51, 0
1, 206628, Note_on_c, 0, 63, 0
1, 206628, Note_on_c, 0, 66, 0
1, 206640, Note_on_c, 0, 53, 100
1, 206640, Note_on_c, 0, 63, 100
1, 206640, Note_on_c, 0, 66, 100
1, 206760, Note_on_c, 0, 53, 0
1, 206868, Note_on_c, 0, 63, 0
1, 206868, Note_on_c, 0, 66, 0
1, 206880, Note_on_c, 0, 54, 100
1, 206880, Note_on_c, 0, 56, 0
1, 206880, Note_on_c, 0, 56, 100
1, 207000, Note_on_c, 0, 54, 0
1, 207120, Note_on_c, 0, 63, 100
1, 207120, Note_on_c, 0, 66, 100
1, 207120, Note_on_c, 0, 68, 100
1, 207348, Note_on_c, 0, 63, 0
1, 207348, Note_on_c, 0, 66, 0
1, 207360, Note_on_c, 0, 63, 100
1, 207360, Note_on_c, 0, 66, 100
1, 207360, Note_on_c, 0, 68, 0
1, 207360, Note_on_c, 0, 78, 100
1, 207588, Note_on_c, 0, 63, 0
1, 207588, Note_on_c, 0, 66, 0
1, 207600, Note_on_c, 0, 63, 100
1, 207600, Note_on_c, 0, 66, 100
1, 207600, Note_on_c, 0, 77, 100
1, 207600, Note_on_c, 0, 78, 0
1, 207828, Note_on_c, 0, 63, 0
1, 207828, Note_on_c, 0, 66, 0
1, 207840, Note_on_c, 0, 56, 0
1, 207840, Note_on_c, 0, 56, 100
1, 207840, Note_on_c, 0, 77, 0
1, 207840, Note_on_c, 0, 77, 100
1, 207900, Note_on_c, 0, 77, 0
1, 207900, Note_on_c, 0, 78, 100
1, 207960, Note_on_c, 0, 77, 100
1, 207960, Note_on_c, 0, 78, 0
1, 208080, Note_on_c, 0, 63, 100
1, 208080, Note_on_c, 0, 66, 100
1, 208080, Note_on_c, 0, 75, 100
1, 208080, Note_on_c, 0, 77, 0
1, 208308, Note_on_c, 0, 63, 0
1, 208308, Note_on_c, 0, 66, 0
1, 208320, Note_on_c, 0, 63, 100
1, 208320, Note_on_c, 0, 66, 100
1, 208320, Note_on_c, 0, 75, 0
1, 208320, Note_on_c, 0, 75, 100
1, 208380, Note_on_c, 0, 75, 0
1, 208380, Note_on_c, 0, 77, 100
1, 208440, Note_on_c, 0, 75, 100
1, 208440, Note_on_c, 0, 77, 0
1, 208548, Note_on_c, 0, 63, 0
1, 208548, Note_on_c, 0, 66, 0
1, 208560, Note_on_c, 0, 63, 100
1, 208560, Note_on_c, 0, 66, 100
1, 208560, Note_on_c, 0, 73, 100
1, 208560, Note_on_c, 0, 75, 0
1, 208788, Note_on_c, 0, 63, 0
1, 208788, Note_on_c, 0, 66, 0
1, 208800, Note_on_c, 0, 56, 0
1, 208800, Note_on_c, 0, 56, 100
1, 208800, Note_on_c, 0, 73, 0
1, 208800, Note_on_c, 0, 73, 100
1, 208860, Note_on_c, 0, 73, 0
1, 208860, Note_on_c, 0, 75, 100
1, 208920, Note_on_c, 0, 73, 100
1, 208920, Note_on_c, 0, 75, 0
1, 209040, Note_on_c, 0, 63, 100
1, 209040, Note_on_c, 0, 66, 100
1, 209040, Note_on_c, 0, 72, 100
1, 209040, Note_on_c, 0, 73, 0
1, 209268, Note_on_c, 0, 63, 0
1, 209268, Note_on_c, 0, 66, 0
1, 209280, Note_on_c, 0, 63, 100
1, 209280, Note_on_c, 0, 66, 100
1, 209280, Note_on_c, 0, 70, 100
1, 209280, Note_on_c, 0, 72, 0
1, 209400, Note_on_c, 0, 70, 0
1, 209508, Note_on_c, 0, 63, 0
1, 209508, Note_on_c, 0, 66, 0
1, 209520, Note_on_c, 0, 63, 100
1, 209520, Note_on_c, 0, 66, 100
1, 209520, Note_on_c, 0, 72, 100
1, 209640, Note_on_c, 0, 72, 0
1, 209748, Note_on_c, 0, 63, 0
1, 209748, Note_on_c, 0, 66, 0
1, 209760, Note_on_c, 0, 56, 0
1, 209760, Note_on_c, 0, 56, 100
1, 209760, Note_on_c, 0, 73, 100
1, 210000, Note_on_c, 0, 44, 100
1, 210000, Note_on_c, 0, 61, 100
1, 210000, Note_on_c, 0, 65, 100
1, 210000, Note_on_c, 0, 73, 0
1, 210120, Note_on_c, 0, 44, 0
1, 210228, Note_on_c, 0, 61, 0
1, 210228, Note_on_c, 0, 65, 0
1, 210240, Note_on_c, 0, 49, 100
1, 210240, Note_on_c, 0, 61, 100
1, 210240, Note_on_c, 0, 65, 100
1, 210360, Note_on_c, 0, 49, 0
1, 210468, Note_on_c, 0, 61, 0
1, 210468, Note_on_c, 0, 65, 0
1, 210480, Note_on_c, 0, 51, 100
1, 210480, Note_on_c, 0, 61, 100
1, 210480, Note_on_c, 0, 65, 100
1, 210600, Note_on_c, 0, 51, 0
1, 210708, Note_on_c, 0, 61, 0
1, 210708, Note_on_c, 0, 65, 0
1, 210720, Note_on_c, 0, 53, 100
1, 210720, Note_on_c, 0, 56, 0
1, 210720, Note_on_c, 0, 56, 100
1, 210840, Note_on_c, 0, 53, 0
1, 210960, Note_on_c, 0, 61, 100
1, 210960, Note_on_c, 0, 65, 100
1, 210960, Note_on_c, 0, 68, 100
1, 211080, Note_on_c, 0, 68, 0
1, 211188, Note_on_c, 0, 61, 0
1, 211188, Note_on_c, 0, 65, 0
1, 211200, Note_on_c, 0, 61, 100
1, 211200, Note_on_c, 0, 65, 100
1, 211200, Note_on_c, 0, 73, 100
1, 211320, Note_on_c, 0, 73, 0
1, 211428, Note_on_c, 0, 61, 0
1, 211428, Note_on_c, 0, 65, 0
1, 211440, Note_on_c, 0, 61, 100
1, 211440, Note_on_c, 0, 65, 100
1, 211440, Note_on_c, 0, 75, 100
1, 211560, Note_on_c, 0, 75, 0
1, 211620, Note_on_c, 0, 68, 100
1, 211668, Note_on_c, 0, 61, 0
1, 211668, Note_on_c, 0, 65, 0
1, 211680, Note_on_c, 0, 56, 0
1, 211680, Note_on_c, 0, 56, 100
1, 211680, Note_on_c, 0, 68, 0
1, 211680, Note_on_c, 0, 77, 100
1, 211920, Note_on_c, 0, 61, 100
1, 211920, Note_on_c, 0, 65, 100
1, 212148, Note_on_c, 0, 61, 0
1, 212148, Note_on_c, 0, 65, 0
1, 212160, Note_on_c, 0, 61, 100
1, 212160, Note_on_c, 0, 65, 100
1, 212388, Note_on_c, 0, 61, 0
1, 212388, Note_on_c, 0, 65, 0
1, 212400, Note_on_c, 0, 61, 100
1, 212400, Note_on_c, 0, 65, 100
1, 212400, Note_on_c, 0, 73, 100
1, 212400, Note_on_c, 0, 77, 0
1, 212580, Note_on_c, 0, 68, 100
1, 212628, Note_on_c, 0, 61, 0
1, 212628, Note_on_c, 0, 65, 0
1, 212640, Note_on_c, 0, 56, 0
1, 212640, Note_on_c, 0, 56, 100
1, 212640, Note_on_c, 0, 68, 0
1, 212640, Note_on_c, 0, 73, 0
1, 212640, Note_on_c, 0, 77, 100
1, 212880, Note_on_c, 0, 61, 100
1, 212880, Note_on_c, 0, 65, 100
1, 213108, Note_on_c, 0, 61, 0
1, 213108, Note_on_c, 0, 65, 0
1, 213120, Note_on_c, 0, 61, 100
1, 213120, Note_on_c, 0, 65, 100
1, 213348, Note_on_c, 0, 61, 0
1, 213348, Note_on_c, 0, 65, 0
1, 213360, Note_on_c, 0, 61, 100
1, 213360, Note_on_c, 0, 65, 100
1, 213360, Note_on_c, 0, 73, 100
1, 213360, Note_on_c, 0, 77, 0
1, 213588, Note_on_c, 0, 61, 0
1, 213588, Note_on_c, 0, 65, 0
1, 213600, Note_on_c, 0, 56, 0
1, 213600, Note_on_c, 0, 56, 100
1, 213600, Note_on_c, 0, 72, 100
1, 213600, Note_on_c, 0, 73, 0
1, 213840, Note_on_c, 0, 44, 100
1, 213840, Note_on_c, 0, 63, 100
1, 213840, Note_on_c, 0, 66, 100
1, 213840, Note_on_c, 0, 72, 0
1, 213960, Note_on_c, 0, 44, 0
1, 214068, Note_on_c, 0, 63, 0
1, 214068, Note_on_c, 0, 66, 0
1, 214080, Note_on_c, 0, 51, 100
1, 214080, Note_on_c, 0, 63, 100
1, 214080, Note_on_c, 0, 66, 100
1, 214200, Note_on_c, 0, 51, 0
1, 214308, Note_on_c, 0, 63, 0
1, 214308, Note_on_c, 0, 66, 0
1, 214320, Note_on_c, 0, 53, 100
1, 214320, Note_on_c, 0, 63, 100
1, 214320, Note_on_c, 0, 66, 100
1, 214440, Note_on_c, 0, 53, 0
1, 214548, Note_on_c, 0, 63, 0
1, 214548, Note_on_c, 0, 66, 0
1, 214560, Note_on_c, 0, 54, 100
1, 214560, Note_on_c, 0, 56, 0
1, 214560, Note_on_c, 0, 56, 100
1, 214680, Note_on_c, 0, 54, 0
1, 214800, Note_on_c, 0, 63, 100
1, 214800, Note_on_c, 0, 66, 100
1, 214800, Note_on_c, 0, 68, 100
1, 215028, Note_on_c, 0, 63, 0
1, 215028, Note_on_c, 0, 66, 0
1, 215040, Note_on_c, 0, 63, 100
1, 215040, Note_on_c, 0, 66, 100
1, 215040, Note_on_c, 0, 68, 0
1, 215040, Note_on_c, 0, 78, 100
1, 215268, Note_on_c, 0, 63, 0
1, 215268, Note_on_c, 0, 66, 0
1, 215280, Note_on_c, 0, 63, 100
1, 215280, Note_on_c, 0, 66, 100
1, 215280, Note_on_c, 0, 77, 100
1, 215280, Note_on_c, 0, 78, 0
1, 215508, Note_on_c, 0, 63, 0
1, 215508, Note_on_c, 0, 66, 0
1, 215520, Note_on_c, 0, 56, 0
1, 215520, Note_on_c, 0, 56, 100
1, 215520, Note_on_c, 0, 77, 0
1, 215520, Note_on_c, 0, 77, 100
1, 215580, Note_on_c, 0, 77, 0
1, 215580, Note_on_c, 0, 78, 100
1, 215640, Note_on_c, 0, 77, 100
1, 215640, Note_on_c, 0, 78, 0
1, 215760, Note_on_c, 0, 63, 100
1, 215760, Note_on_c, 0, 66, 100
1, 215760, Note_on_c, 0, 75, 100
1, 215760, Note_on_c, 0, 77, 0
1, 215988, Note_on_c, 0, 63, 0
1, 215988, Note_on_c, 0, 66, 0
1, 216000, Note_on_c, 0, 63, 100
1, 216000, Note_on_c, 0, 66, 100
1, 216000, Note_on_c, 0, 75, 0
1, 216000, Note_on_c, 0, 75, 100
1, 216060, Note_on_c, 0, 75, 0
1, 216060, Note_on_c, 0, 77, 100
1, 216120, Note_on_c, 0, 75, 100
1, 216120, Note_on_c, 0, 77, 0
1, 216228, Note_on_c, 0, 63, 0
1, 216228, Note_on_c, 0, 66, 0
1, 216240, Note_on_c, 0, 63, 100
1, 216240, Note_on_c, 0, 66, 100
1, 216240, Note_on_c, 0, 73, 100
1, 216240, Note_on_c, 0, 75, 0
1, 216468, Note_on_c, 0, 63, 0
1, 216468, Note_on_c, 0, 66, 0
1, 216480, Note_on_c, 0, 56, 0
1, 216480, Note_on_c, 0, 56, 100
1, 216480, Note_on_c, 0, 73, 0
1, 216480, Note_on_c, 0, 73, 100
1, 216540, Note_on_c, 0, 73, 0
1, 216540, Note_on_c, 0, 75, 100
1, 216600, Note_on_c, 0, 73, 100
1, 216600, Note_on_c, 0, 75, 0
1, 216720, Note_on_c, 0, 63, 100
1, 216720, Note_on_c, 0, 66, 100
1, 216720, Note_on_c, 0, 72, 100
1, 216720, Note_on_c, 0, 73, 0
1, 216948, Note_on_c, 0, 63, 0
1, 216948, Note_on_c, 0, 66, 0
1, 216960, Note_on_c, 0, 63, 100
1, 216960, Note_on_c, 0, 66, 100
1, 216960, Note_on_c, 0, 70, 100
1, 216960, Note_on_c, 0, 72, 0
1, 217080, Note_on_c, 0, 70, 0
1, 217188, Note_on_c, 0, 63, 0
1, 217188, Note_on_c, 0, 66, 0
1, 217200, Note_on_c, 0, 63, 100
1, 217200, Note_on_c, 0, 66, 100
1, 217200, Note_on_c, 0, 72, 100
1, 217320, Note_on_c, 0, 72, 0
1, 217428, Note_on_c, 0, 63, 0
1, 217428, Note_on_c, 0, 66, 0
1, 217440, Note_on_c, 0, 56, 0
1, 217440, Note_on_c, 0, 61, 100
1, 217440, Note_on_c, 0, 73, 100
1, 217680, Note_on_c, 0, 49, 100
1, 217680, Note_on_c, 0, 65, 100
1, 217680, Note_on_c, 0, 68, 100
1, 217680, Note_on_c, 0, 73, 0
1, 217920, Note_on_c, 0, 49, 0
1, 217920, Note_on_c, 0, 56, 100
1, 217920, Note_on_c, 0, 59, 100
1, 217920, Note_on_c, 0, 61, 0
1, 217920, Note_on_c, 0, 65, 0
1, 217920, Note_on_c, 0, 68, 0
1, 218160, Note_on_c, 0, 47, 100
1, 218160, Note_on_c, 0, 56, 0
1, 218160, Note_on_c, 0, 65, 100
1, 218160, Note_on_c, 0, 68, 100
1, 218280, Note_on_c, 0, 47, 0
1, 218400, Note_on_c, 0, 46, 100
1, 218400, Note_on_c, 0, 58, 100
1, 218400, Note_on_c, 0, 59, 0
1, 218400, Note_on_c, 0, 65, 0
1, 218400, Note_on_c, 0, 68, 0
1, 218520, Note_on_c, 0, 46, 0
1, 218640, Note_on_c, 0, 65, 100
1, 218640, Note_on_c, 0, 68, 100
1, 218640, Note_on_c, 0, 70, 100
1, 218868, Note_on_c, 0, 65, 0
1, 218868, Note_on_c, 0, 68, 0
1, 218880, Note_on_c, 0, 65, 100
1, 218880, Note_on_c, 0, 68, 100
1, 218880, Note_on_c, 0, 70, 0
1, 218880, Note_on_c, 0, 80, 100
1, 219108, Note_on_c, 0, 65, 0
1, 219108, Note_on_c, 0, 68, 0
1, 219120, Note_on_c, 0, 65, 100
1, 219120, Note_on_c, 0, 68, 100
1, 219120, Note_on_c, 0, 78, 100
1, 219120, Note_on_c, 0, 80, 0
1, 219348, Note_on_c, 0, 65, 0
1, 219348, Note_on_c, 0, 68, 0
1, 219360, Note_on_c, 0, 58, 0
1, 219360, Note_on_c, 0, 58, 100
1, 219360, Note_on_c, 0, 78, 0
1, 219360, Note_on_c, 0, 78, 100
1, 219420, Note_on_c, 0, 78, 0
1, 219420, Note_on_c, 0, 80, 100
1, 219480, Note_on_c, 0, 78, 100
1, 219480, Note_on_c, 0, 80, 0
1, 219600, Note_on_c, 0, 65, 100
1, 219600, Note_on_c, 0, 68, 100
1, 219600, Note_on_c, 0, 77, 100
1, 219600, Note_on_c, 0, 78, 0
1, 219828, Note_on_c, 0, 65, 0
1, 219828, Note_on_c, 0, 68, 0
1, 219840, Note_on_c, 0, 65, 100
1, 219840, Note_on_c, 0, 68, 100
1, 219840, Note_on_c, 0, 77, 0
1, 219840, Note_on_c, 0, 77, 100
1, 219900, Note_on_c, 0, 77, 0
1, 219900, Note_on_c, 0, 78, 100
1, 219960, Note_on_c, 0, 77, 100
1, 219960, Note_on_c, 0, 78, 0
1, 220068, Note_on_c, 0, 65, 0
1, 220068, Note_on_c, 0, 68, 0
1, 220080, Note_on_c, 0, 65, 100
1, 220080, Note_on_c, 0, 68, 100
1, 220080, Note_on_c, 0, 75, 100
1, 220080, Note_on_c, 0, 77, 0
1, 220308, Note_on_c, 0, 65, 0
1, 220308, Note_on_c, 0, 68, 0
1, 220320, Note_on_c, 0, 58, 0
1, 220320, Note_on_c, 0, 58, 100
1, 220320, Note_on_c, 0, 75, 0
1, 220320, Note_on_c, 0, 75, 100
1, 220380, Note_on_c, 0, 75, 0
1, 220380, Note_on_c, 0, 77, 100
1, 220440, Note_on_c, 0, 75, 100
1, 220440, Note_on_c, 0, 77, 0
1, 220560, Note_on_c, 0, 65, 100
1, 220560, Note_on_c, 0, 68, 100
1, 220560, Note_on_c, 0, 74, 100
1, 220560, Note_on_c, 0, 75, 0
1, 220788, Note_on_c, 0, 65, 0
1, 220788, Note_on_c, 0, 68, 0
1, 220800, Note_on_c, 0, 65, 100
1, 220800, Note_on_c, 0, 68, 100
1, 220800, Note_on_c, 0, 72, 100
1, 220800, Note_on_c, 0, 74, 0
1, 220920, Note_on_c, 0, 72, 0
1, 221028, Note_on_c, 0, 65, 0
1, 221028, Note_on_c, 0, 68, 0
1, 221040, Note_on_c, 0, 65, 100
1, 221040, Note_on_c, 0, 68, 100
1, 221040, Note_on_c, 0, 74, 100
1, 221160, Note_on_c, 0, 74, 0
1, 221268, Note_on_c, 0, 65, 0
1, 221268, Note_on_c, 0, 68, 0
1, 221280, Note_on_c, 0, 58, 0
1, 221280, Note_on_c, 0, 63, 100
1, 221280, Note_on_c, 0, 75, 100
1, 221520, Note_on_c, 0, 51, 100
1, 221520, Note_on_c, 0, 66, 100
1, 221520, Note_on_c, 0, 70, 100
1, 221520, Note_on_c, 0, 75, 0
1, 221760, Note_on_c, 0, 51, 0
1, 221760, Note_on_c, 0, 58, 100
1, 221760, Note_on_c, 0, 61, 100
1, 221760, Note_on_c, 0, 63, 0
1, 221760, Note_on_c, 0, 66, 0
1, 221760, Note_on_c, 0, 70, 0
1, 222000, Note_on_c, 0, 49, 100
1, 222000, Note_on_c, 0, 58, 0
1, 222000, Note_on_c, 0, 65, 100
1, 222000, Note_on_c, 0, 70, 100
1, 222120, Note_on_c, 0, 49, 0
1, 222240, Note_on_c, 0, 48, 100
1, 222240, Note_on_c, 0, 60, 100
1, 222240, Note_on_c, 0, 61, 0
1, 222240, Note_on_c, 0, 65, 0
1, 222240, Note_on_c, 0, 70, 0
1, 222360, Note_on_c, 0, 48, 0
1, 222480, Note_on_c, 0, 67, 100
1, 222480, Note_on_c, 0, 70, 100
1, 222480, Note_on_c, 0, 72, 100
1, 222708, Note_on_c, 0, 67, 0
1, 222708, Note_on_c, 0, 70, 0
1, 222720, Note_on_c, 0, 67, 100
1, 222720, Note_on_c, 0, 70, 100
1, 222720, Note_on_c, 0, 72, 0
1, 222720, Note_on_c, 0, 82, 100
1, 222948, Note_on_c, 0, 67, 0
1, 222948, Note_on_c, 0, 70, 0
1, 222960, Note_on_c, 0, 67, 100
1, 222960, Note_on_c, 0, 70, 100
1, 222960, Note_on_c, 0, 80, 100
1, 222960, Note_on_c, 0, 82, 0
1, 223188, Note_on_c, 0, 67, 0
1, 223188, Note_on_c, 0, 70, 0
1, 223200, Note_on_c, 0, 60, 0
1, 223200, Note_on_c, 0, 60, 100
1, 223200, Note_on_c, 0, 80, 0
1, 223200, Note_on_c, 0, 80, 100
1, 223260, Note_on_c, 0, 80, 0
1, 223260, Note_on_c, 0, 82, 100
1, 223320, Note_on_c, 0, 80, 100
1, 223320, Note_on_c, 0, 82, 0
1, 223440, Note_on_c, 0, 67, 100
1, 223440, Note_on_c, 0, 70, 100
1, 223440, Note_on_c, 0, 79, 100
1, 223440, Note_on_c, 0, 80, 0
1, 223668, Note_on_c, 0, 67, 0
1, 223668, Note_on_c, 0, 70, 0
1, 223680, Note_on_c, 0, 67, 100
1, 223680, Note_on_c, 0, 70, 100
1, 223680, Note_on_c, 0, 79, 0
1, 223680, Note_on_c, 0, 79, 100
1, 223740, Note_on_c, 0, 79, 0
1, 223740, Note_on_c, 0, 80, 100
1, 223800, Note_on_c, 0, 79, 100
1, 223800, Note_on_c, 0, 80, 0
1, 223908, Note_on_c, 0, 67, 0
1, 223908, Note_on_c, 0, 70, 0
1, 223920, Note_on_c, 0, 67, 100
1, 223920, Note_on_c, 0, 70, 100
1, 223920, Note_on_c, 0, 77, 100
1, 223920, Note_on_c, 0, 79, 0
1, 224148, Note_on_c, 0, 67, 0
1, 224148, Note_on_c, 0, 70, 0
1, 224160, Note_on_c, 0, 60, 0
1, 224160, Note_on_c, 0, 60, 100
1, 224160, Note_on_c, 0, 77, 0
1, 224160, Note_on_c, 0, 77, 100
1, 224220, Note_on_c, 0, 77, 0
1, 224220, Note_on_c, 0, 79, 100
1, 224280, Note_on_c, 0, 77, 100
1, 224280, Note_on_c, 0, 79, 0
1, 224400, Note_on_c, 0, 67, 100
1, 224400, Note_on_c, 0, 70, 100
1, 224400, Note_on_c, 0, 76, 100
1, 224400, Note_on_c, 0, 77, 0
1, 224628, Note_on_c, 0, 67, 0
1, 224628, Note_on_c, 0, 70, 0
1, 224640, Note_on_c, 0, 67, 100
1, 224640, Note_on_c, 0, 70, 100
1, 224640, Note_on_c, 0, 74, 100
1, 224640, Note_on_c, 0, 76, 0
1, 224868, Note_on_c, 0, 67, 0
1, 224868, Note_on_c, 0, 70, 0
1, 224880, Note_on_c, 0, 67, 100
1, 224880, Note_on_c, 0, 70, 100
1, 224880, Note_on_c, 0, 74, 0
1, 224880, Note_on_c, 0, 76, 100
1, 225108, Note_on_c, 0, 67, 0
1, 225108, Note_on_c, 0, 70, 0
1, 225120, Note_on_c, 0, 60, 0
1, 225120, Note_on_c, 0, 65, 100
1, 225120, Note_on_c, 0, 76, 0
1, 225120, Note_on_c, 0, 79, 100
1, 225180, Note_on_c, 0, 79, 0
1, 225180, Note_on_c, 0, 80, 100
1, 225240, Note_on_c, 0, 79, 100
1, 225240, Note_on_c, 0, 80, 0
1, 225360, Note_on_c, 0, 68, 100
1, 225360, Note_on_c, 0, 72, 100
1, 225360, Note_on_c, 0, 77, 100
1, 225360, Note_on_c, 0, 79, 0
1, 225588, Note_on_c, 0, 68, 0
1, 225588, Note_on_c, 0, 72, 0
1, 225600, Note_on_c, 0, 68, 100
1, 225600, Note_on_c, 0, 72, 100
1, 225600, Note_on_c, 0, 77, 0
1, 225600, Note_on_c, 0, 77, 100
1, 225660, Note_on_c, 0, 77, 0
1, 225660, Note_on_c, 0, 79, 100
1, 225720, Note_on_c, 0, 77, 100
1, 225720, Note_on_c, 0, 79, 0
1, 225828, Note_on_c, 0, 68, 0
1, 225828, Note_on_c, 0, 72, 0
1, 225840, Note_on_c, 0, 68, 100
1, 225840, Note_on_c, 0, 72, 100
1, 225840, Note_on_c, 0, 75, 100
1, 225840, Note_on_c, 0, 77, 0
1, 226068, Note_on_c, 0, 68, 0
1, 226068, Note_on_c, 0, 72, 0
1, 226080, Note_on_c, 0, 58, 100
1, 226080, Note_on_c, 0, 65, 0
1, 226080, Note_on_c, 0, 75, 0
1, 226080, Note_on_c, 0, 75, 100
1, 226140, Note_on_c, 0, 75, 0
1, 226140, Note_on_c, 0, 77, 100
1, 226200, Note_on_c, 0, 75, 100
1, 226200, Note_on_c, 0, 77, 0
1, 226320, Note_on_c, 0, 65, 100
1, 226320, Note_on_c, 0, 68, 100
1, 226320, Note_on_c, 0, 74, 100
1, 226320, Note_on_c, 0, 75, 0
1, 226548, Note_on_c, 0, 65, 0
1, 226548, Note_on_c, 0, 68, 0
1, 226560, Note_on_c, 0, 58, 0
1, 226560, Note_on_c, 0, 59, 100
1, 226560, Note_on_c, 0, 65, 100
1, 226560, Note_on_c, 0, 68, 100
1, 226560, Note_on_c, 0, 72, 100
1, 226560, Note_on_c, 0, 74, 0
1, 226788, Note_on_c, 0, 65, 0
1, 226788, Note_on_c, 0, 68, 0
1, 226800, Note_on_c, 0, 65, 100
1, 226800, Note_on_c, 0, 68, 100
1, 226800, Note_on_c, 0, 72, 0
1, 226800, Note_on_c, 0, 74, 100
1, 227028, Note_on_c, 0, 65, 0
1, 227028, Note_on_c, 0, 68, 0
1, 227040, Note_on_c, 0, 59, 0
1, 227040, Note_on_c, 0, 60, 100
1, 227040, Note_on_c, 0, 74, 0
1, 227040, Note_on_c, 0, 77, 100
1, 227100, Note_on_c, 0, 77, 0
1, 227100, Note_on_c, 0, 79, 100
1, 227160, Note_on_c, 0, 77, 100
1, 227160, Note_on_c, 0, 79, 0
1, 227280, Note_on_c, 0, 63, 100
1, 227280, Note_on_c, 0, 67, 100
1, 227280, Note_on_c, 0, 75, 100
1, 227280, Note_on_c, 0, 77, 0
1, 227508, Note_on_c, 0, 63, 0
1, 227508, Note_on_c, 0, 67, 0
1, 227520, Note_on_c, 0, 63, 100
1, 227520, Note_on_c, 0, 67, 100
1, 227520, Note_on_c, 0, 75, 0
1, 227520, Note_on_c, 0, 75, 100
1, 227580, Note_on_c, 0, 75, 0
1, 227580, Note_on_c, 0, 77, 100
1, 227640, Note_on_c, 0, 75, 100
1, 227640, Note_on_c, 0, 77, 0
1, 227748, Note_on_c, 0, 63, 0
1, 227748, Note_on_c, 0, 67, 0
1, 227760, Note_on_c, 0, 63, 100
1, 227760, Note_on_c, 0, 67, 100
1, 227760, Note_on_c, 0, 74, 100
1, 227760, Note_on_c, 0, 75, 0
1, 227988, Note_on_c, 0, 63, 0
1, 227988, Note_on_c, 0, 67, 0
1, 228000, Note_on_c, 0, 56, 100
1, 228000, Note_on_c, 0, 60, 0
1, 228000, Note_on_c, 0, 74, 0
1, 228000, Note_on_c, 0, 74, 100
1, 228060, Note_on_c, 0, 74, 0
1, 228060, Note_on_c, 0, 75, 100
1, 228120, Note_on_c, 0, 74, 100
1, 228120, Note_on_c, 0, 75, 0
1, 228240, Note_on_c, 0, 63, 100
1, 228240, Note_on_c, 0, 65, 100
1, 228240, Note_on_c, 0, 72, 100
1, 228240, Note_on_c, 0, 74, 0
1, 228468, Note_on_c, 0, 63, 0
1, 228468, Note_on_c, 0, 65, 0
1, 228480, Note_on_c, 0, 63, 100
1, 228480, Note_on_c, 0, 65, 100
1, 228480, Note_on_c, 0, 72, 0
1, 228480, Note_on_c, 0, 72, 100
1, 228540, Note_on_c, 0, 72, 0
1, 228540, Note_on_c, 0, 74, 100
1, 228600, Note_on_c, 0, 72, 100
1, 228600, Note_on_c, 0, 74, 0
1, 228708, Note_on_c, 0, 63, 0
1, 228708, Note_on_c, 0, 65, 0
1, 228720, Note_on_c, 0, 63, 100
1, 228720, Note_on_c, 0, 65, 100
1, 228720, Note_on_c, 0, 71, 100
1, 228720, Note_on_c, 0, 72, 0
1, 228948, Note_on_c, 0, 63, 0
1, 228948, Note_on_c, 0, 65, 0
1, 228960, Note_on_c, 0, 56, 0
1, 228960, Note_on_c, 0, 58, 100
1, 228960, Note_on_c, 0, 71, 0
1, 228960, Note_on_c, 0, 72, 100
1, 229020, Note_on_c, 0, 72, 0
1, 229020, Note_on_c, 0, 74, 100
1, 229080, Note_on_c, 0, 72, 100
1, 229080, Note_on_c, 0, 74, 0
1, 229200, Note_on_c, 0, 63, 100
1, 229200, Note_on_c, 0, 67, 100
1, 229200, Note_on_c, 0, 70, 100
1, 229200, Note_on_c, 0, 72, 0
1, 229428, Note_on_c, 0, 63, 0
1, 229428, Note_on_c, 0, 67, 0
1, 229440, Note_on_c, 0, 63, 100
1, 229440, Note_on_c, 0, 67, 100
1, 229440, Note_on_c, 0, 70, 0
1, 229440, Note_on_c, 0, 70, 100
1, 229530, Note_on_c, 0, 70, 0
1, 229668, Note_on_c, 0, 63, 0
1, 229668, Note_on_c, 0, 67, 0
1, 229680, Note_on_c, 0, 63, 100
1, 229680, Note_on_c, 0, 67, 100
1, 229680, Note_on_c, 0, 70, 100
1, 229770, Note_on_c, 0, 70, 0
1, 229908, Note_on_c, 0, 63, 0
1, 229908, Note_on_c, 0, 67, 0
1, 229920, Note_on_c, 0, 58, 0
1, 229920, Note_on_c, 0, 58, 100
1, 229920, Note_on_c, 0, 72, 100
1, 229980, Note_on_c, 0, 72, 0
1, 229980, Note_on_c, 0, 74, 100
1, 230040, Note_on_c, 0, 72, 100
1, 230040, Note_on_c, 0, 74, 0
1, 230160, Note_on_c, 0, 62, 100
1, 230160, Note_on_c, 0, 65, 100
1, 230160, Note_on_c, 0, 70, 100
1, 230160, Note_on_c, 0, 72, 0
1, 230388, Note_on_c, 0, 62, 0
1, 230388, Note_on_c, 0, 65, 0
1, 230400, Note_on_c, 0, 62, 100
1, 230400, Note_on_c, 0, 65, 100
1, 230400, Note_on_c, 0, 70, 0
1, 230400, Note_on_c, 0, 70, 100
1, 230490, Note_on_c, 0, 70, 0
1, 230628, Note_on_c, 0, 62, 0
1, 230628, Note_on_c, 0, 65, 0
1, 230640, Note_on_c, 0, 62, 100
1, 230640, Note_on_c, 0, 65, 100
1, 230640, Note_on_c, 0, 70, 100
1, 230730, Note_on_c, 0, 70, 0
1, 230868, Note_on_c, 0, 62, 0
1, 230868, Note_on_c, 0, 65, 0
1, 230880, Note_on_c, 0, 51, 100
1, 230880, Note_on_c, 0, 58, 0
1, 231000, Note_on_c, 0, 58, 100
1, 231000, Note_on_c, 0, 63, 100
1, 231120, Note_on_c, 0, 55, 100
1, 231120, Note_on_c, 0, 58, 0
1, 231120, Note_on_c, 0, 63, 0
1, 231120, Note_on_c, 0, 67, 100
1, 231240, Note_on_c, 0, 55, 0
1, 231240, Note_on_c, 0, 58, 100
1, 231240, Note_on_c, 0, 63, 100
1, 231240, Note_on_c, 0, 67, 0
1, 231360, Note_on_c, 0, 55, 100
1, 231360, Note_on_c, 0, 58, 0
1, 231360, Note_on_c, 0, 63, 0
1, 231360, Note_on_c, 0, 75, 100
1, 231480, Note_on_c, 0, 55, 0
1, 231480, Note_on_c, 0, 58, 100
1, 231480, Note_on_c, 0, 63, 100
1, 231600, Note_on_c, 0, 55, 100
1, 231600, Note_on_c, 0, 58, 0
1, 231600, Note_on_c, 0, 63, 0
1, 231600, Note_on_c, 0, 67, 100
1, 231720, Note_on_c, 0, 55, 0
1, 231720, Note_on_c, 0, 58, 100
1, 231720, Note_on_c, 0, 63, 100
1, 231720, Note_on_c, 0, 67, 0
1, 231840, Note_on_c, 0, 55, 100
1, 231840, Note_on_c, 0, 58, 0
1, 231840, Note_on_c, 0, 63, 0
1, 231840, Note_on_c, 0, 67, 100
1, 231960, Note_on_c, 0, 55, 0
1, 231960, Note_on_c, 0, 58, 100
1, 231960, Note_on_c, 0, 63, 100
1, 231960, Note_on_c, 0, 67, 0
1, 232080, Note_on_c, 0, 55, 100
1, 232080, Note_on_c, 0, 58, 0
1, 232080, Note_on_c, 0, 63, 0
1, 232080, Note_on_c, 0, 67, 100
1, 232200, Note_on_c, 0, 55, 0
1, 232200, Note_on_c, 0, 58, 100
1, 232200, Note_on_c, 0, 63, 100
1, 232200, Note_on_c, 0, 67, 0
1, 232320, Note_on_c, 0, 51, 0
1, 232320, Note_on_c, 0, 51, 100
1, 232320, Note_on_c, 0, 58, 0
1, 232320, Note_on_c, 0, 63, 0
1, 232320, Note_on_c, 0, 75, 0
1, 232320, Note_on_c, 0, 75, 100
1, 232440, Note_on_c, 0, 58, 100
1, 232440, Note_on_c, 0, 63, 100
1, 232560, Note_on_c, 0, 55, 100
1, 232560, Note_on_c, 0, 58, 0
1, 232560, Note_on_c, 0, 63, 0
1, 232560, Note_on_c, 0, 67, 100
1, 232680, Note_on_c, 0, 55, 0
1, 232680, Note_on_c, 0, 58, 100
1, 232680, Note_on_c, 0, 63, 100
1, 232680, Note_on_c, 0, 67, 0
1, 232800, Note_on_c, 0, 49, 100
1, 232800, Note_on_c, 0, 51, 0
1, 232800, Note_on_c, 0, 58, 0
1, 232800, Note_on_c, 0, 63, 0
1, 232800, Note_on_c, 0, 75, 0
1, 232920, Note_on_c, 0, 58, 100
1, 232920, Note_on_c, 0, 63, 100
1, 233040, Note_on_c, 0, 55, 100
1, 233040, Note_on_c, 0, 58, 0
1, 233040, Note_on_c, 0, 63, 0
1, 233040, Note_on_c, 0, 67, 100
1, 233160, Note_on_c, 0, 55, 0
1, 233160, Note_on_c, 0, 58, 100
1, 233160, Note_on_c, 0, 63, 100
1, 233160, Note_on_c, 0, 67, 0
1, 233280, Note_on_c, 0, 55, 100
1, 233280, Note_on_c, 0, 58, 0
1, 233280, Note_on_c, 0, 63, 0
1, 233280, Note_on_c, 0, 75, 100
1, 233400, Note_on_c, 0, 55, 0
1, 233400, Note_on_c, 0, 58, 100
1, 233400, Note_on_c, 0, 63, 100
1, 233520, Note_on_c, 0, 55, 100
1, 233520, Note_on_c, 0, 58, 0
1, 233520, Note_on_c, 0, 63, 0
1, 233520, Note_on_c, 0, 67, 100
1, 233640, Note_on_c, 0, 55, 0
1, 233640, Note_on_c, 0, 58, 100
1, 233640, Note_on_c, 0, 63, 100
1, 233640, Note_on_c, 0, 67, 0
1, 233760, Note_on_c, 0, 55, 100
1, 233760, Note_on_c, 0, 58, 0
1, 233760, Note_on_c, 0, 63, 0
1, 233760, Note_on_c, 0, 67, 100
1, 233880, Note_on_c, 0, 55, 0
1, 233880, Note_on_c, 0, 58, 100
1, 233880, Note_on_c, 0, 63, 100
1, 233880, Note_on_c, 0, 67, 0
1, 234000, Note_on_c, 0, 55, 100
1, 234000, Note_on_c, 0, 58, 0
1, 234000, Note_on_c, 0, 63, 0
1, 234000, Note_on_c, 0, 67, 100
1, 234120, Note_on_c, 0, 55, 0
1, 234120, Note_on_c, 0, 58, 100
1, 234120, Note_on_c, 0, 63, 100
1, 234120, Note_on_c, 0, 67, 0
1, 234240, Note_on_c, 0, 49, 0
1, 234240, Note_on_c, 0, 49, 100
1, 234240, Note_on_c, 0, 58, 0
1, 234240, Note_on_c, 0, 63, 0
1, 234240, Note_on_c, 0, 75, 0
1, 234240, Note_on_c, 0, 75, 100
1, 234360, Note_on_c, 0, 58, 100
1, 234360, Note_on_c, 0, 63, 100
1, 234480, Note_on_c, 0, 55, 100
1, 234480, Note_on_c, 0, 58, 0
1, 234480, Note_on_c, 0, 63, 0
1, 234480, Note_on_c, 0, 67, 100
1, 234600, Note_on_c, 0, 55, 0
1, 234600, Note_on_c, 0, 58, 100
1, 234600, Note_on_c, 0, 63, 100
1, 234600, Note_on_c, 0, 67, 0
1, 234720, Note_on_c, 0, 48, 100
1, 234720, Note_on_c, 0, 49, 0
1, 234720, Note_on_c, 0, 58, 0
1, 234720, Note_on_c, 0, 63, 0
1, 234720, Note_on_c, 0, 75, 0
1, 234720, Note_on_c, 0, 75, 100
1, 234810, Note_on_c, 0, 48, 0
1, 234810, Note_on_c, 0, 75, 0
1, 234840, Note_on_c, 0, 56, 100
1, 234840, Note_on_c, 0, 63, 100
1, 234960, Note_on_c, 0, 51, 100
1, 234960, Note_on_c, 0, 56, 0
1, 234960, Note_on_c, 0, 63, 0
1, 234960, Note_on_c, 0, 68, 100
1, 235080, Note_on_c, 0, 51, 0
1, 235080, Note_on_c, 0, 56, 100
1, 235080, Note_on_c, 0, 63, 100
1, 235080, Note_on_c, 0, 68, 0
1, 235200, Note_on_c, 0, 46, 100
1, 235200, Note_on_c, 0, 56, 0
1, 235200, Note_on_c, 0, 63, 0
1, 235200, Note_on_c, 0, 76, 100
1, 235290, Note_on_c, 0, 46, 0
1, 235290, Note_on_c, 0, 76, 0
1, 235320, Note_on_c, 0, 55, 100
1, 235320, Note_on_c, 0, 64, 100
1, 235440, Note_on_c, 0, 48, 100
1, 235440, Note_on_c, 0, 55, 0
1, 235440, Note_on_c, 0, 64, 0
1, 235440, Note_on_c, 0, 72, 100
1, 235560, Note_on_c, 0, 48, 0
1, 235560, Note_on_c, 0, 55, 100
1, 235560, Note_on_c, 0, 64, 100
1, 235560, Note_on_c, 0, 72, 0
1, 235680, Note_on_c, 0, 44, 100
1, 235680, Note_on_c, 0, 55, 0
1, 235680, Note_on_c, 0, 64, 0
1, 235680, Note_on_c, 0, 77, 100
1, 235770, Note_on_c, 0, 44, 0
1, 235770, Note_on_c, 0, 77, 0
1, 235800, Note_on_c, 0, 56, 100
1, 235800, Note_on_c, 0, 65, 100
1, 235920, Note_on_c, 0, 48, 100
1, 235920, Note_on_c, 0, 56, 0
1, 235920, Note_on_c, 0, 65, 0
1, 235920, Note_on_c, 0, 72, 100
1, 236040, Note_on_c, 0, 48, 0
1, 236040, Note_on_c, 0, 56, 100
1, 236040, Note_on_c, 0, 65, 100
1, 236040, Note_on_c, 0, 72, 0
1, 236160, Note_on_c, 0, 43, 100
1, 236160, Note_on_c, 0, 56, 0
1, 236160, Note_on_c, 0, 65, 0
1, 236160, Note_on_c, 0, 79, 100
1, 236250, Note_on_c, 0, 43, 0
1, 236250, Note_on_c, 0, 79, 0
1, 236280, Note_on_c, 0, 55, 100
1, 236280, Note_on_c, 0, 67, 100
1, 236400, Note_on_c, 0, 48, 100
1, 236400, Note_on_c, 0, 55, 0
1, 236400, Note_on_c, 0, 67, 0
1, 236400, Note_on_c, 0, 72, 100
1, 236520, Note_on_c, 0, 48, 0
1, 236520, Note_on_c, 0, 55, 100
1, 236520, Note_on_c, 0, 67, 100
1, 236520, Note_on_c, 0, 72, 0
1, 236640, Note_on_c, 0, 41, 100
1, 236640, Note_on_c, 0, 55, 0
1, 236640, Note_on_c, 0, 67, 0
1, 236640, Note_on_c, 0, 80, 100
1, 236730, Note_on_c, 0, 41, 0
1, 236730, Note_on_c, 0, 80, 0
1, 236760, Note_on_c, 0, 53, 100
1, 236760, Note_on_c, 0, 68, 100
1, 236880, Note_on_c, 0, 48, 100
1, 236880, Note_on_c, 0, 53, 0
1, 236880, Note_on_c, 0, 68, 0
1, 236880, Note_on_c, 0, 72, 100
1, 237000, Note_on_c, 0, 48, 0
1, 237000, Note_on_c, 0, 53, 100
1, 237000, Note_on_c, 0, 68, 100
1, 237000, Note_on_c, 0, 72, 0
1, 237120, Note_on_c, 0, 39, 100
1, 237120, Note_on_c, 0, 53, 0
1, 237120, Note_on_c, 0, 68, 0
1, 237120, Note_on_c, 0, 81, 100
1, 237210, Note_on_c, 0, 39, 0
1, 237210, Note_on_c, 0, 81, 0
1, 237240, Note_on_c, 0, 51, 100
1, 237240, Note_on_c, 0, 69, 100
1, 237360, Note_on_c, 0, 41, 100
1, 237360, Note_on_c, 0, 51, 0
1, 237360, Note_on_c, 0, 69, 0
1, 237360, Note_on_c, 0, 72, 100
1, 237480, Note_on_c, 0, 41, 0
1, 237480, Note_on_c, 0, 51, 100
1, 237480, Note_on_c, 0, 69, 100
1, 237480, Note_on_c, 0, 72, 0
1, 237600, Note_on_c, 0, 38, 100
1, 237600, Note_on_c, 0, 51, 0
1, 237600, Note_on_c, 0, 69, 0
1, 237600, Note_on_c, 0, 82, 100
1, 237690, Note_on_c, 0, 38, 0
1, 237690, Note_on_c, 0, 82, 0
1, 237720, Note_on_c, 0, 50, 100
1, 237720, Note_on_c, 0, 70, 100
1, 237840, Note_on_c, 0, 41, 100
1, 237840, Note_on_c, 0, 50, 0
1, 237840, Note_on_c, 0, 70, 0
1, 237840, Note_on_c, 0, 77, 100
1, 237960, Note_on_c, 0, 41, 0
1, 237960, Note_on_c, 0, 50, 100
1, 237960, Note_on_c, 0, 70, 100
1, 237960, Note_on_c, 0, 77, 0
1, 238080, Note_on_c, 0, 36, 100
1, 238080, Note_on_c, 0, 50, 0
1, 238080, Note_on_c, 0, 70, 0
1, 238080, Note_on_c, 0, 84, 100
1, 238170, Note_on_c, 0, 36, 0
1, 238170, Note_on_c, 0, 84, 0
1, 238200, Note_on_c, 0, 48, 100
1, 238200, Note_on_c, 0, 72, 100
1, 238320, Note_on_c, 0, 41, 100
1, 238320, Note_on_c, 0, 48, 0
1, 238320, Note_on_c, 0, 72, 0
1, 238320, Note_on_c, 0, 77, 100
1, 238440, Note_on_c, 0, 41, 0
1, 238440, Note_on_c, 0, 48, 100
1, 238440, Note_on_c, 0, 72, 100
1, 238440, Note_on_c, 0, 77, 0
1, 238560, Note_on_c, 0, 34, 100
1, 238560, Note_on_c, 0, 48, 0
1, 238560, Note_on_c, 0, 72, 0
1, 238560, Note_on_c, 0, 85, 100
1, 238650, Note_on_c, 0, 34, 0
1, 238650, Note_on_c, 0, 85, 0
1, 238680, Note_on_c, 0, 46, 100
1, 238680, Note_on_c, 0, 73, 100
1, 238800, Note_on_c, 0, 41, 100
1, 238800, Note_on_c, 0, 46, 0
1, 238800, Note_on_c, 0, 73, 0
1, 238800, Note_on_c, 0, 77, 100
1, 238920, Note_on_c, 0, 41, 0
1, 238920, Note_on_c, 0, 46, 100
1, 238920, Note_on_c, 0, 73, 100
1, 238920, Note_on_c, 0, 77, 0
1, 239040, Note_on_c, 0, 32, 100
1, 239040, Note_on_c, 0, 46, 0
1, 239040, Note_on_c, 0, 73, 0
1, 239040, Note_on_c, 0, 86, 100
1, 239130, Note_on_c, 0, 32, 0
1, 239130, Note_on_c, 0, 86, 0
1, 239160, Note_on_c, 0, 44, 100
1, 239160, Note_on_c, 0, 74, 100
1, 239280, Note_on_c, 0, 41, 100
1, 239280, Note_on_c, 0, 44, 0
1, 239280, Note_on_c, 0, 74, 0
1, 239280, Note_on_c, 0, 77, 100
1, 239400, Note_on_c, 0, 41, 0
1, 239400, Note_on_c, 0, 44, 100
1, 239400, Note_on_c, 0, 74, 100
1, 239400, Note_on_c, 0, 77, 0
1, 239520, Note_on_c, 0, 31, 100
1, 239520, Note_on_c, 0, 44, 0
1, 239520, Note_on_c, 0, 74, 0
1, 239520, Note_on_c, 0, 87, 100
1, 239610, Note_on_c, 0, 31, 0
1, 239610, Note_on_c, 0, 87, 0
1, 239640, Note_on_c, 0, 43, 100
1, 239640, Note_on_c, 0, 75, 100
1, 239760, Note_on_c, 0, 39, 100
1, 239760, Note_on_c, 0, 43, 0
1, 239760, Note_on_c, 0, 75, 0
1, 239760, Note_on_c, 0, 82, 100
1, 239880, Note_on_c, 0, 39, 0
1, 239880, Note_on_c, 0, 43, 100
1, 239880, Note_on_c, 0, 75, 100
1, 239880, Note_on_c, 0, 82, 0
1, 240000, Note_on_c, 0, 31, 100
1, 240000, Note_on_c, 0, 43, 0
1, 240000, Note_on_c, 0, 75, 0
1, 240000, Note_on_c, 0, 83, 100
1, 240090, Note_on_c, 0, 31, 0
1, 240090, Note_on_c, 0, 83, 0
1, 240120, Note_on_c, 0, 43, 100
1, 240120, Note_on_c, 0, 71, 100
1, 240240, Note_on_c, 0, 39, 100
1, 240240, Note_on_c, 0, 43, 0
1, 240240, Note_on_c, 0, 71, 0
1, 240240, Note_on_c, 0, 75, 100
1, 240360, Note_on_c, 0, 39, 0
1, 240360, Note_on_c, 0, 43, 100
1, 240360, Note_on_c, 0, 71, 100
1, 240360, Note_on_c, 0, 75, 0
1, 240480, Note_on_c, 0, 32, 100
1, 240480, Note_on_c, 0, 43, 0
1, 240480, Note_on_c, 0, 44, 100
1, 240480, Note_on_c, 0, 71, 0
1, 240600, Note_on_c, 0, 72, 100
1, 240720, Note_on_c, 0, 32, 0
1, 240720, Note_on_c, 0, 44, 0
1, 240720, Note_on_c, 0, 72, 0
1, 240720, Note_on_c, 0, 75, 100
1, 240840, Note_on_c, 0, 72, 100
1, 240840, Note_on_c, 0, 75, 0
1, 240960, Note_on_c, 0, 72, 0
1, 240960, Note_on_c, 0, 84, 100
1, 241050, Note_on_c, 0, 84, 0
1, 241080, Note_on_c, 0, 72, 100
1, 241200, Note_on_c, 0, 72, 0
1, 241200, Note_on_c, 0, 75, 100
1, 241320, Note_on_c, 0, 72, 100
1, 241320, Note_on_c, 0, 75, 0
1, 241440, Note_on_c, 0, 34, 100
1, 241440, Note_on_c, 0, 46, 100
1, 241440, Note_on_c, 0, 72, 0
1, 241560, Note_on_c, 0, 65, 100
1, 241680, Note_on_c, 0, 34, 0
1, 241680, Note_on_c, 0, 46, 0
1, 241680, Note_on_c, 0, 65, 0
1, 241680, Note_on_c, 0, 68, 100
1, 241800, Note_on_c, 0, 65, 100
1, 241800, Note_on_c, 0, 68, 0
1, 241920, Note_on_c, 0, 65, 0
1, 241920, Note_on_c, 0, 74, 100
1, 242010, Note_on_c, 0, 74, 0
1, 242040, Note_on_c, 0, 65, 100
1, 242160, Note_on_c, 0, 65, 0
1, 242160, Note_on_c, 0, 68, 100
1, 242280, Note_on_c, 0, 65, 100
1, 242280, Note_on_c, 0, 68, 0
1, 242400, Note_on_c, 0, 51, 100
1, 242400, Note_on_c, 0, 65, 0
1, 242520, Note_on_c, 0, 58, 100
1, 242520, Note_on_c, 0, 63, 100
1, 242640, Note_on_c, 0, 55, 100
1, 242640, Note_on_c, 0, 58, 0
1, 242640, Note_on_c, 0, 63, 0
1, 242640, Note_on_c, 0, 67, 100
1, 242760, Note_on_c, 0, 55, 0
1, 242760, Note_on_c, 0, 58, 100
1, 242760, Note_on_c, 0, 63, 100
1, 242760, Note_on_c, 0, 67, 0
1, 242880, Note_on_c, 0, 55, 100
1, 242880, Note_on_c, 0, 58, 0
1, 242880, Note_on_c, 0, 63, 0
1, 242880, Note_on_c, 0, 75, 100
1, 243000, Note_on_c, 0, 55, 0
1, 243000, Note_on_c, 0, 58, 100
1, 243000, Note_on_c, 0, 63, 100
1, 243120, Note_on_c, 0, 55, 100
1, 243120, Note_on_c, 0, 58, 0
1, 243120, Note_on_c, 0, 63, 0
1, 243120, Note_on_c, 0, 67, 100
1, 243240, Note_on_c, 0, 55, 0
1, 243240, Note_on_c, 0, 58, 100
1, 243240, Note_on_c, 0, 63, 100
1, 243240, Note_on_c, 0, 67, 0
1, 243360, Note_on_c, 0, 55, 100
1, 243360, Note_on_c, 0, 58, 0
1, 243360, Note_on_c, 0, 63, 0
1, 243360, Note_on_c, 0, 67, 100
1, 243480, Note_on_c, 0, 55, 0
1, 243480, Note_on_c, 0, 58, 100
1, 243480, Note_on_c, 0, 63, 100
1, 243480, Note_on_c, 0, 67, 0
1, 243600, Note_on_c, 0, 55, 100
1, 243600, Note_on_c, 0, 58, 0
1, 243600, Note_on_c, 0, 63, 0
1, 243600, Note_on_c, 0, 67, 100
1, 243720, Note_on_c, 0, 55, 0
1, 243720, Note_on_c, 0, 58, 100
1, 243720, Note_on_c, 0, 63, 100
1, 243720, Note_on_c, 0, 67, 0
1, 243840, Note_on_c, 0, 51, 0
1, 243840, Note_on_c, 0, 51, 100
1, 243840, Note_on_c, 0, 58, 0
1, 243840, Note_on_c, 0, 63, 0
1, 243840, Note_on_c, 0, 75, 0
1, 243840, Note_on_c, 0, 75, 100
1, 243960, Note_on_c, 0, 58, 100
1, 243960, Note_on_c, 0, 63, 100
1, 244080, Note_on_c, 0, 55, 100
1, 244080, Note_on_c, 0, 58, 0
1, 244080, Note_on_c, 0, 63, 0
1, 244080, Note_on_c, 0, 67, 100
1, 244200, Note_on_c, 0, 55, 0
1, 244200, Note_on_c, 0, 58, 100
1, 244200, Note_on_c, 0, 63, 100
1, 244200, Note_on_c, 0, 67, 0
1, 244320, Note_on_c, 0, 49, 100
1, 244320, Note_on_c, 0, 51, 0
1, 244320, Note_on_c, 0, 58, 0
1, 244320, Note_on_c, 0, 63, 0
1, 244320, Note_on_c, 0, 75, 0
1, 244440, Note_on_c, 0, 58, 100
1, 244440, Note_on_c, 0, 63, 100
1, 244560, Note_on_c, 0, 55, 100
1, 244560, Note_on_c, 0, 58, 0
1, 244560, Note_on_c, 0, 63, 0
1, 244560, Note_on_c, 0, 67, 100
1, 244680, Note_on_c, 0, 55, 0
1, 244680, Note_on_c, 0, 58, 100
1, 244680, Note_on_c, 0, 63, 100
1, 244680, Note_on_c, 0, 67, 0
1, 244800, Note_on_c, 0, 55, 100
1, 244800, Note_on_c, 0, 58, 0
1, 244800, Note_on_c, 0, 63, 0
1, 244800, Note_on_c, 0, 75, 100
1, 244920, Note_on_c, 0, 55, 0
1, 244920, Note_on_c, 0, 58, 100
1, 244920, Note_on_c, 0, 63, 100
1, 245040, Note_on_c, 0, 55, 100
1, 245040, Note_on_c, 0, 58, 0
1, 245040, Note_on_c, 0, 63, 0
1, 245040, Note_on_c, 0, 67, 100
1, 245160, Note_on_c, 0, 55, 0
1, 245160, Note_on_c, 0, 58, 100
1, 245160, Note_on_c, 0, 63, 100
1, 245160, Note_on_c, 0, 67, 0
1, 245280, Note_on_c, 0, 55, 100
1, 245280, Note_on_c, 0, 58, 0
1, 245280, Note_on_c, 0, 63, 0
1, 245280, Note_on_c, 0, 67, 100
1, 245400, Note_on_c, 0, 55, 0
1, 245400, Note_on_c, 0, 58, 100
1, 245400, Note_on_c, 0, 63, 100
1, 245400, Note_on_c, 0, 67, 0
1, 245520, Note_on_c, 0, 55, 100
1, 245520, Note_on_c, 0, 58, 0
1, 245520, Note_on_c, 0, 63, 0
1, 245520, Note_on_c, 0, 67, 100
1, 245640, Note_on_c, 0, 55, 0
1, 245640, Note_on_c, 0, 58, 100
1, 245640, Note_on_c, 0, 63, 100
1, 245640, Note_on_c, 0, 67, 0
1, 245760, Note_on_c, 0, 49, 0
1, 245760, Note_on_c, 0, 49, 100
1, 245760, Note_on_c, 0, 58, 0
1, 245760, Note_on_c, 0, 63, 0
1, 245760, Note_on_c, 0, 75, 0
1, 245760, Note_on_c, 0, 75, 100
1, 245880, Note_on_c, 0, 58, 100
1, 245880, Note_on_c, 0, 63, 100
1, 246000, Note_on_c, 0, 55, 100
1, 246000, Note_on_c, 0, 58, 0
1, 246000, Note_on_c, 0, 63, 0
1, 246000, Note_on_c, 0, 67, 100
1, 246120, Note_on_c, 0, 55, 0
1, 246120, Note_on_c, 0, 58, 100
1, 246120, Note_on_c, 0, 63, 100
1, 246120, Note_on_c, 0, 67, 0
1, 246240, Note_on_c, 0, 48, 100
1, 246240, Note_on_c, 0, 49, 0
1, 246240, Note_on_c, 0, 58, 0
1, 246240, Note_on_c, 0, 63, 0
1, 246240, Note_on_c, 0, 75, 0
1, 246240, Note_on_c, 0, 75, 100
1, 246330, Note_on_c, 0, 48, 0
1, 246330, Note_on_c, 0, 75, 0
1, 246360, Note_on_c, 0, 56, 100
1, 246360, Note_on_c, 0, 63, 100
1, 246480, Note_on_c, 0, 51, 100
1, 246480, Note_on_c, 0, 56, 0
1, 246480, Note_on_c, 0, 63, 0
1, 246480, Note_on_c, 0, 68, 100
1, 246600, Note_on_c, 0, 51, 0
1, 246600, Note_on_c, 0, 56, 100
1, 246600, Note_on_c, 0, 63, 100
1, 246600, Note_on_c, 0, 68, 0
1, 246720, Note_on_c, 0, 46, 100
1, 246720, Note_on_c, 0, 56, 0
1, 246720, Note_on_c, 0, 63, 0
1, 246720, Note_on_c, 0, 76, 100
1, 246810, Note_on_c, 0, 46, 0
1, 246810, Note_on_c, 0, 76, 0
1, 246840, Note_on_c, 0, 55, 100
1, 246840, Note_on_c, 0, 64, 100
1, 246960, Note_on_c, 0, 48, 100
1, 246960, Note_on_c, 0, 55, 0
1, 246960, Note_on_c, 0, 64, 0
1, 246960, Note_on_c, 0, 72, 100
1, 247080, Note_on_c, 0, 48, 0
1, 247080, Note_on_c, 0, 55, 100
1, 247080, Note_on_c, 0, 64, 100
1, 247080, Note_on_c, 0, 72, 0
1, 247200, Note_on_c, 0, 44, 100
1, 247200, Note_on_c, 0, 55, 0
1, 247200, Note_on_c, 0, 64, 0
1, 247200, Note_on_c, 0, 77, 100
1, 247290, Note_on_c, 0, 44, 0
1, 247290, Note_on_c, 0, 77, 0
1, 247320, Note_on_c, 0, 56, 100
1, 247320, Note_on_c, 0, 65, 100
1, 247440, Note_on_c, 0, 48, 100
1, 247440, Note_on_c, 0, 56, 0
1, 247440, Note_on_c, 0, 65, 0
1, 247440, Note_on_c, 0, 72, 100
1, 247560, Note_on_c, 0, 48, 0
1, 247560, Note_on_c, 0, 56, 100
1, 247560, Note_on_c, 0, 65, 100
1, 247560, Note_on_c, 0, 72, 0
1, 247680, Note_on_c, 0, 43, 100
1, 247680, Note_on_c, 0, 56, 0
1, 247680, Note_on_c, 0, 65, 0
1, 247680, Note_on_c, 0, 79, 100
1, 247770, Note_on_c, 0, 43, 0
1, 247770, Note_on_c, 0, 79, 0
1, 247800, Note_on_c, 0, 55, 100
1, 247800, Note_on_c, 0, 67, 100
1, 247920, Note_on_c, 0, 48, 100
1, 247920, Note_on_c, 0, 55, 0
1, 247920, Note_on_c, 0, 67, 0
1, 247920, Note_on_c, 0, 72, 100
1, 248040, Note_on_c, 0, 48, 0
1, 248040, Note_on_c, 0, 55, 100
1, 248040, Note_on_c, 0, 67, 100
1, 248040, Note_on_c, 0, 72, 0
1, 248160, Note_on_c, 0, 41, 100
1, 248160, Note_on_c, 0, 55, 0
1, 248160, Note_on_c, 0, 67, 0
1, 248160, Note_on_c, 0, 80, 100
1, 248250, Note_on_c, 0, 41, 0
1, 248250, Note_on_c, 0, 80, 0
1, 248280, Note_on_c, 0, 53, 100
1, 248280, Note_on_c, 0, 68, 100
1, 248400, Note_on_c, 0, 48, 100
1, 248400, Note_on_c, 0, 53, 0
1, 248400, Note_on_c, 0, 68, 0
1, 248400, Note_on_c, 0, 72, 100
1, 248520, Note_on_c, 0, 48, 0
1, 248520, Note_on_c, 0, 53, 100
1, 248520, Note_on_c, 0, 68, 100
1, 248520, Note_on_c, 0, 72, 0
1, 248640, Note_on_c, 0, 39, 100
1, 248640, Note_on_c, 0, 53, 0
1, 248640, Note_on_c, 0, 68, 0
1, 248640, Note_on_c, 0, 81, 100
1, 248730, Note_on_c, 0, 39, 0
1, 248730, Note_on_c, 0, 81, 0
1, 248760, Note_on_c, 0, 51, 100
1, 248760, Note_on_c, 0, 69, 100
1, 248880, Note_on_c, 0, 41, 100
1, 248880, Note_on_c, 0, 51, 0
1, 248880, Note_on_c, 0, 69, 0
1, 248880, Note_on_c, 0, 72, 100
1, 249000, Note_on_c, 0, 41, 0
1, 249000, Note_on_c, 0, 51, 100
1, 249000, Note_on_c, 0, 69, 100
1, 249000, Note_on_c, 0, 72, 0
1, 249120, Note_on_c, 0, 38, 100
1, 249120, Note_on_c, 0, 51, 0
1, 249120, Note_on_c, 0, 69, 0
1, 249120, Note_on_c, 0, 82, 100
1, 249210, Note_on_c, 0, 38, 0
1, 249210, Note_on_c, 0, 82, 0
1, 249240, Note_on_c, 0, 50, 100
1, 249240, Note_on_c, 0, 70, 100
1, 249360, Note_on_c, 0, 41, 100
1, 249360, Note_on_c, 0, 50, 0
1, 249360, Note_on_c, 0, 70, 0
1, 249360, Note_on_c, 0, 77, 100
1, 249480, Note_on_c, 0, 41, 0
1, 249480, Note_on_c, 0, 50, 100
1, 249480, Note_on_c, 0, 70, 100
1, 249480, Note_on_c, 0, 77, 0
1, 249600, Note_on_c, 0, 36, 100
1, 249600, Note_on_c, 0, 50, 0
1, 249600, Note_on_c, 0, 70, 0
1, 249600, Note_on_c, 0, 84, 100
1, 249690, Note_on_c, 0, 36, 0
1, 249690, Note_on_c, 0, 84, 0
1, 249720, Note_on_c, 0, 48, 100
1, 249720, Note_on_c, 0, 72, 100
1, 249840, Note_on_c, 0, 41, 100
1, 249840, Note_on_c, 0, 48, 0
1, 249840, Note_on_c, 0, 72, 0
1, 249840, Note_on_c, 0, 77, 100
1, 249960, Note_on_c, 0, 41, 0
1, 249960, Note_on_c, 0, 48, 100
1, 249960, Note_on_c, 0, 72, 100
1, 249960, Note_on_c, 0, 77, 0
1, 250080, Note_on_c, 0, 34, 100
1, 250080, Note_on_c, 0, 48, 0
1, 250080, Note_on_c, 0, 72, 0
1, 250080, Note_on_c, 0, 85, 100
1, 250170, Note_on_c, 0, 34, 0
1, 250170, Note_on_c, 0, 85, 0
1, 250200, Note_on_c, 0, 46, 100
1, 250200, Note_on_c, 0, 73, 100
1, 250320, Note_on_c, 0, 41, 100
1, 250320, Note_on_c, 0, 46, 0
1, 250320, Note_on_c, 0, 73, 0
1, 250320, Note_on_c, 0, 77, 100
1, 250440, Note_on_c, 0, 41, 0
1, 250440, Note_on_c, 0, 46, 100
1, 250440, Note_on_c, 0, 73, 100
1, 250440, Note_on_c, 0, 77, 0
1, 250560, Note_on_c, 0, 32, 100
1, 250560, Note_on_c, 0, 46, 0
1, 250560, Note_on_c, 0, 73, 0
1, 250560, Note_on_c, 0, 86, 100
1, 250650, Note_on_c, 0, 32, 0
1, 250650, Note_on_c, 0, 86, 0
1, 250680, Note_on_c, 0, 44, 100
1, 250680, Note_on_c, 0, 74, 100
1, 250800, Note_on_c, 0, 41, 100
1, 250800, Note_on_c, 0, 44, 0
1, 250800, Note_on_c, 0, 74, 0
1, 250800, Note_on_c, 0, 77, 100
1, 250920, Note_on_c, 0, 41, 0
1, 250920, Note_on_c, 0, 44, 100
1, 250920, Note_on_c, 0, 74, 100
1, 250920, Note_on_c, 0, 77, 0
1, 251040, Note_on_c, 0, 31, 100
1, 251040, Note_on_c, 0, 44, 0
1, 251040, Note_on_c, 0, 74, 0
1, 251040, Note_on_c, 0, 87, 100
1, 251130, Note_on_c, 0, 31, 0
1, 251130, Note_on_c, 0, 87, 0
1, 251160, Note_on_c, 0, 43, 100
1, 251160, Note_on_c, 0, 75, 100
1, 251280, Note_on_c, 0, 39, 100
1, 251280, Note_on_c, 0, 43, 0
1, 251280, Note_on_c, 0, 75, 0
1, 251280, Note_on_c, 0, 82, 100
1, 251400, Note_on_c, 0, 39, 0
1, 251400, Note_on_c, 0, 43, 100
1, 251400, Note_on_c, 0, 75, 100
1, 251400, Note_on_c, 0, 82, 0
1, 251520, Note_on_c, 0, 31, 100
1, 251520, Note_on_c, 0, 43, 0
1, 251520, Note_on_c, 0, 75, 0
1, 251520, Note_on_c, 0, 88, 100
1, 251610, Note_on_c, 0, 31, 0
1, 251610, Note_on_c, 0, 88, 0
1, 251640, Note_on_c, 0, 43, 100
1, 251640, Note_on_c, 0, 76, 100
1, 251760, Note_on_c, 0, 31, 100
1, 251760, Note_on_c, 0, 43, 0
1, 251760, Note_on_c, 0, 76, 0
1, 251760, Note_on_c, 0, 82, 100
1, 251880, Note_on_c, 0, 31, 0
1, 251880, Note_on_c, 0, 43, 100
1, 251880, Note_on_c, 0, 76, 100
1, 251880, Note_on_c, 0, 82, 0
1, 252000, Note_on_c, 0, 32, 100
1, 252000, Note_on_c, 0, 43, 0
1, 252000, Note_on_c, 0, 44, 100
1, 252000, Note_on_c, 0, 76, 0
1, 252120, Note_on_c, 0, 80, 100
1, 252240, Note_on_c, 0, 32, 0
1, 252240, Note_on_c, 0, 44, 0
1, 252240, Note_on_c, 0, 80, 0
1, 252240, Note_on_c, 0, 84, 100
1, 252360, Note_on_c, 0, 80, 100
1, 252360, Note_on_c, 0, 84, 0
1, 252480, Note_on_c, 0, 80, 0
1, 252480, Note_on_c, 0, 89, 100
1, 252570, Note_on_c, 0, 89, 0
1, 252600, Note_on_c, 0, 80, 100
1, 252720, Note_on_c, 0, 80, 0
1, 252720, Note_on_c, 0, 84, 100
1, 252840, Note_on_c, 0, 80, 100
1, 252840, Note_on_c, 0, 84, 0
1, 252960, Note_on_c, 0, 34, 100
1, 252960, Note_on_c, 0, 46, 100
1, 252960, Note_on_c, 0, 80, 0
1, 253080, Note_on_c, 0, 77, 100
1, 253200, Note_on_c, 0, 34, 0
1, 253200, Note_on_c, 0, 46, 0
1, 253200, Note_on_c, 0, 77, 0
1, 253200, Note_on_c, 0, 80, 100
1, 253320, Note_on_c, 0, 77, 100
1, 253320, Note_on_c, 0, 80, 0
1, 253440, Note_on_c, 0, 77, 0
1, 253440, Note_on_c, 0, 86, 100
1, 253530, Note_on_c, 0, 86, 0
1, 253560, Note_on_c, 0, 77, 100
1, 253680, Note_on_c, 0, 77, 0
1, 253680, Note_on_c, 0, 80, 100
1, 253800, Note_on_c, 0, 77, 100
1, 253800, Note_on_c, 0, 80, 0
1, 253920, Note_on_c, 0, 39, 100
1, 253920, Note_on_c, 0, 51, 100
1, 253920, Note_on_c, 0, 77, 0
1, 253920, Note_on_c, 0, 79, 100
1, 254010, Note_on_c, 0, 79, 0
1, 254160, Note_on_c, 0, 39, 0
1, 254160, Note_on_c, 0, 51, 0
1, 254160, Note_on_c, 0, 63, 100
1, 254160, Note_on_c, 0, 67, 100
1, 254160, Note_on_c, 0, 87, 100
1, 254388, Note_on_c, 0, 63, 0
1, 254388, Note_on_c, 0, 67, 0
1, 254400, Note_on_c, 0, 63, 100
1, 254400, Note_on_c, 0, 67, 100
1, 254628, Note_on_c, 0, 63, 0
1, 254628, Note_on_c, 0, 67, 0
1, 254640, Note_on_c, 0, 63, 100
1, 254640, Note_on_c, 0, 67, 100
1, 254640, Note_on_c, 0, 86, 100
1, 254640, Note_on_c, 0, 87, 0
1, 254760, Note_on_c, 0, 86, 0
1, 254760, Note_on_c, 0, 87, 100
1, 254868, Note_on_c, 0, 63, 0
1, 254868, Note_on_c, 0, 67, 0
1, 254880, Note_on_c, 0, 60, 100
1, 254880, Note_on_c, 0, 87, 0
1, 254880, Note_on_c, 0, 89, 100
1, 255000, Note_on_c, 0, 87, 100
1, 255000, Note_on_c, 0, 89, 0
1, 255120, Note_on_c, 0, 63, 100
1, 255120, Note_on_c, 0, 67, 100
1, 255120, Note_on_c, 0, 86, 100
1, 255120, Note_on_c, 0, 87, 0
1, 255240, Note_on_c, 0, 84, 100
1, 255240, Note_on_c, 0, 86, 0
1, 255348, Note_on_c, 0, 63, 0
1, 255348, Note_on_c, 0, 67, 0
1, 255360, Note_on_c, 0, 63, 100
1, 255360, Note_on_c, 0, 67, 100
1, 255360, Note_on_c, 0, 83, 100
1, 255360, Note_on_c, 0, 84, 0
1, 255480, Note_on_c, 0, 83, 0
1, 255480, Note_on_c, 0, 84, 100
1, 255588, Note_on_c, 0, 63, 0
1, 255588, Note_on_c, 0, 67, 0
1, 255600, Note_on_c, 0, 63, 100
1, 255600, Note_on_c, 0, 67, 100
1, 255600, Note_on_c, 0, 84, 0
1, 255600, Note_on_c, 0, 86, 100
1, 255720, Note_on_c, 0, 84, 100
1, 255720, Note_on_c, 0, 86, 0
1, 255828, Note_on_c, 0, 63, 0
1, 255828, Note_on_c, 0, 67, 0
1, 255840, Note_on_c, 0, 56, 100
1, 255840, Note_on_c, 0, 60, 0
1, 255840, Note_on_c, 0, 82, 100
1, 255840, Note_on_c, 0, 84, 0
1, 255960, Note_on_c, 0, 80, 100
1, 255960, Note_on_c, 0, 82, 0
1, 256080, Note_on_c, 0, 63, 100
1, 256080, Note_on_c, 0, 65, 100
1, 256080, Note_on_c, 0, 79, 100
1, 256080, Note_on_c, 0, 80, 0
1, 256200, Note_on_c, 0, 77, 100
1, 256200, Note_on_c, 0, 79, 0
1, 256308, Note_on_c, 0, 63, 0
1, 256308, Note_on_c, 0, 65, 0
1, 256320, Note_on_c, 0, 63, 100
1, 256320, Note_on_c, 0, 65, 100
1, 256320, Note_on_c, 0, 76, 100
1, 256320, Note_on_c, 0, 77, 0
1, 256440, Note_on_c, 0, 76, 0
1, 256440, Note_on_c, 0, 77, 100
1, 256548, Note_on_c, 0, 63, 0
1, 256548, Note_on_c, 0, 65, 0
1, 256560, Note_on_c, 0, 63, 100
1, 256560, Note_on_c, 0, 65, 100
1, 256560, Note_on_c, 0, 77, 0
1, 256560, Note_on_c, 0, 79, 100
1, 256680, Note_on_c, 0, 77, 100
1, 256680, Note_on_c, 0, 79, 0
1, 256788, Note_on_c, 0, 63, 0
1, 256788, Note_on_c, 0, 65, 0
1, 256800, Note_on_c, 0, 56, 0
1, 256800, Note_on_c, 0, 58, 100
1, 256800, Note_on_c, 0, 75, 100
1, 256800, Note_on_c, 0, 77, 0
1, 256920, Note_on_c, 0, 74, 100
1, 256920, Note_on_c, 0, 75, 0
1, 257040, Note_on_c, 0, 62, 100
1, 257040, Note_on_c, 0, 65, 100
1, 257040, Note_on_c, 0, 72, 100
1, 257040, Note_on_c, 0, 74, 0
1, 257160, Note_on_c, 0, 70, 100
1, 257160, Note_on_c, 0, 72, 0
1, 257268, Note_on_c, 0, 62, 0
1, 257268, Note_on_c, 0, 65, 0
1, 257280, Note_on_c, 0, 62, 100
1, 257280, Note_on_c, 0, 65, 100
1, 257280, Note_on_c, 0, 69, 100
1, 257280, Note_on_c, 0, 70, 0
1, 257400, Note_on_c, 0, 69, 0
1, 257400, Note_on_c, 0, 70, 100
1, 257508, Note_on_c, 0, 62, 0
1, 257508, Note_on_c, 0, 65, 0
1, 257520, Note_on_c, 0, 62, 100
1, 257520, Note_on_c, 0, 65, 100
1, 257520, Note_on_c, 0, 70, 0
1, 257520, Note_on_c, 0, 72, 100
1, 257640, Note_on_c, 0, 68, 100
1, 257640, Note_on_c, 0, 72, 0
1, 257748, Note_on_c, 0, 62, 0
1, 257748, Note_on_c, 0, 65, 0
1, 257760, Note_on_c, 0, 51, 100
1, 257760, Note_on_c, 0, 58, 0
1, 257760, Note_on_c, 0, 67, 100
1, 257760, Note_on_c, 0, 68, 0
1, 257850, Note_on_c, 0, 67, 0
1, 258000, Note_on_c, 0, 55, 100
1, 258000, Note_on_c, 0, 63, 100
1, 258000, Note_on_c, 0, 75, 100
1, 258000, Note_on_c, 0, 87, 100
1, 258228, Note_on_c, 0, 55, 0
1, 258228, Note_on_c, 0, 63, 0
1, 258240, Note_on_c, 0, 55, 100
1, 258240, Note_on_c, 0, 63, 100
1, 258468, Note_on_c, 0, 55, 0
1, 258468, Note_on_c, 0, 63, 0
1, 258480, Note_on_c, 0, 55, 100
1, 258480, Note_on_c, 0, 63, 100
1, 258480, Note_on_c, 0, 75, 0
1, 258480, Note_on_c, 0, 86, 100
1, 258480, Note_on_c, 0, 87, 0
1, 258600, Note_on_c, 0, 86, 0
1, 258600, Note_on_c, 0, 87, 100
1, 258708, Note_on_c, 0, 55, 0
1, 258708, Note_on_c, 0, 63, 0
1, 258720, Note_on_c, 0, 48, 100
1, 258720, Note_on_c, 0, 51, 0
1, 258720, Note_on_c, 0, 87, 0
1, 258720, Note_on_c, 0, 89, 100
1, 258840, Note_on_c, 0, 87, 100
1, 258840, Note_on_c, 0, 89, 0
1, 258960, Note_on_c, 0, 51, 100
1, 258960, Note_on_c, 0, 55, 100
1, 258960, Note_on_c, 0, 60, 100
1, 258960, Note_on_c, 0, 86, 100
1, 258960, Note_on_c, 0, 87, 0
1, 259080, Note_on_c, 0, 84, 100
1, 259080, Note_on_c, 0, 86, 0
1, 259188, Note_on_c, 0, 51, 0
1, 259188, Note_on_c, 0, 55, 0
1, 259188, Note_on_c, 0, 60, 0
1, 259200, Note_on_c, 0, 51, 100
1, 259200, Note_on_c, 0, 55, 100
1, 259200, Note_on_c, 0, 60, 100
1, 259200, Note_on_c, 0, 83, 100
1, 259200, Note_on_c, 0, 84, 0
1, 259320, Note_on_c, 0, 83, 0
1, 259320, Note_on_c, 0, 84, 100
1, 259428, Note_on_c, 0, 51, 0
1, 259428, Note_on_c, 0, 55, 0
1, 259428, Note_on_c, 0, 60, 0
1, 259440, Note_on_c, 0, 51, 100
1, 259440, Note_on_c, 0, 55, 100
1, 259440, Note_on_c, 0, 60, 100
1, 259440, Note_on_c, 0, 84, 0
1, 259440, Note_on_c, 0, 86, 100
1, 259560, Note_on_c, 0, 84, 100
1, 259560, Note_on_c, 0, 86, 0
1, 259668, Note_on_c, 0, 51, 0
1, 259668, Note_on_c, 0, 55, 0
1, 259668, Note_on_c, 0, 60, 0
1, 259680, Note_on_c, 0, 44, 100
1, 259680, Note_on_c, 0, 48, 0
1, 259680, Note_on_c, 0, 82, 100
1, 259680, Note_on_c, 0, 84, 0
1, 259800, Note_on_c, 0, 80, 100
1, 259800, Note_on_c, 0, 82, 0
1, 259920, Note_on_c, 0, 51, 100
1, 259920, Note_on_c, 0, 53, 100
1, 259920, Note_on_c, 0, 56, 100
1, 259920, Note_on_c, 0, 79, 100
1, 259920, Note_on_c, 0, 80, 0
1, 260040, Note_on_c, 0, 77, 100
1, 260040, Note_on_c, 0, 79, 0
1, 260148, Note_on_c, 0, 51, 0
1, 260148, Note_on_c, 0, 53, 0
1, 260148, Note_on_c, 0, 56, 0
1, 260160, Note_on_c, 0, 51, 100
1, 260160, Note_on_c, 0, 53, 100
1, 260160, Note_on_c, 0, 56, 100
1, 260160, Note_on_c, 0, 76, 100
1, 260160, Note_on_c, 0, 77, 0
1, 260280, Note_on_c, 0, 76, 0
1, 260280, Note_on_c, 0, 77, 100
1, 260388, Note_on_c, 0, 51, 0
1, 260388, Note_on_c, 0, 53, 0
1, 260388, Note_on_c, 0, 56, 0
1, 260400, Note_on_c, 0, 51, 100
1, 260400, Note_on_c, 0, 53, 100
1, 260400, Note_on_c, 0, 56, 100
1, 260400, Note_on_c, 0, 77, 0
1, 260400, Note_on_c, 0, 79, 100
1, 260520, Note_on_c, 0, 77, 100
1, 260520, Note_on_c, 0, 79, 0
1, 260628, Note_on_c, 0, 51, 0
1, 260628, Note_on_c, 0, 53, 0
1, 260628, Note_on_c, 0, 56, 0
1, 260640, Note_on_c, 0, 44, 0
1, 260640, Note_on_c, 0, 46, 100
1, 260640, Note_on_c, 0, 75, 100
1, 260640, Note_on_c, 0, 77, 0
1, 260760, Note_on_c, 0, 74, 100
1, 260760, Note_on_c, 0, 75, 0
1, 260880, Note_on_c, 0, 50, 100
1, 260880, Note_on_c, 0, 53, 100
1, 260880, Note_on_c, 0, 58, 100
1, 260880, Note_on_c, 0, 72, 100
1, 260880, Note_on_c, 0, 74, 0
1, 261000, Note_on_c, 0, 70, 100
1, 261000, Note_on_c, 0, 72, 0
1, 261108, Note_on_c, 0, 50, 0
1, 261108, Note_on_c, 0, 53, 0
1, 261108, Note_on_c, 0, 58, 0
1, 261120, Note_on_c, 0, 50, 100
1, 261120, Note_on_c, 0, 53, 100
1, 261120, Note_on_c, 0, 58, 100
1, 261120, Note_on_c, 0, 69, 100
1, 261120, Note_on_c, 0, 70, 0
1, 261240, Note_on_c, 0, 69, 0
1, 261240, Note_on_c, 0, 70, 100
1, 261348, Note_on_c, 0, 50, 0
1, 261348, Note_on_c, 0, 53, 0
1, 261348, Note_on_c, 0, 58, 0
1, 261360, Note_on_c, 0, 50, 100
1, 261360, Note_on_c, 0, 53, 100
1, 261360, Note_on_c, 0, 58, 100
1, 261360, Note_on_c, 0, 70, 0
1, 261360, Note_on_c, 0, 72, 100
1, 261480, Note_on_c, 0, 70, 100
1, 261480, Note_on_c, 0, 72, 0
1, 261588, Note_on_c, 0, 50, 0
1, 261588, Note_on_c, 0, 53, 0
1, 261588, Note_on_c, 0, 58, 0
1, 261600, Note_on_c, 0, 39, 100
1, 261600, Note_on_c, 0, 46, 0
1, 261600, Note_on_c, 0, 70, 0
1, 261600, Note_on_c, 0, 75, 100
1, 261720, Note_on_c, 0, 51, 100
1, 261720, Note_on_c, 0, 75, 0
1, 261828, Note_on_c, 0, 39, 0
1, 261840, Note_on_c, 0, 39, 100
1, 261840, Note_on_c, 0, 51, 0
1, 261840, Note_on_c, 0, 63, 100
1, 261960, Note_on_c, 0, 51, 100
1, 262068, Note_on_c, 0, 39, 0
1, 262080, Note_on_c, 0, 39, 100
1, 262080, Note_on_c, 0, 51, 0
1, 262200, Note_on_c, 0, 51, 100
1, 262308, Note_on_c, 0, 39, 0
1, 262320, Note_on_c, 0, 39, 100
1, 262320, Note_on_c, 0, 51, 0
1, 262320, Note_on_c, 0, 61, 100
1, 262320, Note_on_c, 0, 63, 0
1, 262320, Note_on_c, 0, 67, 100
1, 262440, Note_on_c, 0, 51, 100
1, 262440, Note_on_c, 0, 61, 0
1, 262440, Note_on_c, 0, 67, 0
1, 262548, Note_on_c, 0, 39, 0
1, 262560, Note_on_c, 0, 39, 100
1, 262560, Note_on_c, 0, 51, 0
1, 262560, Note_on_c, 0, 60, 100
1, 262560, Note_on_c, 0, 68, 100
1, 262680, Note_on_c, 0, 51, 100
1, 262680, Note_on_c, 0, 60, 0
1, 262680, Note_on_c, 0, 68, 0
1, 262788, Note_on_c, 0, 39, 0
1, 262800, Note_on_c, 0, 39, 100
1, 262800, Note_on_c, 0, 51, 0
1, 262800, Note_on_c, 0, 67, 100
1, 262800, Note_on_c, 0, 70, 100
1, 262920, Note_on_c, 0, 51, 100
1, 262920, Note_on_c, 0, 67, 0
1, 262920, Note_on_c, 0, 70, 0
1, 263028, Note_on_c, 0, 39, 0
1, 263040, Note_on_c, 0, 39, 100
1, 263040, Note_on_c, 0, 51, 0
1, 263040, Note_on_c, 0, 68, 100
1, 263040, Note_on_c, 0, 72, 100
1, 263160, Note_on_c, 0, 51, 100
1, 263160, Note_on_c, 0, 68, 0
1, 263160, Note_on_c, 0, 72, 0
1, 263268, Note_on_c, 0, 39, 0
1, 263280, Note_on_c, 0, 39, 100
1, 263280, Note_on_c, 0, 51, 0
1, 263280, Note_on_c, 0, 68, 100
1, 263280, Note_on_c, 0, 74, 100
1, 263400, Note_on_c, 0, 51, 100
1, 263400, Note_on_c, 0, 68, 0
1, 263400, Note_on_c, 0, 74, 0
1, 263508, Note_on_c, 0, 39, 0
1, 263520, Note_on_c, 0, 39, 100
1, 263520, Note_on_c, 0, 51, 0
1, 263520, Note_on_c, 0, 67, 100
1, 263520, Note_on_c, 0, 75, 100
1, 263640, Note_on_c, 0, 51, 100
1, 263640, Note_on_c, 0, 67, 0
1, 263640, Note_on_c, 0, 75, 0
1, 263748, Note_on_c, 0, 39, 0
1, 263760, Note_on_c, 0, 39, 100
1, 263760, Note_on_c, 0, 51, 0
1, 263760, Note_on_c, 0, 75, 100
1, 263880, Note_on_c, 0, 51, 100
1, 263988, Note_on_c, 0, 39, 0
1, 264000, Note_on_c, 0, 39, 100
1, 264000, Note_on_c, 0, 51, 0
1, 264120, Note_on_c, 0, 51, 100
1, 264228, Note_on_c, 0, 39, 0
1, 264240, Note_on_c, 0, 39, 100
1, 264240, Note_on_c, 0, 51, 0
1, 264240, Note_on_c, 0, 73, 100
1, 264240, Note_on_c, 0, 75, 0
1, 264240, Note_on_c, 0, 79, 100
1, 264360, Note_on_c, 0, 51, 100
1, 264360, Note_on_c, 0, 73, 0
1, 264360, Note_on_c, 0, 79, 0
1, 264468, Note_on_c, 0, 39, 0
1, 264480, Note_on_c, 0, 39, 100
1, 264480, Note_on_c, 0, 51, 0
1, 264480, Note_on_c, 0, 72, 100
1, 264480, Note_on_c, 0, 80, 100
1, 264600, Note_on_c, 0, 51, 100
1, 264600, Note_on_c, 0, 72, 0
1, 264600, Note_on_c, 0, 80, 0
1, 264708, Note_on_c, 0, 39, 0
1, 264720, Note_on_c, 0, 39, 100
1, 264720, Note_on_c, 0, 51, 0
1, 264720, Note_on_c, 0, 79, 100
1, 264720, Note_on_c, 0, 82, 100
1, 264840, Note_on_c, 0, 51, 100
1, 264840, Note_on_c, 0, 79, 0
1, 264840, Note_on_c, 0, 82, 0
1, 264948, Note_on_c, 0, 39, 0
1, 264960, Note_on_c, 0, 39, 100
1, 264960, Note_on_c, 0, 51, 0
1, 264960, Note_on_c, 0, 80, 100
1, 264960, Note_on_c, 0, 84, 100
1, 265080, Note_on_c, 0, 51, 100
1, 265080, Note_on_c, 0, 80, 0
1, 265080, Note_on_c, 0, 84, 0
1, 265188, Note_on_c, 0, 39, 0
1, 265200, Note_on_c, 0, 39, 100
1, 265200, Note_on_c, 0, 51, 0
1, 265200, Note_on_c, 0, 80, 100
1, 265200, Note_on_c, 0, 86, 100
1, 265320, Note_on_c, 0, 51, 100
1, 265320, Note_on_c, 0, 80, 0
1, 265320, Note_on_c, 0, 86, 0
1, 265428, Note_on_c, 0, 39, 0
1, 265440, Note_on_c, 0, 39, 100
1, 265440, Note_on_c, 0, 51, 0
1, 265440, Note_on_c, 0, 79, 100
1, 265440, Note_on_c, 0, 87, 100
1, 265560, Note_on_c, 0, 51, 100
1, 265668, Note_on_c, 0, 39, 0
1, 265680, Note_on_c, 0, 39, 100
1, 265680, Note_on_c, 0, 51, 0
1, 265800, Note_on_c, 0, 51, 100
1, 265908, Note_on_c, 0, 39, 0
1, 265920, Note_on_c, 0, 39, 100
1, 265920, Note_on_c, 0, 51, 0
1, 266040, Note_on_c, 0, 51, 100
1, 266148, Note_on_c, 0, 39, 0
1, 266160, Note_on_c, 0, 39, 100
1, 266160, Note_on_c, 0, 51, 0
1, 266280, Note_on_c, 0, 51, 100
1, 266388, Note_on_c, 0, 39, 0
1, 266400, Note_on_c, 0, 38, 100
1, 266400, Note_on_c, 0, 51, 0
1, 266400, Note_on_c, 0, 67, 100
1, 266400, Note_on_c, 0, 75, 100
1, 266400, Note_on_c, 0, 79, 0
1, 266400, Note_on_c, 0, 87, 0
1, 266520, Note_on_c, 0, 50, 100
1, 266628, Note_on_c, 0, 38, 0
1, 266640, Note_on_c, 0, 38, 100
1, 266640, Note_on_c, 0, 50, 0
1, 266760, Note_on_c, 0, 50, 100
1, 266868, Note_on_c, 0, 38, 0
1, 266880, Note_on_c, 0, 38, 100
1, 266880, Note_on_c, 0, 50, 0
1, 267000, Note_on_c, 0, 50, 100
1, 267108, Note_on_c, 0, 38, 0
1, 267120, Note_on_c, 0, 38, 100
1, 267120, Note_on_c, 0, 50, 0
1, 267240, Note_on_c, 0, 50, 100
1, 267348, Note_on_c, 0, 38, 0
1, 267360, Note_on_c, 0, 36, 100
1, 267360, Note_on_c, 0, 50, 0
1, 267360, Note_on_c, 0, 67, 0
1, 267360, Note_on_c, 0, 75, 0
1, 267360, Note_on_c, 0, 79, 100
1, 267360, Note_on_c, 0, 87, 100
1, 267480, Note_on_c, 0, 48, 100
1, 267588, Note_on_c, 0, 36, 0
1, 267600, Note_on_c, 0, 36, 100
1, 267600, Note_on_c, 0, 48, 0
1, 267720, Note_on_c, 0, 48, 100
1, 267828, Note_on_c, 0, 36, 0
1, 267840, Note_on_c, 0, 36, 100
1, 267840, Note_on_c, 0, 48, 0
1, 267960, Note_on_c, 0, 48, 100
1, 268068, Note_on_c, 0, 36, 0
1, 268080, Note_on_c, 0, 36, 100
1, 268080, Note_on_c, 0, 48, 0
1, 268200, Note_on_c, 0, 48, 100
1, 268308, Note_on_c, 0, 36, 0
1, 268320, Note_on_c, 0, 34, 100
1, 268320, Note_on_c, 0, 48, 0
1, 268320, Note_on_c, 0, 67, 100
1, 268320, Note_on_c, 0, 75, 100
1, 268320, Note_on_c, 0, 79, 0
1, 268320, Note_on_c, 0, 87, 0
1, 268440, Note_on_c, 0, 46, 100
1, 268548, Note_on_c, 0, 34, 0
1, 268560, Note_on_c, 0, 34, 100
1, 268560, Note_on_c, 0, 46, 0
1, 268680, Note_on_c, 0, 46, 100
1, 268788, Note_on_c, 0, 34, 0
1, 268800, Note_on_c, 0, 34, 100
1, 268800, Note_on_c, 0, 46, 0
1, 268920, Note_on_c, 0, 46, 100
1, 269028, Note_on_c, 0, 34, 0
1, 269040, Note_on_c, 0, 34, 100
1, 269040, Note_on_c, 0, 46, 0
1, 269160, Note_on_c, 0, 46, 100
1, 269268, Note_on_c, 0, 34, 0
1, 269280, Note_on_c, 0, 32, 100
1, 269280, Note_on_c, 0, 46, 0
1, 269280, Note_on_c, 0, 67, 0
1, 269280, Note_on_c, 0, 75, 0
1, 269280, Note_on_c, 0, 84, 100
1, 269280, Note_on_c, 0, 87, 100
1, 269400, Note_on_c, 0, 44, 100
1, 269508, Note_on_c, 0, 32, 0
1, 269520, Note_on_c, 0, 32, 100
1, 269520, Note_on_c, 0, 44, 0
1, 269640, Note_on_c, 0, 44, 100
1, 269748, Note_on_c, 0, 32, 0
1, 269760, Note_on_c, 0, 32, 100
1, 269760, Note_on_c, 0, 44, 0
1, 269880, Note_on_c, 0, 44, 100
1, 269988, Note_on_c, 0, 32, 0
1, 270000, Note_on_c, 0, 32, 100
1, 270000, Note_on_c, 0, 44, 0
1, 270120, Note_on_c, 0, 44, 100
1, 270228, Note_on_c, 0, 32, 0
1, 270240, Note_on_c, 0, 31, 100
1, 270240, Note_on_c, 0, 44, 0
1, 270240, Note_on_c, 0, 72, 100
1, 270240, Note_on_c, 0, 75, 100
1, 270240, Note_on_c, 0, 84, 0
1, 270240, Note_on_c, 0, 87, 0
1, 270360, Note_on_c, 0, 43, 100
1, 270468, Note_on_c, 0, 31, 0
1, 270480, Note_on_c, 0, 31, 100
1, 270480, Note_on_c, 0, 43, 0
1, 270600, Note_on_c, 0, 43, 100
1, 270708, Note_on_c, 0, 31, 0
1, 270720, Note_on_c, 0, 31, 100
1, 270720, Note_on_c, 0, 43, 0
1, 270840, Note_on_c, 0, 43, 100
1, 270948, Note_on_c, 0, 31, 0
1, 270960, Note_on_c, 0, 31, 100
1, 270960, Note_on_c, 0, 43, 0
1, 271080, Note_on_c, 0, 43, 100
1, 271188, Note_on_c, 0, 31, 0
1, 271200, Note_on_c, 0, 30, 100
1, 271200, Note_on_c, 0, 42, 100
1, 271200, Note_on_c, 0, 43, 0
1, 271200, Note_on_c, 0, 72, 0
1, 271200, Note_on_c, 0, 75, 0
1, 271200, Note_on_c, 0, 81, 100
1, 271200, Note_on_c, 0, 84, 100
1, 271200, Note_on_c, 0, 86, 100
1, 272160, Note_on_c, 0, 30, 0
1, 272160, Note_on_c, 0, 42, 0
1, 272160, Note_on_c, 0, 42, 100
1, 272160, Note_on_c, 0, 54, 100
1, 272160, Note_on_c, 0, 57, 100
1, 272160, Note_on_c, 0, 60, 100
1, 272160, Note_on_c, 0, 62, 100
1, 272160, Note_on_c, 0, 81, 0
1, 272160, Note_on_c, 0, 84, 0
1, 272160, Note_on_c, 0, 86, 0
1, 273120, Note_on_c, 0, 31, 100
1, 273120, Note_on_c, 0, 34, 100
1, 273120, Note_on_c, 0, 38, 100
1, 273120, Note_on_c, 0, 42, 0
1, 273120, Note_on_c, 0, 43, 100
1, 273120, Note_on_c, 0, 54, 0
1, 273120, Note_on_c, 0, 55, 100
1, 273120, Note_on_c, 0, 57, 0
1, 273120, Note_on_c, 0, 58, 100
1, 273120, Note_on_c, 0, 60, 0
1, 273120, Note_on_c, 0, 62, 0
1, 273120, Note_on_c, 0, 62, 100
1, 273120, Note_on_c, 0, 67, 100
1, 274440, Note_on_c, 0, 31, 0
1, 274440, Note_on_c, 0, 34, 0
1, 274440, Note_on_c, 0, 38, 0
1, 274440, Note_on_c, 0, 43, 0
1, 274440, Note_on_c, 0, 55, 0
1, 274440, Note_on_c, 0, 58, 0
1, 274440, Note_on_c, 0, 58, 100
1, 274440, Note_on_c, 0, 62, 0
1, 274440, Note_on_c, 0, 62, 100
1, 274440, Note_on_c, 0, 67, 0
1, 274440, Note_on_c, 0, 67, 100
1, 274554, Note_on_c, 0, 58, 0
1, 274554, Note_on_c, 0, 62, 0
1, 274554, Note_on_c, 0, 67, 0
1, 274560, Note_on_c, 0, 57, 100
1, 274560, Note_on_c, 0, 62, 100
1, 274560, Note_on_c, 0, 66, 100
1, 274560, Note_on_c, 0, 69, 100
1, 274920, Note_on_c, 0, 55, 100
1, 274920, Note_on_c, 0, 57, 0
1, 274920, Note_on_c, 0, 62, 0
1, 274920, Note_on_c, 0, 62, 100
1, 274920, Note_on_c, 0, 66, 0
1, 274920, Note_on_c, 0, 67, 100
1, 274920, Note_on_c, 0, 69, 0
1, 274920, Note_on_c, 0, 70, 100
1, 275034, Note_on_c, 0, 55, 0
1, 275034, Note_on_c, 0, 62, 0
1, 275034, Note_on_c, 0, 67, 0
1, 275034, Note_on_c, 0, 70, 0
1, 275040, Note_on_c, 0, 61, 100
1, 275040, Note_on_c, 0, 64, 100
1, 275040, Note_on_c, 0, 67, 100
1, 275040, Note_on_c, 0, 70, 100
1, 276000, Note_on_c, 0, 61, 0
1, 276000, Note_on_c, 0, 62, 100
1, 276000, Note_on_c, 0, 64, 0
1, 276000, Note_on_c, 0, 66, 100
1, 276000, Note_on_c, 0, 67, 0
1, 276000, Note_on_c, 0, 69, 100
1, 276000, Note_on_c, 0, 70, 0
1, 276480, Note_on_c, 0, 62, 0
1, 276480, Note_on_c, 0, 66, 0
1, 276480, Note_on_c, 0, 69, 0
1, 276840, Note_on_c, 0, 51, 100
1, 276960, Note_on_c, 0, 51, 0
1, 276960, Note_on_c, 0, 63, 100
1, 276960, Note_on_c, 0, 66, 100
1, 276960, Note_on_c, 0, 69, 100
1, 276960, Note_on_c, 0, 72, 100
1, 278280, Note_on_c, 0, 63, 0
1, 278280, Note_on_c, 0, 63, 100
1, 278280, Note_on_c, 0, 66, 0
1, 278280, Note_on_c, 0, 66, 100
1, 278280, Note_on_c, 0, 69, 0
1, 278280, Note_on_c, 0, 69, 100
1, 278280, Note_on_c, 0, 72, 0
1, 278280, Note_on_c, 0, 72, 100
1, 278394, Note_on_c, 0, 63, 0
1, 278394, Note_on_c, 0, 66, 0
1, 278394, Note_on_c, 0, 69, 0
1, 278394, Note_on_c, 0, 72, 0
1, 278400, Note_on_c, 0, 62, 100
1, 278400, Note_on_c, 0, 66, 100
1, 278400, Note_on_c, 0, 69, 100
1, 278400, Note_on_c, 0, 74, 100
1, 278760, Note_on_c, 0, 60, 100
1, 278760, Note_on_c, 0, 62, 0
1, 278760, Note_on_c, 0, 66, 0
1, 278760, Note_on_c, 0, 66, 100
1, 278760, Note_on_c, 0, 69, 0
1, 278760, Note_on_c, 0, 69, 100
1, 278760, Note_on_c, 0, 74, 0
1, 278760, Note_on_c, 0, 75, 100
1, 278874, Note_on_c, 0, 60, 0
1, 278874, Note_on_c, 0, 66, 0
1, 278874, Note_on_c, 0, 69, 0
1, 278874, Note_on_c, 0, 75, 0
1, 278880, Note_on_c, 0, 58, 100
1, 278880, Note_on_c, 0, 66, 100
1, 278880, Note_on_c, 0, 69, 100
1, 278880, Note_on_c, 0, 75, 100
1, 279840, Note_on_c, 0, 66, 0
1, 279840, Note_on_c, 0, 67, 100
1, 279840, Note_on_c, 0, 69, 0
1, 279840, Note_on_c, 0, 70, 100
1, 279840, Note_on_c, 0, 74, 100
1, 279840, Note_on_c, 0, 75, 0
1, 280320, Note_on_c, 0, 58, 0
1, 280320, Note_on_c, 0, 67, 0
1, 280320, Note_on_c, 0, 70, 0
1, 280320, Note_on_c, 0, 74, 0
1, 280680, Note_on_c, 0, 51, 100
1, 280800, Note_on_c, 0, 51, 0
1, 280800, Note_on_c, 0, 63, 100
1, 280800, Note_on_c, 0, 66, 100
1, 280800, Note_on_c, 0, 69, 100
1, 280800, Note_on_c, 0, 72, 100
1, 282120, Note_on_c, 0, 63, 0
1, 282120, Note_on_c, 0, 63, 100
1, 282120, Note_on_c, 0, 66, 0
1, 282120, Note_on_c, 0, 66, 100
1, 282120, Note_on_c, 0, 69, 0
1, 282120, Note_on_c, 0, 69, 100
1, 282120, Note_on_c, 0, 72, 0
1, 282120, Note_on_c, 0, 72, 100
1, 282234, Note_on_c, 0, 63, 0
1, 282234, Note_on_c, 0, 66, 0
1, 282234, Note_on_c, 0, 69, 0
1, 282234, Note_on_c, 0, 72, 0
1, 282240, Note_on_c, 0, 62, 100
1, 282240, Note_on_c, 0, 66, 100
1, 282240, Note_on_c, 0, 69, 100
1, 282240, Note_on_c, 0, 74, 100
1, 282600, Note_on_c, 0, 60, 100
1, 282600, Note_on_c, 0, 62, 0
1, 282600, Note_on_c, 0, 66, 0
1, 282600, Note_on_c, 0, 66, 100
1, 282600, Note_on_c, 0, 69, 0
1, 282600, Note_on_c, 0, 69, 100
1, 282600, Note_on_c, 0, 74, 0
1, 282600, Note_on_c, 0, 75, 100
1, 282714, Note_on_c, 0, 60, 0
1, 282714, Note_on_c, 0, 66, 0
1, 282714, Note_on_c, 0, 69, 0
1, 282714, Note_on_c, 0, 75, 0
1, 282720, Note_on_c, 0, 60, 100
1, 282720, Note_on_c, 0, 66, 100
1, 282720, Note_on_c, 0, 69, 100
1, 282720, Note_on_c, 0, 75, 100
1, 283200, Note_on_c, 0, 59, 100
1, 283200, Note_on_c, 0, 60, 0
1, 283680, Note_on_c, 0, 64, 100
1, 283680, Note_on_c, 0, 66, 0
1, 283680, Note_on_c, 0, 67, 100
1, 283680, Note_on_c, 0, 69, 0
1, 283680, Note_on_c, 0, 75, 0
1, 283680, Note_on_c, 0, 76, 100
1, 284160, Note_on_c, 0, 59, 0
1, 284160, Note_on_c, 0, 59, 100
1, 284640, Note_on_c, 0, 63, 100
1, 284640, Note_on_c, 0, 64, 0
1, 284640, Note_on_c, 0, 66, 100
1, 284640, Note_on_c, 0, 67, 0
1, 284640, Note_on_c, 0, 69, 100
1, 284640, Note_on_c, 0, 76, 0
1, 285120, Note_on_c, 0, 47, 100
1, 285120, Note_on_c, 0, 59, 0
1, 285600, Note_on_c, 0, 59, 100
1, 285600, Note_on_c, 0, 63, 0
1, 285600, Note_on_c, 0, 64, 100
1, 285600, Note_on_c, 0, 66, 0
1, 285600, Note_on_c, 0, 67, 100
1, 285600, Note_on_c, 0, 69, 0
1, 286080, Note_on_c, 0, 47, 0
1, 286080, Note_on_c, 0, 47, 100
1, 286560, Note_on_c, 0, 57, 100
1, 286560, Note_on_c, 0, 59, 0
1, 286560, Note_on_c, 0, 60, 100
1, 286560, Note_on_c, 0, 63, 100
1, 286560, Note_on_c, 0, 64, 0
1, 286560, Note_on_c, 0, 66, 100
1, 286560, Note_on_c, 0, 67, 0
1, 287040, Note_on_c, 0, 35, 100
1, 287040, Note_on_c, 0, 47, 0
1, 287520, Note_on_c, 0, 54, 100
1, 287520, Note_on_c, 0, 57, 0
1, 287520, Note_on_c, 0, 57, 100
1, 287520, Note_on_c, 0, 60, 0
1, 287520, Note_on_c, 0, 63, 0
1, 287520, Note_on_c, 0, 63, 100
1, 287520, Note_on_c, 0, 66, 0
1, 288000, Note_on_c, 0, 35, 0
1, 288000, Note_on_c, 0, 35, 100
1, 288480, Note_on_c, 0, 35, 0
1, 288480, Note_on_c, 0, 40, 100
1, 288480, Note_on_c, 0, 54, 0
1, 288480, Note_on_c, 0, 57, 0
1, 288480, Note_on_c, 0, 63, 0
1, 288480, Note_on_c, 0, 64, 100
1, 288570, Note_on_c, 0, 64, 0
1, 288600, Note_on_c, 0, 52, 100
1, 288708, Note_on_c, 0, 40, 0
1, 288720, Note_on_c, 0, 40, 100
1, 288720, Note_on_c, 0, 52, 0
1, 288720, Note_on_c, 0, 69, 100
1, 288810, Note_on_c, 0, 69, 0
1, 288840, Note_on_c, 0, 52, 100
1, 288948, Note_on_c, 0, 40, 0
1, 288960, Note_on_c, 0, 40, 100
1, 288960, Note_on_c, 0, 52, 0
1, 288960, Note_on_c, 0, 67, 100
1, 289050, Note_on_c, 0, 67, 0
1, 289080, Note_on_c, 0, 52, 100
1, 289188, Note_on_c, 0, 40, 0
1, 289200, Note_on_c, 0, 40, 100
1, 289200, Note_on_c, 0, 52, 0
1, 289200, Note_on_c, 0, 69, 100
1, 289200, Note_on_c, 0, 75, 100
1, 289290, Note_on_c, 0, 69, 0
1, 289290, Note_on_c, 0, 75, 0
1, 289320, Note_on_c, 0, 52, 100
1, 289428, Note_on_c, 0, 40, 0
1, 289440, Note_on_c, 0, 40, 100
1, 289440, Note_on_c, 0, 52, 0
1, 289440, Note_on_c, 0, 67, 100
1, 289440, Note_on_c, 0, 76, 100
1, 289530, Note_on_c, 0, 67, 0
1, 289530, Note_on_c, 0, 76, 0
1, 289560, Note_on_c, 0, 52, 100
1, 289668, Note_on_c, 0, 40, 0
1, 289680, Note_on_c, 0, 40, 100
1, 289680, Note_on_c, 0, 52, 0
1, 289680, Note_on_c, 0, 75, 100
1, 289680, Note_on_c, 0, 81, 100
1, 289770, Note_on_c, 0, 75, 0
1, 289770, Note_on_c, 0, 81, 0
1, 289800, Note_on_c, 0, 52, 100
1, 289908, Note_on_c, 0, 40, 0
1, 289920, Note_on_c, 0, 40, 100
1, 289920, Note_on_c, 0, 52, 0
1, 289920, Note_on_c, 0, 76, 100
1, 289920, Note_on_c, 0, 79, 100
1, 290010, Note_on_c, 0, 76, 0
1, 290010, Note_on_c, 0, 79, 0
1, 290040, Note_on_c, 0, 52, 100
1, 290148, Note_on_c, 0, 40, 0
1, 290160, Note_on_c, 0, 40, 100
1, 290160, Note_on_c, 0, 52, 0
1, 290160, Note_on_c, 0, 81, 100
1, 290160, Note_on_c, 0, 87, 100
1, 290250, Note_on_c, 0, 81, 0
1, 290250, Note_on_c, 0, 87, 0
1, 290280, Note_on_c, 0, 52, 100
1, 290388, Note_on_c, 0, 40, 0
1, 290400, Note_on_c, 0, 40, 100
1, 290400, Note_on_c, 0, 52, 0
1, 290400, Note_on_c, 0, 52, 100
1, 290400, Note_on_c, 0, 79, 100
1, 290400, Note_on_c, 0, 88, 100
1, 290628, Note_on_c, 0, 40, 0
1, 290628, Note_on_c, 0, 52, 0
1, 290640, Note_on_c, 0, 55, 100
1, 290640, Note_on_c, 0, 59, 100
1, 290640, Note_on_c, 0, 79, 0
1, 290640, Note_on_c, 0, 88, 0
1, 290868, Note_on_c, 0, 55, 0
1, 290868, Note_on_c, 0, 59, 0
1, 290880, Note_on_c, 0, 55, 100
1, 290880, Note_on_c, 0, 59, 100
1, 290880, Note_on_c, 0, 64, 100
1, 290880, Note_on_c, 0, 76, 100
1, 291108, Note_on_c, 0, 55, 0
1, 291108, Note_on_c, 0, 59, 0
1, 291120, Note_on_c, 0, 55, 100
1, 291120, Note_on_c, 0, 59, 100
1, 291120, Note_on_c, 0, 64, 0
1, 291120, Note_on_c, 0, 76, 0
1, 291348, Note_on_c, 0, 55, 0
1, 291348, Note_on_c, 0, 59, 0
1, 291360, Note_on_c, 0, 52, 100
1, 291588, Note_on_c, 0, 52, 0
1, 291600, Note_on_c, 0, 55, 100
1, 291600, Note_on_c, 0, 59, 100
1, 291600, Note_on_c, 0, 64, 100
1, 291600, Note_on_c, 0, 76, 100
1, 291690, Note_on_c, 0, 64, 0
1, 291690, Note_on_c, 0, 76, 0
1, 291828, Note_on_c, 0, 55, 0
1, 291828, Note_on_c, 0, 59, 0
1, 291840, Note_on_c, 0, 55, 100
1, 291840, Note_on_c, 0, 59, 100
1, 291840, Note_on_c, 0, 66, 100
1, 291840, Note_on_c, 0, 78, 100
1, 291930, Note_on_c, 0, 66, 0
1, 291930, Note_on_c, 0, 78, 0
1, 292068, Note_on_c, 0, 55, 0
1, 292068, Note_on_c, 0, 59, 0
1, 292080, Note_on_c, 0, 55, 100
1, 292080, Note_on_c, 0, 59, 100
1, 292080, Note_on_c, 0, 67, 100
1, 292080, Note_on_c, 0, 79, 100
1, 292170, Note_on_c, 0, 67, 0
1, 292170, Note_on_c, 0, 79, 0
1, 292308, Note_on_c, 0, 55, 0
1, 292308, Note_on_c, 0, 59, 0
1, 292320, Note_on_c, 0, 52, 100
1, 292320, Note_on_c, 0, 67, 100
1, 292320, Note_on_c, 0, 79, 100
1, 292548, Note_on_c, 0, 52, 0
1, 292560, Note_on_c, 0, 57, 100
1, 292560, Note_on_c, 0, 60, 100
1, 292788, Note_on_c, 0, 57, 0
1, 292788, Note_on_c, 0, 60, 0
1, 292800, Note_on_c, 0, 57, 100
1, 292800, Note_on_c, 0, 60, 100
1, 292800, Note_on_c, 0, 66, 100
1, 292800, Note_on_c, 0, 67, 0
1, 292800, Note_on_c, 0, 78, 100
1, 292800, Note_on_c, 0, 79, 0
1, 293028, Note_on_c, 0, 57, 0
1, 293028, Note_on_c, 0, 60, 0
1, 293040, Note_on_c, 0, 57, 100
1, 293040, Note_on_c, 0, 60, 100
1, 293040, Note_on_c, 0, 66, 0
1, 293040, Note_on_c, 0, 78, 0
1, 293268, Note_on_c, 0, 57, 0
1, 293268, Note_on_c, 0, 60, 0
1, 293280, Note_on_c, 0, 51, 100
1, 293508, Note_on_c, 0, 51, 0
1, 293520, Note_on_c, 0, 57, 100
1, 293520, Note_on_c, 0, 60, 100
1, 293520, Note_on_c, 0, 66, 100
1, 293520, Note_on_c, 0, 78, 100
1, 293610, Note_on_c, 0, 66, 0
1, 293610, Note_on_c, 0, 78, 0
1, 293748, Note_on_c, 0, 57, 0
1, 293748, Note_on_c, 0, 60, 0
1, 293760, Note_on_c, 0, 57, 100
1, 293760, Note_on_c, 0, 60, 100
1, 293760, Note_on_c, 0, 67, 100
1, 293760, Note_on_c, 0, 79, 100
1, 293850, Note_on_c, 0, 67, 0
1, 293850, Note_on_c, 0, 79, 0
1, 293988, Note_on_c, 0, 57, 0
1, 293988, Note_on_c, 0, 60, 0
1, 294000, Note_on_c, 0, 57, 100
1, 294000, Note_on_c, 0, 60, 100
1, 294000, Note_on_c, 0, 69, 100
1, 294000, Note_on_c, 0, 81, 100
1, 294090, Note_on_c, 0, 69, 0
1, 294090, Note_on_c, 0, 81, 0
1, 294228, Note_on_c, 0, 57, 0
1, 294228, Note_on_c, 0, 60, 0
1, 294240, Note_on_c, 0, 38, 100
1, 294240, Note_on_c, 0, 69, 100
1, 294240, Note_on_c, 0, 81, 100
1, 294330, Note_on_c, 0, 69, 0
1, 294330, Note_on_c, 0, 81, 0
1, 294360, Note_on_c, 0, 50, 100
1, 294468, Note_on_c, 0, 38, 0
1, 294480, Note_on_c, 0, 38, 100
1, 294480, Note_on_c, 0, 50, 0
1, 294480, Note_on_c, 0, 67, 100
1, 294570, Note_on_c, 0, 67, 0
1, 294600, Note_on_c, 0, 50, 100
1, 294708, Note_on_c, 0, 38, 0
1, 294720, Note_on_c, 0, 38, 100
1, 294720, Note_on_c, 0, 50, 0
1, 294720, Note_on_c, 0, 66, 100
1, 294810, Note_on_c, 0, 66, 0
1, 294840, Note_on_c, 0, 50, 100
1, 294948, Note_on_c, 0, 38, 0
1, 294960, Note_on_c, 0, 38, 100
1, 294960, Note_on_c, 0, 50, 0
1, 294960, Note_on_c, 0, 67, 100
1, 294960, Note_on_c, 0, 73, 100
1, 295050, Note_on_c, 0, 67, 0
1, 295050, Note_on_c, 0, 73, 0
1, 295080, Note_on_c, 0, 50, 100
1, 295188, Note_on_c, 0, 38, 0
1, 295200, Note_on_c, 0, 38, 100
1, 295200, Note_on_c, 0, 50, 0
1, 295200, Note_on_c, 0, 66, 100
1, 295200, Note_on_c, 0, 74, 100
1, 295290, Note_on_c, 0, 66, 0
1, 295290, Note_on_c, 0, 74, 0
1, 295320, Note_on_c, 0, 50, 100
1, 295428, Note_on_c, 0, 38, 0
1, 295440, Note_on_c, 0, 38, 100
1, 295440, Note_on_c, 0, 50, 0
1, 295440, Note_on_c, 0, 73, 100
1, 295440, Note_on_c, 0, 79, 100
1, 295530, Note_on_c, 0, 73, 0
1, 295530, Note_on_c, 0, 79, 0
1, 295560, Note_on_c, 0, 50, 100
1, 295668, Note_on_c, 0, 38, 0
1, 295680, Note_on_c, 0, 38, 100
1, 295680, Note_on_c, 0, 50, 0
1, 295680, Note_on_c, 0, 74, 100
1, 295680, Note_on_c, 0, 78, 100
1, 295770, Note_on_c, 0, 74, 0
1, 295770, Note_on_c, 0, 78, 0
1, 295800, Note_on_c, 0, 50, 100
1, 295908, Note_on_c, 0, 38, 0
1, 295920, Note_on_c, 0, 38, 100
1, 295920, Note_on_c, 0, 50, 0
1, 295920, Note_on_c, 0, 79, 100
1, 295920, Note_on_c, 0, 85, 100
1, 296010, Note_on_c, 0, 79, 0
1, 296010, Note_on_c, 0, 85, 0
1, 296040, Note_on_c, 0, 50, 100
1, 296148, Note_on_c, 0, 38, 0
1, 296160, Note_on_c, 0, 38, 100
1, 296160, Note_on_c, 0, 50, 0
1, 296160, Note_on_c, 0, 50, 100
1, 296160, Note_on_c, 0, 78, 100
1, 296160, Note_on_c, 0, 86, 100
1, 296388, Note_on_c, 0, 38, 0
1, 296388, Note_on_c, 0, 50, 0
1, 296400, Note_on_c, 0, 57, 100
1, 296400, Note_on_c, 0, 60, 100
1, 296400, Note_on_c, 0, 78, 0
1, 296400, Note_on_c, 0, 86, 0
1, 296628, Note_on_c, 0, 57, 0
1, 296628, Note_on_c, 0, 60, 0
1, 296640, Note_on_c, 0, 57, 100
1, 296640, Note_on_c, 0, 60, 100
1, 296640, Note_on_c, 0, 66, 100
1, 296640, Note_on_c, 0, 78, 100
1, 296868, Note_on_c, 0, 57, 0
1, 296868, Note_on_c, 0, 60, 0
1, 296880, Note_on_c, 0, 57, 100
1, 296880, Note_on_c, 0, 60, 100
1, 296880, Note_on_c, 0, 66, 0
1, 296880, Note_on_c, 0, 78, 0
1, 297108, Note_on_c, 0, 57, 0
1, 297108, Note_on_c, 0, 60, 0
1, 297120, Note_on_c, 0, 50, 100
1, 297348, Note_on_c, 0, 50, 0
1, 297360, Note_on_c, 0, 57, 100
1, 297360, Note_on_c, 0, 60, 100
1, 297360, Note_on_c, 0, 66, 100
1, 297360, Note_on_c, 0, 78, 100
1, 297450, Note_on_c, 0, 66, 0
1, 297450, Note_on_c, 0, 78, 0
1, 297588, Note_on_c, 0, 57, 0
1, 297588, Note_on_c, 0, 60, 0
1, 297600, Note_on_c, 0, 57, 100
1, 297600, Note_on_c, 0, 60, 100
1, 297600, Note_on_c, 0, 67, 100
1, 297600, Note_on_c, 0, 79, 100
1, 297690, Note_on_c, 0, 67, 0
1, 297690, Note_on_c, 0, 79, 0
1, 297828, Note_on_c, 0, 57, 0
1, 297828, Note_on_c, 0, 60, 0
1, 297840, Note_on_c, 0, 57, 100
1, 297840, Note_on_c, 0, 60, 100
1, 297840, Note_on_c, 0, 69, 100
1, 297840, Note_on_c, 0, 81, 100
1, 297930, Note_on_c, 0, 69, 0
1, 297930, Note_on_c, 0, 81, 0
1, 298068, Note_on_c, 0, 57, 0
1, 298068, Note_on_c, 0, 60, 0
1, 298080, Note_on_c, 0, 50, 100
1, 298080, Note_on_c, 0, 69, 100
1, 298080, Note_on_c, 0, 81, 100
1, 298308, Note_on_c, 0, 50, 0
1, 298320, Note_on_c, 0, 55, 100
1, 298320, Note_on_c, 0, 58, 100
1, 298548, Note_on_c, 0, 55, 0
1, 298548, Note_on_c, 0, 58, 0
1, 298560, Note_on_c, 0, 55, 100
1, 298560, Note_on_c, 0, 58, 100
1, 298560, Note_on_c, 0, 67, 100
1, 298560, Note_on_c, 0, 69, 0
1, 298560, Note_on_c, 0, 79, 100
1, 298560, Note_on_c, 0, 81, 0
1, 298788, Note_on_c, 0, 55, 0
1, 298788, Note_on_c, 0, 58, 0
1, 298800, Note_on_c, 0, 55, 100
1, 298800, Note_on_c, 0, 58, 100
1, 298800, Note_on_c, 0, 67, 0
1, 298800, Note_on_c, 0, 79, 0
1, 299028, Note_on_c, 0, 55, 0
1, 299028, Note_on_c, 0, 58, 0
1, 299040, Note_on_c, 0, 49, 100
1, 299268, Note_on_c, 0, 49, 0
1, 299280, Note_on_c, 0, 55, 100
1, 299280, Note_on_c, 0, 58, 100
1, 299280, Note_on_c, 0, 67, 100
1, 299280, Note_on_c, 0, 79, 100
1, 299370, Note_on_c, 0, 67, 0
1, 299370, Note_on_c, 0, 79, 0
1, 299508, Note_on_c, 0, 55, 0
1, 299508, Note_on_c, 0, 58, 0
1, 299520, Note_on_c, 0, 55, 100
1, 299520, Note_on_c, 0, 58, 100
1, 299520, Note_on_c, 0, 69, 100
1, 299520, Note_on_c, 0, 81, 100
1, 299610, Note_on_c, 0, 69, 0
1, 299610, Note_on_c, 0, 81, 0
1, 299748, Note_on_c, 0, 55, 0
1, 299748, Note_on_c, 0, 58, 0
1, 299760, Note_on_c, 0, 55, 100
1, 299760, Note_on_c, 0, 58, 100
1, 299760, Note_on_c, 0, 70, 100
1, 299760, Note_on_c, 0, 82, 100
1, 299850, Note_on_c, 0, 70, 0
1, 299850, Note_on_c, 0, 82, 0
1, 299988, Note_on_c, 0, 55, 0
1, 299988, Note_on_c, 0, 58, 0
1, 300000, Note_on_c, 0, 36, 100
1, 300000, Note_on_c, 0, 48, 100
1, 300000, Note_on_c, 0, 70, 100
1, 300120, Note_on_c, 0, 82, 100
1, 300228, Note_on_c, 0, 70, 0
1, 300240, Note_on_c, 0, 36, 0
1, 300240, Note_on_c, 0, 48, 0
1, 300240, Note_on_c, 0, 49, 100
1, 300240, Note_on_c, 0, 70, 100
1, 300240, Note_on_c, 0, 82, 0
1, 300360, Note_on_c, 0, 82, 100
1, 300468, Note_on_c, 0, 70, 0
1, 300480, Note_on_c, 0, 48, 100
1, 300480, Note_on_c, 0, 49, 0
1, 300480, Note_on_c, 0, 70, 100
1, 300480, Note_on_c, 0, 82, 0
1, 300600, Note_on_c, 0, 82, 100
1, 300708, Note_on_c, 0, 70, 0
1, 300720, Note_on_c, 0, 48, 0
1, 300720, Note_on_c, 0, 53, 100
1, 300720, Note_on_c, 0, 70, 100
1, 300720, Note_on_c, 0, 82, 0
1, 300840, Note_on_c, 0, 82, 100
1, 300948, Note_on_c, 0, 70, 0
1, 300960, Note_on_c, 0, 52, 100
1, 300960, Note_on_c, 0, 53, 0
1, 300960, Note_on_c, 0, 70, 100
1, 300960, Note_on_c, 0, 82, 0
1, 301080, Note_on_c, 0, 82, 100
1, 301188, Note_on_c, 0, 70, 0
1, 301200, Note_on_c, 0, 52, 0
1, 301200, Note_on_c, 0, 61, 100
1, 301200, Note_on_c, 0, 70, 100
1, 301200, Note_on_c, 0, 82, 0
1, 301320, Note_on_c, 0, 82, 100
1, 301428, Note_on_c, 0, 70, 0
1, 301440, Note_on_c, 0, 60, 100
1, 301440, Note_on_c, 0, 61, 0
1, 301440, Note_on_c, 0, 70, 100
1, 301440, Note_on_c, 0, 82, 0
1, 301560, Note_on_c, 0, 82, 100
1, 301668, Note_on_c, 0, 70, 0
1, 301680, Note_on_c, 0, 60, 0
1, 301680, Note_on_c, 0, 65, 100
1, 301680, Note_on_c, 0, 70, 100
1, 301680, Note_on_c, 0, 82, 0
1, 301800, Note_on_c, 0, 82, 100
1, 301908, Note_on_c, 0, 70, 0
1, 301920, Note_on_c, 0, 64, 100
1, 301920, Note_on_c, 0, 65, 0
1, 301920, Note_on_c, 0, 70, 100
1, 301920, Note_on_c, 0, 82, 0
1, 302040, Note_on_c, 0, 82, 100
1, 302148, Note_on_c, 0, 70, 0
1, 302160, Note_on_c, 0, 64, 0
1, 302160, Note_on_c, 0, 66, 100
1, 302160, Note_on_c, 0, 70, 100
1, 302160, Note_on_c, 0, 82, 0
1, 302280, Note_on_c, 0, 82, 100
1, 302388, Note_on_c, 0, 70, 0
1, 302400, Note_on_c, 0, 66, 0
1, 302400, Note_on_c, 0, 67, 100
1, 302400, Note_on_c, 0, 70, 100
1, 302400, Note_on_c, 0, 82, 0
1, 302520, Note_on_c, 0, 82, 100
1, 302628, Note_on_c, 0, 70, 0
1, 302640, Note_on_c, 0, 67, 0
1, 302640, Note_on_c, 0, 70, 100
1, 302640, Note_on_c, 0, 82, 0
1, 302760, Note_on_c, 0, 82, 100
1, 302868, Note_on_c, 0, 70, 0
1, 302880, Note_on_c, 0, 70, 100
1, 302880, Note_on_c, 0, 82, 0
1, 303000, Note_on_c, 0, 82, 100
1, 303108, Note_on_c, 0, 70, 0
1, 303120, Note_on_c, 0, 70, 100
1, 303120, Note_on_c, 0, 82, 0
1, 303240, Note_on_c, 0, 82, 100
1, 303348, Note_on_c, 0, 70, 0
1, 303360, Note_on_c, 0, 70, 100
1, 303360, Note_on_c, 0, 82, 0
1, 303480, Note_on_c, 0, 82, 100
1, 303588, Note_on_c, 0, 70, 0
1, 303600, Note_on_c, 0, 70, 100
1, 303600, Note_on_c, 0, 82, 0
1, 303720, Note_on_c, 0, 82, 100
1, 303828, Note_on_c, 0, 70, 0
1, 303840, Note_on_c, 0, 69, 100
1, 303840, Note_on_c, 0, 82, 0
1, 303960, Note_on_c, 0, 81, 100
1, 304068, Note_on_c, 0, 69, 0
1, 304080, Note_on_c, 0, 42, 100
1, 304080, Note_on_c, 0, 69, 100
1, 304080, Note_on_c, 0, 81, 0
1, 304200, Note_on_c, 0, 81, 100
1, 304308, Note_on_c, 0, 69, 0
1, 304320, Note_on_c, 0, 41, 100
1, 304320, Note_on_c, 0, 42, 0
1, 304320, Note_on_c, 0, 69, 100
1, 304320, Note_on_c, 0, 81, 0
1, 304440, Note_on_c, 0, 81, 100
1, 304548, Note_on_c, 0, 69, 0
1, 304560, Note_on_c, 0, 41, 0
1, 304560, Note_on_c, 0, 49, 100
1, 304560, Note_on_c, 0, 69, 100
1, 304560, Note_on_c, 0, 81, 0
1, 304680, Note_on_c, 0, 81, 100
1, 304788, Note_on_c, 0, 69, 0
1, 304800, Note_on_c, 0, 48, 100
1, 304800, Note_on_c, 0, 49, 0
1, 304800, Note_on_c, 0, 69, 100
1, 304800, Note_on_c, 0, 81, 0
1, 304920, Note_on_c, 0, 81, 100
1, 305028, Note_on_c, 0, 69, 0
1, 305040, Note_on_c, 0, 48, 0
1, 305040, Note_on_c, 0, 54, 100
1, 305040, Note_on_c, 0, 69, 100
1, 305040, Note_on_c, 0, 81, 0
1, 305160, Note_on_c, 0, 81, 100
1, 305268, Note_on_c, 0, 69, 0
1, 305280, Note_on_c, 0, 53, 100
1, 305280, Note_on_c, 0, 54, 0
1, 305280, Note_on_c, 0, 69, 100
1, 305280, Note_on_c, 0, 81, 0
1, 305400, Note_on_c, 0, 81, 100
1, 305508, Note_on_c, 0, 69, 0
1, 305520, Note_on_c, 0, 53, 0
1, 305520, Note_on_c, 0, 61, 100
1, 305520, Note_on_c, 0, 69, 100
1, 305520, Note_on_c, 0, 81, 0
1, 305640, Note_on_c, 0, 81, 100
1, 305748, Note_on_c, 0, 69, 0
1, 305760, Note_on_c, 0, 60, 100
1, 305760, Note_on_c, 0, 61, 0
1, 305760, Note_on_c, 0, 69, 100
1, 305760, Note_on_c, 0, 81, 0
1, 305880, Note_on_c, 0, 81, 100
1, 305988, Note_on_c, 0, 69, 0
1, 306000, Note_on_c, 0, 60, 0
1, 306000, Note_on_c, 0, 64, 100
1, 306000, Note_on_c, 0, 69, 100
1, 306000, Note_on_c, 0, 81, 0
1, 306120, Note_on_c, 0, 81, 100
1, 306228, Note_on_c, 0, 69, 0
1, 306240, Note_on_c, 0, 64, 0
1, 306240, Note_on_c, 0, 65, 100
1, 306240, Note_on_c, 0, 69, 100
1, 306240, Note_on_c, 0, 81, 0
1, 306360, Note_on_c, 0, 81, 100
1, 306468, Note_on_c, 0, 69, 0
1, 306480, Note_on_c, 0, 65, 0
1, 306480, Note_on_c, 0, 69, 100
1, 306480, Note_on_c, 0, 81, 0
1, 306600, Note_on_c, 0, 81, 100
1, 306708, Note_on_c, 0, 69, 0
1, 306720, Note_on_c, 0, 69, 100
1, 306720, Note_on_c, 0, 81, 0
1, 306840, Note_on_c, 0, 81, 100
1, 306948, Note_on_c, 0, 69, 0
1, 306960, Note_on_c, 0, 69, 100
1, 306960, Note_on_c, 0, 81, 0
1, 307080, Note_on_c, 0, 81, 100
1, 307188, Note_on_c, 0, 69, 0
1, 307200, Note_on_c, 0, 69, 100
1, 307200, Note_on_c, 0, 81, 0
1, 307320, Note_on_c, 0, 81, 100
1, 307428, Note_on_c, 0, 69, 0
1, 307440, Note_on_c, 0, 69, 100
1, 307440, Note_on_c, 0, 81, 0
1, 307560, Note_on_c, 0, 81, 100
1, 307668, Note_on_c, 0, 69, 0
1, 307680, Note_on_c, 0, 68, 100
1, 307680, Note_on_c, 0, 81, 0
1, 307800, Note_on_c, 0, 80, 100
1, 307908, Note_on_c, 0, 68, 0
1, 307920, Note_on_c, 0, 48, 100
1, 307920, Note_on_c, 0, 68, 100
1, 307920, Note_on_c, 0, 80, 0
1, 308040, Note_on_c, 0, 80, 100
1, 308148, Note_on_c, 0, 68, 0
1, 308160, Note_on_c, 0, 47, 100
1, 308160, Note_on_c, 0, 48, 0
1, 308160, Note_on_c, 0, 68, 100
1, 308160, Note_on_c, 0, 80, 0
1, 308280, Note_on_c, 0, 80, 100
1, 308388, Note_on_c, 0, 68, 0
1, 308400, Note_on_c, 0, 47, 0
1, 308400, Note_on_c, 0, 50, 100
1, 308400, Note_on_c, 0, 68, 100
1, 308400, Note_on_c, 0, 80, 0
1, 308520, Note_on_c, 0, 80, 100
1, 308628, Note_on_c, 0, 68, 0
1, 308640, Note_on_c, 0, 50, 0
1, 308640, Note_on_c, 0, 53, 100
1, 308640, Note_on_c, 0, 68, 100
1, 308640, Note_on_c, 0, 80, 0
1, 308760, Note_on_c, 0, 80, 100
1, 308868, Note_on_c, 0, 68, 0
1, 308880, Note_on_c, 0, 53, 0
1, 308880, Note_on_c, 0, 60, 100
1, 308880, Note_on_c, 0, 68, 100
1, 308880, Note_on_c, 0, 80, 0
1, 309000, Note_on_c, 0, 80, 100
1, 309108, Note_on_c, 0, 68, 0
1, 309120, Note_on_c, 0, 59, 100
1, 309120, Note_on_c, 0, 60, 0
1, 309120, Note_on_c, 0, 68, 100
1, 309120, Note_on_c, 0, 80, 0
1, 309240, Note_on_c, 0, 80, 100
1, 309348, Note_on_c, 0, 68, 0
1, 309360, Note_on_c, 0, 59, 0
1, 309360, Note_on_c, 0, 62, 100
1, 309360, Note_on_c, 0, 68, 100
1, 309360, Note_on_c, 0, 80, 0
1, 309480, Note_on_c, 0, 80, 100
1, 309588, Note_on_c, 0, 68, 0
1, 309600, Note_on_c, 0, 62, 0
1, 309600, Note_on_c, 0, 65, 100
1, 309600, Note_on_c, 0, 68, 100
1, 309600, Note_on_c, 0, 80, 0
1, 309714, Note_on_c, 0, 65, 0
1, 309720, Note_on_c, 0, 80, 100
1, 309828, Note_on_c, 0, 68, 0
1, 309840, Note_on_c, 0, 68, 100
1, 309840, Note_on_c, 0, 80, 0
1, 309960, Note_on_c, 0, 80, 100
1, 310068, Note_on_c, 0, 68, 0
1, 310080, Note_on_c, 0, 62, 100
1, 310080, Note_on_c, 0, 68, 100
1, 310080, Note_on_c, 0, 80, 0
1, 310200, Note_on_c, 0, 62, 0
1, 310200, Note_on_c, 0, 80, 100
1, 310308, Note_on_c, 0, 68, 0
1, 310320, Note_on_c, 0, 68, 100
1, 310320, Note_on_c, 0, 80, 0
1, 310440, Note_on_c, 0, 80, 100
1, 310548, Note_on_c, 0, 68, 0
1, 310560, Note_on_c, 0, 59, 100
1, 310560, Note_on_c, 0, 68, 100
1, 310560, Note_on_c, 0, 80, 0
1, 310680, Note_on_c, 0, 59, 0
1, 310680, Note_on_c, 0, 80, 100
1, 310788, Note_on_c, 0, 68, 0
1, 310800, Note_on_c, 0, 67, 100
1, 310800, Note_on_c, 0, 80, 0
1, 310920, Note_on_c, 0, 79, 100
1, 311028, Note_on_c, 0, 67, 0
1, 311040, Note_on_c, 0, 55, 100
1, 311040, Note_on_c, 0, 67, 100
1, 311040, Note_on_c, 0, 79, 0
1, 311160, Note_on_c, 0, 55, 0
1, 311160, Note_on_c, 0, 79, 100
1, 311268, Note_on_c, 0, 67, 0
1, 311280, Note_on_c, 0, 65, 100
1, 311280, Note_on_c, 0, 79, 0
1, 311400, Note_on_c, 0, 77, 100
1, 311508, Note_on_c, 0, 65, 0
1, 311520, Note_on_c, 0, 49, 100
1, 311520, Note_on_c, 0, 61, 100
1, 311520, Note_on_c, 0, 65, 100
1, 311520, Note_on_c, 0, 77, 0
1, 311640, Note_on_c, 0, 77, 100
1, 311748, Note_on_c, 0, 65, 0
1, 311760, Note_on_c, 0, 49, 0
1, 311760, Note_on_c, 0, 61, 0
1, 311760, Note_on_c, 0, 64, 100
1, 311760, Note_on_c, 0, 77, 0
1, 311880, Note_on_c, 0, 76, 100
1, 311988, Note_on_c, 0, 64, 0
1, 312000, Note_on_c, 0, 46, 100
1, 312000, Note_on_c, 0, 58, 100
1, 312000, Note_on_c, 0, 64, 100
1, 312000, Note_on_c, 0, 76, 0
1, 312120, Note_on_c, 0, 76, 100
1, 312228, Note_on_c, 0, 64, 0
1, 312240, Note_on_c, 0, 46, 0
1, 312240, Note_on_c, 0, 58, 0
1, 312240, Note_on_c, 0, 61, 100
1, 312240, Note_on_c, 0, 76, 0
1, 312360, Note_on_c, 0, 73, 100
1, 312468, Note_on_c, 0, 61, 0
1, 312480, Note_on_c, 0, 43, 100
1, 312480, Note_on_c, 0, 55, 100
1, 312480, Note_on_c, 0, 61, 100
1, 312480, Note_on_c, 0, 73, 0
1, 312600, Note_on_c, 0, 73, 100
1, 312708, Note_on_c, 0, 61, 0
1, 312720, Note_on_c, 0, 43, 0
1, 312720, Note_on_c, 0, 55, 0
1, 312720, Note_on_c, 0, 60, 100
1, 312720, Note_on_c, 0, 73, 0
1, 312840, Note_on_c, 0, 72, 100
1, 312948, Note_on_c, 0, 60, 0
1, 312960, Note_on_c, 0, 40, 100
1, 312960, Note_on_c, 0, 52, 100
1, 312960, Note_on_c, 0, 60, 100
1, 312960, Note_on_c, 0, 72, 0
1, 313080, Note_on_c, 0, 72, 100
1, 313188, Note_on_c, 0, 60, 0
1, 313200, Note_on_c, 0, 40, 0
1, 313200, Note_on_c, 0, 52, 0
1, 313200, Note_on_c, 0, 58, 100
1, 313200, Note_on_c, 0, 72, 0
1, 313320, Note_on_c, 0, 70, 100
1, 313428, Note_on_c, 0, 58, 0
1, 313440, Note_on_c, 0, 41, 100
1, 313440, Note_on_c, 0, 53, 100
1, 313440, Note_on_c, 0, 58, 100
1, 313440, Note_on_c, 0, 70, 0
1, 313560, Note_on_c, 0, 70, 100
1, 313668, Note_on_c, 0, 58, 0
1, 313680, Note_on_c, 0, 41, 0
1, 313680, Note_on_c, 0, 53, 0
1, 313680, Note_on_c, 0, 56, 100
1, 313680, Note_on_c, 0, 70, 0
1, 313800, Note_on_c, 0, 68, 100
1, 313908, Note_on_c, 0, 56, 0
1, 313920, Note_on_c, 0, 56, 100
1, 313920, Note_on_c, 0, 68, 0
1, 314040, Note_on_c, 0, 68, 100
1, 314148, Note_on_c, 0, 56, 0
1, 314160, Note_on_c, 0, 55, 100
1, 314160, Note_on_c, 0, 68, 0
1, 314280, Note_on_c, 0, 67, 100
1, 314388, Note_on_c, 0, 55, 0
1, 314400, Note_on_c, 0, 29, 100
1, 314400, Note_on_c, 0, 41, 100
1, 314400, Note_on_c, 0, 55, 100
1, 314400, Note_on_c, 0, 67, 0
1, 314520, Note_on_c, 0, 67, 100
1, 314628, Note_on_c, 0, 55, 0
1, 314640, Note_on_c, 0, 29, 0
1, 314640, Note_on_c, 0, 41, 0
1, 314640, Note_on_c, 0, 53, 100
1, 314640, Note_on_c, 0, 67, 0
1, 314760, Note_on_c, 0, 65, 100
1, 314868, Note_on_c, 0, 53, 0
1, 314880, Note_on_c, 0, 53, 100
1, 314880, Note_on_c, 0, 65, 0
1, 315000, Note_on_c, 0, 65, 100
1, 315108, Note_on_c, 0, 53, 0
1, 315120, Note_on_c, 0, 51, 100
1, 315120, Note_on_c, 0, 65, 0
1, 315240, Note_on_c, 0, 63, 100
1, 315348, Note_on_c, 0, 51, 0
1, 315360, Note_on_c, 0, 30, 100
1, 315360, Note_on_c, 0, 42, 100
1, 315360, Note_on_c, 0, 51, 100
1, 315360, Note_on_c, 0, 63, 0
1, 315480, Note_on_c, 0, 63, 100
1, 315588, Note_on_c, 0, 51, 0
1, 315600, Note_on_c, 0, 30, 0
1, 315600, Note_on_c, 0, 42, 0
1, 315600, Note_on_c, 0, 50, 100
1, 315600, Note_on_c, 0, 63, 0
1, 315720, Note_on_c, 0, 62, 100
1, 315828, Note_on_c, 0, 50, 0
1, 315840, Note_on_c, 0, 50, 100
1, 315840, Note_on_c, 0, 62, 0
1, 315960, Note_on_c, 0, 62, 100
1, 316068, Note_on_c, 0, 50, 0
1, 316080, Note_on_c, 0, 51, 100
1, 316080, Note_on_c, 0, 62, 0
1, 316200, Note_on_c, 0, 63, 100
1, 316308, Note_on_c, 0, 51, 0
1, 316320, Note_on_c, 0, 30, 100
1, 316320, Note_on_c, 0, 42, 100
1, 316320, Note_on_c, 0, 51, 100
1, 316320, Note_on_c, 0, 63, 0
1, 316440, Note_on_c, 0, 63, 100
1, 316548, Note_on_c, 0, 51, 0
1, 316560, Note_on_c, 0, 30, 0
1, 316560, Note_on_c, 0, 42, 0
1, 316560, Note_on_c, 0, 50, 100
1, 316560, Note_on_c, 0, 63, 0
1, 316680, Note_on_c, 0, 62, 100
1, 316788, Note_on_c, 0, 50, 0
1, 316800, Note_on_c, 0, 50, 100
1, 316800, Note_on_c, 0, 62, 0
1, 316920, Note_on_c, 0, 62, 100
1, 317028, Note_on_c, 0, 50, 0
1, 317040, Note_on_c, 0, 48, 100
1, 317040, Note_on_c, 0, 62, 0
1, 317160, Note_on_c, 0, 60, 100
1, 317268, Note_on_c, 0, 48, 0
1, 317280, Note_on_c, 0, 31, 100
1, 317280, Note_on_c, 0, 47, 100
1, 317280, Note_on_c, 0, 59, 100
1, 317280, Note_on_c, 0, 60, 0
1, 317400, Note_on_c, 0, 31, 0
1, 317400, Note_on_c, 0, 43, 100
1, 317520, Note_on_c, 0, 31, 100
1, 317520, Note_on_c, 0, 43, 0
1, 317520, Note_on_c, 0, 47, 0
1, 317520, Note_on_c, 0, 59, 0
1, 317640, Note_on_c, 0, 31, 0
1, 317640, Note_on_c, 0, 43, 100
1, 317760, Note_on_c, 0, 31, 100
1, 317760, Note_on_c, 0, 43, 0
1, 317760, Note_on_c, 0, 49, 100
1, 317880, Note_on_c, 0, 31, 0
1, 317880, Note_on_c, 0, 43, 100
1, 317880, Note_on_c, 0, 49, 0
1, 317880, Note_on_c, 0, 56, 100
1, 318000, Note_on_c, 0, 31, 100
1, 318000, Note_on_c, 0, 43, 0
1, 318000, Note_on_c, 0, 52, 100
1, 318000, Note_on_c, 0, 56, 0
1, 318120, Note_on_c, 0, 31, 0
1, 318120, Note_on_c, 0, 43, 100
1, 318120, Note_on_c, 0, 49, 100
1, 318120, Note_on_c, 0, 52, 0
1, 318240, Note_on_c, 0, 31, 100
1, 318240, Note_on_c, 0, 43, 0
1, 318240, Note_on_c, 0, 49, 0
1, 318240, Note_on_c, 0, 50, 100
1, 318360, Note_on_c, 0, 31, 0
1, 318360, Note_on_c, 0, 43, 100
1, 318360, Note_on_c, 0, 50, 0
1, 318360, Note_on_c, 0, 56, 100
1, 318480, Note_on_c, 0, 31, 100
1, 318480, Note_on_c, 0, 43, 0
1, 318480, Note_on_c, 0, 53, 100
1, 318480, Note_on_c, 0, 56, 0
1, 318600, Note_on_c, 0, 31, 0
1, 318600, Note_on_c, 0, 43, 100
1, 318600, Note_on_c, 0, 50, 100
1, 318600, Note_on_c, 0, 53, 0
1, 318720, Note_on_c, 0, 31, 100
1, 318720, Note_on_c, 0, 43, 0
1, 318720, Note_on_c, 0, 48, 100
1, 318720, Note_on_c, 0, 50, 0
1, 318840, Note_on_c, 0, 31, 0
1, 318840, Note_on_c, 0, 43, 100
1, 318840, Note_on_c, 0, 48, 0
1, 318840, Note_on_c, 0, 56, 100
1, 318960, Note_on_c, 0, 31, 100
1, 318960, Note_on_c, 0, 43, 0
1, 318960, Note_on_c, 0, 51, 100
1, 318960, Note_on_c, 0, 56, 0
1, 319080, Note_on_c, 0, 31, 0
1, 319080, Note_on_c, 0, 43, 100
1, 319080, Note_on_c, 0, 48, 100
1, 319080, Note_on_c, 0, 51, 0
1, 319200, Note_on_c, 0, 31, 100
1, 319200, Note_on_c, 0, 43, 0
1, 319200, Note_on_c, 0, 47, 100
1, 319200, Note_on_c, 0, 48, 0
1, 319320, Note_on_c, 0, 31, 0
1, 319320, Note_on_c, 0, 43, 100
1, 319320, Note_on_c, 0, 47, 0
1, 319320, Note_on_c, 0, 55, 100
1, 319440, Note_on_c, 0, 31, 100
1, 319440, Note_on_c, 0, 43, 0
1, 319440, Note_on_c, 0, 50, 100
1, 319440, Note_on_c, 0, 55, 0
1, 319560, Note_on_c, 0, 31, 0
1, 319560, Note_on_c, 0, 43, 100
1, 319560, Note_on_c, 0, 47, 100
1, 319560, Note_on_c, 0, 50, 0
1, 319680, Note_on_c, 0, 31, 100
1, 319680, Note_on_c, 0, 43, 0
1, 319680, Note_on_c, 0, 47, 0
1, 319680, Note_on_c, 0, 49, 100
1, 319800, Note_on_c, 0, 31, 0
1, 319800, Note_on_c, 0, 43, 100
1, 319800, Note_on_c, 0, 49, 0
1, 319800, Note_on_c, 0, 56, 100
1, 319920, Note_on_c, 0, 31, 100
1, 319920, Note_on_c, 0, 43, 0
1, 319920, Note_on_c, 0, 52, 100
1, 319920, Note_on_c, 0, 56, 0
1, 320040, Note_on_c, 0, 31, 0
1, 320040, Note_on_c, 0, 43, 100
1, 320040, Note_on_c, 0, 49, 100
1, 320040, Note_on_c, 0, 52, 0
1, 320160, Note_on_c, 0, 31, 100
1, 320160, Note_on_c, 0, 43, 0
1, 320160, Note_on_c, 0, 49, 0
1, 320160, Note_on_c, 0, 50, 100
1, 320280, Note_on_c, 0, 31, 0
1, 320280, Note_on_c, 0, 43, 100
1, 320280, Note_on_c, 0, 50, 0
1, 320280, Note_on_c, 0, 56, 100
1, 320400, Note_on_c, 0, 31, 100
1, 320400, Note_on_c, 0, 43, 0
1, 320400, Note_on_c, 0, 53, 100
1, 320400, Note_on_c, 0, 56, 0
1, 320520, Note_on_c, 0, 31, 0
1, 320520, Note_on_c, 0, 43, 100
1, 320520, Note_on_c, 0, 50, 100
1, 320520, Note_on_c, 0, 53, 0
1, 320640, Note_on_c, 0, 31, 100
1, 320640, Note_on_c, 0, 43, 0
1, 320640, Note_on_c, 0, 48, 100
1, 320640, Note_on_c, 0, 50, 0
1, 320760, Note_on_c, 0, 31, 0
1, 320760, Note_on_c, 0, 43, 100
1, 320760, Note_on_c, 0, 48, 0
1, 320760, Note_on_c, 0, 56, 100
1, 320880, Note_on_c, 0, 31, 100
1, 320880, Note_on_c, 0, 43, 0
1, 320880, Note_on_c, 0, 51, 100
1, 320880, Note_on_c, 0, 56, 0
1, 321000, Note_on_c, 0, 31, 0
1, 321000, Note_on_c, 0, 43, 100
1, 321000, Note_on_c, 0, 48, 100
1, 321000, Note_on_c, 0, 51, 0
1, 321120, Note_on_c, 0, 31, 100
1, 321120, Note_on_c, 0, 43, 0
1, 321120, Note_on_c, 0, 47, 100
1, 321120, Note_on_c, 0, 48, 0
1, 321120, Note_on_c, 0, 50, 100
1, 321120, Note_on_c, 0, 55, 100
1, 321240, Note_on_c, 0, 43, 100
1, 321348, Note_on_c, 0, 31, 0
1, 321360, Note_on_c, 0, 31, 100
1, 321360, Note_on_c, 0, 43, 0
1, 321360, Note_on_c, 0, 47, 0
1, 321360, Note_on_c, 0, 50, 0
1, 321360, Note_on_c, 0, 55, 0
1, 321360, Note_on_c, 0, 64, 100
1, 321450, Note_on_c, 0, 64, 0
1, 321480, Note_on_c, 0, 43, 100
1, 321588, Note_on_c, 0, 31, 0
1, 321600, Note_on_c, 0, 31, 100
1, 321600, Note_on_c, 0, 43, 0
1, 321600, Note_on_c, 0, 65, 100
1, 321690, Note_on_c, 0, 65, 0
1, 321720, Note_on_c, 0, 43, 100
1, 321828, Note_on_c, 0, 31, 0
1, 321840, Note_on_c, 0, 31, 100
1, 321840, Note_on_c, 0, 43, 0
1, 321840, Note_on_c, 0, 64, 100
1, 321840, Note_on_c, 0, 73, 100
1, 321930, Note_on_c, 0, 64, 0
1, 321930, Note_on_c, 0, 73, 0
1, 321960, Note_on_c, 0, 43, 100
1, 322068, Note_on_c, 0, 31, 0
1, 322080, Note_on_c, 0, 31, 100
1, 322080, Note_on_c, 0, 43, 0
1, 322080, Note_on_c, 0, 65, 100
1, 322080, Note_on_c, 0, 74, 100
1, 322170, Note_on_c, 0, 65, 0
1, 322170, Note_on_c, 0, 74, 0
1, 322200, Note_on_c, 0, 43, 100
1, 322308, Note_on_c, 0, 31, 0
1, 322320, Note_on_c, 0, 31, 100
1, 322320, Note_on_c, 0, 43, 0
1, 322320, Note_on_c, 0, 73, 100
1, 322320, Note_on_c, 0, 76, 100
1, 322410, Note_on_c, 0, 73, 0
1, 322410, Note_on_c, 0, 76, 0
1, 322440, Note_on_c, 0, 43, 100
1, 322548, Note_on_c, 0, 31, 0
1, 322560, Note_on_c, 0, 31, 100
1, 322560, Note_on_c, 0, 43, 0
1, 322560, Note_on_c, 0, 74, 100
1, 322560, Note_on_c, 0, 77, 100
1, 322650, Note_on_c, 0, 74, 0
1, 322650, Note_on_c, 0, 77, 0
1, 322680, Note_on_c, 0, 43, 100
1, 322788, Note_on_c, 0, 31, 0
1, 322800, Note_on_c, 0, 31, 100
1, 322800, Note_on_c, 0, 43, 0
1, 322800, Note_on_c, 0, 76, 100
1, 322800, Note_on_c, 0, 85, 100
1, 322890, Note_on_c, 0, 76, 0
1, 322890, Note_on_c, 0, 85, 0
1, 322920, Note_on_c, 0, 43, 100
1, 323028, Note_on_c, 0, 31, 0
1, 323040, Note_on_c, 0, 31, 100
1, 323040, Note_on_c, 0, 43, 0
1, 323040, Note_on_c, 0, 77, 100
1, 323040, Note_on_c, 0, 86, 100
1, 323130, Note_on_c, 0, 77, 0
1, 323130, Note_on_c, 0, 86, 0
1, 323280, Note_on_c, 0, 43, 100
1, 323280, Note_on_c, 0, 85, 100
1, 323280, Note_on_c, 0, 88, 100
1, 323370, Note_on_c, 0, 85, 0
1, 323370, Note_on_c, 0, 88, 0
1, 323520, Note_on_c, 0, 31, 0
1, 323520, Note_on_c, 0, 35, 100
1, 323520, Note_on_c, 0, 86, 100
1, 323520, Note_on_c, 0, 89, 100
1, 323760, Note_on_c, 0, 43, 0
1, 323760, Note_on_c, 0, 43, 100
1, 324000, Note_on_c, 0, 35, 0
1, 324000, Note_on_c, 0, 36, 100
1, 324240, Note_on_c, 0, 43, 0
1, 324240, Note_on_c, 0, 43, 100
1, 324480, Note_on_c, 0, 30, 100
1, 324480, Note_on_c, 0, 36, 0
1, 324480, Note_on_c, 0, 84, 100
1, 324480, Note_on_c, 0, 86, 0
1, 324480, Note_on_c, 0, 87, 100
1, 324480, Note_on_c, 0, 89, 0
1, 324540, Note_on_c, 0, 87, 0
1, 324540, Note_on_c, 0, 89, 100
1, 324600, Note_on_c, 0, 87, 100
1, 324600, Note_on_c, 0, 89, 0
1, 324660, Note_on_c, 0, 87, 0
1, 324660, Note_on_c, 0, 89, 100
1, 324720, Note_on_c, 0, 43, 0
1, 324720, Note_on_c, 0, 43, 100
1, 324720, Note_on_c, 0, 87, 100
1, 324720, Note_on_c, 0, 89, 0
1, 324780, Note_on_c, 0, 87, 0
1, 324780, Note_on_c, 0, 89, 100
1, 324840, Note_on_c, 0, 87, 100
1, 324840, Note_on_c, 0, 89, 0
1, 324900, Note_on_c, 0, 87, 0
1, 324900, Note_on_c, 0, 89, 100
1, 324960, Note_on_c, 0, 30, 0
1, 324960, Note_on_c, 0, 31, 100
1, 324960, Note_on_c, 0, 43, 0
1, 324960, Note_on_c, 0, 83, 100
1, 324960, Note_on_c, 0, 84, 0
1, 324960, Note_on_c, 0, 86, 100
1, 324960, Note_on_c, 0, 89, 0
1, 325080, Note_on_c, 0, 31, 0
1, 325080, Note_on_c, 0, 43, 100
1, 325200, Note_on_c, 0, 31, 100
1, 325200, Note_on_c, 0, 43, 0
1, 325200, Note_on_c, 0, 83, 0
1, 325200, Note_on_c, 0, 86, 0
1, 325320, Note_on_c, 0, 31, 0
1, 325320, Note_on_c, 0, 43, 100
1, 325440, Note_on_c, 0, 31, 100
1, 325440, Note_on_c, 0, 43, 0
1, 325440, Note_on_c, 0, 49, 100
1, 325560, Note_on_c, 0, 31, 0
1, 325560, Note_on_c, 0, 43, 100
1, 325560, Note_on_c, 0, 49, 0
1, 325560, Note_on_c, 0, 56, 100
1, 325680, Note_on_c, 0, 31, 100
1, 325680, Note_on_c, 0, 43, 0
1, 325680, Note_on_c, 0, 52, 100
1, 325680, Note_on_c, 0, 56, 0
1, 325800, Note_on_c, 0, 31, 0
1, 325800, Note_on_c, 0, 43, 100
1, 325800, Note_on_c, 0, 49, 100
1, 325800, Note_on_c, 0, 52, 0
1, 325920, Note_on_c, 0, 31, 100
1, 325920, Note_on_c, 0, 43, 0
1, 325920, Note_on_c, 0, 49, 0
1, 325920, Note_on_c, 0, 50, 100
1, 326040, Note_on_c, 0, 31, 0
1, 326040, Note_on_c, 0, 43, 100
1, 326040, Note_on_c, 0, 50, 0
1, 326040, Note_on_c, 0, 56, 100
1, 326160, Note_on_c, 0, 31, 100
1, 326160, Note_on_c, 0, 43, 0
1, 326160, Note_on_c, 0, 53, 100
1, 326160, Note_on_c, 0, 56, 0
1, 326280, Note_on_c, 0, 31, 0
1, 326280, Note_on_c, 0, 43, 100
1, 326280, Note_on_c, 0, 50, 100
1, 326280, Note_on_c, 0, 53, 0
1, 326400, Note_on_c, 0, 31, 100
1, 326400, Note_on_c, 0, 43, 0
1, 326400, Note_on_c, 0, 48, 100
1, 326400, Note_on_c, 0, 50, 0
1, 326520, Note_on_c, 0, 31, 0
1, 326520, Note_on_c, 0, 43, 100
1, 326520, Note_on_c, 0, 48, 0
1, 326520, Note_on_c, 0, 56, 100
1, 326640, Note_on_c, 0, 31, 100
1, 326640, Note_on_c, 0, 43, 0
1, 326640, Note_on_c, 0, 51, 100
1, 326640, Note_on_c, 0, 56, 0
1, 326760, Note_on_c, 0, 31, 0
1, 326760, Note_on_c, 0, 43, 100
1, 326760, Note_on_c, 0, 48, 100
1, 326760, Note_on_c, 0, 51, 0
1, 326880, Note_on_c, 0, 31, 100
1, 326880, Note_on_c, 0, 43, 0
1, 326880, Note_on_c, 0, 47, 100
1, 326880, Note_on_c, 0, 48, 0
1, 327000, Note_on_c, 0, 31, 0
1, 327000, Note_on_c, 0, 43, 100
1, 327000, Note_on_c, 0, 47, 0
1, 327000, Note_on_c, 0, 55, 100
1, 327120, Note_on_c, 0, 31, 100
1, 327120, Note_on_c, 0, 43, 0
1, 327120, Note_on_c, 0, 50, 100
1, 327120, Note_on_c, 0, 55, 0
1, 327240, Note_on_c, 0, 31, 0
1, 327240, Note_on_c, 0, 43, 100
1, 327240, Note_on_c, 0, 47, 100
1, 327240, Note_on_c, 0, 50, 0
1, 327360, Note_on_c, 0, 31, 100
1, 327360, Note_on_c, 0, 43, 0
1, 327360, Note_on_c, 0, 47, 0
1, 327360, Note_on_c, 0, 49, 100
1, 327480, Note_on_c, 0, 31, 0
1, 327480, Note_on_c, 0, 43, 100
1, 327480, Note_on_c, 0, 49, 0
1, 327480, Note_on_c, 0, 56, 100
1, 327600, Note_on_c, 0, 31, 100
1, 327600, Note_on_c, 0, 43, 0
1, 327600, Note_on_c, 0, 52, 100
1, 327600, Note_on_c, 0, 56, 0
1, 327720, Note_on_c, 0, 31, 0
1, 327720, Note_on_c, 0, 43, 100
1, 327720, Note_on_c, 0, 49, 100
1, 327720, Note_on_c, 0, 52, 0
1, 327840, Note_on_c, 0, 31, 100
1, 327840, Note_on_c, 0, 43, 0
1, 327840, Note_on_c, 0, 49, 0
1, 327840, Note_on_c, 0, 50, 100
1, 327960, Note_on_c, 0, 31, 0
1, 327960, Note_on_c, 0, 43, 100
1, 327960, Note_on_c, 0, 50, 0
1, 327960, Note_on_c, 0, 56, 100
1, 328080, Note_on_c, 0, 31, 100
1, 328080, Note_on_c, 0, 43, 0
1, 328080, Note_on_c, 0, 53, 100
1, 328080, Note_on_c, 0, 56, 0
1, 328200, Note_on_c, 0, 31, 0
1, 328200, Note_on_c, 0, 43, 100
1, 328200, Note_on_c, 0, 50, 100
1, 328200, Note_on_c, 0, 53, 0
1, 328320, Note_on_c, 0, 31, 100
1, 328320, Note_on_c, 0, 43, 0
1, 328320, Note_on_c, 0, 48, 100
1, 328320, Note_on_c, 0, 50, 0
1, 328440, Note_on_c, 0, 31, 0
1, 328440, Note_on_c, 0, 43, 100
1, 328440, Note_on_c, 0, 48, 0
1, 328440, Note_on_c, 0, 56, 100
1, 328560, Note_on_c, 0, 31, 100
1, 328560, Note_on_c, 0, 43, 0
1, 328560, Note_on_c, 0, 51, 100
1, 328560, Note_on_c, 0, 56, 0
1, 328680, Note_on_c, 0, 31, 0
1, 328680, Note_on_c, 0, 43, 100
1, 328680, Note_on_c, 0, 48, 100
1, 328680, Note_on_c, 0, 51, 0
1, 328800, Note_on_c, 0, 31, 100
1, 328800, Note_on_c, 0, 43, 0
1, 328800, Note_on_c, 0, 47, 100
1, 328800, Note_on_c, 0, 48, 0
1, 328800, Note_on_c, 0, 50, 100
1, 328800, Note_on_c, 0, 55, 100
1, 328920, Note_on_c, 0, 43, 100
1, 329028, Note_on_c, 0, 31, 0
1, 329040, Note_on_c, 0, 31, 100
1, 329040, Note_on_c, 0, 43, 0
1, 329040, Note_on_c, 0, 47, 0
1, 329040, Note_on_c, 0, 50, 0
1, 329040, Note_on_c, 0, 55, 0
1, 329040, Note_on_c, 0, 64, 100
1, 329130, Note_on_c, 0, 64, 0
1, 329160, Note_on_c, 0, 43, 100
1, 329268, Note_on_c, 0, 31, 0
1, 329280, Note_on_c, 0, 31, 100
1, 329280, Note_on_c, 0, 43, 0
1, 329280, Note_on_c, 0, 65, 100
1, 329370, Note_on_c, 0, 65, 0
1, 329400, Note_on_c, 0, 43, 100
1, 329508, Note_on_c, 0, 31, 0
1, 329520, Note_on_c, 0, 31, 100
1, 329520, Note_on_c, 0, 43, 0
1, 329520, Note_on_c, 0, 64, 100
1, 329520, Note_on_c, 0, 73, 100
1, 329610, Note_on_c, 0, 64, 0
1, 329610, Note_on_c, 0, 73, 0
1, 329640, Note_on_c, 0, 43, 100
1, 329748, Note_on_c, 0, 31, 0
1, 329760, Note_on_c, 0, 31, 100
1, 329760, Note_on_c, 0, 43, 0
1, 329760, Note_on_c, 0, 65, 100
1, 329760, Note_on_c, 0, 74, 100
1, 329850, Note_on_c, 0, 65, 0
1, 329850, Note_on_c, 0, 74, 0
1, 329880, Note_on_c, 0, 43, 100
1, 329988, Note_on_c, 0, 31, 0
1, 330000, Note_on_c, 0, 31, 100
1, 330000, Note_on_c, 0, 43, 0
1, 330000, Note_on_c, 0, 73, 100
1, 330000, Note_on_c, 0, 76, 100
1, 330090, Note_on_c, 0, 73, 0
1, 330090, Note_on_c, 0, 76, 0
1, 330120, Note_on_c, 0, 43, 100
1, 330228, Note_on_c, 0, 31, 0
1, 330240, Note_on_c, 0, 31, 100
1, 330240, Note_on_c, 0, 43, 0
1, 330240, Note_on_c, 0, 74, 100
1, 330240, Note_on_c, 0, 77, 100
1, 330330, Note_on_c, 0, 74, 0
1, 330330, Note_on_c, 0, 77, 0
1, 330360, Note_on_c, 0, 43, 100
1, 330468, Note_on_c, 0, 31, 0
1, 330480, Note_on_c, 0, 31, 100
1, 330480, Note_on_c, 0, 43, 0
1, 330480, Note_on_c, 0, 76, 100
1, 330480, Note_on_c, 0, 85, 100
1, 330570, Note_on_c, 0, 76, 0
1, 330570, Note_on_c, 0, 85, 0
1, 330600, Note_on_c, 0, 43, 100
1, 330708, Note_on_c, 0, 31, 0
1, 330720, Note_on_c, 0, 31, 100
1, 330720, Note_on_c, 0, 43, 0
1, 330720, Note_on_c, 0, 77, 100
1, 330720, Note_on_c, 0, 86, 100
1, 330810, Note_on_c, 0, 77, 0
1, 330810, Note_on_c, 0, 86, 0
1, 330960, Note_on_c, 0, 43, 100
1, 330960, Note_on_c, 0, 85, 100
1, 330960, Note_on_c, 0, 88, 100
1, 331050, Note_on_c, 0, 85, 0
1, 331050, Note_on_c, 0, 88, 0
1, 331200, Note_on_c, 0, 31, 0
1, 331200, Note_on_c, 0, 35, 100
1, 331200, Note_on_c, 0, 86, 100
1, 331200, Note_on_c, 0, 89, 100
1, 331440, Note_on_c, 0, 43, 0
1, 331440, Note_on_c, 0, 43, 100
1, 331680, Note_on_c, 0, 35, 0
1, 331680, Note_on_c, 0, 36, 100
1, 331920, Note_on_c, 0, 43, 0
1, 331920, Note_on_c, 0, 43, 100
1, 332160, Note_on_c, 0, 30, 100
1, 332160, Note_on_c, 0, 36, 0
1, 332160, Note_on_c, 0, 84, 100
1, 332160, Note_on_c, 0, 86, 0
1, 332160, Note_on_c, 0, 87, 100
1, 332160, Note_on_c, 0, 89, 0
1, 332220, Note_on_c, 0, 87, 0
1, 332220, Note_on_c, 0, 89, 100
1, 332280, Note_on_c, 0, 87, 100
1, 332280, Note_on_c, 0, 89, 0
1, 332340, Note_on_c, 0, 87, 0
1, 332340, Note_on_c, 0, 89, 100
1, 332400, Note_on_c, 0, 43, 0
1, 332400, Note_on_c, 0, 43, 100
1, 332400, Note_on_c, 0, 87, 100
1, 332400, Note_on_c, 0, 89, 0
1, 332440, Note_on_c, 0, 87, 0
1, 332440, Note_on_c, 0, 89, 100
1, 332480, Note_on_c, 0, 87, 100
1, 332480, Note_on_c, 0, 89, 0
1, 332520, Note_on_c, 0, 86, 100
1, 332520, Note_on_c, 0, 87, 0
1, 332580, Note_on_c, 0, 86, 0
1, 332580, Note_on_c, 0, 87, 100
1, 332640, Note_on_c, 0, 30, 0
1, 332640, Note_on_c, 0, 31, 100
1, 332640, Note_on_c, 0, 43, 0
1, 332640, Note_on_c, 0, 83, 100
1, 332640, Note_on_c, 0, 84, 0
1, 332640, Note_on_c, 0, 86, 100
1, 332640, Note_on_c, 0, 87, 0
1, 332730, Note_on_c, 0, 83, 0
1, 332730, Note_on_c, 0, 86, 0
1, 332880, Note_on_c, 0, 43, 100
1, 332880, Note_on_c, 0, 85, 100
1, 332880, Note_on_c, 0, 88, 100
1, 332970, Note_on_c, 0, 85, 0
1, 332970, Note_on_c, 0, 88, 0
1, 333120, Note_on_c, 0, 31, 0
1, 333120, Note_on_c, 0, 35, 100
1, 333120, Note_on_c, 0, 86, 100
1, 333120, Note_on_c, 0, 89, 100
1, 333360, Note_on_c, 0, 43, 0
1, 333360, Note_on_c, 0, 43, 100
1, 333600, Note_on_c, 0, 35, 0
1, 333600, Note_on_c, 0, 36, 100
1, 333840, Note_on_c, 0, 43, 0
1, 333840, Note_on_c, 0, 43, 100
1, 334080, Note_on_c, 0, 30, 100
1, 334080, Note_on_c, 0, 36, 0
1, 334080, Note_on_c, 0, 84, 100
1, 334080, Note_on_c, 0, 86, 0
1, 334080, Note_on_c, 0, 87, 100
1, 334080, Note_on_c, 0, 89, 0
1, 334140, Note_on_c, 0, 87, 0
1, 334140, Note_on_c, 0, 89, 100
1, 334200, Note_on_c, 0, 87, 100
1, 334200, Note_on_c, 0, 89, 0
1, 334260, Note_on_c, 0, 87, 0
1, 334260, Note_on_c, 0, 89, 100
1, 334320, Note_on_c, 0, 43, 0
1, 334320, Note_on_c, 0, 43, 100
1, 334320, Note_on_c, 0, 87, 100
1, 334320, Note_on_c, 0, 89, 0
1, 334360, Note_on_c, 0, 87, 0
1, 334360, Note_on_c, 0, 89, 100
1, 334400, Note_on_c, 0, 87, 100
1, 334400, Note_on_c, 0, 89, 0
1, 334440, Note_on_c, 0, 86, 100
1, 334440, Note_on_c, 0, 87, 0
1, 334500, Note_on_c, 0, 86, 0
1, 334500, Note_on_c, 0, 87, 100
1, 334560, Note_on_c, 0, 30, 0
1, 334560, Note_on_c, 0, 31, 100
1, 334560, Note_on_c, 0, 43, 0
1, 334560, Note_on_c, 0, 83, 100
1, 334560, Note_on_c, 0, 84, 0
1, 334560, Note_on_c, 0, 86, 100
1, 334560, Note_on_c, 0, 87, 0
1, 334650, Note_on_c, 0, 83, 0
1, 334650, Note_on_c, 0, 86, 0
1, 334800, Note_on_c, 0, 43, 100
1, 334800, Note_on_c, 0, 85, 100
1, 334800, Note_on_c, 0, 88, 100
1, 334890, Note_on_c, 0, 85, 0
1, 334890, Note_on_c, 0, 88, 0
1, 335040, Note_on_c, 0, 31, 0
1, 335040, Note_on_c, 0, 35, 100
1, 335040, Note_on_c, 0, 86, 100
1, 335040, Note_on_c, 0, 89, 100
1, 335280, Note_on_c, 0, 43, 0
1, 335280, Note_on_c, 0, 43, 100
1, 335520, Note_on_c, 0, 35, 0
1, 335520, Note_on_c, 0, 36, 100
1, 335760, Note_on_c, 0, 43, 0
1, 335760, Note_on_c, 0, 43, 100
1, 336000, Note_on_c, 0, 30, 100
1, 336000, Note_on_c, 0, 36, 0
1, 336000, Note_on_c, 0, 84, 100
1, 336000, Note_on_c, 0, 86, 0
1, 336000, Note_on_c, 0, 87, 100
1, 336000, Note_on_c, 0, 89, 0
1, 336060, Note_on_c, 0, 87, 0
1, 336060, Note_on_c, 0, 89, 100
1, 336120, Note_on_c, 0, 87, 100
1, 336120, Note_on_c, 0, 89, 0
1, 336180, Note_on_c, 0, 87, 0
1, 336180, Note_on_c, 0, 89, 100
1, 336240, Note_on_c, 0, 43, 0
1, 336240, Note_on_c, 0, 43, 100
1, 336240, Note_on_c, 0, 87, 100
1, 336240, Note_on_c, 0, 89, 0
1, 336280, Note_on_c, 0, 87, 0
1, 336280, Note_on_c, 0, 89, 100
1, 336320, Note_on_c, 0, 87, 100
1, 336320, Note_on_c, 0, 89, 0
1, 336360, Note_on_c, 0, 86, 100
1, 336360, Note_on_c, 0, 87, 0
1, 336420, Note_on_c, 0, 86, 0
1, 336420, Note_on_c, 0, 87, 100
1, 336480, Note_on_c, 0, 30, 0
1, 336480, Note_on_c, 0, 43, 0
1, 336480, Note_on_c, 0, 83, 100
1, 336480, Note_on_c, 0, 84, 0
1, 336480, Note_on_c, 0, 86, 100
1, 336480, Note_on_c, 0, 87, 0
1, 336600, Note_on_c, 0, 83, 0
1, 336600, Note_on_c, 0, 86, 0
1, 336600, Note_on_c, 0, 89, 100
1, 336720, Note_on_c, 0, 86, 100
1, 336720, Note_on_c, 0, 89, 0
1, 336840, Note_on_c, 0, 84, 100
1, 336840, Note_on_c, 0, 86, 0
1, 336960, Note_on_c, 0, 83, 100
1, 336960, Note_on_c, 0, 84, 0
1, 337080, Note_on_c, 0, 83, 0
1, 337080, Note_on_c, 0, 89, 100
1, 337200, Note_on_c, 0, 86, 100
1, 337200, Note_on_c, 0, 89, 0
1, 337320, Note_on_c, 0, 84, 100
1, 337320, Note_on_c, 0, 86, 0
1, 337440, Note_on_c, 0, 83, 100
1, 337440, Note_on_c, 0, 84, 0
1, 337560, Note_on_c, 0, 83, 0
1, 337560, Note_on_c, 0, 89, 100
1, 337680, Note_on_c, 0, 86, 100
1, 337680, Note_on_c, 0, 89, 0
1, 337800, Note_on_c, 0, 84, 100
1, 337800, Note_on_c, 0, 86, 0
1, 337920, Note_on_c, 0, 83, 100
1, 337920, Note_on_c, 0, 84, 0
1, 338040, Note_on_c, 0, 83, 0
1, 338040, Note_on_c, 0, 86, 100
1, 338160, Note_on_c, 0, 83, 100
1, 338160, Note_on_c, 0, 86, 0
1, 338280, Note_on_c, 0, 79, 100
1, 338280, Note_on_c, 0, 83, 0
1, 338400, Note_on_c, 0, 79, 0
1, 338400, Note_on_c, 0, 80, 100
1, 338520, Note_on_c, 0, 80, 0
1, 338520, Note_on_c, 0, 82, 100
1, 338640, Note_on_c, 0, 80, 100
1, 338640, Note_on_c, 0, 82, 0
1, 338760, Note_on_c, 0, 79, 100
1, 338760, Note_on_c, 0, 80, 0
1, 338880, Note_on_c, 0, 77, 100
1, 338880, Note_on_c, 0, 79, 0
1, 339000, Note_on_c, 0, 77, 0
1, 339000, Note_on_c, 0, 80, 100
1, 339120, Note_on_c, 0, 77, 100
1, 339120, Note_on_c, 0, 80, 0
1, 339240, Note_on_c, 0, 75, 100
1, 339240, Note_on_c, 0, 77, 0
1, 339360, Note_on_c, 0, 74, 100
1, 339360, Note_on_c, 0, 75, 0
1, 339480, Note_on_c, 0, 74, 0
1, 339480, Note_on_c, 0, 77, 100
1, 339600, Note_on_c, 0, 74, 100
1, 339600, Note_on_c, 0, 77, 0
1, 339720, Note_on_c, 0, 72, 100
1, 339720, Note_on_c, 0, 74, 0
1, 339840, Note_on_c, 0, 71, 100
1, 339840, Note_on_c, 0, 72, 0
1, 339960, Note_on_c, 0, 71, 0
1, 339960, Note_on_c, 0, 74, 100
1, 340080, Note_on_c, 0, 71, 100
1, 340080, Note_on_c, 0, 74, 0
1, 340200, Note_on_c, 0, 67, 100
1, 340200, Note_on_c, 0, 71, 0
1, 340320, Note_on_c, 0, 67, 0
1, 340320, Note_on_c, 0, 68, 100
1, 340440, Note_on_c, 0, 68, 0
1, 340440, Note_on_c, 0, 70, 100
1, 340560, Note_on_c, 0, 68, 100
1, 340560, Note_on_c, 0, 70, 0
1, 340680, Note_on_c, 0, 67, 100
1, 340680, Note_on_c, 0, 68, 0
1, 340800, Note_on_c, 0, 65, 100
1, 340800, Note_on_c, 0, 67, 0
1, 340920, Note_on_c, 0, 65, 0
1, 340920, Note_on_c, 0, 68, 100
1, 341040, Note_on_c, 0, 65, 100
1, 341040, Note_on_c, 0, 68, 0
1, 341160, Note_on_c, 0, 63, 100
1, 341160, Note_on_c, 0, 65, 0
1, 341280, Note_on_c, 0, 62, 100
1, 341280, Note_on_c, 0, 63, 0
1, 341400, Note_on_c, 0, 62, 0
1, 341400, Note_on_c, 0, 65, 100
1, 341520, Note_on_c, 0, 62, 100
1, 341520, Note_on_c, 0, 65, 0
1, 341640, Note_on_c, 0, 60, 100
1, 341640, Note_on_c, 0, 62, 0
1, 341760, Note_on_c, 0, 59, 100
1, 341760, Note_on_c, 0, 60, 0
1, 341880, Note_on_c, 0, 59, 0
1, 341880, Note_on_c, 0, 62, 100
1, 342000, Note_on_c, 0, 59, 100
1, 342000, Note_on_c, 0, 62, 0
1, 342120, Note_on_c, 0, 55, 100
1, 342120, Note_on_c, 0, 59, 0
1, 342240, Note_on_c, 0, 55, 0
1, 342240, Note_on_c, 0, 56, 100
1, 342360, Note_on_c, 0, 56, 0
1, 342360, Note_on_c, 0, 58, 100
1, 342480, Note_on_c, 0, 56, 100
1, 342480, Note_on_c, 0, 58, 0
1, 342600, Note_on_c, 0, 55, 100
1, 342600, Note_on_c, 0, 56, 0
1, 342720, Note_on_c, 0, 53, 100
1, 342720, Note_on_c, 0, 55, 0
1, 342840, Note_on_c, 0, 51, 100
1, 342840, Note_on_c, 0, 53, 0
1, 342960, Note_on_c, 0, 50, 100
1, 342960, Note_on_c, 0, 51, 0
1, 343080, Note_on_c, 0, 48, 100
1, 343080, Note_on_c, 0, 50, 0
1, 343200, Note_on_c, 0, 47, 100
1, 343200, Note_on_c, 0, 48, 0
1, 343320, Note_on_c, 0, 47, 0
1, 343320, Note_on_c, 0, 48, 100
1, 343440, Note_on_c, 0, 47, 100
1, 343440, Note_on_c, 0, 48, 0
1, 343560, Note_on_c, 0, 44, 100
1, 343560, Note_on_c, 0, 47, 0
1, 343680, Note_on_c, 0, 43, 100
1, 343680, Note_on_c, 0, 44, 0
1, 343800, Note_on_c, 0, 41, 100
1, 343800, Note_on_c, 0, 43, 0
1, 343920, Note_on_c, 0, 39, 100
1, 343920, Note_on_c, 0, 41, 0
1, 344040, Note_on_c, 0, 38, 100
1, 344040, Note_on_c, 0, 39, 0
1, 344160, Note_on_c, 0, 36, 100
1, 344160, Note_on_c, 0, 38, 0
1, 344160, Note_on_c, 0, 60, 100
1, 344280, Note_on_c, 0, 48, 100
1, 344388, Note_on_c, 0, 36, 0
1, 344400, Note_on_c, 0, 36, 100
1, 344400, Note_on_c, 0, 48, 0
1, 344520, Note_on_c, 0, 48, 100
1, 344628, Note_on_c, 0, 36, 0
1, 344640, Note_on_c, 0, 36, 100
1, 344640, Note_on_c, 0, 48, 0
1, 344760, Note_on_c, 0, 48, 100
1, 344868, Note_on_c, 0, 36, 0
1, 344880, Note_on_c, 0, 36, 100
1, 344880, Note_on_c, 0, 48, 0
1, 344880, Note_on_c, 0, 58, 100
1, 344880, Note_on_c, 0, 60, 0
1, 344880, Note_on_c, 0, 64, 100
1, 344970, Note_on_c, 0, 58, 0
1, 344970, Note_on_c, 0, 64, 0
1, 345000, Note_on_c, 0, 48, 100
1, 345108, Note_on_c, 0, 36, 0
1, 345120, Note_on_c, 0, 36, 100
1, 345120, Note_on_c, 0, 48, 0
1, 345120, Note_on_c, 0, 56, 100
1, 345120, Note_on_c, 0, 65, 100
1, 345210, Note_on_c, 0, 56, 0
1, 345210, Note_on_c, 0, 65, 0
1, 345240, Note_on_c, 0, 48, 100
1, 345348, Note_on_c, 0, 36, 0
1, 345360, Note_on_c, 0, 36, 100
1, 345360, Note_on_c, 0, 48, 0
1, 345360, Note_on_c, 0, 64, 100
1, 345360, Note_on_c, 0, 67, 100
1, 345450, Note_on_c, 0, 64, 0
1, 345450, Note_on_c, 0, 67, 0
1, 345480, Note_on_c, 0, 48, 100
1, 345588, Note_on_c, 0, 36, 0
1, 345600, Note_on_c, 0, 36, 100
1, 345600, Note_on_c, 0, 48, 0
1, 345600, Note_on_c, 0, 65, 100
1, 345600, Note_on_c, 0, 68, 100
1, 345690, Note_on_c, 0, 65, 0
1, 345690, Note_on_c, 0, 68, 0
1, 345720, Note_on_c, 0, 48, 100
1, 345828, Note_on_c, 0, 36, 0
1, 345840, Note_on_c, 0, 36, 100
1, 345840, Note_on_c, 0, 48, 0
1, 345840, Note_on_c, 0, 62, 100
1, 345840, Note_on_c, 0, 71, 100
1, 345930, Note_on_c, 0, 62, 0
1, 345930, Note_on_c, 0, 71, 0
1, 345960, Note_on_c, 0, 48, 100
1, 346068, Note_on_c, 0, 36, 0
1, 346080, Note_on_c, 0, 36, 100
1, 346080, Note_on_c, 0, 48, 0
1, 346080, Note_on_c, 0, 63, 100
1, 346080, Note_on_c, 0, 72, 100
1, 346170, Note_on_c, 0, 63, 0
1, 346170, Note_on_c, 0, 72, 0
1, 346200, Note_on_c, 0, 48, 100
1, 346308, Note_on_c, 0, 36, 0
1, 346320, Note_on_c, 0, 36, 100
1, 346320, Note_on_c, 0, 48, 0
1, 346320, Note_on_c, 0, 64, 100
1, 346320, Note_on_c, 0, 72, 100
1, 346440, Note_on_c, 0, 48, 100
1, 346548, Note_on_c, 0, 36, 0
1, 346560, Note_on_c, 0, 36, 100
1, 346560, Note_on_c, 0, 48, 0
1, 346680, Note_on_c, 0, 48, 100
1, 346788, Note_on_c, 0, 36, 0
1, 346800, Note_on_c, 0, 36, 100
1, 346800, Note_on_c, 0, 48, 0
1, 346800, Note_on_c, 0, 64, 0
1, 346800, Note_on_c, 0, 70, 100
1, 346800, Note_on_c, 0, 72, 0
1, 346800, Note_on_c, 0, 76, 100
1, 346890, Note_on_c, 0, 70, 0
1, 346890, Note_on_c, 0, 76, 0
1, 346920, Note_on_c, 0, 48, 100
1, 347028, Note_on_c, 0, 36, 0
1, 347040, Note_on_c, 0, 36, 100
1, 347040, Note_on_c, 0, 48, 0
1, 347040, Note_on_c, 0, 68, 100
1, 347040, Note_on_c, 0, 77, 100
1, 347130, Note_on_c, 0, 68, 0
1, 347130, Note_on_c, 0, 77, 0
1, 347160, Note_on_c, 0, 48, 100
1, 347268, Note_on_c, 0, 36, 0
1, 347280, Note_on_c, 0, 36, 100
1, 347280, Note_on_c, 0, 48, 0
1, 347280, Note_on_c, 0, 76, 100
1, 347280, Note_on_c, 0, 79, 100
1, 347370, Note_on_c, 0, 76, 0
1, 347370, Note_on_c, 0, 79, 0
1, 347400, Note_on_c, 0, 48, 100
1, 347508, Note_on_c, 0, 36, 0
1, 347520, Note_on_c, 0, 36, 100
1, 347520, Note_on_c, 0, 48, 0
1, 347520, Note_on_c, 0, 77, 100
1, 347520, Note_on_c, 0, 80, 100
1, 347610, Note_on_c, 0, 77, 0
1, 347610, Note_on_c, 0, 80, 0
1, 347640, Note_on_c, 0, 48, 100
1, 347748, Note_on_c, 0, 36, 0
1, 347760, Note_on_c, 0, 36, 100
1, 347760, Note_on_c, 0, 48, 0
1, 347760, Note_on_c, 0, 74, 100
1, 347760, Note_on_c, 0, 83, 100
1, 347850, Note_on_c, 0, 74, 0
1, 347850, Note_on_c, 0, 83, 0
1, 347880, Note_on_c, 0, 48, 100
1, 347988, Note_on_c, 0, 36, 0
1, 348000, Note_on_c, 0, 36, 100
1, 348000, Note_on_c, 0, 48, 0
1, 348000, Note_on_c, 0, 72, 100
1, 348000, Note_on_c, 0, 75, 100
1, 348000, Note_on_c, 0, 79, 100
1, 348000, Note_on_c, 0, 84, 100
1, 348120, Note_on_c, 0, 48, 100
1, 348228, Note_on_c, 0, 36, 0
1, 348240, Note_on_c, 0, 36, 100
1, 348240, Note_on_c, 0, 48, 0
1, 348360, Note_on_c, 0, 48, 100
1, 348468, Note_on_c, 0, 36, 0
1, 348480, Note_on_c, 0, 38, 100
1, 348480, Note_on_c, 0, 48, 0
1, 348480, Note_on_c, 0, 67, 100
1, 348480, Note_on_c, 0, 71, 100
1, 348480, Note_on_c, 0, 72, 0
1, 348480, Note_on_c, 0, 75, 0
1, 348480, Note_on_c, 0, 77, 100
1, 348480, Note_on_c, 0, 79, 0
1, 348480, Note_on_c, 0, 79, 100
1, 348480, Note_on_c, 0, 84, 0
1, 348600, Note_on_c, 0, 50, 100
1, 348708, Note_on_c, 0, 38, 0
1, 348720, Note_on_c, 0, 38, 100
1, 348720, Note_on_c, 0, 50, 0
1, 348840, Note_on_c, 0, 50, 100
1, 348948, Note_on_c, 0, 38, 0
1, 348960, Note_on_c, 0, 39, 100
1, 348960, Note_on_c, 0, 50, 0
1, 348960, Note_on_c, 0, 67, 0
1, 348960, Note_on_c, 0, 67, 100
1, 348960, Note_on_c, 0, 71, 0
1, 348960, Note_on_c, 0, 72, 100
1, 348960, Note_on_c, 0, 75, 100
1, 348960, Note_on_c, 0, 77, 0
1, 348960, Note_on_c, 0, 79, 0
1, 349080, Note_on_c, 0, 51, 100
1, 349188, Note_on_c, 0, 39, 0
1, 349200, Note_on_c, 0, 39, 100
1, 349200, Note_on_c, 0, 51, 0
1, 349320, Note_on_c, 0, 51, 100
1, 349428, Note_on_c, 0, 39, 0
1, 349440, Note_on_c, 0, 41, 100
1, 349440, Note_on_c, 0, 51, 0
1, 349440, Note_on_c, 0, 65, 100
1, 349440, Note_on_c, 0, 67, 0
1, 349440, Note_on_c, 0, 68, 100
1, 349440, Note_on_c, 0, 72, 0
1, 349440, Note_on_c, 0, 74, 100
1, 349440, Note_on_c, 0, 75, 0
1, 349560, Note_on_c, 0, 53, 100
1, 349668, Note_on_c, 0, 41, 0
1, 349680, Note_on_c, 0, 41, 100
1, 349680, Note_on_c, 0, 53, 0
1, 349800, Note_on_c, 0, 53, 100
1, 349908, Note_on_c, 0, 41, 0
1, 349920, Note_on_c, 0, 43, 100
1, 349920, Note_on_c, 0, 53, 0
1, 349920, Note_on_c, 0, 63, 100
1, 349920, Note_on_c, 0, 65, 0
1, 349920, Note_on_c, 0, 67, 100
1, 349920, Note_on_c, 0, 68, 0
1, 349920, Note_on_c, 0, 72, 100
1, 349920, Note_on_c, 0, 74, 0
1, 350040, Note_on_c, 0, 55, 100
1, 350148, Note_on_c, 0, 43, 0
1, 350160, Note_on_c, 0, 43, 100
1, 350160, Note_on_c, 0, 55, 0
1, 350280, Note_on_c, 0, 55, 100
1, 350388, Note_on_c, 0, 43, 0
1, 350400, Note_on_c, 0, 44, 100
1, 350400, Note_on_c, 0, 55, 0
1, 350400, Note_on_c, 0, 66, 100
1, 350400, Note_on_c, 0, 67, 0
1, 350520, Note_on_c, 0, 56, 100
1, 350628, Note_on_c, 0, 44, 0
1, 350640, Note_on_c, 0, 44, 100
1, 350640, Note_on_c, 0, 56, 0
1, 350760, Note_on_c, 0, 56, 100
1, 350868, Note_on_c, 0, 44, 0
1, 350880, Note_on_c, 0, 42, 100
1, 350880, Note_on_c, 0, 56, 0
1, 350880, Note_on_c, 0, 66, 0
1, 350880, Note_on_c, 0, 69, 100
1, 351000, Note_on_c, 0, 54, 100
1, 351108, Note_on_c, 0, 42, 0
1, 351120, Note_on_c, 0, 42, 100
1, 351120, Note_on_c, 0, 54, 0
1, 351240, Note_on_c, 0, 54, 100
1, 351348, Note_on_c, 0, 42, 0
1, 351360, Note_on_c, 0, 43, 100
1, 351360, Note_on_c, 0, 54, 0
1, 351360, Note_on_c, 0, 62, 100
1, 351360, Note_on_c, 0, 63, 0
1, 351360, Note_on_c, 0, 65, 100
1, 351360, Note_on_c, 0, 69, 0
1, 351360, Note_on_c, 0, 71, 100
1, 351360, Note_on_c, 0, 72, 0
1, 351480, Note_on_c, 0, 55, 100
1, 351588, Note_on_c, 0, 43, 0
1, 351600, Note_on_c, 0, 43, 100
1, 351600, Note_on_c, 0, 55, 0
1, 351720, Note_on_c, 0, 55, 100
1, 351828, Note_on_c, 0, 43, 0
1, 351840, Note_on_c, 0, 36, 100
1, 351840, Note_on_c, 0, 55, 0
1, 351840, Note_on_c, 0, 60, 100
1, 351840, Note_on_c, 0, 62, 0
1, 351840, Note_on_c, 0, 63, 100
1, 351840, Note_on_c, 0, 65, 0
1, 351840, Note_on_c, 0, 71, 0
1, 351840, Note_on_c, 0, 72, 100
1, 351930, Note_on_c, 0, 60, 0
1, 351930, Note_on_c, 0, 63, 0
1, 351930, Note_on_c, 0, 72, 0
1, 351960, Note_on_c, 0, 48, 100
1, 352068, Note_on_c, 0, 36, 0
1, 352080, Note_on_c, 0, 36, 100
1, 352080, Note_on_c, 0, 48, 0
1, 352080, Note_on_c, 0, 60, 100
1, 352200, Note_on_c, 0, 48, 100
1, 352308, Note_on_c, 0, 36, 0
1, 352320, Note_on_c, 0, 36, 100
1, 352320, Note_on_c, 0, 48, 0
1, 352440, Note_on_c, 0, 48, 100
1, 352548, Note_on_c, 0, 36, 0
1, 352560, Note_on_c, 0, 36, 100
1, 352560, Note_on_c, 0, 48, 0
1, 352560, Note_on_c, 0, 58, 100
1, 352560, Note_on_c, 0, 60, 0
1, 352560, Note_on_c, 0, 64, 100
1, 352650, Note_on_c, 0, 58, 0
1, 352650, Note_on_c, 0, 64, 0
1, 352680, Note_on_c, 0, 48, 100
1, 352788, Note_on_c, 0, 36, 0
1, 352800, Note_on_c, 0, 36, 100
1, 352800, Note_on_c, 0, 48, 0
1, 352800, Note_on_c, 0, 56, 100
1, 352800, Note_on_c, 0, 65, 100
1, 352890, Note_on_c, 0, 56, 0
1, 352890, Note_on_c, 0, 65, 0
1, 352920, Note_on_c, 0, 48, 100
1, 353028, Note_on_c, 0, 36, 0
1, 353040, Note_on_c, 0, 36, 100
1, 353040, Note_on_c, 0, 48, 0
1, 353040, Note_on_c, 0, 64, 100
1, 353040, Note_on_c, 0, 67, 100
1, 353130, Note_on_c, 0, 64, 0
1, 353130, Note_on_c, 0, 67, 0
1, 353160, Note_on_c, 0, 48, 100
1, 353268, Note_on_c, 0, 36, 0
1, 353280, Note_on_c, 0, 36, 100
1, 353280, Note_on_c, 0, 48, 0
1, 353280, Note_on_c, 0, 65, 100
1, 353280, Note_on_c, 0, 68, 100
1, 353370, Note_on_c, 0, 65, 0
1, 353370, Note_on_c, 0, 68, 0
1, 353400, Note_on_c, 0, 48, 100
1, 353508, Note_on_c, 0, 36, 0
1, 353520, Note_on_c, 0, 36, 100
1, 353520, Note_on_c, 0, 48, 0
1, 353520, Note_on_c, 0, 62, 100
1, 353520, Note_on_c, 0, 71, 100
1, 353610, Note_on_c, 0, 62, 0
1, 353610, Note_on_c, 0, 71, 0
1, 353640, Note_on_c, 0, 48, 100
1, 353748, Note_on_c, 0, 36, 0
1, 353760, Note_on_c, 0, 36, 100
1, 353760, Note_on_c, 0, 48, 0
1, 353760, Note_on_c, 0, 63, 100
1, 353760, Note_on_c, 0, 72, 100
1, 353850, Note_on_c, 0, 63, 0
1, 353850, Note_on_c, 0, 72, 0
1, 353880, Note_on_c, 0, 48, 100
1, 353988, Note_on_c, 0, 36, 0
1, 354000, Note_on_c, 0, 36, 100
1, 354000, Note_on_c, 0, 48, 0
1, 354000, Note_on_c, 0, 64, 100
1, 354000, Note_on_c, 0, 72, 100
1, 354120, Note_on_c, 0, 48, 100
1, 354228, Note_on_c, 0, 36, 0
1, 354240, Note_on_c, 0, 36, 100
1, 354240, Note_on_c, 0, 48, 0
1, 354360, Note_on_c, 0, 48, 100
1, 354468, Note_on_c, 0, 36, 0
1, 354480, Note_on_c, 0, 36, 100
1, 354480, Note_on_c, 0, 48, 0
1, 354480, Note_on_c, 0, 64, 0
1, 354480, Note_on_c, 0, 70, 100
1, 354480, Note_on_c, 0, 72, 0
1, 354480, Note_on_c, 0, 76, 100
1, 354570, Note_on_c, 0, 70, 0
1, 354570, Note_on_c, 0, 76, 0
1, 354600, Note_on_c, 0, 48, 100
1, 354708, Note_on_c, 0, 36, 0
1, 354720, Note_on_c, 0, 36, 100
1, 354720, Note_on_c, 0, 48, 0
1, 354720, Note_on_c, 0, 68, 100
1, 354720, Note_on_c, 0, 77, 100
1, 354810, Note_on_c, 0, 68, 0
1, 354810, Note_on_c, 0, 77, 0
1, 354840, Note_on_c, 0, 48, 100
1, 354948, Note_on_c, 0, 36, 0
1, 354960, Note_on_c, 0, 36, 100
1, 354960, Note_on_c, 0, 48, 0
1, 354960, Note_on_c, 0, 76, 100
1, 354960, Note_on_c, 0, 79, 100
1, 355050, Note_on_c, 0, 76, 0
1, 355050, Note_on_c, 0, 79, 0
1, 355080, Note_on_c, 0, 48, 100
1, 355188, Note_on_c, 0, 36, 0
1, 355200, Note_on_c, 0, 36, 100
1, 355200, Note_on_c, 0, 48, 0
1, 355200, Note_on_c, 0, 77, 100
1, 355200, Note_on_c, 0, 80, 100
1, 355290, Note_on_c, 0, 77, 0
1, 355290, Note_on_c, 0, 80, 0
1, 355320, Note_on_c, 0, 48, 100
1, 355428, Note_on_c, 0, 36, 0
1, 355440, Note_on_c, 0, 36, 100
1, 355440, Note_on_c, 0, 48, 0
1, 355440, Note_on_c, 0, 74, 100
1, 355440, Note_on_c, 0, 83, 100
1, 355530, Note_on_c, 0, 74, 0
1, 355530, Note_on_c, 0, 83, 0
1, 355560, Note_on_c, 0, 48, 100
1, 355668, Note_on_c, 0, 36, 0
1, 355680, Note_on_c, 0, 36, 100
1, 355680, Note_on_c, 0, 48, 0
1, 355680, Note_on_c, 0, 72, 100
1, 355680, Note_on_c, 0, 75, 100
1, 355680, Note_on_c, 0, 79, 100
1, 355680, Note_on_c, 0, 84, 100
1, 355800, Note_on_c, 0, 48, 100
1, 355908, Note_on_c, 0, 36, 0
1, 355920, Note_on_c, 0, 36, 100
1, 355920, Note_on_c, 0, 48, 0
1, 356040, Note_on_c, 0, 48, 100
1, 356148, Note_on_c, 0, 36, 0
1, 356160, Note_on_c, 0, 36, 100
1, 356160, Note_on_c, 0, 48, 0
1, 356160, Note_on_c, 0, 68, 100
1, 356160, Note_on_c, 0, 72, 0
1, 356160, Note_on_c, 0, 75, 0
1, 356160, Note_on_c, 0, 75, 100
1, 356160, Note_on_c, 0, 79, 0
1, 356160, Note_on_c, 0, 80, 100
1, 356160, Note_on_c, 0, 84, 0
1, 356280, Note_on_c, 0, 48, 100
1, 356388, Note_on_c, 0, 36, 0
1, 356400, Note_on_c, 0, 36, 100
1, 356400, Note_on_c, 0, 48, 0
1, 356520, Note_on_c, 0, 48, 100
1, 356628, Note_on_c, 0, 36, 0
1, 356640, Note_on_c, 0, 37, 0
1, 356640, Note_on_c, 0, 48, 100
1, 356640, Note_on_c, 0, 68, 0
1, 356640, Note_on_c, 0, 68, 100
1, 356640, Note_on_c, 0, 73, 100
1, 356640, Note_on_c, 0, 75, 0
1, 356640, Note_on_c, 0, 77, 100
1, 356640, Note_on_c, 0, 80, 0
1, 356760, Note_on_c, 0, 49, 100
1, 356868, Note_on_c, 0, 37, 0
1, 356880, Note_on_c, 0, 37, 0
1, 356880, Note_on_c, 0, 49, 100
1, 357000, Note_on_c, 0, 49, 100
1, 357108, Note_on_c, 0, 37, 0
1, 357120, Note_on_c, 0, 39, 100
1, 357120, Note_on_c, 0, 49, 0
1, 357120, Note_on_c, 0, 66, 100
1, 357120, Note_on_c, 0, 68, 0
1, 357120, Note_on_c, 0, 72, 100
1, 357120, Note_on_c, 0, 73, 0
1, 357120, Note_on_c, 0, 75, 100
1, 357120, Note_on_c, 0, 77, 0
1, 357240, Note_on_c, 0, 51, 100
1, 357348, Note_on_c, 0, 39, 0
1, 357360, Note_on_c, 0, 39, 100
1, 357360, Note_on_c, 0, 51, 0
1, 357480, Note_on_c, 0, 51, 100
1, 357588, Note_on_c, 0, 39, 0
1, 357600, Note_on_c, 0, 41, 100
1, 357600, Note_on_c, 0, 51, 0
1, 357600, Note_on_c, 0, 65, 100
1, 357600, Note_on_c, 0, 66, 0
1, 357600, Note_on_c, 0, 68, 100
1, 357600, Note_on_c, 0, 72, 0
1, 357600, Note_on_c, 0, 73, 100
1, 357600, Note_on_c, 0, 75, 0
1, 357720, Note_on_c, 0, 53, 100
1, 357828, Note_on_c, 0, 41, 0
1, 357840, Note_on_c, 0, 41, 100
1, 357840, Note_on_c, 0, 53, 0
1, 357960, Note_on_c, 0, 53, 100
1, 358068, Note_on_c, 0, 41, 0
1, 358080, Note_on_c, 0, 42, 100
1, 358080, Note_on_c, 0, 53, 0
1, 358080, Note_on_c, 0, 61, 100
1, 358080, Note_on_c, 0, 65, 0
1, 358080, Note_on_c, 0, 66, 100
1, 358080, Note_on_c, 0, 68, 0
1, 358080, Note_on_c, 0, 70, 100
1, 358080, Note_on_c, 0, 73, 0
1, 358200, Note_on_c, 0, 54, 100
1, 358308, Note_on_c, 0, 42, 0
1, 358320, Note_on_c, 0, 42, 100
1, 358320, Note_on_c, 0, 54, 0
1, 358440, Note_on_c, 0, 54, 100
1, 358548, Note_on_c, 0, 42, 0
1, 358560, Note_on_c, 0, 44, 100
1, 358560, Note_on_c, 0, 54, 0
1, 358560, Note_on_c, 0, 61, 0
1, 358560, Note_on_c, 0, 61, 100
1, 358560, Note_on_c, 0, 65, 100
1, 358560, Note_on_c, 0, 66, 0
1, 358560, Note_on_c, 0, 68, 100
1, 358560, Note_on_c, 0, 70, 0
1, 358680, Note_on_c, 0, 56, 100
1, 358788, Note_on_c, 0, 44, 0
1, 358800, Note_on_c, 0, 44, 100
1, 358800, Note_on_c, 0, 56, 0
1, 358920, Note_on_c, 0, 56, 100
1, 359028, Note_on_c, 0, 44, 0
1, 359040, Note_on_c, 0, 44, 100
1, 359040, Note_on_c, 0, 56, 0
1, 359040, Note_on_c, 0, 60, 100
1, 359040, Note_on_c, 0, 61, 0
1, 359040, Note_on_c, 0, 63, 100
1, 359040, Note_on_c, 0, 65, 0
1, 359160, Note_on_c, 0, 56, 100
1, 359268, Note_on_c, 0, 44, 0
1, 359280, Note_on_c, 0, 44, 100
1, 359280, Note_on_c, 0, 56, 0
1, 359400, Note_on_c, 0, 56, 100
1, 359508, Note_on_c, 0, 44, 0
1, 359520, Note_on_c, 0, 44, 100
1, 359520, Note_on_c, 0, 56, 0
1, 359520, Note_on_c, 0, 60, 0
1, 359520, Note_on_c, 0, 62, 100
1, 359520, Note_on_c, 0, 63, 0
1, 359520, Note_on_c, 0, 65, 100
1, 359520, Note_on_c, 0, 68, 0
1, 359520, Note_on_c, 0, 70, 100
1, 359640, Note_on_c, 0, 56, 100
1, 359748, Note_on_c, 0, 44, 0
1, 359760, Note_on_c, 0, 44, 100
1, 359760, Note_on_c, 0, 56, 0
1, 359880, Note_on_c, 0, 56, 100
1, 359988, Note_on_c, 0, 44, 0
1, 360000, Note_on_c, 0, 38, 100
1, 360000, Note_on_c, 0, 56, 0
1, 360000, Note_on_c, 0, 62, 0
1, 360000, Note_on_c, 0, 65, 0
1, 360000, Note_on_c, 0, 70, 0
1, 360000, Note_on_c, 0, 70, 100
1, 360000, Note_on_c, 0, 77, 100
1, 360000, Note_on_c, 0, 82, 100
1, 360120, Note_on_c, 0, 50, 100
1, 360228, Note_on_c, 0, 38, 0
1, 360240, Note_on_c, 0, 38, 100
1, 360240, Note_on_c, 0, 50, 0
1, 360360, Note_on_c, 0, 50, 100
1, 360468, Note_on_c, 0, 38, 0
1, 360480, Note_on_c, 0, 39, 100
1, 360480, Note_on_c, 0, 50, 0
1, 360480, Note_on_c, 0, 70, 0
1, 360480, Note_on_c, 0, 70, 100
1, 360480, Note_on_c, 0, 75, 100
1, 360480, Note_on_c, 0, 77, 0
1, 360480, Note_on_c, 0, 78, 100
1, 360480, Note_on_c, 0, 82, 0
1, 360600, Note_on_c, 0, 51, 100
1, 360708, Note_on_c, 0, 39, 0
1, 360720, Note_on_c, 0, 39, 100
1, 360720, Note_on_c, 0, 51, 0
1, 360840, Note_on_c, 0, 51, 100
1, 360948, Note_on_c, 0, 39, 0
1, 360960, Note_on_c, 0, 41, 100
1, 360960, Note_on_c, 0, 51, 0
1, 360960, Note_on_c, 0, 68, 100
1, 360960, Note_on_c, 0, 70, 0
1, 360960, Note_on_c, 0, 74, 100
1, 360960, Note_on_c, 0, 75, 0
1, 360960, Note_on_c, 0, 77, 100
1, 360960, Note_on_c, 0, 78, 0
1, 361080, Note_on_c, 0, 53, 100
1, 361188, Note_on_c, 0, 41, 0
1, 361200, Note_on_c, 0, 41, 100
1, 361200, Note_on_c, 0, 53, 0
1, 361320, Note_on_c, 0, 53, 100
1, 361428, Note_on_c, 0, 41, 0
1, 361440, Note_on_c, 0, 42, 100
1, 361440, Note_on_c, 0, 53, 0
1, 361440, Note_on_c, 0, 66, 100
1, 361440, Note_on_c, 0, 68, 0
1, 361440, Note_on_c, 0, 70, 100
1, 361440, Note_on_c, 0, 74, 0
1, 361440, Note_on_c, 0, 75, 100
1, 361440, Note_on_c, 0, 77, 0
1, 361560, Note_on_c, 0, 54, 100
1, 361668, Note_on_c, 0, 42, 0
1, 361680, Note_on_c, 0, 42, 100
1, 361680, Note_on_c, 0, 54, 0
1, 361800, Note_on_c, 0, 54, 100
1, 361908, Note_on_c, 0, 42, 0
1, 361920, Note_on_c, 0, 44, 100
1, 361920, Note_on_c, 0, 54, 0
1, 361920, Note_on_c, 0, 63, 100
1, 361920, Note_on_c, 0, 66, 0
1, 361920, Note_on_c, 0, 68, 100
1, 361920, Note_on_c, 0, 70, 0
1, 361920, Note_on_c, 0, 71, 100
1, 361920, Note_on_c, 0, 75, 0
1, 362040, Note_on_c, 0, 56, 100
1, 362148, Note_on_c, 0, 44, 0
1, 362160, Note_on_c, 0, 44, 100
1, 362160, Note_on_c, 0, 56, 0
1, 362280, Note_on_c, 0, 56, 100
1, 362388, Note_on_c, 0, 44, 0
1, 362400, Note_on_c, 0, 46, 100
1, 362400, Note_on_c, 0, 56, 0
1, 362400, Note_on_c, 0, 63, 0
1, 362400, Note_on_c, 0, 63, 100
1, 362400, Note_on_c, 0, 66, 100
1, 362400, Note_on_c, 0, 68, 0
1, 362400, Note_on_c, 0, 70, 100
1, 362400, Note_on_c, 0, 71, 0
1, 362520, Note_on_c, 0, 58, 100
1, 362628, Note_on_c, 0, 46, 0
1, 362640, Note_on_c, 0, 46, 100
1, 362640, Note_on_c, 0, 58, 0
1, 362760, Note_on_c, 0, 58, 100
1, 362868, Note_on_c, 0, 46, 0
1, 362880, Note_on_c, 0, 46, 100
1, 362880, Note_on_c, 0, 58, 0
1, 362880, Note_on_c, 0, 62, 100
1, 362880, Note_on_c, 0, 63, 0
1, 362880, Note_on_c, 0, 65, 100
1, 362880, Note_on_c, 0, 66, 0
1, 363000, Note_on_c, 0, 58, 100
1, 363108, Note_on_c, 0, 46, 0
1, 363120, Note_on_c, 0, 46, 100
1, 363120, Note_on_c, 0, 58, 0
1, 363240, Note_on_c, 0, 58, 100
1, 363348, Note_on_c, 0, 46, 0
1, 363360, Note_on_c, 0, 46, 100
1, 363360, Note_on_c, 0, 58, 0
1, 363360, Note_on_c, 0, 62, 0
1, 363360, Note_on_c, 0, 64, 100
1, 363360, Note_on_c, 0, 65, 0
1, 363360, Note_on_c, 0, 67, 100
1, 363360, Note_on_c, 0, 70, 0
1, 363360, Note_on_c, 0, 72, 100
1, 363480, Note_on_c, 0, 58, 100
1, 363588, Note_on_c, 0, 46, 0
1, 363600, Note_on_c, 0, 46, 100
1, 363600, Note_on_c, 0, 58, 0
1, 363720, Note_on_c, 0, 58, 100
1, 363828, Note_on_c, 0, 46, 0
1, 363840, Note_on_c, 0, 40, 100
1, 363840, Note_on_c, 0, 58, 0
1, 363840, Note_on_c, 0, 64, 0
1, 363840, Note_on_c, 0, 67, 0
1, 363840, Note_on_c, 0, 72, 0
1, 363840, Note_on_c, 0, 72, 100
1, 363840, Note_on_c, 0, 79, 100
1, 363840, Note_on_c, 0, 84, 100
1, 363960, Note_on_c, 0, 52, 100
1, 364068, Note_on_c, 0, 40, 0
1, 364080, Note_on_c, 0, 40, 100
1, 364080, Note_on_c, 0, 52, 0
1, 364200, Note_on_c, 0, 52, 100
1, 364308, Note_on_c, 0, 40, 0
1, 364320, Note_on_c, 0, 41, 100
1, 364320, Note_on_c, 0, 52, 0
1, 364320, Note_on_c, 0, 72, 0
1, 364320, Note_on_c, 0, 72, 100
1, 364320, Note_on_c, 0, 77, 100
1, 364320, Note_on_c, 0, 79, 0
1, 364320, Note_on_c, 0, 80, 100
1, 364320, Note_on_c, 0, 84, 0
1, 364440, Note_on_c, 0, 53, 100
1, 364548, Note_on_c, 0, 41, 0
1, 364560, Note_on_c, 0, 41, 100
1, 364560, Note_on_c, 0, 53, 0
1, 364680, Note_on_c, 0, 53, 100
1, 364788, Note_on_c, 0, 41, 0
1, 364800, Note_on_c, 0, 43, 100
1, 364800, Note_on_c, 0, 53, 0
1, 364800, Note_on_c, 0, 70, 100
1, 364800, Note_on_c, 0, 72, 0
1, 364800, Note_on_c, 0, 76, 100
1, 364800, Note_on_c, 0, 77, 0
1, 364800, Note_on_c, 0, 79, 100
1, 364800, Note_on_c, 0, 80, 0
1, 364920, Note_on_c, 0, 55, 100
1, 365028, Note_on_c, 0, 43, 0
1, 365040, Note_on_c, 0, 43, 100
1, 365040, Note_on_c, 0, 55, 0
1, 365160, Note_on_c, 0, 55, 100
1, 365268, Note_on_c, 0, 43, 0
1, 365280, Note_on_c, 0, 44, 100
1, 365280, Note_on_c, 0, 55, 0
1, 365280, Note_on_c, 0, 68, 100
1, 365280, Note_on_c, 0, 70, 0
1, 365280, Note_on_c, 0, 72, 100
1, 365280, Note_on_c, 0, 76, 0
1, 365280, Note_on_c, 0, 77, 100
1, 365280, Note_on_c, 0, 79, 0
1, 365400, Note_on_c, 0, 56, 100
1, 365508, Note_on_c, 0, 44, 0
1, 365520, Note_on_c, 0, 44, 100
1, 365520, Note_on_c, 0, 56, 0
1, 365640, Note_on_c, 0, 56, 100
1, 365748, Note_on_c, 0, 44, 0
1, 365760, Note_on_c, 0, 46, 100
1, 365760, Note_on_c, 0, 56, 0
1, 365760, Note_on_c, 0, 65, 100
1, 365760, Note_on_c, 0, 68, 0
1, 365760, Note_on_c, 0, 72, 0
1, 365760, Note_on_c, 0, 73, 100
1, 365760, Note_on_c, 0, 77, 0
1, 365880, Note_on_c, 0, 58, 100
1, 365988, Note_on_c, 0, 46, 0
1, 366000, Note_on_c, 0, 46, 100
1, 366000, Note_on_c, 0, 58, 0
1, 366120, Note_on_c, 0, 58, 100
1, 366228, Note_on_c, 0, 46, 0
1, 366240, Note_on_c, 0, 48, 100
1, 366240, Note_on_c, 0, 58, 0
1, 366240, Note_on_c, 0, 65, 0
1, 366240, Note_on_c, 0, 65, 100
1, 366240, Note_on_c, 0, 72, 100
1, 366240, Note_on_c, 0, 73, 0
1, 366360, Note_on_c, 0, 60, 100
1, 366468, Note_on_c, 0, 48, 0
1, 366480, Note_on_c, 0, 48, 100
1, 366480, Note_on_c, 0, 60, 0
1, 366600, Note_on_c, 0, 60, 100
1, 366708, Note_on_c, 0, 48, 0
1, 366720, Note_on_c, 0, 49, 100
1, 366720, Note_on_c, 0, 60, 0
1, 366720, Note_on_c, 0, 65, 0
1, 366720, Note_on_c, 0, 65, 100
1, 366720, Note_on_c, 0, 71, 100
1, 366720, Note_on_c, 0, 72, 0
1, 366840, Note_on_c, 0, 61, 100
1, 366948, Note_on_c, 0, 49, 0
1, 366960, Note_on_c, 0, 49, 100
1, 366960, Note_on_c, 0, 61, 0
1, 367080, Note_on_c, 0, 61, 100
1, 367188, Note_on_c, 0, 49, 0
1, 367200, Note_on_c, 0, 48, 100
1, 367200, Note_on_c, 0, 60, 100
1, 367200, Note_on_c, 0, 61, 0
1, 367200, Note_on_c, 0, 64, 100
1, 367200, Note_on_c, 0, 65, 0
1, 367200, Note_on_c, 0, 71, 0
1, 367200, Note_on_c, 0, 72, 100
1, 367440, Note_on_c, 0, 48, 0
1, 367440, Note_on_c, 0, 59, 100
1, 367440, Note_on_c, 0, 60, 0
1, 367440, Note_on_c, 0, 64, 0
1, 367440, Note_on_c, 0, 72, 0
1, 367680, Note_on_c, 0, 59, 0
1, 367680, Note_on_c, 0, 60, 100
1, 367920, Note_on_c, 0, 59, 100
1, 367920, Note_on_c, 0, 60, 0
1, 368160, Note_on_c, 0, 59, 0
1, 368160, Note_on_c, 0, 60, 100
1, 368400, Note_on_c, 0, 59, 100
1, 368400, Note_on_c, 0, 60, 0
1, 368640, Note_on_c, 0, 59, 0
1, 368640, Note_on_c, 0, 60, 100
1, 368880, Note_on_c, 0, 59, 100
1, 368880, Note_on_c, 0, 60, 0
1, 369120, Note_on_c, 0, 59, 0
1, 369120, Note_on_c, 0, 60, 100
1, 369360, Note_on_c, 0, 48, 100
1, 369360, Note_on_c, 0, 65, 100
1, 369360, Note_on_c, 0, 68, 100
1, 369480, Note_on_c, 0, 48, 0
1, 369588, Note_on_c, 0, 65, 0
1, 369588, Note_on_c, 0, 68, 0
1, 369600, Note_on_c, 0, 53, 100
1, 369600, Note_on_c, 0, 65, 100
1, 369600, Note_on_c, 0, 68, 100
1, 369720, Note_on_c, 0, 53, 0
1, 369828, Note_on_c, 0, 65, 0
1, 369828, Note_on_c, 0, 68, 0
1, 369840, Note_on_c, 0, 55, 100
1, 369840, Note_on_c, 0, 65, 100
1, 369840, Note_on_c, 0, 68, 100
1, 369960, Note_on_c, 0, 55, 0
1, 370068, Note_on_c, 0, 65, 0
1, 370068, Note_on_c, 0, 68, 0
1, 370080, Note_on_c, 0, 56, 100
1, 370080, Note_on_c, 0, 60, 0
1, 370080, Note_on_c, 0, 60, 100
1, 370200, Note_on_c, 0, 56, 0
1, 370320, Note_on_c, 0, 65, 100
1, 370320, Note_on_c, 0, 68, 100
1, 370320, Note_on_c, 0, 72, 100
1, 370440, Note_on_c, 0, 72, 0
1, 370548, Note_on_c, 0, 65, 0
1, 370548, Note_on_c, 0, 68, 0
1, 370560, Note_on_c, 0, 65, 100
1, 370560, Note_on_c, 0, 68, 100
1, 370560, Note_on_c, 0, 77, 100
1, 370680, Note_on_c, 0, 77, 0
1, 370788, Note_on_c, 0, 65, 0
1, 370788, Note_on_c, 0, 68, 0
1, 370800, Note_on_c, 0, 65, 100
1, 370800, Note_on_c, 0, 68, 100
1, 370800, Note_on_c, 0, 79, 100
1, 370920, Note_on_c, 0, 79, 0
1, 370980, Note_on_c, 0, 72, 100
1, 371028, Note_on_c, 0, 65, 0
1, 371028, Note_on_c, 0, 68, 0
1, 371040, Note_on_c, 0, 60, 0
1, 371040, Note_on_c, 0, 60, 100
1, 371040, Note_on_c, 0, 72, 0
1, 371040, Note_on_c, 0, 80, 100
1, 371280, Note_on_c, 0, 65, 100
1, 371280, Note_on_c, 0, 68, 100
1, 371508, Note_on_c, 0, 65, 0
1, 371508, Note_on_c, 0, 68, 0
1, 371520, Note_on_c, 0, 65, 100
1, 371520, Note_on_c, 0, 68, 100
1, 371748, Note_on_c, 0, 65, 0
1, 371748, Note_on_c, 0, 68, 0
1, 371760, Note_on_c, 0, 65, 100
1, 371760, Note_on_c, 0, 68, 100
1, 371760, Note_on_c, 0, 77, 100
1, 371760, Note_on_c, 0, 80, 0
1, 371940, Note_on_c, 0, 72, 100
1, 371988, Note_on_c, 0, 65, 0
1, 371988, Note_on_c, 0, 68, 0
1, 372000, Note_on_c, 0, 60, 0
1, 372000, Note_on_c, 0, 60, 100
1, 372000, Note_on_c, 0, 72, 0
1, 372000, Note_on_c, 0, 77, 0
1, 372000, Note_on_c, 0, 80, 100
1, 372240, Note_on_c, 0, 65, 100
1, 372240, Note_on_c, 0, 68, 100
1, 372468, Note_on_c, 0, 65, 0
1, 372468, Note_on_c, 0, 68, 0
1, 372480, Note_on_c, 0, 65, 100
1, 372480, Note_on_c, 0, 68, 100
1, 372708, Note_on_c, 0, 65, 0
1, 372708, Note_on_c, 0, 68, 0
1, 372720, Note_on_c, 0, 65, 100
1, 372720, Note_on_c, 0, 68, 100
1, 372720, Note_on_c, 0, 77, 100
1, 372720, Note_on_c, 0, 80, 0
1, 372948, Note_on_c, 0, 65, 0
1, 372948, Note_on_c, 0, 68, 0
1, 372960, Note_on_c, 0, 60, 0
1, 372960, Note_on_c, 0, 60, 100
1, 372960, Note_on_c, 0, 76, 100
1, 372960, Note_on_c, 0, 77, 0
1, 373200, Note_on_c, 0, 48, 100
1, 373200, Note_on_c, 0, 67, 100
1, 373200, Note_on_c, 0, 70, 100
1, 373200, Note_on_c, 0, 76, 0
1, 373320, Note_on_c, 0, 48, 0
1, 373428, Note_on_c, 0, 67, 0
1, 373428, Note_on_c, 0, 70, 0
1, 373440, Note_on_c, 0, 55, 100
1, 373440, Note_on_c, 0, 67, 100
1, 373440, Note_on_c, 0, 70, 100
1, 373560, Note_on_c, 0, 55, 0
1, 373668, Note_on_c, 0, 67, 0
1, 373668, Note_on_c, 0, 70, 0
1, 373680, Note_on_c, 0, 56, 100
1, 373680, Note_on_c, 0, 67, 100
1, 373680, Note_on_c, 0, 70, 100
1, 373800, Note_on_c, 0, 56, 0
1, 373908, Note_on_c, 0, 67, 0
1, 373908, Note_on_c, 0, 70, 0
1, 373920, Note_on_c, 0, 58, 100
1, 373920, Note_on_c, 0, 60, 0
1, 373920, Note_on_c, 0, 60, 100
1, 374040, Note_on_c, 0, 58, 0
1, 374160, Note_on_c, 0, 67, 100
1, 374160, Note_on_c, 0, 70, 100
1, 374160, Note_on_c, 0, 72, 100
1, 374388, Note_on_c, 0, 67, 0
1, 374388, Note_on_c, 0, 70, 0
1, 374400, Note_on_c, 0, 67, 100
1, 374400, Note_on_c, 0, 70, 100
1, 374400, Note_on_c, 0, 72, 0
1, 374400, Note_on_c, 0, 82, 100
1, 374628, Note_on_c, 0, 67, 0
1, 374628, Note_on_c, 0, 70, 0
1, 374640, Note_on_c, 0, 67, 100
1, 374640, Note_on_c, 0, 70, 100
1, 374640, Note_on_c, 0, 80, 100
1, 374640, Note_on_c, 0, 82, 0
1, 374868, Note_on_c, 0, 67, 0
1, 374868, Note_on_c, 0, 70, 0
1, 374880, Note_on_c, 0, 60, 0
1, 374880, Note_on_c, 0, 60, 100
1, 374880, Note_on_c, 0, 80, 0
1, 374880, Note_on_c, 0, 80, 100
1, 374940, Note_on_c, 0, 80, 0
1, 374940, Note_on_c, 0, 82, 100
1, 375000, Note_on_c, 0, 80, 100
1, 375000, Note_on_c, 0, 82, 0
1, 375120, Note_on_c, 0, 67, 100
1, 375120, Note_on_c, 0, 70, 100
1, 375120, Note_on_c, 0, 79, 100
1, 375120, Note_on_c, 0, 80, 0
1, 375348, Note_on_c, 0, 67, 0
1, 375348, Note_on_c, 0, 70, 0
1, 375360, Note_on_c, 0, 67, 100
1, 375360, Note_on_c, 0, 70, 100
1, 375360, Note_on_c, 0, 79, 0
1, 375360, Note_on_c, 0, 79, 100
1, 375420, Note_on_c, 0, 79, 0
1, 375420, Note_on_c, 0, 80, 100
1, 375480, Note_on_c, 0, 79, 100
1, 375480, Note_on_c, 0, 80, 0
1, 375588, Note_on_c, 0, 67, 0
1, 375588, Note_on_c, 0, 70, 0
1, 375600, Note_on_c, 0, 67, 100
1, 375600, Note_on_c, 0, 70, 100
1, 375600, Note_on_c, 0, 77, 100
1, 375600, Note_on_c, 0, 79, 0
1, 375828, Note_on_c, 0, 67, 0
1, 375828, Note_on_c, 0, 70, 0
1, 375840, Note_on_c, 0, 60, 0
1, 375840, Note_on_c, 0, 60, 100
1, 375840, Note_on_c, 0, 77, 0
1, 375840, Note_on_c, 0, 77, 100
1, 375900, Note_on_c, 0, 77, 0
1, 375900, Note_on_c, 0, 79, 100
1, 375960, Note_on_c, 0, 77, 100
1, 375960, Note_on_c, 0, 79, 0
1, 376080, Note_on_c, 0, 67, 100
1, 376080, Note_on_c, 0, 70, 100
1, 376080, Note_on_c, 0, 76, 100
1, 376080, Note_on_c, 0, 77, 0
1, 376308, Note_on_c, 0, 67, 0
1, 376308, Note_on_c, 0, 70, 0
1, 376320, Note_on_c, 0, 67, 100
1, 376320, Note_on_c, 0, 70, 100
1, 376320, Note_on_c, 0, 74, 100
1, 376320, Note_on_c, 0, 76, 0
1, 376440, Note_on_c, 0, 74, 0
1, 376548, Note_on_c, 0, 67, 0
1, 376548, Note_on_c, 0, 70, 0
1, 376560, Note_on_c, 0, 67, 100
1, 376560, Note_on_c, 0, 70, 100
1, 376560, Note_on_c, 0, 76, 100
1, 376680, Note_on_c, 0, 76, 0
1, 376788, Note_on_c, 0, 67, 0
1, 376788, Note_on_c, 0, 70, 0
1, 376800, Note_on_c, 0, 60, 0
1, 376800, Note_on_c, 0, 60, 100
1, 376800, Note_on_c, 0, 77, 100
1, 377040, Note_on_c, 0, 48, 100
1, 377040, Note_on_c, 0, 65, 100
1, 377040, Note_on_c, 0, 68, 100
1, 377040, Note_on_c, 0, 77, 0
1, 377160, Note_on_c, 0, 48, 0
1, 377268, Note_on_c, 0, 65, 0
1, 377268, Note_on_c, 0, 68, 0
1, 377280, Note_on_c, 0, 53, 100
1, 377280, Note_on_c, 0, 65, 100
1, 377280, Note_on_c, 0, 68, 100
1, 377400, Note_on_c, 0, 53, 0
1, 377508, Note_on_c, 0, 65, 0
1, 377508, Note_on_c, 0, 68, 0
1, 377520, Note_on_c, 0, 55, 100
1, 377520, Note_on_c, 0, 65, 100
1, 377520, Note_on_c, 0, 68, 100
1, 377640, Note_on_c, 0, 55, 0
1, 377748, Note_on_c, 0, 65, 0
1, 377748, Note_on_c, 0, 68, 0
1, 377760, Note_on_c, 0, 56, 100
1, 377760, Note_on_c, 0, 60, 0
1, 377760, Note_on_c, 0, 60, 100
1, 377880, Note_on_c, 0, 56, 0
1, 378000, Note_on_c, 0, 65, 100
1, 378000, Note_on_c, 0, 68, 100
1, 378000, Note_on_c, 0, 72, 100
1, 378120, Note_on_c, 0, 72, 0
1, 378228, Note_on_c, 0, 65, 0
1, 378228, Note_on_c, 0, 68, 0
1, 378240, Note_on_c, 0, 65, 100
1, 378240, Note_on_c, 0, 68, 100
1, 378240, Note_on_c, 0, 77, 100
1, 378360, Note_on_c, 0, 77, 0
1, 378468, Note_on_c, 0, 65, 0
1, 378468, Note_on_c, 0, 68, 0
1, 378480, Note_on_c, 0, 65, 100
1, 378480, Note_on_c, 0, 68, 100
1, 378480, Note_on_c, 0, 80, 100
1, 378600, Note_on_c, 0, 80, 0
1, 378660, Note_on_c, 0, 72, 100
1, 378708, Note_on_c, 0, 65, 0
1, 378708, Note_on_c, 0, 68, 0
1, 378720, Note_on_c, 0, 56, 100
1, 378720, Note_on_c, 0, 60, 0
1, 378720, Note_on_c, 0, 72, 0
1, 378720, Note_on_c, 0, 84, 100
1, 378960, Note_on_c, 0, 60, 100
1, 378960, Note_on_c, 0, 65, 100
1, 379188, Note_on_c, 0, 60, 0
1, 379188, Note_on_c, 0, 65, 0
1, 379200, Note_on_c, 0, 60, 100
1, 379200, Note_on_c, 0, 65, 100
1, 379428, Note_on_c, 0, 60, 0
1, 379428, Note_on_c, 0, 65, 0
1, 379440, Note_on_c, 0, 60, 100
1, 379440, Note_on_c, 0, 65, 100
1, 379440, Note_on_c, 0, 77, 100
1, 379440, Note_on_c, 0, 84, 0
1, 379600, Note_on_c, 0, 77, 0
1, 379620, Note_on_c, 0, 77, 100
1, 379668, Note_on_c, 0, 60, 0
1, 379668, Note_on_c, 0, 65, 0
1, 379680, Note_on_c, 0, 56, 0
1, 379680, Note_on_c, 0, 56, 100
1, 379680, Note_on_c, 0, 77, 0
1, 379680, Note_on_c, 0, 89, 100
1, 379920, Note_on_c, 0, 60, 100
1, 379920, Note_on_c, 0, 65, 100
1, 380148, Note_on_c, 0, 60, 0
1, 380148, Note_on_c, 0, 65, 0
1, 380160, Note_on_c, 0, 60, 100
1, 380160, Note_on_c, 0, 65, 100
1, 380388, Note_on_c, 0, 60, 0
1, 380388, Note_on_c, 0, 65, 0
1, 380400, Note_on_c, 0, 60, 100
1, 380400, Note_on_c, 0, 65, 100
1, 380400, Note_on_c, 0, 84, 100
1, 380400, Note_on_c, 0, 89, 0
1, 380628, Note_on_c, 0, 60, 0
1, 380628, Note_on_c, 0, 65, 0
1, 380640, Note_on_c, 0, 55, 100
1, 380640, Note_on_c, 0, 56, 0
1, 380640, Note_on_c, 0, 83, 100
1, 380640, Note_on_c, 0, 84, 0
1, 380880, Note_on_c, 0, 43, 100
1, 380880, Note_on_c, 0, 62, 100
1, 380880, Note_on_c, 0, 65, 100
1, 380880, Note_on_c, 0, 83, 0
1, 381000, Note_on_c, 0, 43, 0
1, 381108, Note_on_c, 0, 62, 0
1, 381108, Note_on_c, 0, 65, 0
1, 381120, Note_on_c, 0, 50, 100
1, 381120, Note_on_c, 0, 62, 100
1, 381120, Note_on_c, 0, 65, 100
1, 381240, Note_on_c, 0, 50, 0
1, 381348, Note_on_c, 0, 62, 0
1, 381348, Note_on_c, 0, 65, 0
1, 381360, Note_on_c, 0, 51, 100
1, 381360, Note_on_c, 0, 62, 100
1, 381360, Note_on_c, 0, 65, 100
1, 381480, Note_on_c, 0, 51, 0
1, 381588, Note_on_c, 0, 62, 0
1, 381588, Note_on_c, 0, 65, 0
1, 381600, Note_on_c, 0, 53, 100
1, 381600, Note_on_c, 0, 55, 0
1, 381600, Note_on_c, 0, 55, 100
1, 381720, Note_on_c, 0, 53, 0
1, 381840, Note_on_c, 0, 62, 100
1, 381840, Note_on_c, 0, 65, 100
1, 381840, Note_on_c, 0, 67, 100
1, 382068, Note_on_c, 0, 62, 0
1, 382068, Note_on_c, 0, 65, 0
1, 382080, Note_on_c, 0, 62, 100
1, 382080, Note_on_c, 0, 65, 100
1, 382080, Note_on_c, 0, 67, 0
1, 382080, Note_on_c, 0, 77, 100
1, 382308, Note_on_c, 0, 62, 0
1, 382308, Note_on_c, 0, 65, 0
1, 382320, Note_on_c, 0, 62, 100
1, 382320, Note_on_c, 0, 65, 100
1, 382320, Note_on_c, 0, 75, 100
1, 382320, Note_on_c, 0, 77, 0
1, 382548, Note_on_c, 0, 62, 0
1, 382548, Note_on_c, 0, 65, 0
1, 382560, Note_on_c, 0, 55, 0
1, 382560, Note_on_c, 0, 55, 100
1, 382560, Note_on_c, 0, 75, 0
1, 382560, Note_on_c, 0, 75, 100
1, 382620, Note_on_c, 0, 75, 0
1, 382620, Note_on_c, 0, 77, 100
1, 382680, Note_on_c, 0, 75, 100
1, 382680, Note_on_c, 0, 77, 0
1, 382800, Note_on_c, 0, 62, 100
1, 382800, Note_on_c, 0, 65, 100
1, 382800, Note_on_c, 0, 74, 100
1, 382800, Note_on_c, 0, 75, 0
1, 383028, Note_on_c, 0, 62, 0
1, 383028, Note_on_c, 0, 65, 0
1, 383040, Note_on_c, 0, 62, 100
1, 383040, Note_on_c, 0, 65, 100
1, 383040, Note_on_c, 0, 74, 0
1, 383040, Note_on_c, 0, 74, 100
1, 383100, Note_on_c, 0, 74, 0
1, 383100, Note_on_c, 0, 75, 100
1, 383160, Note_on_c, 0, 74, 100
1, 383160, Note_on_c, 0, 75, 0
1, 383268, Note_on_c, 0, 62, 0
1, 383268, Note_on_c, 0, 65, 0
1, 383280, Note_on_c, 0, 62, 100
1, 383280, Note_on_c, 0, 65, 100
1, 383280, Note_on_c, 0, 72, 100
1, 383280, Note_on_c, 0, 74, 0
1, 383508, Note_on_c, 0, 62, 0
1, 383508, Note_on_c, 0, 65, 0
1, 383520, Note_on_c, 0, 55, 0
1, 383520, Note_on_c, 0, 55, 100
1, 383520, Note_on_c, 0, 72, 0
1, 383520, Note_on_c, 0, 72, 100
1, 383580, Note_on_c, 0, 72, 0
1, 383580, Note_on_c, 0, 74, 100
1, 383640, Note_on_c, 0, 72, 100
1, 383640, Note_on_c, 0, 74, 0
1, 383760, Note_on_c, 0, 62, 100
1, 383760, Note_on_c, 0, 65, 100
1, 383760, Note_on_c, 0, 71, 100
1, 383760, Note_on_c, 0, 72, 0
1, 383988, Note_on_c, 0, 62, 0
1, 383988, Note_on_c, 0, 65, 0
1, 384000, Note_on_c, 0, 62, 100
1, 384000, Note_on_c, 0, 65, 100
1, 384000, Note_on_c, 0, 69, 100
1, 384000, Note_on_c, 0, 71, 0
1, 384120, Note_on_c, 0, 69, 0
1, 384228, Note_on_c, 0, 62, 0
1, 384228, Note_on_c, 0, 65, 0
1, 384240, Note_on_c, 0, 62, 100
1, 384240, Note_on_c, 0, 65, 100
1, 384240, Note_on_c, 0, 71, 100
1, 384360, Note_on_c, 0, 71, 0
1, 384468, Note_on_c, 0, 62, 0
1, 384468, Note_on_c, 0, 65, 0
1, 384480, Note_on_c, 0, 55, 0
1, 384480, Note_on_c, 0, 55, 100
1, 384480, Note_on_c, 0, 72, 100
1, 384720, Note_on_c, 0, 43, 100
1, 384720, Note_on_c, 0, 60, 100
1, 384720, Note_on_c, 0, 63, 100
1, 384720, Note_on_c, 0, 72, 0
1, 384840, Note_on_c, 0, 43, 0
1, 384948, Note_on_c, 0, 60, 0
1, 384948, Note_on_c, 0, 63, 0
1, 384960, Note_on_c, 0, 48, 100
1, 384960, Note_on_c, 0, 60, 100
1, 384960, Note_on_c, 0, 63, 100
1, 385080, Note_on_c, 0, 48, 0
1, 385188, Note_on_c, 0, 60, 0
1, 385188, Note_on_c, 0, 63, 0
1, 385200, Note_on_c, 0, 50, 100
1, 385200, Note_on_c, 0, 60, 100
1, 385200, Note_on_c, 0, 63, 100
1, 385320, Note_on_c, 0, 50, 0
1, 385428, Note_on_c, 0, 60, 0
1, 385428, Note_on_c, 0, 63, 0
1, 385440, Note_on_c, 0, 51, 100
1, 385440, Note_on_c, 0, 55, 0
1, 385440, Note_on_c, 0, 55, 100
1, 385560, Note_on_c, 0, 51, 0
1, 385680, Note_on_c, 0, 60, 100
1, 385680, Note_on_c, 0, 63, 100
1, 385680, Note_on_c, 0, 79, 100
1, 385800, Note_on_c, 0, 79, 0
1, 385908, Note_on_c, 0, 60, 0
1, 385908, Note_on_c, 0, 63, 0
1, 385920, Note_on_c, 0, 60, 100
1, 385920, Note_on_c, 0, 63, 100
1, 385920, Note_on_c, 0, 84, 100
1, 386040, Note_on_c, 0, 84, 0
1, 386148, Note_on_c, 0, 60, 0
1, 386148, Note_on_c, 0, 63, 0
1, 386160, Note_on_c, 0, 60, 100
1, 386160, Note_on_c, 0, 63, 100
1, 386160, Note_on_c, 0, 86, 100
1, 386280, Note_on_c, 0, 86, 0
1, 386340, Note_on_c, 0, 79, 100
1, 386388, Note_on_c, 0, 60, 0
1, 386388, Note_on_c, 0, 63, 0
1, 386400, Note_on_c, 0, 55, 0
1, 386400, Note_on_c, 0, 55, 100
1, 386400, Note_on_c, 0, 79, 0
1, 386400, Note_on_c, 0, 87, 100
1, 386640, Note_on_c, 0, 60, 100
1, 386640, Note_on_c, 0, 63, 100
1, 386868, Note_on_c, 0, 60, 0
1, 386868, Note_on_c, 0, 63, 0
1, 386880, Note_on_c, 0, 60, 100
1, 386880, Note_on_c, 0, 63, 100
1, 387108, Note_on_c, 0, 60, 0
1, 387108, Note_on_c, 0, 63, 0
1, 387120, Note_on_c, 0, 60, 100
1, 387120, Note_on_c, 0, 63, 100
1, 387120, Note_on_c, 0, 84, 100
1, 387120, Note_on_c, 0, 87, 0
1, 387300, Note_on_c, 0, 79, 100
1, 387348, Note_on_c, 0, 60, 0
1, 387348, Note_on_c, 0, 63, 0
1, 387360, Note_on_c, 0, 55, 0
1, 387360, Note_on_c, 0, 55, 100
1, 387360, Note_on_c, 0, 79, 0
1, 387360, Note_on_c, 0, 84, 0
1, 387360, Note_on_c, 0, 87, 100
1, 387600, Note_on_c, 0, 60, 100
1, 387600, Note_on_c, 0, 63, 100
1, 387828, Note_on_c, 0, 60, 0
1, 387828, Note_on_c, 0, 63, 0
1, 387840, Note_on_c, 0, 60, 100
1, 387840, Note_on_c, 0, 63, 100
1, 388068, Note_on_c, 0, 60, 0
1, 388068, Note_on_c, 0, 63, 0
1, 388080, Note_on_c, 0, 60, 100
1, 388080, Note_on_c, 0, 63, 100
1, 388080, Note_on_c, 0, 84, 100
1, 388080, Note_on_c, 0, 87, 0
1, 388308, Note_on_c, 0, 60, 0
1, 388308, Note_on_c, 0, 63, 0
1, 388320, Note_on_c, 0, 55, 0
1, 388320, Note_on_c, 0, 55, 100
1, 388320, Note_on_c, 0, 83, 100
1, 388320, Note_on_c, 0, 84, 0
1, 388560, Note_on_c, 0, 43, 100
1, 388560, Note_on_c, 0, 62, 100
1, 388560, Note_on_c, 0, 65, 100
1, 388560, Note_on_c, 0, 83, 0
1, 388680, Note_on_c, 0, 43, 0
1, 388788, Note_on_c, 0, 62, 0
1, 388788, Note_on_c, 0, 65, 0
1, 388800, Note_on_c, 0, 50, 100
1, 388800, Note_on_c, 0, 62, 100
1, 388800, Note_on_c, 0, 65, 100
1, 388920, Note_on_c, 0, 50, 0
1, 389028, Note_on_c, 0, 62, 0
1, 389028, Note_on_c, 0, 65, 0
1, 389040, Note_on_c, 0, 51, 100
1, 389040, Note_on_c, 0, 62, 100
1, 389040, Note_on_c, 0, 65, 100
1, 389160, Note_on_c, 0, 51, 0
1, 389268, Note_on_c, 0, 62, 0
1, 389268, Note_on_c, 0, 65, 0
1, 389280, Note_on_c, 0, 53, 100
1, 389280, Note_on_c, 0, 55, 0
1, 389280, Note_on_c, 0, 55, 100
1, 389400, Note_on_c, 0, 53, 0
1, 389520, Note_on_c, 0, 62, 100
1, 389520, Note_on_c, 0, 65, 100
1, 389520, Note_on_c, 0, 79, 100
1, 389748, Note_on_c, 0, 62, 0
1, 389748, Note_on_c, 0, 65, 0
1, 389760, Note_on_c, 0, 62, 100
1, 389760, Note_on_c, 0, 65, 100
1, 389760, Note_on_c, 0, 79, 0
1, 389760, Note_on_c, 0, 89, 100
1, 389988, Note_on_c, 0, 62, 0
1, 389988, Note_on_c, 0, 65, 0
1, 390000, Note_on_c, 0, 62, 100
1, 390000, Note_on_c, 0, 65, 100
1, 390000, Note_on_c, 0, 87, 100
1, 390000, Note_on_c, 0, 89, 0
1, 390228, Note_on_c, 0, 62, 0
1, 390228, Note_on_c, 0, 65, 0
1, 390240, Note_on_c, 0, 55, 0
1, 390240, Note_on_c, 0, 55, 100
1, 390240, Note_on_c, 0, 87, 0
1, 390240, Note_on_c, 0, 87, 100
1, 390300, Note_on_c, 0, 87, 0
1, 390300, Note_on_c, 0, 89, 100
1, 390360, Note_on_c, 0, 87, 100
1, 390360, Note_on_c, 0, 89, 0
1, 390480, Note_on_c, 0, 62, 100
1, 390480, Note_on_c, 0, 65, 100
1, 390480, Note_on_c, 0, 86, 100
1, 390480, Note_on_c, 0, 87, 0
1, 390708, Note_on_c, 0, 62, 0
1, 390708, Note_on_c, 0, 65, 0
1, 390720, Note_on_c, 0, 62, 100
1, 390720, Note_on_c, 0, 65, 100
1, 390720, Note_on_c, 0, 86, 0
1, 390720, Note_on_c, 0, 86, 100
1, 390780, Note_on_c, 0, 86, 0
1, 390780, Note_on_c, 0, 87, 100
1, 390840, Note_on_c, 0, 86, 100
1, 390840, Note_on_c, 0, 87, 0
1, 390948, Note_on_c, 0, 62, 0
1, 390948, Note_on_c, 0, 65, 0
1, 390960, Note_on_c, 0, 62, 100
1, 390960, Note_on_c, 0, 65, 100
1, 390960, Note_on_c, 0, 84, 100
1, 390960, Note_on_c, 0, 86, 0
1, 391188, Note_on_c, 0, 62, 0
1, 391188, Note_on_c, 0, 65, 0
1, 391200, Note_on_c, 0, 55, 0
1, 391200, Note_on_c, 0, 55, 100
1, 391200, Note_on_c, 0, 84, 0
1, 391200, Note_on_c, 0, 84, 100
1, 391260, Note_on_c, 0, 84, 0
1, 391260, Note_on_c, 0, 86, 100
1, 391320, Note_on_c, 0, 84, 100
1, 391320, Note_on_c, 0, 86, 0
1, 391440, Note_on_c, 0, 62, 100
1, 391440, Note_on_c, 0, 65, 100
1, 391440, Note_on_c, 0, 83, 100
1, 391440, Note_on_c, 0, 84, 0
1, 391668, Note_on_c, 0, 62, 0
1, 391668, Note_on_c, 0, 65, 0
1, 391680, Note_on_c, 0, 62, 100
1, 391680, Note_on_c, 0, 65, 100
1, 391680, Note_on_c, 0, 81, 100
1, 391680, Note_on_c, 0, 83, 0
1, 391800, Note_on_c, 0, 81, 0
1, 391908, Note_on_c, 0, 62, 0
1, 391908, Note_on_c, 0, 65, 0
1, 391920, Note_on_c, 0, 62, 100
1, 391920, Note_on_c, 0, 65, 100
1, 391920, Note_on_c, 0, 83, 100
1, 392040, Note_on_c, 0, 83, 0
1, 392148, Note_on_c, 0, 62, 0
1, 392148, Note_on_c, 0, 65, 0
1, 392160, Note_on_c, 0, 55, 0
1, 392160, Note_on_c, 0, 60, 100
1, 392160, Note_on_c, 0, 86, 100
1, 392220, Note_on_c, 0, 86, 0
1, 392220, Note_on_c, 0, 87, 100
1, 392280, Note_on_c, 0, 86, 100
1, 392280, Note_on_c, 0, 87, 0
1, 392400, Note_on_c, 0, 63, 100
1, 392400, Note_on_c, 0, 67, 100
1, 392400, Note_on_c, 0, 84, 100
1, 392400, Note_on_c, 0, 86, 0
1, 392628, Note_on_c, 0, 63, 0
1, 392628, Note_on_c, 0, 67, 0
1, 392640, Note_on_c, 0, 63, 100
1, 392640, Note_on_c, 0, 67, 100
1, 392640, Note_on_c, 0, 84, 0
1, 392640, Note_on_c, 0, 84, 100
1, 392700, Note_on_c, 0, 84, 0
1, 392700, Note_on_c, 0, 86, 100
1, 392760, Note_on_c, 0, 84, 100
1, 392760, Note_on_c, 0, 86, 0
1, 392868, Note_on_c, 0, 63, 0
1, 392868, Note_on_c, 0, 67, 0
1, 392880, Note_on_c, 0, 63, 100
1, 392880, Note_on_c, 0, 67, 100
1, 392880, Note_on_c, 0, 82, 100
1, 392880, Note_on_c, 0, 84, 0
1, 393108, Note_on_c, 0, 63, 0
1, 393108, Note_on_c, 0, 67, 0
1, 393120, Note_on_c, 0, 53, 100
1, 393120, Note_on_c, 0, 60, 0
1, 393120, Note_on_c, 0, 82, 0
1, 393120, Note_on_c, 0, 82, 100
1, 393180, Note_on_c, 0, 82, 0
1, 393180, Note_on_c, 0, 84, 100
1, 393240, Note_on_c, 0, 82, 100
1, 393240, Note_on_c, 0, 84, 0
1, 393360, Note_on_c, 0, 63, 100
1, 393360, Note_on_c, 0, 65, 100
1, 393360, Note_on_c, 0, 81, 100
1, 393360, Note_on_c, 0, 82, 0
1, 393588, Note_on_c, 0, 63, 0
1, 393588, Note_on_c, 0, 65, 0
1, 393600, Note_on_c, 0, 63, 100
1, 393600, Note_on_c, 0, 65, 100
1, 393600, Note_on_c, 0, 79, 100
1, 393600, Note_on_c, 0, 81, 0
1, 393720, Note_on_c, 0, 79, 0
1, 393828, Note_on_c, 0, 63, 0
1, 393828, Note_on_c, 0, 65, 0
1, 393840, Note_on_c, 0, 63, 100
1, 393840, Note_on_c, 0, 65, 100
1, 393840, Note_on_c, 0, 81, 100
1, 393960, Note_on_c, 0, 81, 0
1, 394068, Note_on_c, 0, 63, 0
1, 394068, Note_on_c, 0, 65, 0
1, 394080, Note_on_c, 0, 53, 0
1, 394080, Note_on_c, 0, 58, 100
1, 394080, Note_on_c, 0, 84, 100
1, 394140, Note_on_c, 0, 84, 0
1, 394140, Note_on_c, 0, 85, 100
1, 394200, Note_on_c, 0, 84, 100
1, 394200, Note_on_c, 0, 85, 0
1, 394320, Note_on_c, 0, 61, 100
1, 394320, Note_on_c, 0, 65, 100
1, 394320, Note_on_c, 0, 82, 100
1, 394320, Note_on_c, 0, 84, 0
1, 394548, Note_on_c, 0, 61, 0
1, 394548, Note_on_c, 0, 65, 0
1, 394560, Note_on_c, 0, 61, 100
1, 394560, Note_on_c, 0, 65, 100
1, 394560, Note_on_c, 0, 82, 0
1, 394560, Note_on_c, 0, 82, 100
1, 394620, Note_on_c, 0, 82, 0
1, 394620, Note_on_c, 0, 84, 100
1, 394680, Note_on_c, 0, 82, 100
1, 394680, Note_on_c, 0, 84, 0
1, 394788, Note_on_c, 0, 61, 0
1, 394788, Note_on_c, 0, 65, 0
1, 394800, Note_on_c, 0, 61, 100
1, 394800, Note_on_c, 0, 65, 100
1, 394800, Note_on_c, 0, 80, 100
1, 394800, Note_on_c, 0, 82, 0
1, 395028, Note_on_c, 0, 61, 0
1, 395028, Note_on_c, 0, 65, 0
1, 395040, Note_on_c, 0, 51, 100
1, 395040, Note_on_c, 0, 58, 0
1, 395040, Note_on_c, 0, 80, 0
1, 395040, Note_on_c, 0, 80, 100
1, 395100, Note_on_c, 0, 80, 0
1, 395100, Note_on_c, 0, 82, 100
1, 395160, Note_on_c, 0, 80, 100
1, 395160, Note_on_c, 0, 82, 0
1, 395280, Note_on_c, 0, 61, 100
1, 395280, Note_on_c, 0, 63, 100
1, 395280, Note_on_c, 0, 79, 100
1, 395280, Note_on_c, 0, 80, 0
1, 395508, Note_on_c, 0, 61, 0
1, 395508, Note_on_c, 0, 63, 0
1, 395520, Note_on_c, 0, 61, 100
1, 395520, Note_on_c, 0, 63, 100
1, 395520, Note_on_c, 0, 77, 100
1, 395520, Note_on_c, 0, 79, 0
1, 395640, Note_on_c, 0, 77, 0
1, 395748, Note_on_c, 0, 61, 0
1, 395748, Note_on_c, 0, 63, 0
1, 395760, Note_on_c, 0, 61, 100
1, 395760, Note_on_c, 0, 63, 100
1, 395760, Note_on_c, 0, 79, 100
1, 395880, Note_on_c, 0, 79, 0
1, 395988, Note_on_c, 0, 61, 0
1, 395988, Note_on_c, 0, 63, 0
1, 396000, Note_on_c, 0, 51, 0
1, 396000, Note_on_c, 0, 56, 100
1, 396000, Note_on_c, 0, 82, 100
1, 396060, Note_on_c, 0, 82, 0
1, 396060, Note_on_c, 0, 84, 100
1, 396120, Note_on_c, 0, 82, 100
1, 396120, Note_on_c, 0, 84, 0
1, 396240, Note_on_c, 0, 60, 100
1, 396240, Note_on_c, 0, 63, 100
1, 396240, Note_on_c, 0, 80, 100
1, 396240, Note_on_c, 0, 82, 0
1, 396468, Note_on_c, 0, 60, 0
1, 396468, Note_on_c, 0, 63, 0
1, 396480, Note_on_c, 0, 60, 100
1, 396480, Note_on_c, 0, 63, 100
1, 396480, Note_on_c, 0, 80, 0
1, 396480, Note_on_c, 0, 80, 100
1, 396540, Note_on_c, 0, 80, 0
1, 396540, Note_on_c, 0, 82, 100
1, 396600, Note_on_c, 0, 80, 100
1, 396600, Note_on_c, 0, 82, 0
1, 396708, Note_on_c, 0, 60, 0
1, 396708, Note_on_c, 0, 63, 0
1, 396720, Note_on_c, 0, 60, 100
1, 396720, Note_on_c, 0, 63, 100
1, 396720, Note_on_c, 0, 79, 100
1, 396720, Note_on_c, 0, 80, 0
1, 396948, Note_on_c, 0, 60, 0
1, 396948, Note_on_c, 0, 63, 0
1, 396960, Note_on_c, 0, 56, 0
1, 396960, Note_on_c, 0, 56, 100
1, 396960, Note_on_c, 0, 79, 0
1, 396960, Note_on_c, 0, 79, 100
1, 397020, Note_on_c, 0, 79, 0
1, 397020, Note_on_c, 0, 80, 100
1, 397080, Note_on_c, 0, 79, 100
1, 397080, Note_on_c, 0, 80, 0
1, 397200, Note_on_c, 0, 60, 100
1, 397200, Note_on_c, 0, 63, 100
1, 397200, Note_on_c, 0, 78, 100
1, 397200, Note_on_c, 0, 79, 0
1, 397428, Note_on_c, 0, 60, 0
1, 397428, Note_on_c, 0, 63, 0
1, 397440, Note_on_c, 0, 60, 100
1, 397440, Note_on_c, 0, 63, 100
1, 397440, Note_on_c, 0, 78, 0
1, 397440, Note_on_c, 0, 78, 100
1, 397560, Note_on_c, 0, 78, 0
1, 397668, Note_on_c, 0, 60, 0
1, 397668, Note_on_c, 0, 63, 0
1, 397680, Note_on_c, 0, 60, 100
1, 397680, Note_on_c, 0, 63, 100
1, 397680, Note_on_c, 0, 78, 100
1, 397800, Note_on_c, 0, 78, 0
1, 397908, Note_on_c, 0, 60, 0
1, 397908, Note_on_c, 0, 63, 0
1, 397920, Note_on_c, 0, 55, 100
1, 397920, Note_on_c, 0, 56, 0
1, 397920, Note_on_c, 0, 80, 100
1, 397980, Note_on_c, 0, 80, 0
1, 397980, Note_on_c, 0, 82, 100
1, 398040, Note_on_c, 0, 80, 100
1, 398040, Note_on_c, 0, 82, 0
1, 398160, Note_on_c, 0, 60, 100
1, 398160, Note_on_c, 0, 63, 100
1, 398160, Note_on_c, 0, 79, 100
1, 398160, Note_on_c, 0, 80, 0
1, 398388, Note_on_c, 0, 60, 0
1, 398388, Note_on_c, 0, 63, 0
1, 398400, Note_on_c, 0, 60, 100
1, 398400, Note_on_c, 0, 63, 100
1, 398400, Note_on_c, 0, 79, 0
1, 398400, Note_on_c, 0, 79, 100
1, 398520, Note_on_c, 0, 79, 0
1, 398628, Note_on_c, 0, 60, 0
1, 398628, Note_on_c, 0, 63, 0
1, 398640, Note_on_c, 0, 60, 100
1, 398640, Note_on_c, 0, 63, 100
1, 398640, Note_on_c, 0, 79, 100
1, 398760, Note_on_c, 0, 79, 0
1, 398868, Note_on_c, 0, 60, 0
1, 398868, Note_on_c, 0, 63, 0
1, 398880, Note_on_c, 0, 55, 0
1, 398880, Note_on_c, 0, 55, 100
1, 398880, Note_on_c, 0, 80, 100
1, 398940, Note_on_c, 0, 80, 0
1, 398940, Note_on_c, 0, 82, 100
1, 399000, Note_on_c, 0, 80, 100
1, 399000, Note_on_c, 0, 82, 0
1, 399120, Note_on_c, 0, 59, 100
1, 399120, Note_on_c, 0, 62, 100
1, 399120, Note_on_c, 0, 79, 100
1, 399120, Note_on_c, 0, 80, 0
1, 399348, Note_on_c, 0, 59, 0
1, 399348, Note_on_c, 0, 62, 0
1, 399360, Note_on_c, 0, 59, 100
1, 399360, Note_on_c, 0, 62, 100
1, 399360, Note_on_c, 0, 79, 0
1, 399360, Note_on_c, 0, 79, 100
1, 399480, Note_on_c, 0, 79, 0
1, 399588, Note_on_c, 0, 59, 0
1, 399588, Note_on_c, 0, 62, 0
1, 399600, Note_on_c, 0, 59, 100
1, 399600, Note_on_c, 0, 62, 100
1, 399600, Note_on_c, 0, 79, 100
1, 399720, Note_on_c, 0, 79, 0
1, 399828, Note_on_c, 0, 59, 0
1, 399828, Note_on_c, 0, 62, 0
1, 399840, Note_on_c, 0, 48, 100
1, 399840, Note_on_c, 0, 55, 0
1, 399960, Note_on_c, 0, 55, 100
1, 399960, Note_on_c, 0, 60, 100
1, 400080, Note_on_c, 0, 51, 100
1, 400080, Note_on_c, 0, 55, 0
1, 400080, Note_on_c, 0, 60, 0
1, 400080, Note_on_c, 0, 63, 100
1, 400200, Note_on_c, 0, 51, 0
1, 400200, Note_on_c, 0, 55, 100
1, 400200, Note_on_c, 0, 60, 100
1, 400200, Note_on_c, 0, 63, 0
1, 400320, Note_on_c, 0, 51, 100
1, 400320, Note_on_c, 0, 55, 0
1, 400320, Note_on_c, 0, 60, 0
1, 400320, Note_on_c, 0, 72, 100
1, 400440, Note_on_c, 0, 51, 0
1, 400440, Note_on_c, 0, 55, 100
1, 400440, Note_on_c, 0, 60, 100
1, 400560, Note_on_c, 0, 51, 100
1, 400560, Note_on_c, 0, 55, 0
1, 400560, Note_on_c, 0, 60, 0
1, 400560, Note_on_c, 0, 63, 100
1, 400680, Note_on_c, 0, 51, 0
1, 400680, Note_on_c, 0, 55, 100
1, 400680, Note_on_c, 0, 60, 100
1, 400680, Note_on_c, 0, 63, 0
1, 400800, Note_on_c, 0, 51, 100
1, 400800, Note_on_c, 0, 55, 0
1, 400800, Note_on_c, 0, 60, 0
1, 400800, Note_on_c, 0, 63, 100
1, 400920, Note_on_c, 0, 51, 0
1, 400920, Note_on_c, 0, 55, 100
1, 400920, Note_on_c, 0, 60, 100
1, 400920, Note_on_c, 0, 63, 0
1, 401040, Note_on_c, 0, 51, 100
1, 401040, Note_on_c, 0, 55, 0
1, 401040, Note_on_c, 0, 60, 0
1, 401040, Note_on_c, 0, 63, 100
1, 401160, Note_on_c, 0, 51, 0
1, 401160, Note_on_c, 0, 55, 100
1, 401160, Note_on_c, 0, 60, 100
1, 401160, Note_on_c, 0, 63, 0
1, 401280, Note_on_c, 0, 48, 0
1, 401280, Note_on_c, 0, 48, 100
1, 401280, Note_on_c, 0, 55, 0
1, 401280, Note_on_c, 0, 60, 0
1, 401280, Note_on_c, 0, 72, 0
1, 401280, Note_on_c, 0, 72, 100
1, 401400, Note_on_c, 0, 55, 100
1, 401400, Note_on_c, 0, 60, 100
1, 401520, Note_on_c, 0, 51, 100
1, 401520, Note_on_c, 0, 55, 0
1, 401520, Note_on_c, 0, 60, 0
1, 401520, Note_on_c, 0, 63, 100
1, 401640, Note_on_c, 0, 51, 0
1, 401640, Note_on_c, 0, 55, 100
1, 401640, Note_on_c, 0, 60, 100
1, 401640, Note_on_c, 0, 63, 0
1, 401760, Note_on_c, 0, 46, 100
1, 401760, Note_on_c, 0, 48, 0
1, 401760, Note_on_c, 0, 55, 0
1, 401760, Note_on_c, 0, 60, 0
1, 401760, Note_on_c, 0, 72, 0
1, 401880, Note_on_c, 0, 55, 100
1, 401880, Note_on_c, 0, 61, 100
1, 402000, Note_on_c, 0, 52, 100
1, 402000, Note_on_c, 0, 55, 0
1, 402000, Note_on_c, 0, 61, 0
1, 402000, Note_on_c, 0, 64, 100
1, 402120, Note_on_c, 0, 52, 0
1, 402120, Note_on_c, 0, 55, 100
1, 402120, Note_on_c, 0, 61, 100
1, 402120, Note_on_c, 0, 64, 0
1, 402240, Note_on_c, 0, 52, 100
1, 402240, Note_on_c, 0, 55, 0
1, 402240, Note_on_c, 0, 61, 0
1, 402240, Note_on_c, 0, 73, 100
1, 402360, Note_on_c, 0, 52, 0
1, 402360, Note_on_c, 0, 55, 100
1, 402360, Note_on_c, 0, 61, 100
1, 402480, Note_on_c, 0, 52, 100
1, 402480, Note_on_c, 0, 55, 0
1, 402480, Note_on_c, 0, 61, 0
1, 402480, Note_on_c, 0, 64, 100
1, 402600, Note_on_c, 0, 52, 0
1, 402600, Note_on_c, 0, 55, 100
1, 402600, Note_on_c, 0, 61, 100
1, 402600, Note_on_c, 0, 64, 0
1, 402720, Note_on_c, 0, 52, 100
1, 402720, Note_on_c, 0, 55, 0
1, 402720, Note_on_c, 0, 61, 0
1, 402720, Note_on_c, 0, 64, 100
1, 402840, Note_on_c, 0, 52, 0
1, 402840, Note_on_c, 0, 55, 100
1, 402840, Note_on_c, 0, 61, 100
1, 402840, Note_on_c, 0, 64, 0
1, 402960, Note_on_c, 0, 52, 100
1, 402960, Note_on_c, 0, 55, 0
1, 402960, Note_on_c, 0, 61, 0
1, 402960, Note_on_c, 0, 64, 100
1, 403080, Note_on_c, 0, 52, 0
1, 403080, Note_on_c, 0, 55, 100
1, 403080, Note_on_c, 0, 61, 100
1, 403080, Note_on_c, 0, 64, 0
1, 403200, Note_on_c, 0, 46, 0
1, 403200, Note_on_c, 0, 46, 100
1, 403200, Note_on_c, 0, 55, 0
1, 403200, Note_on_c, 0, 61, 0
1, 403200, Note_on_c, 0, 73, 0
1, 403200, Note_on_c, 0, 73, 100
1, 403320, Note_on_c, 0, 55, 100
1, 403320, Note_on_c, 0, 61, 100
1, 403440, Note_on_c, 0, 52, 100
1, 403440, Note_on_c, 0, 55, 0
1, 403440, Note_on_c, 0, 61, 0
1, 403440, Note_on_c, 0, 64, 100
1, 403560, Note_on_c, 0, 52, 0
1, 403560, Note_on_c, 0, 55, 100
1, 403560, Note_on_c, 0, 61, 100
1, 403560, Note_on_c, 0, 64, 0
1, 403680, Note_on_c, 0, 44, 100
1, 403680, Note_on_c, 0, 46, 0
1, 403680, Note_on_c, 0, 55, 0
1, 403680, Note_on_c, 0, 61, 0
1, 403680, Note_on_c, 0, 72, 100
1, 403680, Note_on_c, 0, 73, 0
1, 403770, Note_on_c, 0, 44, 0
1, 403770, Note_on_c, 0, 72, 0
1, 403800, Note_on_c, 0, 56, 100
1, 403800, Note_on_c, 0, 60, 100
1, 403920, Note_on_c, 0, 48, 100
1, 403920, Note_on_c, 0, 56, 0
1, 403920, Note_on_c, 0, 60, 0
1, 403920, Note_on_c, 0, 65, 100
1, 404040, Note_on_c, 0, 48, 0
1, 404040, Note_on_c, 0, 56, 100
1, 404040, Note_on_c, 0, 60, 100
1, 404040, Note_on_c, 0, 65, 0
1, 404160, Note_on_c, 0, 46, 100
1, 404160, Note_on_c, 0, 56, 0
1, 404160, Note_on_c, 0, 60, 0
1, 404160, Note_on_c, 0, 76, 100
1, 404250, Note_on_c, 0, 46, 0
1, 404250, Note_on_c, 0, 76, 0
1, 404280, Note_on_c, 0, 58, 100
1, 404280, Note_on_c, 0, 64, 100
1, 404400, Note_on_c, 0, 48, 100
1, 404400, Note_on_c, 0, 58, 0
1, 404400, Note_on_c, 0, 64, 0
1, 404400, Note_on_c, 0, 72, 100
1, 404520, Note_on_c, 0, 48, 0
1, 404520, Note_on_c, 0, 58, 100
1, 404520, Note_on_c, 0, 64, 100
1, 404520, Note_on_c, 0, 72, 0
1, 404640, Note_on_c, 0, 44, 100
1, 404640, Note_on_c, 0, 58, 0
1, 404640, Note_on_c, 0, 64, 0
1, 404640, Note_on_c, 0, 77, 100
1, 404730, Note_on_c, 0, 44, 0
1, 404730, Note_on_c, 0, 77, 0
1, 404760, Note_on_c, 0, 56, 100
1, 404760, Note_on_c, 0, 65, 100
1, 404880, Note_on_c, 0, 48, 100
1, 404880, Note_on_c, 0, 56, 0
1, 404880, Note_on_c, 0, 65, 0
1, 404880, Note_on_c, 0, 72, 100
1, 405000, Note_on_c, 0, 48, 0
1, 405000, Note_on_c, 0, 56, 100
1, 405000, Note_on_c, 0, 65, 100
1, 405000, Note_on_c, 0, 72, 0
1, 405120, Note_on_c, 0, 43, 100
1, 405120, Note_on_c, 0, 56, 0
1, 405120, Note_on_c, 0, 65, 0
1, 405120, Note_on_c, 0, 79, 100
1, 405210, Note_on_c, 0, 43, 0
1, 405210, Note_on_c, 0, 79, 0
1, 405240, Note_on_c, 0, 55, 100
1, 405240, Note_on_c, 0, 67, 100
1, 405360, Note_on_c, 0, 48, 100
1, 405360, Note_on_c, 0, 55, 0
1, 405360, Note_on_c, 0, 67, 0
1, 405360, Note_on_c, 0, 72, 100
1, 405480, Note_on_c, 0, 48, 0
1, 405480, Note_on_c, 0, 55, 100
1, 405480, Note_on_c, 0, 67, 100
1, 405480, Note_on_c, 0, 72, 0
1, 405600, Note_on_c, 0, 41, 100
1, 405600, Note_on_c, 0, 55, 0
1, 405600, Note_on_c, 0, 67, 0
1, 405600, Note_on_c, 0, 80, 100
1, 405690, Note_on_c, 0, 41, 0
1, 405690, Note_on_c, 0, 80, 0
1, 405720, Note_on_c, 0, 53, 100
1, 405720, Note_on_c, 0, 68, 100
1, 405840, Note_on_c, 0, 48, 100
1, 405840, Note_on_c, 0, 53, 0
1, 405840, Note_on_c, 0, 68, 0
1, 405840, Note_on_c, 0, 72, 100
1, 405960, Note_on_c, 0, 48, 0
1, 405960, Note_on_c, 0, 53, 100
1, 405960, Note_on_c, 0, 68, 100
1, 405960, Note_on_c, 0, 72, 0
1, 406080, Note_on_c, 0, 39, 100
1, 406080, Note_on_c, 0, 53, 0
1, 406080, Note_on_c, 0, 68, 0
1, 406080, Note_on_c, 0, 81, 100
1, 406170, Note_on_c, 0, 39, 0
1, 406170, Note_on_c, 0, 81, 0
1, 406200, Note_on_c, 0, 51, 100
1, 406200, Note_on_c, 0, 69, 100
1, 406320, Note_on_c, 0, 48, 100
1, 406320, Note_on_c, 0, 51, 0
1, 406320, Note_on_c, 0, 69, 0
1, 406320, Note_on_c, 0, 72, 100
1, 406440, Note_on_c, 0, 48, 0
1, 406440, Note_on_c, 0, 51, 100
1, 406440, Note_on_c, 0, 69, 100
1, 406440, Note_on_c, 0, 72, 0
1, 406560, Note_on_c, 0, 38, 100
1, 406560, Note_on_c, 0, 51, 0
1, 406560, Note_on_c, 0, 69, 0
1, 406560, Note_on_c, 0, 83, 100
1, 406650, Note_on_c, 0, 38, 0
1, 406650, Note_on_c, 0, 83, 0
1, 406680, Note_on_c, 0, 50, 100
1, 406680, Note_on_c, 0, 71, 100
1, 406800, Note_on_c, 0, 43, 100
1, 406800, Note_on_c, 0, 50, 0
1, 406800, Note_on_c, 0, 71, 0
1, 406800, Note_on_c, 0, 77, 100
1, 406920, Note_on_c, 0, 43, 0
1, 406920, Note_on_c, 0, 50, 100
1, 406920, Note_on_c, 0, 71, 100
1, 406920, Note_on_c, 0, 77, 0
1, 407040, Note_on_c, 0, 36, 100
1, 407040, Note_on_c, 0, 50, 0
1, 407040, Note_on_c, 0, 71, 0
1, 407040, Note_on_c, 0, 84, 100
1, 407130, Note_on_c, 0, 36, 0
1, 407130, Note_on_c, 0, 84, 0
1, 407160, Note_on_c, 0, 48, 100
1, 407160, Note_on_c, 0, 72, 100
1, 407280, Note_on_c, 0, 43, 100
1, 407280, Note_on_c, 0, 48, 0
1, 407280, Note_on_c, 0, 72, 0
1, 407280, Note_on_c, 0, 77, 100
1, 407400, Note_on_c, 0, 43, 0
1, 407400, Note_on_c, 0, 48, 100
1, 407400, Note_on_c, 0, 72, 100
1, 407400, Note_on_c, 0, 77, 0
1, 407520, Note_on_c, 0, 35, 100
1, 407520, Note_on_c, 0, 48, 0
1, 407520, Note_on_c, 0, 72, 0
1, 407520, Note_on_c, 0, 86, 100
1, 407610, Note_on_c, 0, 35, 0
1, 407610, Note_on_c, 0, 86, 0
1, 407640, Note_on_c, 0, 47, 100
1, 407640, Note_on_c, 0, 74, 100
1, 407760, Note_on_c, 0, 43, 100
1, 407760, Note_on_c, 0, 47, 0
1, 407760, Note_on_c, 0, 74, 0
1, 407760, Note_on_c, 0, 77, 100
1, 407880, Note_on_c, 0, 43, 0
1, 407880, Note_on_c, 0, 47, 100
1, 407880, Note_on_c, 0, 74, 100
1, 407880, Note_on_c, 0, 77, 0
1, 408000, Note_on_c, 0, 34, 100
1, 408000, Note_on_c, 0, 47, 0
1, 408000, Note_on_c, 0, 74, 0
1, 408000, Note_on_c, 0, 88, 100
1, 408090, Note_on_c, 0, 34, 0
1, 408090, Note_on_c, 0, 88, 0
1, 408120, Note_on_c, 0, 46, 100
1, 408120, Note_on_c, 0, 76, 100
1, 408240, Note_on_c, 0, 36, 100
1, 408240, Note_on_c, 0, 46, 0
1, 408240, Note_on_c, 0, 76, 0
1, 408240, Note_on_c, 0, 79, 100
1, 408360, Note_on_c, 0, 36, 0
1, 408360, Note_on_c, 0, 46, 100
1, 408360, Note_on_c, 0, 76, 100
1, 408360, Note_on_c, 0, 79, 0
1, 408480, Note_on_c, 0, 32, 100
1, 408480, Note_on_c, 0, 46, 0
1, 408480, Note_on_c, 0, 76, 0
1, 408480, Note_on_c, 0, 89, 100
1, 408570, Note_on_c, 0, 32, 0
1, 408570, Note_on_c, 0, 89, 0
1, 408600, Note_on_c, 0, 44, 100
1, 408600, Note_on_c, 0, 77, 100
1, 408720, Note_on_c, 0, 36, 100
1, 408720, Note_on_c, 0, 44, 0
1, 408720, Note_on_c, 0, 77, 0
1, 408720, Note_on_c, 0, 80, 100
1, 408840, Note_on_c, 0, 36, 0
1, 408840, Note_on_c, 0, 44, 100
1, 408840, Note_on_c, 0, 77, 100
1, 408840, Note_on_c, 0, 80, 0
1, 408960, Note_on_c, 0, 29, 100
1, 408960, Note_on_c, 0, 44, 0
1, 408960, Note_on_c, 0, 77, 0
1, 408960, Note_on_c, 0, 86, 100
1, 409050, Note_on_c, 0, 29, 0
1, 409050, Note_on_c, 0, 86, 0
1, 409080, Note_on_c, 0, 41, 100
1, 409080, Note_on_c, 0, 77, 100
1, 409200, Note_on_c, 0, 36, 100
1, 409200, Note_on_c, 0, 41, 0
1, 409200, Note_on_c, 0, 77, 0
1, 409200, Note_on_c, 0, 80, 100
1, 409320, Note_on_c, 0, 36, 0
1, 409320, Note_on_c, 0, 41, 100
1, 409320, Note_on_c, 0, 77, 100
1, 409320, Note_on_c, 0, 80, 0
1, 409440, Note_on_c, 0, 31, 100
1, 409440, Note_on_c, 0, 41, 0
1, 409440, Note_on_c, 0, 43, 100
1, 409440, Note_on_c, 0, 77, 0
1, 409560, Note_on_c, 0, 75, 100
1, 409680, Note_on_c, 0, 31, 0
1, 409680, Note_on_c, 0, 43, 0
1, 409680, Note_on_c, 0, 75, 0
1, 409680, Note_on_c, 0, 79, 100
1, 409800, Note_on_c, 0, 75, 100
1, 409800, Note_on_c, 0, 79, 0
1, 409920, Note_on_c, 0, 75, 0
1, 409920, Note_on_c, 0, 84, 100
1, 410010, Note_on_c, 0, 84, 0
1, 410040, Note_on_c, 0, 75, 100
1, 410160, Note_on_c, 0, 75, 0
1, 410160, Note_on_c, 0, 79, 100
1, 410280, Note_on_c, 0, 75, 100
1, 410280, Note_on_c, 0, 79, 0
1, 410400, Note_on_c, 0, 43, 100
1, 410400, Note_on_c, 0, 55, 100
1, 410400, Note_on_c, 0, 75, 0
1, 410520, Note_on_c, 0, 74, 100
1, 410640, Note_on_c, 0, 43, 0
1, 410640, Note_on_c, 0, 55, 0
1, 410640, Note_on_c, 0, 74, 0
1, 410640, Note_on_c, 0, 77, 100
1, 410760, Note_on_c, 0, 74, 100
1, 410760, Note_on_c, 0, 77, 0
1, 410880, Note_on_c, 0, 74, 0
1, 410880, Note_on_c, 0, 83, 100
1, 410970, Note_on_c, 0, 83, 0
1, 411000, Note_on_c, 0, 74, 100
1, 411120, Note_on_c, 0, 74, 0
1, 411120, Note_on_c, 0, 77, 100
1, 411240, Note_on_c, 0, 74, 100
1, 411240, Note_on_c, 0, 77, 0
1, 411360, Note_on_c, 0, 48, 100
1, 411360, Note_on_c, 0, 74, 0
1, 411480, Note_on_c, 0, 55, 100
1, 411480, Note_on_c, 0, 60, 100
1, 411600, Note_on_c, 0, 51, 100
1, 411600, Note_on_c, 0, 55, 0
1, 411600, Note_on_c, 0, 60, 0
1, 411600, Note_on_c, 0, 63, 100
1, 411720, Note_on_c, 0, 51, 0
1, 411720, Note_on_c, 0, 55, 100
1, 411720, Note_on_c, 0, 60, 100
1, 411720, Note_on_c, 0, 63, 0
1, 411840, Note_on_c, 0, 51, 100
1, 411840, Note_on_c, 0, 55, 0
1, 411840, Note_on_c, 0, 60, 0
1, 411840, Note_on_c, 0, 72, 100
1, 411960, Note_on_c, 0, 51, 0
1, 411960, Note_on_c, 0, 55, 100
1, 411960, Note_on_c, 0, 60, 100
1, 412080, Note_on_c, 0, 51, 100
1, 412080, Note_on_c, 0, 55, 0
1, 412080, Note_on_c, 0, 60, 0
1, 412080, Note_on_c, 0, 63, 100
1, 412200, Note_on_c, 0, 51, 0
1, 412200, Note_on_c, 0, 55, 100
1, 412200, Note_on_c, 0, 60, 100
1, 412200, Note_on_c, 0, 63, 0
1, 412320, Note_on_c, 0, 51, 100
1, 412320, Note_on_c, 0, 55, 0
1, 412320, Note_on_c, 0, 60, 0
1, 412320, Note_on_c, 0, 63, 100
1, 412440, Note_on_c, 0, 51, 0
1, 412440, Note_on_c, 0, 55, 100
1, 412440, Note_on_c, 0, 60, 100
1, 412440, Note_on_c, 0, 63, 0
1, 412560, Note_on_c, 0, 51, 100
1, 412560, Note_on_c, 0, 55, 0
1, 412560, Note_on_c, 0, 60, 0
1, 412560, Note_on_c, 0, 63, 100
1, 412680, Note_on_c, 0, 51, 0
1, 412680, Note_on_c, 0, 55, 100
1, 412680, Note_on_c, 0, 60, 100
1, 412680, Note_on_c, 0, 63, 0
1, 412800, Note_on_c, 0, 48, 0
1, 412800, Note_on_c, 0, 48, 100
1, 412800, Note_on_c, 0, 55, 0
1, 412800, Note_on_c, 0, 60, 0
1, 412800, Note_on_c, 0, 72, 0
1, 412800, Note_on_c, 0, 72, 100
1, 412920, Note_on_c, 0, 55, 100
1, 412920, Note_on_c, 0, 60, 100
1, 413040, Note_on_c, 0, 51, 100
1, 413040, Note_on_c, 0, 55, 0
1, 413040, Note_on_c, 0, 60, 0
1, 413040, Note_on_c, 0, 63, 100
1, 413160, Note_on_c, 0, 51, 0
1, 413160, Note_on_c, 0, 55, 100
1, 413160, Note_on_c, 0, 60, 100
1, 413160, Note_on_c, 0, 63, 0
1, 413280, Note_on_c, 0, 46, 100
1, 413280, Note_on_c, 0, 48, 0
1, 413280, Note_on_c, 0, 55, 0
1, 413280, Note_on_c, 0, 60, 0
1, 413280, Note_on_c, 0, 72, 0
1, 413400, Note_on_c, 0, 55, 100
1, 413400, Note_on_c, 0, 61, 100
1, 413520, Note_on_c, 0, 52, 100
1, 413520, Note_on_c, 0, 55, 0
1, 413520, Note_on_c, 0, 61, 0
1, 413520, Note_on_c, 0, 64, 100
1, 413640, Note_on_c, 0, 52, 0
1, 413640, Note_on_c, 0, 55, 100
1, 413640, Note_on_c, 0, 61, 100
1, 413640, Note_on_c, 0, 64, 0
1, 413760, Note_on_c, 0, 52, 100
1, 413760, Note_on_c, 0, 55, 0
1, 413760, Note_on_c, 0, 61, 0
1, 413760, Note_on_c, 0, 73, 100
1, 413880, Note_on_c, 0, 52, 0
1, 413880, Note_on_c, 0, 55, 100
1, 413880, Note_on_c, 0, 61, 100
1, 414000, Note_on_c, 0, 52, 100
1, 414000, Note_on_c, 0, 55, 0
1, 414000, Note_on_c, 0, 61, 0
1, 414000, Note_on_c, 0, 64, 100
1, 414120, Note_on_c, 0, 52, 0
1, 414120, Note_on_c, 0, 55, 100
1, 414120, Note_on_c, 0, 61, 100
1, 414120, Note_on_c, 0, 64, 0
1, 414240, Note_on_c, 0, 52, 100
1, 414240, Note_on_c, 0, 55, 0
1, 414240, Note_on_c, 0, 61, 0
1, 414240, Note_on_c, 0, 64, 100
1, 414360, Note_on_c, 0, 52, 0
1, 414360, Note_on_c, 0, 55, 100
1, 414360, Note_on_c, 0, 61, 100
1, 414360, Note_on_c, 0, 64, 0
1, 414480, Note_on_c, 0, 52, 100
1, 414480, Note_on_c, 0, 55, 0
1, 414480, Note_on_c, 0, 61, 0
1, 414480, Note_on_c, 0, 64, 100
1, 414600, Note_on_c, 0, 52, 0
1, 414600, Note_on_c, 0, 55, 100
1, 414600, Note_on_c, 0, 61, 100
1, 414600, Note_on_c, 0, 64, 0
1, 414720, Note_on_c, 0, 46, 0
1, 414720, Note_on_c, 0, 46, 100
1, 414720, Note_on_c, 0, 55, 0
1, 414720, Note_on_c, 0, 61, 0
1, 414720, Note_on_c, 0, 73, 0
1, 414720, Note_on_c, 0, 73, 100
1, 414840, Note_on_c, 0, 55, 100
1, 414840, Note_on_c, 0, 61, 100
1, 414960, Note_on_c, 0, 52, 100
1, 414960, Note_on_c, 0, 55, 0
1, 414960, Note_on_c, 0, 61, 0
1, 414960, Note_on_c, 0, 64, 100
1, 415080, Note_on_c, 0, 52, 0
1, 415080, Note_on_c, 0, 55, 100
1, 415080, Note_on_c, 0, 61, 100
1, 415080, Note_on_c, 0, 64, 0
1, 415200, Note_on_c, 0, 44, 100
1, 415200, Note_on_c, 0, 46, 0
1, 415200, Note_on_c, 0, 55, 0
1, 415200, Note_on_c, 0, 61, 0
1, 415200, Note_on_c, 0, 72, 100
1, 415200, Note_on_c, 0, 73, 0
1, 415290, Note_on_c, 0, 44, 0
1, 415290, Note_on_c, 0, 72, 0
1, 415320, Note_on_c, 0, 56, 100
1, 415320, Note_on_c, 0, 60, 100
1, 415440, Note_on_c, 0, 48, 100
1, 415440, Note_on_c, 0, 56, 0
1, 415440, Note_on_c, 0, 60, 0
1, 415440, Note_on_c, 0, 65, 100
1, 415560, Note_on_c, 0, 48, 0
1, 415560, Note_on_c, 0, 56, 100
1, 415560, Note_on_c, 0, 60, 100
1, 415560, Note_on_c, 0, 65, 0
1, 415680, Note_on_c, 0, 46, 100
1, 415680, Note_on_c, 0, 56, 0
1, 415680, Note_on_c, 0, 60, 0
1, 415680, Note_on_c, 0, 76, 100
1, 415770, Note_on_c, 0, 46, 0
1, 415770, Note_on_c, 0, 76, 0
1, 415800, Note_on_c, 0, 58, 100
1, 415800, Note_on_c, 0, 64, 100
1, 415920, Note_on_c, 0, 48, 100
1, 415920, Note_on_c, 0, 58, 0
1, 415920, Note_on_c, 0, 64, 0
1, 415920, Note_on_c, 0, 72, 100
1, 416040, Note_on_c, 0, 48, 0
1, 416040, Note_on_c, 0, 58, 100
1, 416040, Note_on_c, 0, 64, 100
1, 416040, Note_on_c, 0, 72, 0
1, 416160, Note_on_c, 0, 44, 100
1, 416160, Note_on_c, 0, 58, 0
1, 416160, Note_on_c, 0, 64, 0
1, 416160, Note_on_c, 0, 77, 100
1, 416250, Note_on_c, 0, 44, 0
1, 416250, Note_on_c, 0, 77, 0
1, 416280, Note_on_c, 0, 56, 100
1, 416280, Note_on_c, 0, 65, 100
1, 416400, Note_on_c, 0, 48, 100
1, 416400, Note_on_c, 0, 56, 0
1, 416400, Note_on_c, 0, 65, 0
1, 416400, Note_on_c, 0, 72, 100
1, 416520, Note_on_c, 0, 48, 0
1, 416520, Note_on_c, 0, 56, 100
1, 416520, Note_on_c, 0, 65, 100
1, 416520, Note_on_c, 0, 72, 0
1, 416640, Note_on_c, 0, 43, 100
1, 416640, Note_on_c, 0, 56, 0
1, 416640, Note_on_c, 0, 65, 0
1, 416640, Note_on_c, 0, 79, 100
1, 416730, Note_on_c, 0, 43, 0
1, 416730, Note_on_c, 0, 79, 0
1, 416760, Note_on_c, 0, 55, 100
1, 416760, Note_on_c, 0, 67, 100
1, 416880, Note_on_c, 0, 48, 100
1, 416880, Note_on_c, 0, 55, 0
1, 416880, Note_on_c, 0, 67, 0
1, 416880, Note_on_c, 0, 72, 100
1, 417000, Note_on_c, 0, 48, 0
1, 417000, Note_on_c, 0, 55, 100
1, 417000, Note_on_c, 0, 67, 100
1, 417000, Note_on_c, 0, 72, 0
1, 417120, Note_on_c, 0, 41, 100
1, 417120, Note_on_c, 0, 55, 0
1, 417120, Note_on_c, 0, 67, 0
1, 417120, Note_on_c, 0, 80, 100
1, 417210, Note_on_c, 0, 41, 0
1, 417210, Note_on_c, 0, 80, 0
1, 417240, Note_on_c, 0, 53, 100
1, 417240, Note_on_c, 0, 68, 100
1, 417360, Note_on_c, 0, 48, 100
1, 417360, Note_on_c, 0, 53, 0
1, 417360, Note_on_c, 0, 68, 0
1, 417360, Note_on_c, 0, 72, 100
1, 417480, Note_on_c, 0, 48, 0
1, 417480, Note_on_c, 0, 53, 100
1, 417480, Note_on_c, 0, 68, 100
1, 417480, Note_on_c, 0, 72, 0
1, 417600, Note_on_c, 0, 39, 100
1, 417600, Note_on_c, 0, 53, 0
1, 417600, Note_on_c, 0, 68, 0
1, 417600, Note_on_c, 0, 81, 100
1, 417690, Note_on_c, 0, 39, 0
1, 417690, Note_on_c, 0, 81, 0
1, 417720, Note_on_c, 0, 51, 100
1, 417720, Note_on_c, 0, 69, 100
1, 417840, Note_on_c, 0, 48, 100
1, 417840, Note_on_c, 0, 51, 0
1, 417840, Note_on_c, 0, 69, 0
1, 417840, Note_on_c, 0, 72, 100
1, 417960, Note_on_c, 0, 48, 0
1, 417960, Note_on_c, 0, 51, 100
1, 417960, Note_on_c, 0, 69, 100
1, 417960, Note_on_c, 0, 72, 0
1, 418080, Note_on_c, 0, 38, 100
1, 418080, Note_on_c, 0, 51, 0
1, 418080, Note_on_c, 0, 69, 0
1, 418080, Note_on_c, 0, 83, 100
1, 418170, Note_on_c, 0, 38, 0
1, 418170, Note_on_c, 0, 83, 0
1, 418200, Note_on_c, 0, 50, 100
1, 418200, Note_on_c, 0, 71, 100
1, 418320, Note_on_c, 0, 43, 100
1, 418320, Note_on_c, 0, 50, 0
1, 418320, Note_on_c, 0, 71, 0
1, 418320, Note_on_c, 0, 77, 100
1, 418440, Note_on_c, 0, 43, 0
1, 418440, Note_on_c, 0, 50, 100
1, 418440, Note_on_c, 0, 71, 100
1, 418440, Note_on_c, 0, 77, 0
1, 418560, Note_on_c, 0, 36, 100
1, 418560, Note_on_c, 0, 50, 0
1, 418560, Note_on_c, 0, 71, 0
1, 418560, Note_on_c, 0, 84, 100
1, 418650, Note_on_c, 0, 36, 0
1, 418650, Note_on_c, 0, 84, 0
1, 418680, Note_on_c, 0, 48, 100
1, 418680, Note_on_c, 0, 72, 100
1, 418800, Note_on_c, 0, 43, 100
1, 418800, Note_on_c, 0, 48, 0
1, 418800, Note_on_c, 0, 72, 0
1, 418800, Note_on_c, 0, 77, 100
1, 418920, Note_on_c, 0, 43, 0
1, 418920, Note_on_c, 0, 48, 100
1, 418920, Note_on_c, 0, 72, 100
1, 418920, Note_on_c, 0, 77, 0
1, 419040, Note_on_c, 0, 35, 100
1, 419040, Note_on_c, 0, 48, 0
1, 419040, Note_on_c, 0, 72, 0
1, 419040, Note_on_c, 0, 86, 100
1, 419130, Note_on_c, 0, 35, 0
1, 419130, Note_on_c, 0, 86, 0
1, 419160, Note_on_c, 0, 47, 100
1, 419160, Note_on_c, 0, 74, 100
1, 419280, Note_on_c, 0, 43, 100
1, 419280, Note_on_c, 0, 47, 0
1, 419280, Note_on_c, 0, 74, 0
1, 419280, Note_on_c, 0, 77, 100
1, 419400, Note_on_c, 0, 43, 0
1, 419400, Note_on_c, 0, 47, 100
1, 419400, Note_on_c, 0, 74, 100
1, 419400, Note_on_c, 0, 77, 0
1, 419520, Note_on_c, 0, 34, 100
1, 419520, Note_on_c, 0, 47, 0
1, 419520, Note_on_c, 0, 74, 0
1, 419520, Note_on_c, 0, 88, 100
1, 419610, Note_on_c, 0, 34, 0
1, 419610, Note_on_c, 0, 88, 0
1, 419640, Note_on_c, 0, 46, 100
1, 419640, Note_on_c, 0, 76, 100
1, 419760, Note_on_c, 0, 36, 100
1, 419760, Note_on_c, 0, 46, 0
1, 419760, Note_on_c, 0, 76, 0
1, 419760, Note_on_c, 0, 79, 100
1, 419880, Note_on_c, 0, 36, 0
1, 419880, Note_on_c, 0, 46, 100
1, 419880, Note_on_c, 0, 76, 100
1, 419880, Note_on_c, 0, 79, 0
1, 420000, Note_on_c, 0, 32, 100
1, 420000, Note_on_c, 0, 46, 0
1, 420000, Note_on_c, 0, 76, 0
1, 420000, Note_on_c, 0, 89, 100
1, 420090, Note_on_c, 0, 32, 0
1, 420090, Note_on_c, 0, 89, 0
1, 420120, Note_on_c, 0, 44, 100
1, 420120, Note_on_c, 0, 77, 100
1, 420240, Note_on_c, 0, 36, 100
1, 420240, Note_on_c, 0, 44, 0
1, 420240, Note_on_c, 0, 77, 0
1, 420240, Note_on_c, 0, 80, 100
1, 420360, Note_on_c, 0, 36, 0
1, 420360, Note_on_c, 0, 44, 100
1, 420360, Note_on_c, 0, 77, 100
1, 420360, Note_on_c, 0, 80, 0
1, 420480, Note_on_c, 0, 29, 100
1, 420480, Note_on_c, 0, 44, 0
1, 420480, Note_on_c, 0, 77, 0
1, 420480, Note_on_c, 0, 86, 100
1, 420570, Note_on_c, 0, 29, 0
1, 420570, Note_on_c, 0, 86, 0
1, 420600, Note_on_c, 0, 41, 100
1, 420600, Note_on_c, 0, 77, 100
1, 420720, Note_on_c, 0, 36, 100
1, 420720, Note_on_c, 0, 41, 0
1, 420720, Note_on_c, 0, 77, 0
1, 420720, Note_on_c, 0, 80, 100
1, 420840, Note_on_c, 0, 36, 0
1, 420840, Note_on_c, 0, 41, 100
1, 420840, Note_on_c, 0, 77, 100
1, 420840, Note_on_c, 0, 80, 0
1, 420960, Note_on_c, 0, 31, 100
1, 420960, Note_on_c, 0, 41, 0
1, 420960, Note_on_c, 0, 43, 100
1, 420960, Note_on_c, 0, 77, 0
1, 421080, Note_on_c, 0, 75, 100
1, 421200, Note_on_c, 0, 31, 0
1, 421200, Note_on_c, 0, 43, 0
1, 421200, Note_on_c, 0, 75, 0
1, 421200, Note_on_c, 0, 79, 100
1, 421320, Note_on_c, 0, 75, 100
1, 421320, Note_on_c, 0, 79, 0
1, 421440, Note_on_c, 0, 75, 0
1, 421440, Note_on_c, 0, 84, 100
1, 421530, Note_on_c, 0, 84, 0
1, 421560, Note_on_c, 0, 75, 100
1, 421680, Note_on_c, 0, 75, 0
1, 421680, Note_on_c, 0, 79, 100
1, 421800, Note_on_c, 0, 75, 100
1, 421800, Note_on_c, 0, 79, 0
1, 421920, Note_on_c, 0, 43, 100
1, 421920, Note_on_c, 0, 55, 100
1, 421920, Note_on_c, 0, 75, 0
1, 422040, Note_on_c, 0, 74, 100
1, 422160, Note_on_c, 0, 43, 0
1, 422160, Note_on_c, 0, 55, 0
1, 422160, Note_on_c, 0, 74, 0
1, 422160, Note_on_c, 0, 77, 100
1, 422280, Note_on_c, 0, 74, 100
1, 422280, Note_on_c, 0, 77, 0
1, 422400, Note_on_c, 0, 74, 0
1, 422400, Note_on_c, 0, 83, 100
1, 422490, Note_on_c, 0, 83, 0
1, 422520, Note_on_c, 0, 74, 100
1, 422640, Note_on_c, 0, 74, 0
1, 422640, Note_on_c, 0, 77, 100
1, 422760, Note_on_c, 0, 74, 100
1, 422760, Note_on_c, 0, 77, 0
1, 422880, Note_on_c, 0, 48, 100
1, 422880, Note_on_c, 0, 72, 100
1, 422880, Note_on_c, 0, 74, 0
1, 422970, Note_on_c, 0, 72, 0
1, 423120, Note_on_c, 0, 48, 0
1, 423120, Note_on_c, 0, 60, 100
1, 423120, Note_on_c, 0, 63, 100
1, 423120, Note_on_c, 0, 84, 100
1, 423348, Note_on_c, 0, 60, 0
1, 423348, Note_on_c, 0, 63, 0
1, 423360, Note_on_c, 0, 60, 100
1, 423360, Note_on_c, 0, 63, 100
1, 423588, Note_on_c, 0, 60, 0
1, 423588, Note_on_c, 0, 63, 0
1, 423600, Note_on_c, 0, 60, 100
1, 423600, Note_on_c, 0, 63, 100
1, 423600, Note_on_c, 0, 83, 100
1, 423600, Note_on_c, 0, 84, 0
1, 423720, Note_on_c, 0, 83, 0
1, 423720, Note_on_c, 0, 84, 100
1, 423828, Note_on_c, 0, 60, 0
1, 423828, Note_on_c, 0, 63, 0
1, 423840, Note_on_c, 0, 56, 100
1, 423840, Note_on_c, 0, 84, 0
1, 423840, Note_on_c, 0, 86, 100
1, 423960, Note_on_c, 0, 84, 100
1, 423960, Note_on_c, 0, 86, 0
1, 424080, Note_on_c, 0, 60, 100
1, 424080, Note_on_c, 0, 63, 100
1, 424080, Note_on_c, 0, 82, 100
1, 424080, Note_on_c, 0, 84, 0
1, 424200, Note_on_c, 0, 80, 100
1, 424200, Note_on_c, 0, 82, 0
1, 424308, Note_on_c, 0, 60, 0
1, 424308, Note_on_c, 0, 63, 0
1, 424320, Note_on_c, 0, 60, 100
1, 424320, Note_on_c, 0, 63, 100
1, 424320, Note_on_c, 0, 79, 100
1, 424320, Note_on_c, 0, 80, 0
1, 424440, Note_on_c, 0, 79, 0
1, 424440, Note_on_c, 0, 80, 100
1, 424548, Note_on_c, 0, 60, 0
1, 424548, Note_on_c, 0, 63, 0
1, 424560, Note_on_c, 0, 60, 100
1, 424560, Note_on_c, 0, 63, 100
1, 424560, Note_on_c, 0, 80, 0
1, 424560, Note_on_c, 0, 82, 100
1, 424680, Note_on_c, 0, 80, 100
1, 424680, Note_on_c, 0, 82, 0
1, 424788, Note_on_c, 0, 60, 0
1, 424788, Note_on_c, 0, 63, 0
1, 424800, Note_on_c, 0, 53, 100
1, 424800, Note_on_c, 0, 56, 0
1, 424800, Note_on_c, 0, 79, 100
1, 424800, Note_on_c, 0, 80, 0
1, 424920, Note_on_c, 0, 77, 100
1, 424920, Note_on_c, 0, 79, 0
1, 425040, Note_on_c, 0, 60, 100
1, 425040, Note_on_c, 0, 62, 100
1, 425040, Note_on_c, 0, 75, 100
1, 425040, Note_on_c, 0, 77, 0
1, 425160, Note_on_c, 0, 74, 100
1, 425160, Note_on_c, 0, 75, 0
1, 425268, Note_on_c, 0, 60, 0
1, 425268, Note_on_c, 0, 62, 0
1, 425280, Note_on_c, 0, 60, 100
1, 425280, Note_on_c, 0, 62, 100
1, 425280, Note_on_c, 0, 73, 100
1, 425280, Note_on_c, 0, 74, 0
1, 425400, Note_on_c, 0, 73, 0
1, 425400, Note_on_c, 0, 74, 100
1, 425508, Note_on_c, 0, 60, 0
1, 425508, Note_on_c, 0, 62, 0
1, 425520, Note_on_c, 0, 60, 100
1, 425520, Note_on_c, 0, 62, 100
1, 425520, Note_on_c, 0, 74, 0
1, 425520, Note_on_c, 0, 75, 100
1, 425640, Note_on_c, 0, 74, 100
1, 425640, Note_on_c, 0, 75, 0
1, 425748, Note_on_c, 0, 60, 0
1, 425748, Note_on_c, 0, 62, 0
1, 425760, Note_on_c, 0, 53, 0
1, 425760, Note_on_c, 0, 55, 100
1, 425760, Note_on_c, 0, 72, 100
1, 425760, Note_on_c, 0, 74, 0
1, 425880, Note_on_c, 0, 71, 100
1, 425880, Note_on_c, 0, 72, 0
1, 426000, Note_on_c, 0, 59, 100
1, 426000, Note_on_c, 0, 62, 100
1, 426000, Note_on_c, 0, 68, 100
1, 426000, Note_on_c, 0, 71, 0
1, 426120, Note_on_c, 0, 67, 100
1, 426120, Note_on_c, 0, 68, 0
1, 426228, Note_on_c, 0, 59, 0
1, 426228, Note_on_c, 0, 62, 0
1, 426240, Note_on_c, 0, 59, 100
1, 426240, Note_on_c, 0, 62, 100
1, 426240, Note_on_c, 0, 66, 100
1, 426240, Note_on_c, 0, 67, 0
1, 426360, Note_on_c, 0, 66, 0
1, 426360, Note_on_c, 0, 67, 100
1, 426468, Note_on_c, 0, 59, 0
1, 426468, Note_on_c, 0, 62, 0
1, 426480, Note_on_c, 0, 59, 100
1, 426480, Note_on_c, 0, 62, 100
1, 426480, Note_on_c, 0, 67, 0
1, 426480, Note_on_c, 0, 68, 100
1, 426600, Note_on_c, 0, 65, 100
1, 426600, Note_on_c, 0, 68, 0
1, 426708, Note_on_c, 0, 59, 0
1, 426708, Note_on_c, 0, 62, 0
1, 426720, Note_on_c, 0, 48, 100
1, 426720, Note_on_c, 0, 55, 0
1, 426720, Note_on_c, 0, 63, 100
1, 426720, Note_on_c, 0, 65, 0
1, 426810, Note_on_c, 0, 63, 0
1, 426960, Note_on_c, 0, 51, 100
1, 426960, Note_on_c, 0, 60, 100
1, 426960, Note_on_c, 0, 72, 100
1, 426960, Note_on_c, 0, 84, 100
1, 427188, Note_on_c, 0, 51, 0
1, 427188, Note_on_c, 0, 60, 0
1, 427200, Note_on_c, 0, 51, 100
1, 427200, Note_on_c, 0, 60, 100
1, 427428, Note_on_c, 0, 51, 0
1, 427428, Note_on_c, 0, 60, 0
1, 427440, Note_on_c, 0, 51, 100
1, 427440, Note_on_c, 0, 60, 100
1, 427440, Note_on_c, 0, 72, 0
1, 427440, Note_on_c, 0, 83, 100
1, 427440, Note_on_c, 0, 84, 0
1, 427560, Note_on_c, 0, 83, 0
1, 427560, Note_on_c, 0, 84, 100
1, 427668, Note_on_c, 0, 51, 0
1, 427668, Note_on_c, 0, 60, 0
1, 427680, Note_on_c, 0, 44, 100
1, 427680, Note_on_c, 0, 48, 0
1, 427680, Note_on_c, 0, 84, 0
1, 427680, Note_on_c, 0, 86, 100
1, 427800, Note_on_c, 0, 84, 100
1, 427800, Note_on_c, 0, 86, 0
1, 427920, Note_on_c, 0, 48, 100
1, 427920, Note_on_c, 0, 51, 100
1, 427920, Note_on_c, 0, 56, 100
1, 427920, Note_on_c, 0, 82, 100
1, 427920, Note_on_c, 0, 84, 0
1, 428040, Note_on_c, 0, 80, 100
1, 428040, Note_on_c, 0, 82, 0
1, 428148, Note_on_c, 0, 48, 0
1, 428148, Note_on_c, 0, 51, 0
1, 428148, Note_on_c, 0, 56, 0
1, 428160, Note_on_c, 0, 48, 100
1, 428160, Note_on_c, 0, 51, 100
1, 428160, Note_on_c, 0, 56, 100
1, 428160, Note_on_c, 0, 79, 100
1, 428160, Note_on_c, 0, 80, 0
1, 428280, Note_on_c, 0, 79, 0
1, 428280, Note_on_c, 0, 80, 100
1, 428388, Note_on_c, 0, 48, 0
1, 428388, Note_on_c, 0, 51, 0
1, 428388, Note_on_c, 0, 56, 0
1, 428400, Note_on_c, 0, 48, 100
1, 428400, Note_on_c, 0, 51, 100
1, 428400, Note_on_c, 0, 56, 100
1, 428400, Note_on_c, 0, 80, 0
1, 428400, Note_on_c, 0, 82, 100
1, 428520, Note_on_c, 0, 80, 100
1, 428520, Note_on_c, 0, 82, 0
1, 428628, Note_on_c, 0, 48, 0
1, 428628, Note_on_c, 0, 51, 0
1, 428628, Note_on_c, 0, 56, 0
1, 428640, Note_on_c, 0, 41, 100
1, 428640, Note_on_c, 0, 44, 0
1, 428640, Note_on_c, 0, 79, 100
1, 428640, Note_on_c, 0, 80, 0
1, 428760, Note_on_c, 0, 77, 100
1, 428760, Note_on_c, 0, 79, 0
1, 428880, Note_on_c, 0, 48, 100
1, 428880, Note_on_c, 0, 50, 100
1, 428880, Note_on_c, 0, 53, 100
1, 428880, Note_on_c, 0, 75, 100
1, 428880, Note_on_c, 0, 77, 0
1, 429000, Note_on_c, 0, 74, 100
1, 429000, Note_on_c, 0, 75, 0
1, 429108, Note_on_c, 0, 48, 0
1, 429108, Note_on_c, 0, 50, 0
1, 429108, Note_on_c, 0, 53, 0
1, 429120, Note_on_c, 0, 48, 100
1, 429120, Note_on_c, 0, 50, 100
1, 429120, Note_on_c, 0, 53, 100
1, 429120, Note_on_c, 0, 73, 100
1, 429120, Note_on_c, 0, 74, 0
1, 429240, Note_on_c, 0, 73, 0
1, 429240, Note_on_c, 0, 74, 100
1, 429348, Note_on_c, 0, 48, 0
1, 429348, Note_on_c, 0, 50, 0
1, 429348, Note_on_c, 0, 53, 0
1, 429360, Note_on_c, 0, 48, 100
1, 429360, Note_on_c, 0, 50, 100
1, 429360, Note_on_c, 0, 53, 100
1, 429360, Note_on_c, 0, 74, 0
1, 429360, Note_on_c, 0, 75, 100
1, 429480, Note_on_c, 0, 74, 100
1, 429480, Note_on_c, 0, 75, 0
1, 429588, Note_on_c, 0, 48, 0
1, 429588, Note_on_c, 0, 50, 0
1, 429588, Note_on_c, 0, 53, 0
1, 429600, Note_on_c, 0, 41, 0
1, 429600, Note_on_c, 0, 43, 100
1, 429600, Note_on_c, 0, 72, 100
1, 429600, Note_on_c, 0, 74, 0
1, 429720, Note_on_c, 0, 71, 100
1, 429720, Note_on_c, 0, 72, 0
1, 429840, Note_on_c, 0, 47, 100
1, 429840, Note_on_c, 0, 50, 100
1, 429840, Note_on_c, 0, 55, 100
1, 429840, Note_on_c, 0, 68, 100
1, 429840, Note_on_c, 0, 71, 0
1, 429960, Note_on_c, 0, 67, 100
1, 429960, Note_on_c, 0, 68, 0
1, 430068, Note_on_c, 0, 47, 0
1, 430068, Note_on_c, 0, 50, 0
1, 430068, Note_on_c, 0, 55, 0
1, 430080, Note_on_c, 0, 47, 100
1, 430080, Note_on_c, 0, 50, 100
1, 430080, Note_on_c, 0, 55, 100
1, 430080, Note_on_c, 0, 66, 100
1, 430080, Note_on_c, 0, 67, 0
1, 430200, Note_on_c, 0, 66, 0
1, 430200, Note_on_c, 0, 67, 100
1, 430308, Note_on_c, 0, 47, 0
1, 430308, Note_on_c, 0, 50, 0
1, 430308, Note_on_c, 0, 55, 0
1, 430320, Note_on_c, 0, 47, 100
1, 430320, Note_on_c, 0, 50, 100
1, 430320, Note_on_c, 0, 55, 100
1, 430320, Note_on_c, 0, 67, 0
1, 430320, Note_on_c, 0, 68, 100
1, 430440, Note_on_c, 0, 67, 100
1, 430440, Note_on_c, 0, 68, 0
1, 430548, Note_on_c, 0, 47, 0
1, 430548, Note_on_c, 0, 50, 0
1, 430548, Note_on_c, 0, 55, 0
1, 430560, Note_on_c, 0, 36, 100
1, 430560, Note_on_c, 0, 43, 0
1, 430560, Note_on_c, 0, 67, 0
1, 430560, Note_on_c, 0, 72, 100
1, 430680, Note_on_c, 0, 48, 100
1, 430680, Note_on_c, 0, 72, 0
1, 430788, Note_on_c, 0, 36, 0
1, 430800, Note_on_c, 0, 36, 100
1, 430800, Note_on_c, 0, 48, 0
1, 430800, Note_on_c, 0, 60, 100
1, 430920, Note_on_c, 0, 48, 100
1, 431028, Note_on_c, 0, 36, 0
1, 431040, Note_on_c, 0, 36, 100
1, 431040, Note_on_c, 0, 48, 0
1, 431160, Note_on_c, 0, 48, 100
1, 431268, Note_on_c, 0, 36, 0
1, 431280, Note_on_c, 0, 36, 100
1, 431280, Note_on_c, 0, 48, 0
1, 431280, Note_on_c, 0, 58, 100
1, 431280, Note_on_c, 0, 60, 0
1, 431280, Note_on_c, 0, 64, 100
1, 431400, Note_on_c, 0, 48, 100
1, 431400, Note_on_c, 0, 58, 0
1, 431400, Note_on_c, 0, 64, 0
1, 431508, Note_on_c, 0, 36, 0
1, 431520, Note_on_c, 0, 36, 100
1, 431520, Note_on_c, 0, 48, 0
1, 431520, Note_on_c, 0, 56, 100
1, 431520, Note_on_c, 0, 65, 100
1, 431640, Note_on_c, 0, 48, 100
1, 431640, Note_on_c, 0, 56, 0
1, 431640, Note_on_c, 0, 65, 0
1, 431748, Note_on_c, 0, 36, 0
1, 431760, Note_on_c, 0, 36, 100
1, 431760, Note_on_c, 0, 48, 0
1, 431760, Note_on_c, 0, 64, 100
1, 431760, Note_on_c, 0, 67, 100
1, 431880, Note_on_c, 0, 48, 100
1, 431880, Note_on_c, 0, 64, 0
1, 431880, Note_on_c, 0, 67, 0
1, 431988, Note_on_c, 0, 36, 0
1, 432000, Note_on_c, 0, 36, 100
1, 432000, Note_on_c, 0, 48, 0
1, 432000, Note_on_c, 0, 65, 100
1, 432000, Note_on_c, 0, 68, 100
1, 432120, Note_on_c, 0, 48, 100
1, 432120, Note_on_c, 0, 65, 0
1, 432120, Note_on_c, 0, 68, 0
1, 432228, Note_on_c, 0, 36, 0
1, 432240, Note_on_c, 0, 36, 100
1, 432240, Note_on_c, 0, 48, 0
1, 432240, Note_on_c, 0, 62, 100
1, 432240, Note_on_c, 0, 71, 100
1, 432360, Note_on_c, 0, 48, 100
1, 432360, Note_on_c, 0, 62, 0
1, 432360, Note_on_c, 0, 71, 0
1, 432468, Note_on_c, 0, 36, 0
1, 432480, Note_on_c, 0, 36, 100
1, 432480, Note_on_c, 0, 48, 0
1, 432480, Note_on_c, 0, 63, 100
1, 432480, Note_on_c, 0, 72, 100
1, 432600, Note_on_c, 0, 48, 100
1, 432600, Note_on_c, 0, 63, 0
1, 432600, Note_on_c, 0, 72, 0
1, 432708, Note_on_c, 0, 36, 0
1, 432720, Note_on_c, 0, 36, 100
1, 432720, Note_on_c, 0, 48, 0
1, 432720, Note_on_c, 0, 64, 100
1, 432720, Note_on_c, 0, 72, 100
1, 432840, Note_on_c, 0, 48, 100
1, 432948, Note_on_c, 0, 36, 0
1, 432960, Note_on_c, 0, 36, 100
1, 432960, Note_on_c, 0, 48, 0
1, 433080, Note_on_c, 0, 48, 100
1, 433188, Note_on_c, 0, 36, 0
1, 433200, Note_on_c, 0, 36, 100
1, 433200, Note_on_c, 0, 48, 0
1, 433200, Note_on_c, 0, 64, 0
1, 433200, Note_on_c, 0, 70, 100
1, 433200, Note_on_c, 0, 72, 0
1, 433200, Note_on_c, 0, 76, 100
1, 433320, Note_on_c, 0, 48, 100
1, 433320, Note_on_c, 0, 70, 0
1, 433320, Note_on_c, 0, 76, 0
1, 433428, Note_on_c, 0, 36, 0
1, 433440, Note_on_c, 0, 36, 100
1, 433440, Note_on_c, 0, 48, 0
1, 433440, Note_on_c, 0, 68, 100
1, 433440, Note_on_c, 0, 77, 100
1, 433560, Note_on_c, 0, 48, 100
1, 433560, Note_on_c, 0, 68, 0
1, 433560, Note_on_c, 0, 77, 0
1, 433668, Note_on_c, 0, 36, 0
1, 433680, Note_on_c, 0, 36, 100
1, 433680, Note_on_c, 0, 48, 0
1, 433680, Note_on_c, 0, 76, 100
1, 433680, Note_on_c, 0, 79, 100
1, 433800, Note_on_c, 0, 48, 100
1, 433800, Note_on_c, 0, 76, 0
1, 433800, Note_on_c, 0, 79, 0
1, 433908, Note_on_c, 0, 36, 0
1, 433920, Note_on_c, 0, 36, 100
1, 433920, Note_on_c, 0, 48, 0
1, 433920, Note_on_c, 0, 77, 100
1, 433920, Note_on_c, 0, 80, 100
1, 434040, Note_on_c, 0, 48, 100
1, 434040, Note_on_c, 0, 77, 0
1, 434040, Note_on_c, 0, 80, 0
1, 434148, Note_on_c, 0, 36, 0
1, 434160, Note_on_c, 0, 36, 100
1, 434160, Note_on_c, 0, 48, 0
1, 434160, Note_on_c, 0, 74, 100
1, 434160, Note_on_c, 0, 83, 100
1, 434280, Note_on_c, 0, 48, 100
1, 434280, Note_on_c, 0, 74, 0
1, 434280, Note_on_c, 0, 83, 0
1, 434388, Note_on_c, 0, 36, 0
1, 434400, Note_on_c, 0, 36, 100
1, 434400, Note_on_c, 0, 48, 0
1, 434400, Note_on_c, 0, 72, 100
1, 434400, Note_on_c, 0, 75, 100
1, 434400, Note_on_c, 0, 84, 100
1, 434520, Note_on_c, 0, 48, 100
1, 434628, Note_on_c, 0, 36, 0
1, 434640, Note_on_c, 0, 36, 100
1, 434640, Note_on_c, 0, 48, 0
1, 434760, Note_on_c, 0, 48, 100
1, 434868, Note_on_c, 0, 36, 0
1, 434880, Note_on_c, 0, 36, 100
1, 434880, Note_on_c, 0, 48, 0
1, 435000, Note_on_c, 0, 48, 100
1, 435108, Note_on_c, 0, 36, 0
1, 435120, Note_on_c, 0, 36, 100
1, 435120, Note_on_c, 0, 48, 0
1, 435240, Note_on_c, 0, 48, 100
1, 435348, Note_on_c, 0, 36, 0
1, 435360, Note_on_c, 0, 34, 100
1, 435360, Note_on_c, 0, 48, 0
1, 435360, Note_on_c, 0, 60, 100
1, 435360, Note_on_c, 0, 63, 100
1, 435360, Note_on_c, 0, 72, 0
1, 435360, Note_on_c, 0, 72, 100
1, 435360, Note_on_c, 0, 75, 0
1, 435360, Note_on_c, 0, 84, 0
1, 435480, Note_on_c, 0, 46, 100
1, 435588, Note_on_c, 0, 34, 0
1, 435600, Note_on_c, 0, 34, 100
1, 435600, Note_on_c, 0, 46, 0
1, 435720, Note_on_c, 0, 46, 100
1, 435828, Note_on_c, 0, 34, 0
1, 435840, Note_on_c, 0, 34, 100
1, 435840, Note_on_c, 0, 46, 0
1, 435960, Note_on_c, 0, 46, 100
1, 436068, Note_on_c, 0, 34, 0
1, 436080, Note_on_c, 0, 34, 100
1, 436080, Note_on_c, 0, 46, 0
1, 436200, Note_on_c, 0, 46, 100
1, 436308, Note_on_c, 0, 34, 0
1, 436320, Note_on_c, 0, 32, 100
1, 436320, Note_on_c, 0, 46, 0
1, 436320, Note_on_c, 0, 60, 0
1, 436320, Note_on_c, 0, 63, 0
1, 436320, Note_on_c, 0, 72, 0
1, 436320, Note_on_c, 0, 72, 100
1, 436320, Note_on_c, 0, 75, 100
1, 436320, Note_on_c, 0, 84, 100
1, 436440, Note_on_c, 0, 44, 100
1, 436548, Note_on_c, 0, 32, 0
1, 436560, Note_on_c, 0, 32, 100
1, 436560, Note_on_c, 0, 44, 0
1, 436680, Note_on_c, 0, 44, 100
1, 436788, Note_on_c, 0, 32, 0
1, 436800, Note_on_c, 0, 32, 100
1, 436800, Note_on_c, 0, 44, 0
1, 436920, Note_on_c, 0, 44, 100
1, 437028, Note_on_c, 0, 32, 0
1, 437040, Note_on_c, 0, 32, 100
1, 437040, Note_on_c, 0, 44, 0
1, 437160, Note_on_c, 0, 44, 100
1, 437268, Note_on_c, 0, 32, 0
1, 437280, Note_on_c, 0, 31, 100
1, 437280, Note_on_c, 0, 44, 0
1, 437280, Note_on_c, 0, 60, 100
1, 437280, Note_on_c, 0, 63, 100
1, 437280, Note_on_c, 0, 72, 0
1, 437280, Note_on_c, 0, 72, 100
1, 437280, Note_on_c, 0, 75, 0
1, 437280, Note_on_c, 0, 84, 0
1, 437400, Note_on_c, 0, 43, 100
1, 437508, Note_on_c, 0, 31, 0
1, 437520, Note_on_c, 0, 31, 100
1, 437520, Note_on_c, 0, 43, 0
1, 437640, Note_on_c, 0, 43, 100
1, 437748, Note_on_c, 0, 31, 0
1, 437760, Note_on_c, 0, 31, 100
1, 437760, Note_on_c, 0, 43, 0
1, 437880, Note_on_c, 0, 43, 100
1, 437988, Note_on_c, 0, 31, 0
1, 438000, Note_on_c, 0, 31, 100
1, 438000, Note_on_c, 0, 43, 0
1, 438120, Note_on_c, 0, 43, 100
1, 438228, Note_on_c, 0, 31, 0
1, 438240, Note_on_c, 0, 30, 100
1, 438240, Note_on_c, 0, 42, 100
1, 438240, Note_on_c, 0, 43, 0
1, 438240, Note_on_c, 0, 60, 0
1, 438240, Note_on_c, 0, 63, 0
1, 438240, Note_on_c, 0, 72, 0
1, 438240, Note_on_c, 0, 75, 100
1, 438240, Note_on_c, 0, 81, 100
1, 438240, Note_on_c, 0, 84, 100
1, 438240, Note_on_c, 0, 87, 100
1, 439200, Note_on_c, 0, 30, 0
1, 439200, Note_on_c, 0, 42, 0
1, 439200, Note_on_c, 0, 42, 100
1, 439200, Note_on_c, 0, 45, 100
1, 439200, Note_on_c, 0, 48, 100
1, 439200, Note_on_c, 0, 51, 100
1, 439200, Note_on_c, 0, 54, 100
1, 439200, Note_on_c, 0, 57, 100
1, 439200, Note_on_c, 0, 60, 100
1, 439200, Note_on_c, 0, 63, 100
1, 439200, Note_on_c, 0, 75, 0
1, 439200, Note_on_c, 0, 81, 0
1, 439200, Note_on_c, 0, 84, 0
1, 439200, Note_on_c, 0, 87, 0
1, 440160, Note_on_c, 0, 42, 0
1, 440160, Note_on_c, 0, 45, 0
1, 440160, Note_on_c, 0, 48, 0
1, 440160, Note_on_c, 0, 51, 0
1, 440160, Note_on_c, 0, 54, 0
1, 440160, Note_on_c, 0, 57, 0
1, 440160, Note_on_c, 0, 60, 0
1, 440160, Note_on_c, 0, 63, 0
1, 441480, Note_on_c, 0, 63, 100
1, 441480, Note_on_c, 0, 66, 100
1, 441480, Note_on_c, 0, 69, 100
1, 441480, Note_on_c, 0, 72, 100
1, 441594, Note_on_c, 0, 63, 0
1, 441594, Note_on_c, 0, 66, 0
1, 441594, Note_on_c, 0, 69, 0
1, 441594, Note_on_c, 0, 72, 0
1, 441600, Note_on_c, 0, 62, 100
1, 441600, Note_on_c, 0, 66, 100
1, 441600, Note_on_c, 0, 69, 100
1, 441600, Note_on_c, 0, 74, 100
1, 441960, Note_on_c, 0, 60, 100
1, 441960, Note_on_c, 0, 62, 0
1, 441960, Note_on_c, 0, 66, 0
1, 441960, Note_on_c, 0, 66, 100
1, 441960, Note_on_c, 0, 69, 0
1, 441960, Note_on_c, 0, 69, 100
1, 441960, Note_on_c, 0, 74, 0
1, 441960, Note_on_c, 0, 75, 100
1, 442074, Note_on_c, 0, 60, 0
1, 442074, Note_on_c, 0, 66, 0
1, 442074, Note_on_c, 0, 69, 0
1, 442074, Note_on_c, 0, 75, 0
1, 442080, Note_on_c, 0, 60, 100
1, 442080, Note_on_c, 0, 66, 100
1, 442080, Note_on_c, 0, 69, 100
1, 442080, Note_on_c, 0, 75, 100
1, 443040, Note_on_c, 0, 59, 100
1, 443040, Note_on_c, 0, 60, 0
1, 443040, Note_on_c, 0, 66, 0
1, 443040, Note_on_c, 0, 67, 100
1, 443040, Note_on_c, 0, 69, 0
1, 443040, Note_on_c, 0, 71, 100
1, 443040, Note_on_c, 0, 74, 100
1, 443040, Note_on_c, 0, 75, 0
1, 443520, Note_on_c, 0, 59, 0
1, 443520, Note_on_c, 0, 67, 0
1, 443520, Note_on_c, 0, 71, 0
1, 443520, Note_on_c, 0, 74, 0
1, 445320, Note_on_c, 0, 68, 100
1, 445320, Note_on_c, 0, 71, 100
1, 445320, Note_on_c, 0, 74, 100
1, 445320, Note_on_c, 0, 77, 100
1, 445440, Note_on_c, 0, 67, 100
1, 445440, Note_on_c, 0, 68, 0
1, 445440, Note_on_c, 0, 71, 0
1, 445440, Note_on_c, 0, 71, 100
1, 445440, Note_on_c, 0, 74, 0
1, 445440, Note_on_c, 0, 74, 100
1, 445440, Note_on_c, 0, 77, 0
1, 445440, Note_on_c, 0, 79, 100
1, 445800, Note_on_c, 0, 65, 100
1, 445800, Note_on_c, 0, 67, 0
1, 445800, Note_on_c, 0, 71, 0
1, 445800, Note_on_c, 0, 71, 100
1, 445800, Note_on_c, 0, 74, 0
1, 445800, Note_on_c, 0, 74, 100
1, 445800, Note_on_c, 0, 79, 0
1, 445800, Note_on_c, 0, 80, 100
1, 445914, Note_on_c, 0, 65, 0
1, 445914, Note_on_c, 0, 71, 0
1, 445914, Note_on_c, 0, 74, 0
1, 445914, Note_on_c, 0, 80, 0
1, 445920, Note_on_c, 0, 65, 100
1, 445920, Note_on_c, 0, 71, 100
1, 445920, Note_on_c, 0, 74, 100
1, 445920, Note_on_c, 0, 80, 100
1, 446880, Note_on_c, 0, 63, 100
1, 446880, Note_on_c, 0, 65, 0
1, 446880, Note_on_c, 0, 71, 0
1, 446880, Note_on_c, 0, 72, 100
1, 446880, Note_on_c, 0, 74, 0
1, 446880, Note_on_c, 0, 75, 100
1, 446880, Note_on_c, 0, 79, 100
1, 446880, Note_on_c, 0, 80, 0
1, 447360, Note_on_c, 0, 63, 0
1, 447360, Note_on_c, 0, 72, 0
1, 447360, Note_on_c, 0, 75, 0
1, 447360, Note_on_c, 0, 79, 0
1, 449160, Note_on_c, 0, 61, 100
1, 449160, Note_on_c, 0, 64, 100
1, 449160, Note_on_c, 0, 67, 100
1, 449160, Note_on_c, 0, 70, 100
1, 449160, Note_on_c, 0, 76, 100
1, 449160, Note_on_c, 0, 79, 100
1, 449160, Note_on_c, 0, 82, 100
1, 449280, Note_on_c, 0, 60, 100
1, 449280, Note_on_c, 0, 61, 0
1, 449280, Note_on_c, 0, 64, 0
1, 449280, Note_on_c, 0, 64, 100
1, 449280, Note_on_c, 0, 67, 0
1, 449280, Note_on_c, 0, 67, 100
1, 449280, Note_on_c, 0, 70, 0
1, 449280, Note_on_c, 0, 72, 100
1, 449280, Note_on_c, 0, 76, 0
1, 449280, Note_on_c, 0, 76, 100
1, 449280, Note_on_c, 0, 79, 0
1, 449280, Note_on_c, 0, 79, 100
1, 449280, Note_on_c, 0, 82, 0
1, 449280, Note_on_c, 0, 84, 100
1, 449640, Note_on_c, 0, 58, 100
1, 449640, Note_on_c, 0, 60, 0
1, 449640, Note_on_c, 0, 64, 0
1, 449640, Note_on_c, 0, 64, 100
1, 449640, Note_on_c, 0, 67, 0
1, 449640, Note_on_c, 0, 67, 100
1, 449640, Note_on_c, 0, 72, 0
1, 449640, Note_on_c, 0, 73, 100
1, 449640, Note_on_c, 0, 76, 0
1, 449640, Note_on_c, 0, 76, 100
1, 449640, Note_on_c, 0, 79, 0
1, 449640, Note_on_c, 0, 79, 100
1, 449640, Note_on_c, 0, 84, 0
1, 449640, Note_on_c, 0, 85, 100
1, 449754, Note_on_c, 0, 58, 0
1, 449754, Note_on_c, 0, 64, 0
1, 449754, Note_on_c, 0, 67, 0
1, 449754, Note_on_c, 0, 73, 0
1, 449754, Note_on_c, 0, 76, 0
1, 449754, Note_on_c, 0, 79, 0
1, 449754, Note_on_c, 0, 85, 0
1, 449760, Note_on_c, 0, 56, 100
1, 449760, Note_on_c, 0, 58, 100
1, 449760, Note_on_c, 0, 64, 100
1, 449760, Note_on_c, 0, 67, 100
1, 449760, Note_on_c, 0, 73, 100
1, 449760, Note_on_c, 0, 76, 100
1, 449760, Note_on_c, 0, 79, 100
1, 449760, Note_on_c, 0, 85, 100
1, 450720, Note_on_c, 0, 58, 0
1, 450720, Note_on_c, 0, 60, 100
1, 450720, Note_on_c, 0, 64, 0
1, 450720, Note_on_c, 0, 65, 100
1, 450720, Note_on_c, 0, 67, 0
1, 450720, Note_on_c, 0, 68, 100
1, 450720, Note_on_c, 0, 72, 100
1, 450720, Note_on_c, 0, 73, 0
1, 450720, Note_on_c, 0, 76, 0
1, 450720, Note_on_c, 0, 79, 0
1, 450720, Note_on_c, 0, 84, 100
1, 450720, Note_on_c, 0, 85, 0
1, 451200, Note_on_c, 0, 55, 100
1, 451200, Note_on_c, 0, 60, 0
1, 451200, Note_on_c, 0, 60, 100
1, 451200, Note_on_c, 0, 64, 100
1, 451200, Note_on_c, 0, 65, 0
1, 451200, Note_on_c, 0, 68, 0
1, 451200, Note_on_c, 0, 70, 100
1, 451200, Note_on_c, 0, 72, 0
1, 451200, Note_on_c, 0, 82, 100
1, 451200, Note_on_c, 0, 84, 0
1, 451680, Note_on_c, 0, 53, 100
1, 451680, Note_on_c, 0, 55, 0
1, 451680, Note_on_c, 0, 56, 0
1, 451680, Note_on_c, 0, 60, 0
1, 451680, Note_on_c, 0, 60, 100
1, 451680, Note_on_c, 0, 64, 0
1, 451680, Note_on_c, 0, 65, 100
1, 451680, Note_on_c, 0, 68, 100
1, 451680, Note_on_c, 0, 70, 0
1, 451680, Note_on_c, 0, 80, 100
1, 451680, Note_on_c, 0, 82, 0
1, 452160, Note_on_c, 0, 51, 100
1, 452160, Note_on_c, 0, 53, 0
1, 452160, Note_on_c, 0, 55, 100
1, 452160, Note_on_c, 0, 60, 0
1, 452160, Note_on_c, 0, 60, 100
1, 452160, Note_on_c, 0, 65, 0
1, 452160, Note_on_c, 0, 67, 100
1, 452160, Note_on_c, 0, 68, 0
1, 452160, Note_on_c, 0, 79, 100
1, 452160, Note_on_c, 0, 80, 0
1, 452640, Note_on_c, 0, 50, 100
1, 452640, Note_on_c, 0, 51, 0
1, 452640, Note_on_c, 0, 55, 0
1, 452640, Note_on_c, 0, 55, 100
1, 452640, Note_on_c, 0, 59, 100
1, 452640, Note_on_c, 0, 60, 0
1, 452640, Note_on_c, 0, 65, 100
1, 452640, Note_on_c, 0, 67, 0
1, 452640, Note_on_c, 0, 77, 100
1, 452640, Note_on_c, 0, 79, 0
1, 453120, Note_on_c, 0, 48, 100
1, 453120, Note_on_c, 0, 50, 0
1, 453120, Note_on_c, 0, 55, 0
1, 453120, Note_on_c, 0, 55, 100
1, 453120, Note_on_c, 0, 59, 0
1, 453120, Note_on_c, 0, 60, 100
1, 453120, Note_on_c, 0, 63, 100
1, 453120, Note_on_c, 0, 65, 0
1, 453120, Note_on_c, 0, 75, 100
1, 453120, Note_on_c, 0, 77, 0
1, 453600, Note_on_c, 0, 48, 0
1, 453600, Note_on_c, 0, 53, 100
1, 453600, Note_on_c, 0, 55, 0
1, 453600, Note_on_c, 0, 60, 0
1, 453600, Note_on_c, 0, 63, 0
1, 453600, Note_on_c, 0, 75, 0
1, 454080, Note_on_c, 0, 53, 0
1, 454080, Note_on_c, 0, 65, 100
1, 454080, Note_on_c, 0, 68, 100
1, 454080, Note_on_c, 0, 74, 100
1, 454560, Note_on_c, 0, 31, 100
1, 454560, Note_on_c, 0, 43, 100
1, 454560, Note_on_c, 0, 65, 0
1, 454560, Note_on_c, 0, 68, 0
1, 454560, Note_on_c, 0, 74, 0
1, 455040, Note_on_c, 0, 31, 0
1, 455040, Note_on_c, 0, 43, 0
1, 455040, Note_on_c, 0, 50, 100
1, 455040, Note_on_c, 0, 53, 100
1, 455040, Note_on_c, 0, 59, 100
1, 455520, Note_on_c, 0, 36, 100
1, 455520, Note_on_c, 0, 50, 0
1, 455520, Note_on_c, 0, 53, 0
1, 455520, Note_on_c, 0, 59, 0
1, 455520, Note_on_c, 0, 60, 100
1, 455640, Note_on_c, 0, 48, 100
1, 455748, Note_on_c, 0, 36, 0
1, 455760, Note_on_c, 0, 36, 100
1, 455760, Note_on_c, 0, 48, 0
1, 455880, Note_on_c, 0, 48, 100
1, 455988, Note_on_c, 0, 36, 0
1, 456000, Note_on_c, 0, 36, 100
1, 456000, Note_on_c, 0, 48, 0
1, 456120, Note_on_c, 0, 48, 100
1, 456228, Note_on_c, 0, 36, 0
1, 456240, Note_on_c, 0, 36, 100
1, 456240, Note_on_c, 0, 48, 0
1, 456240, Note_on_c, 0, 58, 100
1, 456240, Note_on_c, 0, 60, 0
1, 456240, Note_on_c, 0, 64, 100
1, 456330, Note_on_c, 0, 58, 0
1, 456330, Note_on_c, 0, 64, 0
1, 456360, Note_on_c, 0, 48, 100
1, 456468, Note_on_c, 0, 36, 0
1, 456480, Note_on_c, 0, 36, 100
1, 456480, Note_on_c, 0, 48, 0
1, 456480, Note_on_c, 0, 56, 100
1, 456480, Note_on_c, 0, 65, 100
1, 456570, Note_on_c, 0, 56, 0
1, 456570, Note_on_c, 0, 65, 0
1, 456600, Note_on_c, 0, 48, 100
1, 456708, Note_on_c, 0, 36, 0
1, 456720, Note_on_c, 0, 36, 100
1, 456720, Note_on_c, 0, 48, 0
1, 456720, Note_on_c, 0, 64, 100
1, 456720, Note_on_c, 0, 67, 100
1, 456810, Note_on_c, 0, 64, 0
1, 456810, Note_on_c, 0, 67, 0
1, 456840, Note_on_c, 0, 48, 100
1, 456948, Note_on_c, 0, 36, 0
1, 456960, Note_on_c, 0, 36, 100
1, 456960, Note_on_c, 0, 48, 0
1, 456960, Note_on_c, 0, 65, 100
1, 456960, Note_on_c, 0, 68, 100
1, 457050, Note_on_c, 0, 65, 0
1, 457050, Note_on_c, 0, 68, 0
1, 457080, Note_on_c, 0, 48, 100
1, 457188, Note_on_c, 0, 36, 0
1, 457200, Note_on_c, 0, 36, 100
1, 457200, Note_on_c, 0, 48, 0
1, 457200, Note_on_c, 0, 62, 100
1, 457200, Note_on_c, 0, 71, 100
1, 457290, Note_on_c, 0, 62, 0
1, 457290, Note_on_c, 0, 71, 0
1, 457320, Note_on_c, 0, 48, 100
1, 457428, Note_on_c, 0, 36, 0
1, 457440, Note_on_c, 0, 36, 100
1, 457440, Note_on_c, 0, 48, 0
1, 457440, Note_on_c, 0, 63, 100
1, 457440, Note_on_c, 0, 72, 100
1, 457530, Note_on_c, 0, 63, 0
1, 457530, Note_on_c, 0, 72, 0
1, 457560, Note_on_c, 0, 48, 100
1, 457668, Note_on_c, 0, 36, 0
1, 457680, Note_on_c, 0, 36, 100
1, 457680, Note_on_c, 0, 48, 0
1, 457680, Note_on_c, 0, 64, 100
1, 457680, Note_on_c, 0, 72, 100
1, 457800, Note_on_c, 0, 48, 100
1, 457908, Note_on_c, 0, 36, 0
1, 457920, Note_on_c, 0, 36, 100
1, 457920, Note_on_c, 0, 48, 0
1, 458040, Note_on_c, 0, 48, 100
1, 458148, Note_on_c, 0, 36, 0
1, 458160, Note_on_c, 0, 36, 100
1, 458160, Note_on_c, 0, 48, 0
1, 458160, Note_on_c, 0, 64, 0
1, 458160, Note_on_c, 0, 70, 100
1, 458160, Note_on_c, 0, 72, 0
1, 458160, Note_on_c, 0, 76, 100
1, 458250, Note_on_c, 0, 70, 0
1, 458250, Note_on_c, 0, 76, 0
1, 458280, Note_on_c, 0, 48, 100
1, 458388, Note_on_c, 0, 36, 0
1, 458400, Note_on_c, 0, 36, 100
1, 458400, Note_on_c, 0, 48, 0
1, 458400, Note_on_c, 0, 68, 100
1, 458400, Note_on_c, 0, 77, 100
1, 458490, Note_on_c, 0, 68, 0
1, 458490, Note_on_c, 0, 77, 0
1, 458520, Note_on_c, 0, 48, 100
1, 458628, Note_on_c, 0, 36, 0
1, 458640, Note_on_c, 0, 36, 100
1, 458640, Note_on_c, 0, 48, 0
1, 458640, Note_on_c, 0, 76, 100
1, 458640, Note_on_c, 0, 79, 100
1, 458730, Note_on_c, 0, 76, 0
1, 458730, Note_on_c, 0, 79, 0
1, 458760, Note_on_c, 0, 48, 100
1, 458868, Note_on_c, 0, 36, 0
1, 458880, Note_on_c, 0, 36, 100
1, 458880, Note_on_c, 0, 48, 0
1, 458880, Note_on_c, 0, 77, 100
1, 458880, Note_on_c, 0, 80, 100
1, 458970, Note_on_c, 0, 77, 0
1, 458970, Note_on_c, 0, 80, 0
1, 459000, Note_on_c, 0, 48, 100
1, 459108, Note_on_c, 0, 36, 0
1, 459120, Note_on_c, 0, 36, 100
1, 459120, Note_on_c, 0, 48, 0
1, 459120, Note_on_c, 0, 74, 100
1, 459120, Note_on_c, 0, 83, 100
1, 459210, Note_on_c, 0, 74, 0
1, 459210, Note_on_c, 0, 83, 0
1, 459240, Note_on_c, 0, 48, 100
1, 459348, Note_on_c, 0, 36, 0
1, 459360, Note_on_c, 0, 36, 100
1, 459360, Note_on_c, 0, 48, 0
1, 459360, Note_on_c, 0, 75, 100
1, 459360, Note_on_c, 0, 84, 100
1, 459480, Note_on_c, 0, 48, 100
1, 459588, Note_on_c, 0, 36, 0
1, 459600, Note_on_c, 0, 36, 100
1, 459600, Note_on_c, 0, 48, 0
1, 459720, Note_on_c, 0, 48, 100
1, 459828, Note_on_c, 0, 36, 0
1, 459840, Note_on_c, 0, 34, 100
1, 459840, Note_on_c, 0, 48, 0
1, 459840, Note_on_c, 0, 72, 100
1, 459840, Note_on_c, 0, 75, 0
1, 459840, Note_on_c, 0, 75, 100
1, 459840, Note_on_c, 0, 84, 0
1, 459840, Note_on_c, 0, 84, 100
1, 459960, Note_on_c, 0, 46, 100
1, 460068, Note_on_c, 0, 34, 0
1, 460080, Note_on_c, 0, 34, 100
1, 460080, Note_on_c, 0, 46, 0
1, 460200, Note_on_c, 0, 46, 100
1, 460308, Note_on_c, 0, 34, 0
1, 460320, Note_on_c, 0, 32, 100
1, 460320, Note_on_c, 0, 46, 0
1, 460320, Note_on_c, 0, 72, 0
1, 460320, Note_on_c, 0, 72, 100
1, 460320, Note_on_c, 0, 75, 0
1, 460320, Note_on_c, 0, 75, 100
1, 460320, Note_on_c, 0, 84, 0
1, 460320, Note_on_c, 0, 84, 100
1, 460440, Note_on_c, 0, 44, 100
1, 460548, Note_on_c, 0, 32, 0
1, 460560, Note_on_c, 0, 32, 100
1, 460560, Note_on_c, 0, 44, 0
1, 460680, Note_on_c, 0, 44, 100
1, 460788, Note_on_c, 0, 32, 0
1, 460800, Note_on_c, 0, 31, 100
1, 460800, Note_on_c, 0, 44, 0
1, 460800, Note_on_c, 0, 72, 0
1, 460800, Note_on_c, 0, 72, 100
1, 460800, Note_on_c, 0, 75, 0
1, 460800, Note_on_c, 0, 75, 100
1, 460800, Note_on_c, 0, 84, 0
1, 460800, Note_on_c, 0, 84, 100
1, 460920, Note_on_c, 0, 43, 100
1, 461028, Note_on_c, 0, 31, 0
1, 461040, Note_on_c, 0, 31, 100
1, 461040, Note_on_c, 0, 43, 0
1, 461160, Note_on_c, 0, 43, 100
1, 461268, Note_on_c, 0, 31, 0
1, 461280, Note_on_c, 0, 30, 100
1, 461280, Note_on_c, 0, 42, 100
1, 461280, Note_on_c, 0, 43, 0
1, 461280, Note_on_c, 0, 72, 0
1, 461280, Note_on_c, 0, 75, 0
1, 461280, Note_on_c, 0, 75, 100
1, 461280, Note_on_c, 0, 81, 100
1, 461280, Note_on_c, 0, 84, 0
1, 461280, Note_on_c, 0, 84, 100
1, 461280, Note_on_c, 0, 87, 100
1, 461520, Note_on_c, 0, 30, 0
1, 461520, Note_on_c, 0, 42, 0
1, 461520, Note_on_c, 0, 75, 0
1, 461520, Note_on_c, 0, 81, 0
1, 461520, Note_on_c, 0, 84, 0
1, 461520, Note_on_c, 0, 87, 0
1, 462240, Note_on_c, 0, 54, 100
1, 462240, Note_on_c, 0, 57, 100
1, 462240, Note_on_c, 0, 60, 100
1, 462240, Note_on_c, 0, 63, 100
1, 462240, Note_on_c, 0, 66, 100
1, 462240, Note_on_c, 0, 69, 100
1, 462240, Note_on_c, 0, 72, 100
1, 462240, Note_on_c, 0, 75, 100
1, 462480, Note_on_c, 0, 54, 0
1, 462480, Note_on_c, 0, 57, 0
1, 462480, Note_on_c, 0, 60, 0
1, 462480, Note_on_c, 0, 63, 0
1, 462480, Note_on_c, 0, 66, 0
1, 462480, Note_on_c, 0, 69, 0
1, 462480, Note_on_c, 0, 72, 0
1, 462480, Note_on_c, 0, 75, 0
1, 463200, Note_on_c, 0, 55, 100
1, 463200, Note_on_c, 0, 60, 100
1, 463200, Note_on_c, 0, 63, 100
1, 463200, Note_on_c, 0, 67, 100
1, 463200, Note_on_c, 0, 72, 100
1, 463200, Note_on_c, 0, 75, 100
1, 463200, Note_on_c, 0, 79, 100
1, 463440, Note_on_c, 0, 55, 0
1, 463440, Note_on_c, 0, 60, 0
1, 463440, Note_on_c, 0, 63, 0
1, 463440, Note_on_c, 0, 67, 0
1, 463440, Note_on_c, 0, 72, 0
1, 463440, Note_on_c, 0, 75, 0
1, 463440, Note_on_c, 0, 79, 0
1, 464160, Note_on_c, 0, 31, 100
1, 464160, Note_on_c, 0, 35, 100
1, 464160, Note_on_c, 0, 38, 100
1, 464160, Note_on_c, 0, 43, 100
1, 464160, Note_on_c, 0, 50, 100
1, 464160, Note_on_c, 0, 53, 100
1, 464160, Note_on_c, 0, 55, 100
1, 464160, Note_on_c, 0, 59, 100
1, 464400, Note_on_c, 0, 31, 0
1, 464400, Note_on_c, 0, 35, 0
1, 464400, Note_on_c, 0, 38, 0
1, 464400, Note_on_c, 0, 43, 0
1, 464400, Note_on_c, 0, 50, 0
1, 464400, Note_on_c, 0, 53, 0
1, 464400, Note_on_c, 0, 55, 0
1, 464400, Note_on_c, 0, 59, 0
1, 465120, Note_on_c, 0, 36, 100
1, 465120, Note_on_c, 0, 39, 100
1, 465120, Note_on_c, 0, 43, 100
1, 465120, Note_on_c, 0, 48, 100
1, 465120, Note_on_c, 0, 51, 100
1, 465120, Note_on_c, 0, 55, 100
1, 465120, Note_on_c, 0, 60, 100
1, 465360, Note_on_c, 0, 36, 0
1, 465360, Note_on_c, 0, 39, 0
1, 465360, Note_on_c, 0, 43, 0
1, 465360, Note_on_c, 0, 48, 0
1, 465360, Note_on_c, 0, 51, 0
1, 465360, Note_on_c, 0, 55, 0
1, 465360, Note_on_c, 0, 60, 0
1, 465360, End_track
0, 0, End_of_file
